%TF.GenerationSoftware,KiCad,Pcbnew,10.0.4*%
%TF.CreationDate,2026-07-26T18:03:13-07:00*%
%TF.ProjectId,filled,66696c6c-6564-42e6-9b69-6361645f7063,rev?*%
%TF.SameCoordinates,Original*%
%TF.FileFunction,Legend,Top*%
%TF.FilePolarity,Positive*%
%FSLAX46Y46*%
G04 Gerber Fmt 4.6, Leading zero omitted, Abs format (unit mm)*
G04 Created by KiCad (PCBNEW 10.0.4) date 2026-07-26 18:03:13*
%MOMM*%
%LPD*%
G01*
G04 APERTURE LIST*
%ADD10C,0.150000*%
%ADD11C,0.250000*%
%ADD12C,0.260000*%
G04 APERTURE END LIST*
D10*
X2933333Y-63116033D02*
X2933333Y-62416033D01*
X2933333Y-62749366D02*
X3333333Y-62749366D01*
X3333333Y-63116033D02*
X3333333Y-62416033D01*
X3633333Y-62916033D02*
X3966666Y-62916033D01*
X3566666Y-63116033D02*
X3800000Y-62416033D01*
X3800000Y-62416033D02*
X4033333Y-63116033D01*
X4600000Y-63116033D02*
X4266666Y-63116033D01*
X4266666Y-63116033D02*
X4266666Y-62416033D01*
X5166667Y-63116033D02*
X4833333Y-63116033D01*
X4833333Y-63116033D02*
X4833333Y-62416033D01*
X6366666Y-58116033D02*
X6366666Y-58682700D01*
X6366666Y-58682700D02*
X6400000Y-58749366D01*
X6400000Y-58749366D02*
X6433333Y-58782700D01*
X6433333Y-58782700D02*
X6500000Y-58816033D01*
X6500000Y-58816033D02*
X6633333Y-58816033D01*
X6633333Y-58816033D02*
X6700000Y-58782700D01*
X6700000Y-58782700D02*
X6733333Y-58749366D01*
X6733333Y-58749366D02*
X6766666Y-58682700D01*
X6766666Y-58682700D02*
X6766666Y-58116033D01*
X7066666Y-58782700D02*
X7166666Y-58816033D01*
X7166666Y-58816033D02*
X7333333Y-58816033D01*
X7333333Y-58816033D02*
X7399999Y-58782700D01*
X7399999Y-58782700D02*
X7433333Y-58749366D01*
X7433333Y-58749366D02*
X7466666Y-58682700D01*
X7466666Y-58682700D02*
X7466666Y-58616033D01*
X7466666Y-58616033D02*
X7433333Y-58549366D01*
X7433333Y-58549366D02*
X7399999Y-58516033D01*
X7399999Y-58516033D02*
X7333333Y-58482700D01*
X7333333Y-58482700D02*
X7199999Y-58449366D01*
X7199999Y-58449366D02*
X7133333Y-58416033D01*
X7133333Y-58416033D02*
X7099999Y-58382700D01*
X7099999Y-58382700D02*
X7066666Y-58316033D01*
X7066666Y-58316033D02*
X7066666Y-58249366D01*
X7066666Y-58249366D02*
X7099999Y-58182700D01*
X7099999Y-58182700D02*
X7133333Y-58149366D01*
X7133333Y-58149366D02*
X7199999Y-58116033D01*
X7199999Y-58116033D02*
X7366666Y-58116033D01*
X7366666Y-58116033D02*
X7466666Y-58149366D01*
X8000000Y-58449366D02*
X8100000Y-58482700D01*
X8100000Y-58482700D02*
X8133333Y-58516033D01*
X8133333Y-58516033D02*
X8166666Y-58582700D01*
X8166666Y-58582700D02*
X8166666Y-58682700D01*
X8166666Y-58682700D02*
X8133333Y-58749366D01*
X8133333Y-58749366D02*
X8100000Y-58782700D01*
X8100000Y-58782700D02*
X8033333Y-58816033D01*
X8033333Y-58816033D02*
X7766666Y-58816033D01*
X7766666Y-58816033D02*
X7766666Y-58116033D01*
X7766666Y-58116033D02*
X8000000Y-58116033D01*
X8000000Y-58116033D02*
X8066666Y-58149366D01*
X8066666Y-58149366D02*
X8100000Y-58182700D01*
X8100000Y-58182700D02*
X8133333Y-58249366D01*
X8133333Y-58249366D02*
X8133333Y-58316033D01*
X8133333Y-58316033D02*
X8100000Y-58382700D01*
X8100000Y-58382700D02*
X8066666Y-58416033D01*
X8066666Y-58416033D02*
X8000000Y-58449366D01*
X8000000Y-58449366D02*
X7766666Y-58449366D01*
X8466666Y-58549366D02*
X9000000Y-58549366D01*
X9733333Y-58749366D02*
X9700000Y-58782700D01*
X9700000Y-58782700D02*
X9600000Y-58816033D01*
X9600000Y-58816033D02*
X9533333Y-58816033D01*
X9533333Y-58816033D02*
X9433333Y-58782700D01*
X9433333Y-58782700D02*
X9366667Y-58716033D01*
X9366667Y-58716033D02*
X9333333Y-58649366D01*
X9333333Y-58649366D02*
X9300000Y-58516033D01*
X9300000Y-58516033D02*
X9300000Y-58416033D01*
X9300000Y-58416033D02*
X9333333Y-58282700D01*
X9333333Y-58282700D02*
X9366667Y-58216033D01*
X9366667Y-58216033D02*
X9433333Y-58149366D01*
X9433333Y-58149366D02*
X9533333Y-58116033D01*
X9533333Y-58116033D02*
X9600000Y-58116033D01*
X9600000Y-58116033D02*
X9700000Y-58149366D01*
X9700000Y-58149366D02*
X9733333Y-58182700D01*
X10566666Y-58816033D02*
X10566666Y-58116033D01*
X10566666Y-58116033D02*
X10833333Y-58116033D01*
X10833333Y-58116033D02*
X10900000Y-58149366D01*
X10900000Y-58149366D02*
X10933333Y-58182700D01*
X10933333Y-58182700D02*
X10966666Y-58249366D01*
X10966666Y-58249366D02*
X10966666Y-58349366D01*
X10966666Y-58349366D02*
X10933333Y-58416033D01*
X10933333Y-58416033D02*
X10900000Y-58449366D01*
X10900000Y-58449366D02*
X10833333Y-58482700D01*
X10833333Y-58482700D02*
X10566666Y-58482700D01*
X11266666Y-58816033D02*
X11266666Y-58116033D01*
X11266666Y-58116033D02*
X11433333Y-58116033D01*
X11433333Y-58116033D02*
X11533333Y-58149366D01*
X11533333Y-58149366D02*
X11600000Y-58216033D01*
X11600000Y-58216033D02*
X11633333Y-58282700D01*
X11633333Y-58282700D02*
X11666666Y-58416033D01*
X11666666Y-58416033D02*
X11666666Y-58516033D01*
X11666666Y-58516033D02*
X11633333Y-58649366D01*
X11633333Y-58649366D02*
X11600000Y-58716033D01*
X11600000Y-58716033D02*
X11533333Y-58782700D01*
X11533333Y-58782700D02*
X11433333Y-58816033D01*
X11433333Y-58816033D02*
X11266666Y-58816033D01*
X21566667Y-70816033D02*
X21566667Y-70116033D01*
X21566667Y-70449366D02*
X21966667Y-70449366D01*
X21966667Y-70816033D02*
X21966667Y-70116033D01*
X22266667Y-70616033D02*
X22600000Y-70616033D01*
X22200000Y-70816033D02*
X22433334Y-70116033D01*
X22433334Y-70116033D02*
X22666667Y-70816033D01*
X23233334Y-70816033D02*
X22900000Y-70816033D01*
X22900000Y-70816033D02*
X22900000Y-70116033D01*
X23800001Y-70816033D02*
X23466667Y-70816033D01*
X23466667Y-70816033D02*
X23466667Y-70116033D01*
X24466667Y-70116033D02*
X24866667Y-70116033D01*
X24666667Y-70816033D02*
X24666667Y-70116033D01*
X25066667Y-70616033D02*
X25400000Y-70616033D01*
X25000000Y-70816033D02*
X25233334Y-70116033D01*
X25233334Y-70116033D02*
X25466667Y-70816033D01*
X25933334Y-70449366D02*
X26033334Y-70482700D01*
X26033334Y-70482700D02*
X26066667Y-70516033D01*
X26066667Y-70516033D02*
X26100000Y-70582700D01*
X26100000Y-70582700D02*
X26100000Y-70682700D01*
X26100000Y-70682700D02*
X26066667Y-70749366D01*
X26066667Y-70749366D02*
X26033334Y-70782700D01*
X26033334Y-70782700D02*
X25966667Y-70816033D01*
X25966667Y-70816033D02*
X25700000Y-70816033D01*
X25700000Y-70816033D02*
X25700000Y-70116033D01*
X25700000Y-70116033D02*
X25933334Y-70116033D01*
X25933334Y-70116033D02*
X26000000Y-70149366D01*
X26000000Y-70149366D02*
X26033334Y-70182700D01*
X26033334Y-70182700D02*
X26066667Y-70249366D01*
X26066667Y-70249366D02*
X26066667Y-70316033D01*
X26066667Y-70316033D02*
X26033334Y-70382700D01*
X26033334Y-70382700D02*
X26000000Y-70416033D01*
X26000000Y-70416033D02*
X25933334Y-70449366D01*
X25933334Y-70449366D02*
X25700000Y-70449366D01*
X26933333Y-70549366D02*
X27466667Y-70549366D01*
X28300000Y-70782700D02*
X28366667Y-70816033D01*
X28366667Y-70816033D02*
X28500000Y-70816033D01*
X28500000Y-70816033D02*
X28566667Y-70782700D01*
X28566667Y-70782700D02*
X28600000Y-70716033D01*
X28600000Y-70716033D02*
X28600000Y-70682700D01*
X28600000Y-70682700D02*
X28566667Y-70616033D01*
X28566667Y-70616033D02*
X28500000Y-70582700D01*
X28500000Y-70582700D02*
X28400000Y-70582700D01*
X28400000Y-70582700D02*
X28333333Y-70549366D01*
X28333333Y-70549366D02*
X28300000Y-70482700D01*
X28300000Y-70482700D02*
X28300000Y-70449366D01*
X28300000Y-70449366D02*
X28333333Y-70382700D01*
X28333333Y-70382700D02*
X28400000Y-70349366D01*
X28400000Y-70349366D02*
X28500000Y-70349366D01*
X28500000Y-70349366D02*
X28566667Y-70382700D01*
X28900000Y-70349366D02*
X28900000Y-70816033D01*
X28900000Y-70416033D02*
X28933334Y-70382700D01*
X28933334Y-70382700D02*
X29000000Y-70349366D01*
X29000000Y-70349366D02*
X29100000Y-70349366D01*
X29100000Y-70349366D02*
X29166667Y-70382700D01*
X29166667Y-70382700D02*
X29200000Y-70449366D01*
X29200000Y-70449366D02*
X29200000Y-70816033D01*
X29833333Y-70816033D02*
X29833333Y-70449366D01*
X29833333Y-70449366D02*
X29800000Y-70382700D01*
X29800000Y-70382700D02*
X29733333Y-70349366D01*
X29733333Y-70349366D02*
X29600000Y-70349366D01*
X29600000Y-70349366D02*
X29533333Y-70382700D01*
X29833333Y-70782700D02*
X29766667Y-70816033D01*
X29766667Y-70816033D02*
X29600000Y-70816033D01*
X29600000Y-70816033D02*
X29533333Y-70782700D01*
X29533333Y-70782700D02*
X29500000Y-70716033D01*
X29500000Y-70716033D02*
X29500000Y-70649366D01*
X29500000Y-70649366D02*
X29533333Y-70582700D01*
X29533333Y-70582700D02*
X29600000Y-70549366D01*
X29600000Y-70549366D02*
X29766667Y-70549366D01*
X29766667Y-70549366D02*
X29833333Y-70516033D01*
X30166666Y-70349366D02*
X30166666Y-71049366D01*
X30166666Y-70382700D02*
X30233333Y-70349366D01*
X30233333Y-70349366D02*
X30366666Y-70349366D01*
X30366666Y-70349366D02*
X30433333Y-70382700D01*
X30433333Y-70382700D02*
X30466666Y-70416033D01*
X30466666Y-70416033D02*
X30500000Y-70482700D01*
X30500000Y-70482700D02*
X30500000Y-70682700D01*
X30500000Y-70682700D02*
X30466666Y-70749366D01*
X30466666Y-70749366D02*
X30433333Y-70782700D01*
X30433333Y-70782700D02*
X30366666Y-70816033D01*
X30366666Y-70816033D02*
X30233333Y-70816033D01*
X30233333Y-70816033D02*
X30166666Y-70782700D01*
X31433332Y-70816033D02*
X31366666Y-70782700D01*
X31366666Y-70782700D02*
X31333332Y-70749366D01*
X31333332Y-70749366D02*
X31299999Y-70682700D01*
X31299999Y-70682700D02*
X31299999Y-70482700D01*
X31299999Y-70482700D02*
X31333332Y-70416033D01*
X31333332Y-70416033D02*
X31366666Y-70382700D01*
X31366666Y-70382700D02*
X31433332Y-70349366D01*
X31433332Y-70349366D02*
X31533332Y-70349366D01*
X31533332Y-70349366D02*
X31599999Y-70382700D01*
X31599999Y-70382700D02*
X31633332Y-70416033D01*
X31633332Y-70416033D02*
X31666666Y-70482700D01*
X31666666Y-70482700D02*
X31666666Y-70682700D01*
X31666666Y-70682700D02*
X31633332Y-70749366D01*
X31633332Y-70749366D02*
X31599999Y-70782700D01*
X31599999Y-70782700D02*
X31533332Y-70816033D01*
X31533332Y-70816033D02*
X31433332Y-70816033D01*
X31866665Y-70349366D02*
X32133332Y-70349366D01*
X31966665Y-70816033D02*
X31966665Y-70216033D01*
X31966665Y-70216033D02*
X31999999Y-70149366D01*
X31999999Y-70149366D02*
X32066665Y-70116033D01*
X32066665Y-70116033D02*
X32133332Y-70116033D01*
X32266665Y-70349366D02*
X32533332Y-70349366D01*
X32366665Y-70816033D02*
X32366665Y-70216033D01*
X32366665Y-70216033D02*
X32399999Y-70149366D01*
X32399999Y-70149366D02*
X32466665Y-70116033D01*
X32466665Y-70116033D02*
X32533332Y-70116033D01*
X27216667Y-3549366D02*
X27316667Y-3582700D01*
X27316667Y-3582700D02*
X27350000Y-3616033D01*
X27350000Y-3616033D02*
X27383333Y-3682700D01*
X27383333Y-3682700D02*
X27383333Y-3782700D01*
X27383333Y-3782700D02*
X27350000Y-3849366D01*
X27350000Y-3849366D02*
X27316667Y-3882700D01*
X27316667Y-3882700D02*
X27250000Y-3916033D01*
X27250000Y-3916033D02*
X26983333Y-3916033D01*
X26983333Y-3916033D02*
X26983333Y-3216033D01*
X26983333Y-3216033D02*
X27216667Y-3216033D01*
X27216667Y-3216033D02*
X27283333Y-3249366D01*
X27283333Y-3249366D02*
X27316667Y-3282700D01*
X27316667Y-3282700D02*
X27350000Y-3349366D01*
X27350000Y-3349366D02*
X27350000Y-3416033D01*
X27350000Y-3416033D02*
X27316667Y-3482700D01*
X27316667Y-3482700D02*
X27283333Y-3516033D01*
X27283333Y-3516033D02*
X27216667Y-3549366D01*
X27216667Y-3549366D02*
X26983333Y-3549366D01*
X27650000Y-3716033D02*
X27983333Y-3716033D01*
X27583333Y-3916033D02*
X27816667Y-3216033D01*
X27816667Y-3216033D02*
X28050000Y-3916033D01*
X28183333Y-3216033D02*
X28583333Y-3216033D01*
X28383333Y-3916033D02*
X28383333Y-3216033D01*
X29316666Y-3282700D02*
X29349999Y-3249366D01*
X29349999Y-3249366D02*
X29416666Y-3216033D01*
X29416666Y-3216033D02*
X29583333Y-3216033D01*
X29583333Y-3216033D02*
X29649999Y-3249366D01*
X29649999Y-3249366D02*
X29683333Y-3282700D01*
X29683333Y-3282700D02*
X29716666Y-3349366D01*
X29716666Y-3349366D02*
X29716666Y-3416033D01*
X29716666Y-3416033D02*
X29683333Y-3516033D01*
X29683333Y-3516033D02*
X29283333Y-3916033D01*
X29283333Y-3916033D02*
X29716666Y-3916033D01*
X29983333Y-3882700D02*
X30083333Y-3916033D01*
X30083333Y-3916033D02*
X30250000Y-3916033D01*
X30250000Y-3916033D02*
X30316666Y-3882700D01*
X30316666Y-3882700D02*
X30350000Y-3849366D01*
X30350000Y-3849366D02*
X30383333Y-3782700D01*
X30383333Y-3782700D02*
X30383333Y-3716033D01*
X30383333Y-3716033D02*
X30350000Y-3649366D01*
X30350000Y-3649366D02*
X30316666Y-3616033D01*
X30316666Y-3616033D02*
X30250000Y-3582700D01*
X30250000Y-3582700D02*
X30116666Y-3549366D01*
X30116666Y-3549366D02*
X30050000Y-3516033D01*
X30050000Y-3516033D02*
X30016666Y-3482700D01*
X30016666Y-3482700D02*
X29983333Y-3416033D01*
X29983333Y-3416033D02*
X29983333Y-3349366D01*
X29983333Y-3349366D02*
X30016666Y-3282700D01*
X30016666Y-3282700D02*
X30050000Y-3249366D01*
X30050000Y-3249366D02*
X30116666Y-3216033D01*
X30116666Y-3216033D02*
X30283333Y-3216033D01*
X30283333Y-3216033D02*
X30383333Y-3249366D01*
X31749999Y-3649366D02*
X32283333Y-3649366D01*
X32016666Y-3916033D02*
X32016666Y-3382700D01*
X33149999Y-3916033D02*
X33149999Y-3216033D01*
X33149999Y-3216033D02*
X33383333Y-3716033D01*
X33383333Y-3716033D02*
X33616666Y-3216033D01*
X33616666Y-3216033D02*
X33616666Y-3916033D01*
X34483332Y-3649366D02*
X35016666Y-3649366D01*
X32416667Y-63116033D02*
X32416667Y-62416033D01*
X32416667Y-62416033D02*
X32650001Y-62916033D01*
X32650001Y-62916033D02*
X32883334Y-62416033D01*
X32883334Y-62416033D02*
X32883334Y-63116033D01*
X33350001Y-62416033D02*
X33483334Y-62416033D01*
X33483334Y-62416033D02*
X33550001Y-62449366D01*
X33550001Y-62449366D02*
X33616667Y-62516033D01*
X33616667Y-62516033D02*
X33650001Y-62649366D01*
X33650001Y-62649366D02*
X33650001Y-62882700D01*
X33650001Y-62882700D02*
X33616667Y-63016033D01*
X33616667Y-63016033D02*
X33550001Y-63082700D01*
X33550001Y-63082700D02*
X33483334Y-63116033D01*
X33483334Y-63116033D02*
X33350001Y-63116033D01*
X33350001Y-63116033D02*
X33283334Y-63082700D01*
X33283334Y-63082700D02*
X33216667Y-63016033D01*
X33216667Y-63016033D02*
X33183334Y-62882700D01*
X33183334Y-62882700D02*
X33183334Y-62649366D01*
X33183334Y-62649366D02*
X33216667Y-62516033D01*
X33216667Y-62516033D02*
X33283334Y-62449366D01*
X33283334Y-62449366D02*
X33350001Y-62416033D01*
X33850000Y-62416033D02*
X34250000Y-62416033D01*
X34050000Y-63116033D02*
X34050000Y-62416033D01*
X34616667Y-62416033D02*
X34750000Y-62416033D01*
X34750000Y-62416033D02*
X34816667Y-62449366D01*
X34816667Y-62449366D02*
X34883333Y-62516033D01*
X34883333Y-62516033D02*
X34916667Y-62649366D01*
X34916667Y-62649366D02*
X34916667Y-62882700D01*
X34916667Y-62882700D02*
X34883333Y-63016033D01*
X34883333Y-63016033D02*
X34816667Y-63082700D01*
X34816667Y-63082700D02*
X34750000Y-63116033D01*
X34750000Y-63116033D02*
X34616667Y-63116033D01*
X34616667Y-63116033D02*
X34550000Y-63082700D01*
X34550000Y-63082700D02*
X34483333Y-63016033D01*
X34483333Y-63016033D02*
X34450000Y-62882700D01*
X34450000Y-62882700D02*
X34450000Y-62649366D01*
X34450000Y-62649366D02*
X34483333Y-62516033D01*
X34483333Y-62516033D02*
X34550000Y-62449366D01*
X34550000Y-62449366D02*
X34616667Y-62416033D01*
X35616666Y-63116033D02*
X35383333Y-62782700D01*
X35216666Y-63116033D02*
X35216666Y-62416033D01*
X35216666Y-62416033D02*
X35483333Y-62416033D01*
X35483333Y-62416033D02*
X35550000Y-62449366D01*
X35550000Y-62449366D02*
X35583333Y-62482700D01*
X35583333Y-62482700D02*
X35616666Y-62549366D01*
X35616666Y-62549366D02*
X35616666Y-62649366D01*
X35616666Y-62649366D02*
X35583333Y-62716033D01*
X35583333Y-62716033D02*
X35550000Y-62749366D01*
X35550000Y-62749366D02*
X35483333Y-62782700D01*
X35483333Y-62782700D02*
X35216666Y-62782700D01*
X28890476Y-20962295D02*
X28966666Y-20962295D01*
X28966666Y-20962295D02*
X29042857Y-21000390D01*
X29042857Y-21000390D02*
X29080952Y-21038485D01*
X29080952Y-21038485D02*
X29119047Y-21114676D01*
X29119047Y-21114676D02*
X29157142Y-21267057D01*
X29157142Y-21267057D02*
X29157142Y-21457533D01*
X29157142Y-21457533D02*
X29119047Y-21609914D01*
X29119047Y-21609914D02*
X29080952Y-21686104D01*
X29080952Y-21686104D02*
X29042857Y-21724200D01*
X29042857Y-21724200D02*
X28966666Y-21762295D01*
X28966666Y-21762295D02*
X28890476Y-21762295D01*
X28890476Y-21762295D02*
X28814285Y-21724200D01*
X28814285Y-21724200D02*
X28776190Y-21686104D01*
X28776190Y-21686104D02*
X28738095Y-21609914D01*
X28738095Y-21609914D02*
X28699999Y-21457533D01*
X28699999Y-21457533D02*
X28699999Y-21267057D01*
X28699999Y-21267057D02*
X28738095Y-21114676D01*
X28738095Y-21114676D02*
X28776190Y-21038485D01*
X28776190Y-21038485D02*
X28814285Y-21000390D01*
X28814285Y-21000390D02*
X28890476Y-20962295D01*
X29423809Y-21762295D02*
X29842857Y-21228961D01*
X29423809Y-21228961D02*
X29842857Y-21762295D01*
X30490476Y-20962295D02*
X30338095Y-20962295D01*
X30338095Y-20962295D02*
X30261904Y-21000390D01*
X30261904Y-21000390D02*
X30223809Y-21038485D01*
X30223809Y-21038485D02*
X30147619Y-21152771D01*
X30147619Y-21152771D02*
X30109523Y-21305152D01*
X30109523Y-21305152D02*
X30109523Y-21609914D01*
X30109523Y-21609914D02*
X30147619Y-21686104D01*
X30147619Y-21686104D02*
X30185714Y-21724200D01*
X30185714Y-21724200D02*
X30261904Y-21762295D01*
X30261904Y-21762295D02*
X30414285Y-21762295D01*
X30414285Y-21762295D02*
X30490476Y-21724200D01*
X30490476Y-21724200D02*
X30528571Y-21686104D01*
X30528571Y-21686104D02*
X30566666Y-21609914D01*
X30566666Y-21609914D02*
X30566666Y-21419438D01*
X30566666Y-21419438D02*
X30528571Y-21343247D01*
X30528571Y-21343247D02*
X30490476Y-21305152D01*
X30490476Y-21305152D02*
X30414285Y-21267057D01*
X30414285Y-21267057D02*
X30261904Y-21267057D01*
X30261904Y-21267057D02*
X30185714Y-21305152D01*
X30185714Y-21305152D02*
X30147619Y-21343247D01*
X30147619Y-21343247D02*
X30109523Y-21419438D01*
X30833333Y-20962295D02*
X31328571Y-20962295D01*
X31328571Y-20962295D02*
X31061905Y-21267057D01*
X31061905Y-21267057D02*
X31176190Y-21267057D01*
X31176190Y-21267057D02*
X31252381Y-21305152D01*
X31252381Y-21305152D02*
X31290476Y-21343247D01*
X31290476Y-21343247D02*
X31328571Y-21419438D01*
X31328571Y-21419438D02*
X31328571Y-21609914D01*
X31328571Y-21609914D02*
X31290476Y-21686104D01*
X31290476Y-21686104D02*
X31252381Y-21724200D01*
X31252381Y-21724200D02*
X31176190Y-21762295D01*
X31176190Y-21762295D02*
X30947619Y-21762295D01*
X30947619Y-21762295D02*
X30871428Y-21724200D01*
X30871428Y-21724200D02*
X30833333Y-21686104D01*
X32014286Y-20962295D02*
X31861905Y-20962295D01*
X31861905Y-20962295D02*
X31785714Y-21000390D01*
X31785714Y-21000390D02*
X31747619Y-21038485D01*
X31747619Y-21038485D02*
X31671429Y-21152771D01*
X31671429Y-21152771D02*
X31633333Y-21305152D01*
X31633333Y-21305152D02*
X31633333Y-21609914D01*
X31633333Y-21609914D02*
X31671429Y-21686104D01*
X31671429Y-21686104D02*
X31709524Y-21724200D01*
X31709524Y-21724200D02*
X31785714Y-21762295D01*
X31785714Y-21762295D02*
X31938095Y-21762295D01*
X31938095Y-21762295D02*
X32014286Y-21724200D01*
X32014286Y-21724200D02*
X32052381Y-21686104D01*
X32052381Y-21686104D02*
X32090476Y-21609914D01*
X32090476Y-21609914D02*
X32090476Y-21419438D01*
X32090476Y-21419438D02*
X32052381Y-21343247D01*
X32052381Y-21343247D02*
X32014286Y-21305152D01*
X32014286Y-21305152D02*
X31938095Y-21267057D01*
X31938095Y-21267057D02*
X31785714Y-21267057D01*
X31785714Y-21267057D02*
X31709524Y-21305152D01*
X31709524Y-21305152D02*
X31671429Y-21343247D01*
X31671429Y-21343247D02*
X31633333Y-21419438D01*
X32852381Y-21762295D02*
X32395238Y-21762295D01*
X32623810Y-21762295D02*
X32623810Y-20962295D01*
X32623810Y-20962295D02*
X32547619Y-21076580D01*
X32547619Y-21076580D02*
X32471429Y-21152771D01*
X32471429Y-21152771D02*
X32395238Y-21190866D01*
X33538096Y-20962295D02*
X33385715Y-20962295D01*
X33385715Y-20962295D02*
X33309524Y-21000390D01*
X33309524Y-21000390D02*
X33271429Y-21038485D01*
X33271429Y-21038485D02*
X33195239Y-21152771D01*
X33195239Y-21152771D02*
X33157143Y-21305152D01*
X33157143Y-21305152D02*
X33157143Y-21609914D01*
X33157143Y-21609914D02*
X33195239Y-21686104D01*
X33195239Y-21686104D02*
X33233334Y-21724200D01*
X33233334Y-21724200D02*
X33309524Y-21762295D01*
X33309524Y-21762295D02*
X33461905Y-21762295D01*
X33461905Y-21762295D02*
X33538096Y-21724200D01*
X33538096Y-21724200D02*
X33576191Y-21686104D01*
X33576191Y-21686104D02*
X33614286Y-21609914D01*
X33614286Y-21609914D02*
X33614286Y-21419438D01*
X33614286Y-21419438D02*
X33576191Y-21343247D01*
X33576191Y-21343247D02*
X33538096Y-21305152D01*
X33538096Y-21305152D02*
X33461905Y-21267057D01*
X33461905Y-21267057D02*
X33309524Y-21267057D01*
X33309524Y-21267057D02*
X33233334Y-21305152D01*
X33233334Y-21305152D02*
X33195239Y-21343247D01*
X33195239Y-21343247D02*
X33157143Y-21419438D01*
X34300001Y-21724200D02*
X34223810Y-21762295D01*
X34223810Y-21762295D02*
X34071429Y-21762295D01*
X34071429Y-21762295D02*
X33995239Y-21724200D01*
X33995239Y-21724200D02*
X33957144Y-21686104D01*
X33957144Y-21686104D02*
X33919048Y-21609914D01*
X33919048Y-21609914D02*
X33919048Y-21381342D01*
X33919048Y-21381342D02*
X33957144Y-21305152D01*
X33957144Y-21305152D02*
X33995239Y-21267057D01*
X33995239Y-21267057D02*
X34071429Y-21228961D01*
X34071429Y-21228961D02*
X34223810Y-21228961D01*
X34223810Y-21228961D02*
X34300001Y-21267057D01*
X31371429Y-4162295D02*
X31371429Y-4809914D01*
X31371429Y-4809914D02*
X31409524Y-4886104D01*
X31409524Y-4886104D02*
X31447619Y-4924200D01*
X31447619Y-4924200D02*
X31523810Y-4962295D01*
X31523810Y-4962295D02*
X31676191Y-4962295D01*
X31676191Y-4962295D02*
X31752381Y-4924200D01*
X31752381Y-4924200D02*
X31790476Y-4886104D01*
X31790476Y-4886104D02*
X31828572Y-4809914D01*
X31828572Y-4809914D02*
X31828572Y-4162295D01*
X32209524Y-4962295D02*
X32209524Y-4162295D01*
X32209524Y-4162295D02*
X32514286Y-4162295D01*
X32514286Y-4162295D02*
X32590476Y-4200390D01*
X32590476Y-4200390D02*
X32628571Y-4238485D01*
X32628571Y-4238485D02*
X32666667Y-4314676D01*
X32666667Y-4314676D02*
X32666667Y-4428961D01*
X32666667Y-4428961D02*
X32628571Y-4505152D01*
X32628571Y-4505152D02*
X32590476Y-4543247D01*
X32590476Y-4543247D02*
X32514286Y-4581342D01*
X32514286Y-4581342D02*
X32209524Y-4581342D01*
X30495238Y-19862295D02*
X30495238Y-19062295D01*
X30495238Y-19062295D02*
X30685714Y-19062295D01*
X30685714Y-19062295D02*
X30800000Y-19100390D01*
X30800000Y-19100390D02*
X30876190Y-19176580D01*
X30876190Y-19176580D02*
X30914285Y-19252771D01*
X30914285Y-19252771D02*
X30952381Y-19405152D01*
X30952381Y-19405152D02*
X30952381Y-19519438D01*
X30952381Y-19519438D02*
X30914285Y-19671819D01*
X30914285Y-19671819D02*
X30876190Y-19748009D01*
X30876190Y-19748009D02*
X30800000Y-19824200D01*
X30800000Y-19824200D02*
X30685714Y-19862295D01*
X30685714Y-19862295D02*
X30495238Y-19862295D01*
X31447619Y-19062295D02*
X31600000Y-19062295D01*
X31600000Y-19062295D02*
X31676190Y-19100390D01*
X31676190Y-19100390D02*
X31752381Y-19176580D01*
X31752381Y-19176580D02*
X31790476Y-19328961D01*
X31790476Y-19328961D02*
X31790476Y-19595628D01*
X31790476Y-19595628D02*
X31752381Y-19748009D01*
X31752381Y-19748009D02*
X31676190Y-19824200D01*
X31676190Y-19824200D02*
X31600000Y-19862295D01*
X31600000Y-19862295D02*
X31447619Y-19862295D01*
X31447619Y-19862295D02*
X31371428Y-19824200D01*
X31371428Y-19824200D02*
X31295238Y-19748009D01*
X31295238Y-19748009D02*
X31257142Y-19595628D01*
X31257142Y-19595628D02*
X31257142Y-19328961D01*
X31257142Y-19328961D02*
X31295238Y-19176580D01*
X31295238Y-19176580D02*
X31371428Y-19100390D01*
X31371428Y-19100390D02*
X31447619Y-19062295D01*
X32057142Y-19062295D02*
X32247618Y-19862295D01*
X32247618Y-19862295D02*
X32399999Y-19290866D01*
X32399999Y-19290866D02*
X32552380Y-19862295D01*
X32552380Y-19862295D02*
X32742857Y-19062295D01*
X33047619Y-19862295D02*
X33047619Y-19062295D01*
X33047619Y-19062295D02*
X33504762Y-19862295D01*
X33504762Y-19862295D02*
X33504762Y-19062295D01*
X3292857Y-23937128D02*
X3421429Y-23979985D01*
X3421429Y-23979985D02*
X3464286Y-24022842D01*
X3464286Y-24022842D02*
X3507143Y-24108557D01*
X3507143Y-24108557D02*
X3507143Y-24237128D01*
X3507143Y-24237128D02*
X3464286Y-24322842D01*
X3464286Y-24322842D02*
X3421429Y-24365700D01*
X3421429Y-24365700D02*
X3335714Y-24408557D01*
X3335714Y-24408557D02*
X2992857Y-24408557D01*
X2992857Y-24408557D02*
X2992857Y-23508557D01*
X2992857Y-23508557D02*
X3292857Y-23508557D01*
X3292857Y-23508557D02*
X3378572Y-23551414D01*
X3378572Y-23551414D02*
X3421429Y-23594271D01*
X3421429Y-23594271D02*
X3464286Y-23679985D01*
X3464286Y-23679985D02*
X3464286Y-23765700D01*
X3464286Y-23765700D02*
X3421429Y-23851414D01*
X3421429Y-23851414D02*
X3378572Y-23894271D01*
X3378572Y-23894271D02*
X3292857Y-23937128D01*
X3292857Y-23937128D02*
X2992857Y-23937128D01*
X4321429Y-24408557D02*
X3892857Y-24408557D01*
X3892857Y-24408557D02*
X3892857Y-23508557D01*
X4621428Y-24408557D02*
X4621428Y-23508557D01*
X5049999Y-24408557D02*
X5049999Y-23508557D01*
X5049999Y-23508557D02*
X5564285Y-24408557D01*
X5564285Y-24408557D02*
X5564285Y-23508557D01*
X5992856Y-24408557D02*
X5992856Y-23508557D01*
X5992856Y-23508557D02*
X6207142Y-23508557D01*
X6207142Y-23508557D02*
X6335713Y-23551414D01*
X6335713Y-23551414D02*
X6421428Y-23637128D01*
X6421428Y-23637128D02*
X6464285Y-23722842D01*
X6464285Y-23722842D02*
X6507142Y-23894271D01*
X6507142Y-23894271D02*
X6507142Y-24022842D01*
X6507142Y-24022842D02*
X6464285Y-24194271D01*
X6464285Y-24194271D02*
X6421428Y-24279985D01*
X6421428Y-24279985D02*
X6335713Y-24365700D01*
X6335713Y-24365700D02*
X6207142Y-24408557D01*
X6207142Y-24408557D02*
X5992856Y-24408557D01*
X6849999Y-24365700D02*
X6978571Y-24408557D01*
X6978571Y-24408557D02*
X7192856Y-24408557D01*
X7192856Y-24408557D02*
X7278571Y-24365700D01*
X7278571Y-24365700D02*
X7321428Y-24322842D01*
X7321428Y-24322842D02*
X7364285Y-24237128D01*
X7364285Y-24237128D02*
X7364285Y-24151414D01*
X7364285Y-24151414D02*
X7321428Y-24065700D01*
X7321428Y-24065700D02*
X7278571Y-24022842D01*
X7278571Y-24022842D02*
X7192856Y-23979985D01*
X7192856Y-23979985D02*
X7021428Y-23937128D01*
X7021428Y-23937128D02*
X6935713Y-23894271D01*
X6935713Y-23894271D02*
X6892856Y-23851414D01*
X6892856Y-23851414D02*
X6849999Y-23765700D01*
X6849999Y-23765700D02*
X6849999Y-23679985D01*
X6849999Y-23679985D02*
X6892856Y-23594271D01*
X6892856Y-23594271D02*
X6935713Y-23551414D01*
X6935713Y-23551414D02*
X7021428Y-23508557D01*
X7021428Y-23508557D02*
X7235713Y-23508557D01*
X7235713Y-23508557D02*
X7364285Y-23551414D01*
X8435713Y-24408557D02*
X8435713Y-23508557D01*
X8435713Y-23508557D02*
X8649999Y-23508557D01*
X8649999Y-23508557D02*
X8778570Y-23551414D01*
X8778570Y-23551414D02*
X8864285Y-23637128D01*
X8864285Y-23637128D02*
X8907142Y-23722842D01*
X8907142Y-23722842D02*
X8949999Y-23894271D01*
X8949999Y-23894271D02*
X8949999Y-24022842D01*
X8949999Y-24022842D02*
X8907142Y-24194271D01*
X8907142Y-24194271D02*
X8864285Y-24279985D01*
X8864285Y-24279985D02*
X8778570Y-24365700D01*
X8778570Y-24365700D02*
X8649999Y-24408557D01*
X8649999Y-24408557D02*
X8435713Y-24408557D01*
X9849999Y-24408557D02*
X9549999Y-23979985D01*
X9335713Y-24408557D02*
X9335713Y-23508557D01*
X9335713Y-23508557D02*
X9678570Y-23508557D01*
X9678570Y-23508557D02*
X9764285Y-23551414D01*
X9764285Y-23551414D02*
X9807142Y-23594271D01*
X9807142Y-23594271D02*
X9849999Y-23679985D01*
X9849999Y-23679985D02*
X9849999Y-23808557D01*
X9849999Y-23808557D02*
X9807142Y-23894271D01*
X9807142Y-23894271D02*
X9764285Y-23937128D01*
X9764285Y-23937128D02*
X9678570Y-23979985D01*
X9678570Y-23979985D02*
X9335713Y-23979985D01*
X10235713Y-24408557D02*
X10235713Y-23508557D01*
X10535713Y-23508557D02*
X10835713Y-24408557D01*
X10835713Y-24408557D02*
X11135713Y-23508557D01*
X11435713Y-23937128D02*
X11735713Y-23937128D01*
X11864285Y-24408557D02*
X11435713Y-24408557D01*
X11435713Y-24408557D02*
X11435713Y-23508557D01*
X11435713Y-23508557D02*
X11864285Y-23508557D01*
X12764285Y-24408557D02*
X12464285Y-23979985D01*
X12249999Y-24408557D02*
X12249999Y-23508557D01*
X12249999Y-23508557D02*
X12592856Y-23508557D01*
X12592856Y-23508557D02*
X12678571Y-23551414D01*
X12678571Y-23551414D02*
X12721428Y-23594271D01*
X12721428Y-23594271D02*
X12764285Y-23679985D01*
X12764285Y-23679985D02*
X12764285Y-23808557D01*
X12764285Y-23808557D02*
X12721428Y-23894271D01*
X12721428Y-23894271D02*
X12678571Y-23937128D01*
X12678571Y-23937128D02*
X12592856Y-23979985D01*
X12592856Y-23979985D02*
X12249999Y-23979985D01*
X13835713Y-24408557D02*
X13835713Y-23808557D01*
X13835713Y-23979985D02*
X13878570Y-23894271D01*
X13878570Y-23894271D02*
X13921428Y-23851414D01*
X13921428Y-23851414D02*
X14007142Y-23808557D01*
X14007142Y-23808557D02*
X14092856Y-23808557D01*
X14735713Y-24365700D02*
X14649999Y-24408557D01*
X14649999Y-24408557D02*
X14478571Y-24408557D01*
X14478571Y-24408557D02*
X14392856Y-24365700D01*
X14392856Y-24365700D02*
X14349999Y-24279985D01*
X14349999Y-24279985D02*
X14349999Y-23937128D01*
X14349999Y-23937128D02*
X14392856Y-23851414D01*
X14392856Y-23851414D02*
X14478571Y-23808557D01*
X14478571Y-23808557D02*
X14649999Y-23808557D01*
X14649999Y-23808557D02*
X14735713Y-23851414D01*
X14735713Y-23851414D02*
X14778571Y-23937128D01*
X14778571Y-23937128D02*
X14778571Y-24022842D01*
X14778571Y-24022842D02*
X14349999Y-24108557D01*
X15078571Y-23808557D02*
X15292857Y-24408557D01*
X15292857Y-24408557D02*
X15507142Y-23808557D01*
X16835713Y-23937128D02*
X16964285Y-23979985D01*
X16964285Y-23979985D02*
X17007142Y-24022842D01*
X17007142Y-24022842D02*
X17049999Y-24108557D01*
X17049999Y-24108557D02*
X17049999Y-24237128D01*
X17049999Y-24237128D02*
X17007142Y-24322842D01*
X17007142Y-24322842D02*
X16964285Y-24365700D01*
X16964285Y-24365700D02*
X16878570Y-24408557D01*
X16878570Y-24408557D02*
X16535713Y-24408557D01*
X16535713Y-24408557D02*
X16535713Y-23508557D01*
X16535713Y-23508557D02*
X16835713Y-23508557D01*
X16835713Y-23508557D02*
X16921428Y-23551414D01*
X16921428Y-23551414D02*
X16964285Y-23594271D01*
X16964285Y-23594271D02*
X17007142Y-23679985D01*
X17007142Y-23679985D02*
X17007142Y-23765700D01*
X17007142Y-23765700D02*
X16964285Y-23851414D01*
X16964285Y-23851414D02*
X16921428Y-23894271D01*
X16921428Y-23894271D02*
X16835713Y-23937128D01*
X16835713Y-23937128D02*
X16535713Y-23937128D01*
X17567142Y-53359580D02*
X17519523Y-53407200D01*
X17519523Y-53407200D02*
X17376666Y-53454819D01*
X17376666Y-53454819D02*
X17281428Y-53454819D01*
X17281428Y-53454819D02*
X17138571Y-53407200D01*
X17138571Y-53407200D02*
X17043333Y-53311961D01*
X17043333Y-53311961D02*
X16995714Y-53216723D01*
X16995714Y-53216723D02*
X16948095Y-53026247D01*
X16948095Y-53026247D02*
X16948095Y-52883390D01*
X16948095Y-52883390D02*
X16995714Y-52692914D01*
X16995714Y-52692914D02*
X17043333Y-52597676D01*
X17043333Y-52597676D02*
X17138571Y-52502438D01*
X17138571Y-52502438D02*
X17281428Y-52454819D01*
X17281428Y-52454819D02*
X17376666Y-52454819D01*
X17376666Y-52454819D02*
X17519523Y-52502438D01*
X17519523Y-52502438D02*
X17567142Y-52550057D01*
X18519523Y-53454819D02*
X17948095Y-53454819D01*
X18233809Y-53454819D02*
X18233809Y-52454819D01*
X18233809Y-52454819D02*
X18138571Y-52597676D01*
X18138571Y-52597676D02*
X18043333Y-52692914D01*
X18043333Y-52692914D02*
X17948095Y-52740533D01*
X18995714Y-53454819D02*
X19186190Y-53454819D01*
X19186190Y-53454819D02*
X19281428Y-53407200D01*
X19281428Y-53407200D02*
X19329047Y-53359580D01*
X19329047Y-53359580D02*
X19424285Y-53216723D01*
X19424285Y-53216723D02*
X19471904Y-53026247D01*
X19471904Y-53026247D02*
X19471904Y-52645295D01*
X19471904Y-52645295D02*
X19424285Y-52550057D01*
X19424285Y-52550057D02*
X19376666Y-52502438D01*
X19376666Y-52502438D02*
X19281428Y-52454819D01*
X19281428Y-52454819D02*
X19090952Y-52454819D01*
X19090952Y-52454819D02*
X18995714Y-52502438D01*
X18995714Y-52502438D02*
X18948095Y-52550057D01*
X18948095Y-52550057D02*
X18900476Y-52645295D01*
X18900476Y-52645295D02*
X18900476Y-52883390D01*
X18900476Y-52883390D02*
X18948095Y-52978628D01*
X18948095Y-52978628D02*
X18995714Y-53026247D01*
X18995714Y-53026247D02*
X19090952Y-53073866D01*
X19090952Y-53073866D02*
X19281428Y-53073866D01*
X19281428Y-53073866D02*
X19376666Y-53026247D01*
X19376666Y-53026247D02*
X19424285Y-52978628D01*
X19424285Y-52978628D02*
X19471904Y-52883390D01*
X-232857Y-52954819D02*
X-566190Y-52478628D01*
X-804285Y-52954819D02*
X-804285Y-51954819D01*
X-804285Y-51954819D02*
X-423333Y-51954819D01*
X-423333Y-51954819D02*
X-328095Y-52002438D01*
X-328095Y-52002438D02*
X-280476Y-52050057D01*
X-280476Y-52050057D02*
X-232857Y-52145295D01*
X-232857Y-52145295D02*
X-232857Y-52288152D01*
X-232857Y-52288152D02*
X-280476Y-52383390D01*
X-280476Y-52383390D02*
X-328095Y-52431009D01*
X-328095Y-52431009D02*
X-423333Y-52478628D01*
X-423333Y-52478628D02*
X-804285Y-52478628D01*
X100476Y-51954819D02*
X719523Y-51954819D01*
X719523Y-51954819D02*
X386190Y-52335771D01*
X386190Y-52335771D02*
X529047Y-52335771D01*
X529047Y-52335771D02*
X624285Y-52383390D01*
X624285Y-52383390D02*
X671904Y-52431009D01*
X671904Y-52431009D02*
X719523Y-52526247D01*
X719523Y-52526247D02*
X719523Y-52764342D01*
X719523Y-52764342D02*
X671904Y-52859580D01*
X671904Y-52859580D02*
X624285Y-52907200D01*
X624285Y-52907200D02*
X529047Y-52954819D01*
X529047Y-52954819D02*
X243333Y-52954819D01*
X243333Y-52954819D02*
X148095Y-52907200D01*
X148095Y-52907200D02*
X100476Y-52859580D01*
X1338571Y-51954819D02*
X1433809Y-51954819D01*
X1433809Y-51954819D02*
X1529047Y-52002438D01*
X1529047Y-52002438D02*
X1576666Y-52050057D01*
X1576666Y-52050057D02*
X1624285Y-52145295D01*
X1624285Y-52145295D02*
X1671904Y-52335771D01*
X1671904Y-52335771D02*
X1671904Y-52573866D01*
X1671904Y-52573866D02*
X1624285Y-52764342D01*
X1624285Y-52764342D02*
X1576666Y-52859580D01*
X1576666Y-52859580D02*
X1529047Y-52907200D01*
X1529047Y-52907200D02*
X1433809Y-52954819D01*
X1433809Y-52954819D02*
X1338571Y-52954819D01*
X1338571Y-52954819D02*
X1243333Y-52907200D01*
X1243333Y-52907200D02*
X1195714Y-52859580D01*
X1195714Y-52859580D02*
X1148095Y-52764342D01*
X1148095Y-52764342D02*
X1100476Y-52573866D01*
X1100476Y-52573866D02*
X1100476Y-52335771D01*
X1100476Y-52335771D02*
X1148095Y-52145295D01*
X1148095Y-52145295D02*
X1195714Y-52050057D01*
X1195714Y-52050057D02*
X1243333Y-52002438D01*
X1243333Y-52002438D02*
X1338571Y-51954819D01*
X25767142Y-21654819D02*
X25433809Y-21178628D01*
X25195714Y-21654819D02*
X25195714Y-20654819D01*
X25195714Y-20654819D02*
X25576666Y-20654819D01*
X25576666Y-20654819D02*
X25671904Y-20702438D01*
X25671904Y-20702438D02*
X25719523Y-20750057D01*
X25719523Y-20750057D02*
X25767142Y-20845295D01*
X25767142Y-20845295D02*
X25767142Y-20988152D01*
X25767142Y-20988152D02*
X25719523Y-21083390D01*
X25719523Y-21083390D02*
X25671904Y-21131009D01*
X25671904Y-21131009D02*
X25576666Y-21178628D01*
X25576666Y-21178628D02*
X25195714Y-21178628D01*
X26148095Y-20750057D02*
X26195714Y-20702438D01*
X26195714Y-20702438D02*
X26290952Y-20654819D01*
X26290952Y-20654819D02*
X26529047Y-20654819D01*
X26529047Y-20654819D02*
X26624285Y-20702438D01*
X26624285Y-20702438D02*
X26671904Y-20750057D01*
X26671904Y-20750057D02*
X26719523Y-20845295D01*
X26719523Y-20845295D02*
X26719523Y-20940533D01*
X26719523Y-20940533D02*
X26671904Y-21083390D01*
X26671904Y-21083390D02*
X26100476Y-21654819D01*
X26100476Y-21654819D02*
X26719523Y-21654819D01*
X27576666Y-20654819D02*
X27386190Y-20654819D01*
X27386190Y-20654819D02*
X27290952Y-20702438D01*
X27290952Y-20702438D02*
X27243333Y-20750057D01*
X27243333Y-20750057D02*
X27148095Y-20892914D01*
X27148095Y-20892914D02*
X27100476Y-21083390D01*
X27100476Y-21083390D02*
X27100476Y-21464342D01*
X27100476Y-21464342D02*
X27148095Y-21559580D01*
X27148095Y-21559580D02*
X27195714Y-21607200D01*
X27195714Y-21607200D02*
X27290952Y-21654819D01*
X27290952Y-21654819D02*
X27481428Y-21654819D01*
X27481428Y-21654819D02*
X27576666Y-21607200D01*
X27576666Y-21607200D02*
X27624285Y-21559580D01*
X27624285Y-21559580D02*
X27671904Y-21464342D01*
X27671904Y-21464342D02*
X27671904Y-21226247D01*
X27671904Y-21226247D02*
X27624285Y-21131009D01*
X27624285Y-21131009D02*
X27576666Y-21083390D01*
X27576666Y-21083390D02*
X27481428Y-21035771D01*
X27481428Y-21035771D02*
X27290952Y-21035771D01*
X27290952Y-21035771D02*
X27195714Y-21083390D01*
X27195714Y-21083390D02*
X27148095Y-21131009D01*
X27148095Y-21131009D02*
X27100476Y-21226247D01*
X33067142Y-26859580D02*
X33019523Y-26907200D01*
X33019523Y-26907200D02*
X32876666Y-26954819D01*
X32876666Y-26954819D02*
X32781428Y-26954819D01*
X32781428Y-26954819D02*
X32638571Y-26907200D01*
X32638571Y-26907200D02*
X32543333Y-26811961D01*
X32543333Y-26811961D02*
X32495714Y-26716723D01*
X32495714Y-26716723D02*
X32448095Y-26526247D01*
X32448095Y-26526247D02*
X32448095Y-26383390D01*
X32448095Y-26383390D02*
X32495714Y-26192914D01*
X32495714Y-26192914D02*
X32543333Y-26097676D01*
X32543333Y-26097676D02*
X32638571Y-26002438D01*
X32638571Y-26002438D02*
X32781428Y-25954819D01*
X32781428Y-25954819D02*
X32876666Y-25954819D01*
X32876666Y-25954819D02*
X33019523Y-26002438D01*
X33019523Y-26002438D02*
X33067142Y-26050057D01*
X33400476Y-25954819D02*
X34019523Y-25954819D01*
X34019523Y-25954819D02*
X33686190Y-26335771D01*
X33686190Y-26335771D02*
X33829047Y-26335771D01*
X33829047Y-26335771D02*
X33924285Y-26383390D01*
X33924285Y-26383390D02*
X33971904Y-26431009D01*
X33971904Y-26431009D02*
X34019523Y-26526247D01*
X34019523Y-26526247D02*
X34019523Y-26764342D01*
X34019523Y-26764342D02*
X33971904Y-26859580D01*
X33971904Y-26859580D02*
X33924285Y-26907200D01*
X33924285Y-26907200D02*
X33829047Y-26954819D01*
X33829047Y-26954819D02*
X33543333Y-26954819D01*
X33543333Y-26954819D02*
X33448095Y-26907200D01*
X33448095Y-26907200D02*
X33400476Y-26859580D01*
X34876666Y-25954819D02*
X34686190Y-25954819D01*
X34686190Y-25954819D02*
X34590952Y-26002438D01*
X34590952Y-26002438D02*
X34543333Y-26050057D01*
X34543333Y-26050057D02*
X34448095Y-26192914D01*
X34448095Y-26192914D02*
X34400476Y-26383390D01*
X34400476Y-26383390D02*
X34400476Y-26764342D01*
X34400476Y-26764342D02*
X34448095Y-26859580D01*
X34448095Y-26859580D02*
X34495714Y-26907200D01*
X34495714Y-26907200D02*
X34590952Y-26954819D01*
X34590952Y-26954819D02*
X34781428Y-26954819D01*
X34781428Y-26954819D02*
X34876666Y-26907200D01*
X34876666Y-26907200D02*
X34924285Y-26859580D01*
X34924285Y-26859580D02*
X34971904Y-26764342D01*
X34971904Y-26764342D02*
X34971904Y-26526247D01*
X34971904Y-26526247D02*
X34924285Y-26431009D01*
X34924285Y-26431009D02*
X34876666Y-26383390D01*
X34876666Y-26383390D02*
X34781428Y-26335771D01*
X34781428Y-26335771D02*
X34590952Y-26335771D01*
X34590952Y-26335771D02*
X34495714Y-26383390D01*
X34495714Y-26383390D02*
X34448095Y-26431009D01*
X34448095Y-26431009D02*
X34400476Y-26526247D01*
X-227857Y-21559580D02*
X-275476Y-21607200D01*
X-275476Y-21607200D02*
X-418333Y-21654819D01*
X-418333Y-21654819D02*
X-513571Y-21654819D01*
X-513571Y-21654819D02*
X-656428Y-21607200D01*
X-656428Y-21607200D02*
X-751666Y-21511961D01*
X-751666Y-21511961D02*
X-799285Y-21416723D01*
X-799285Y-21416723D02*
X-846904Y-21226247D01*
X-846904Y-21226247D02*
X-846904Y-21083390D01*
X-846904Y-21083390D02*
X-799285Y-20892914D01*
X-799285Y-20892914D02*
X-751666Y-20797676D01*
X-751666Y-20797676D02*
X-656428Y-20702438D01*
X-656428Y-20702438D02*
X-513571Y-20654819D01*
X-513571Y-20654819D02*
X-418333Y-20654819D01*
X-418333Y-20654819D02*
X-275476Y-20702438D01*
X-275476Y-20702438D02*
X-227857Y-20750057D01*
X153095Y-20750057D02*
X200714Y-20702438D01*
X200714Y-20702438D02*
X295952Y-20654819D01*
X295952Y-20654819D02*
X534047Y-20654819D01*
X534047Y-20654819D02*
X629285Y-20702438D01*
X629285Y-20702438D02*
X676904Y-20750057D01*
X676904Y-20750057D02*
X724523Y-20845295D01*
X724523Y-20845295D02*
X724523Y-20940533D01*
X724523Y-20940533D02*
X676904Y-21083390D01*
X676904Y-21083390D02*
X105476Y-21654819D01*
X105476Y-21654819D02*
X724523Y-21654819D01*
X1676904Y-21654819D02*
X1105476Y-21654819D01*
X1391190Y-21654819D02*
X1391190Y-20654819D01*
X1391190Y-20654819D02*
X1295952Y-20797676D01*
X1295952Y-20797676D02*
X1200714Y-20892914D01*
X1200714Y-20892914D02*
X1105476Y-20940533D01*
X22438095Y-71954819D02*
X22438095Y-72764342D01*
X22438095Y-72764342D02*
X22485714Y-72859580D01*
X22485714Y-72859580D02*
X22533333Y-72907200D01*
X22533333Y-72907200D02*
X22628571Y-72954819D01*
X22628571Y-72954819D02*
X22819047Y-72954819D01*
X22819047Y-72954819D02*
X22914285Y-72907200D01*
X22914285Y-72907200D02*
X22961904Y-72859580D01*
X22961904Y-72859580D02*
X23009523Y-72764342D01*
X23009523Y-72764342D02*
X23009523Y-71954819D01*
X23961904Y-71954819D02*
X23485714Y-71954819D01*
X23485714Y-71954819D02*
X23438095Y-72431009D01*
X23438095Y-72431009D02*
X23485714Y-72383390D01*
X23485714Y-72383390D02*
X23580952Y-72335771D01*
X23580952Y-72335771D02*
X23819047Y-72335771D01*
X23819047Y-72335771D02*
X23914285Y-72383390D01*
X23914285Y-72383390D02*
X23961904Y-72431009D01*
X23961904Y-72431009D02*
X24009523Y-72526247D01*
X24009523Y-72526247D02*
X24009523Y-72764342D01*
X24009523Y-72764342D02*
X23961904Y-72859580D01*
X23961904Y-72859580D02*
X23914285Y-72907200D01*
X23914285Y-72907200D02*
X23819047Y-72954819D01*
X23819047Y-72954819D02*
X23580952Y-72954819D01*
X23580952Y-72954819D02*
X23485714Y-72907200D01*
X23485714Y-72907200D02*
X23438095Y-72859580D01*
X8867142Y-34959580D02*
X8819523Y-35007200D01*
X8819523Y-35007200D02*
X8676666Y-35054819D01*
X8676666Y-35054819D02*
X8581428Y-35054819D01*
X8581428Y-35054819D02*
X8438571Y-35007200D01*
X8438571Y-35007200D02*
X8343333Y-34911961D01*
X8343333Y-34911961D02*
X8295714Y-34816723D01*
X8295714Y-34816723D02*
X8248095Y-34626247D01*
X8248095Y-34626247D02*
X8248095Y-34483390D01*
X8248095Y-34483390D02*
X8295714Y-34292914D01*
X8295714Y-34292914D02*
X8343333Y-34197676D01*
X8343333Y-34197676D02*
X8438571Y-34102438D01*
X8438571Y-34102438D02*
X8581428Y-34054819D01*
X8581428Y-34054819D02*
X8676666Y-34054819D01*
X8676666Y-34054819D02*
X8819523Y-34102438D01*
X8819523Y-34102438D02*
X8867142Y-34150057D01*
X9248095Y-34150057D02*
X9295714Y-34102438D01*
X9295714Y-34102438D02*
X9390952Y-34054819D01*
X9390952Y-34054819D02*
X9629047Y-34054819D01*
X9629047Y-34054819D02*
X9724285Y-34102438D01*
X9724285Y-34102438D02*
X9771904Y-34150057D01*
X9771904Y-34150057D02*
X9819523Y-34245295D01*
X9819523Y-34245295D02*
X9819523Y-34340533D01*
X9819523Y-34340533D02*
X9771904Y-34483390D01*
X9771904Y-34483390D02*
X9200476Y-35054819D01*
X9200476Y-35054819D02*
X9819523Y-35054819D01*
X10724285Y-34054819D02*
X10248095Y-34054819D01*
X10248095Y-34054819D02*
X10200476Y-34531009D01*
X10200476Y-34531009D02*
X10248095Y-34483390D01*
X10248095Y-34483390D02*
X10343333Y-34435771D01*
X10343333Y-34435771D02*
X10581428Y-34435771D01*
X10581428Y-34435771D02*
X10676666Y-34483390D01*
X10676666Y-34483390D02*
X10724285Y-34531009D01*
X10724285Y-34531009D02*
X10771904Y-34626247D01*
X10771904Y-34626247D02*
X10771904Y-34864342D01*
X10771904Y-34864342D02*
X10724285Y-34959580D01*
X10724285Y-34959580D02*
X10676666Y-35007200D01*
X10676666Y-35007200D02*
X10581428Y-35054819D01*
X10581428Y-35054819D02*
X10343333Y-35054819D01*
X10343333Y-35054819D02*
X10248095Y-35007200D01*
X10248095Y-35007200D02*
X10200476Y-34959580D01*
X21748333Y-19159580D02*
X21700714Y-19207200D01*
X21700714Y-19207200D02*
X21557857Y-19254819D01*
X21557857Y-19254819D02*
X21462619Y-19254819D01*
X21462619Y-19254819D02*
X21319762Y-19207200D01*
X21319762Y-19207200D02*
X21224524Y-19111961D01*
X21224524Y-19111961D02*
X21176905Y-19016723D01*
X21176905Y-19016723D02*
X21129286Y-18826247D01*
X21129286Y-18826247D02*
X21129286Y-18683390D01*
X21129286Y-18683390D02*
X21176905Y-18492914D01*
X21176905Y-18492914D02*
X21224524Y-18397676D01*
X21224524Y-18397676D02*
X21319762Y-18302438D01*
X21319762Y-18302438D02*
X21462619Y-18254819D01*
X21462619Y-18254819D02*
X21557857Y-18254819D01*
X21557857Y-18254819D02*
X21700714Y-18302438D01*
X21700714Y-18302438D02*
X21748333Y-18350057D01*
X22129286Y-18350057D02*
X22176905Y-18302438D01*
X22176905Y-18302438D02*
X22272143Y-18254819D01*
X22272143Y-18254819D02*
X22510238Y-18254819D01*
X22510238Y-18254819D02*
X22605476Y-18302438D01*
X22605476Y-18302438D02*
X22653095Y-18350057D01*
X22653095Y-18350057D02*
X22700714Y-18445295D01*
X22700714Y-18445295D02*
X22700714Y-18540533D01*
X22700714Y-18540533D02*
X22653095Y-18683390D01*
X22653095Y-18683390D02*
X22081667Y-19254819D01*
X22081667Y-19254819D02*
X22700714Y-19254819D01*
X18848333Y-41859580D02*
X18800714Y-41907200D01*
X18800714Y-41907200D02*
X18657857Y-41954819D01*
X18657857Y-41954819D02*
X18562619Y-41954819D01*
X18562619Y-41954819D02*
X18419762Y-41907200D01*
X18419762Y-41907200D02*
X18324524Y-41811961D01*
X18324524Y-41811961D02*
X18276905Y-41716723D01*
X18276905Y-41716723D02*
X18229286Y-41526247D01*
X18229286Y-41526247D02*
X18229286Y-41383390D01*
X18229286Y-41383390D02*
X18276905Y-41192914D01*
X18276905Y-41192914D02*
X18324524Y-41097676D01*
X18324524Y-41097676D02*
X18419762Y-41002438D01*
X18419762Y-41002438D02*
X18562619Y-40954819D01*
X18562619Y-40954819D02*
X18657857Y-40954819D01*
X18657857Y-40954819D02*
X18800714Y-41002438D01*
X18800714Y-41002438D02*
X18848333Y-41050057D01*
X19753095Y-40954819D02*
X19276905Y-40954819D01*
X19276905Y-40954819D02*
X19229286Y-41431009D01*
X19229286Y-41431009D02*
X19276905Y-41383390D01*
X19276905Y-41383390D02*
X19372143Y-41335771D01*
X19372143Y-41335771D02*
X19610238Y-41335771D01*
X19610238Y-41335771D02*
X19705476Y-41383390D01*
X19705476Y-41383390D02*
X19753095Y-41431009D01*
X19753095Y-41431009D02*
X19800714Y-41526247D01*
X19800714Y-41526247D02*
X19800714Y-41764342D01*
X19800714Y-41764342D02*
X19753095Y-41859580D01*
X19753095Y-41859580D02*
X19705476Y-41907200D01*
X19705476Y-41907200D02*
X19610238Y-41954819D01*
X19610238Y-41954819D02*
X19372143Y-41954819D01*
X19372143Y-41954819D02*
X19276905Y-41907200D01*
X19276905Y-41907200D02*
X19229286Y-41859580D01*
X8372142Y-19159580D02*
X8324523Y-19207200D01*
X8324523Y-19207200D02*
X8181666Y-19254819D01*
X8181666Y-19254819D02*
X8086428Y-19254819D01*
X8086428Y-19254819D02*
X7943571Y-19207200D01*
X7943571Y-19207200D02*
X7848333Y-19111961D01*
X7848333Y-19111961D02*
X7800714Y-19016723D01*
X7800714Y-19016723D02*
X7753095Y-18826247D01*
X7753095Y-18826247D02*
X7753095Y-18683390D01*
X7753095Y-18683390D02*
X7800714Y-18492914D01*
X7800714Y-18492914D02*
X7848333Y-18397676D01*
X7848333Y-18397676D02*
X7943571Y-18302438D01*
X7943571Y-18302438D02*
X8086428Y-18254819D01*
X8086428Y-18254819D02*
X8181666Y-18254819D01*
X8181666Y-18254819D02*
X8324523Y-18302438D01*
X8324523Y-18302438D02*
X8372142Y-18350057D01*
X8753095Y-18350057D02*
X8800714Y-18302438D01*
X8800714Y-18302438D02*
X8895952Y-18254819D01*
X8895952Y-18254819D02*
X9134047Y-18254819D01*
X9134047Y-18254819D02*
X9229285Y-18302438D01*
X9229285Y-18302438D02*
X9276904Y-18350057D01*
X9276904Y-18350057D02*
X9324523Y-18445295D01*
X9324523Y-18445295D02*
X9324523Y-18540533D01*
X9324523Y-18540533D02*
X9276904Y-18683390D01*
X9276904Y-18683390D02*
X8705476Y-19254819D01*
X8705476Y-19254819D02*
X9324523Y-19254819D01*
X9895952Y-18683390D02*
X9800714Y-18635771D01*
X9800714Y-18635771D02*
X9753095Y-18588152D01*
X9753095Y-18588152D02*
X9705476Y-18492914D01*
X9705476Y-18492914D02*
X9705476Y-18445295D01*
X9705476Y-18445295D02*
X9753095Y-18350057D01*
X9753095Y-18350057D02*
X9800714Y-18302438D01*
X9800714Y-18302438D02*
X9895952Y-18254819D01*
X9895952Y-18254819D02*
X10086428Y-18254819D01*
X10086428Y-18254819D02*
X10181666Y-18302438D01*
X10181666Y-18302438D02*
X10229285Y-18350057D01*
X10229285Y-18350057D02*
X10276904Y-18445295D01*
X10276904Y-18445295D02*
X10276904Y-18492914D01*
X10276904Y-18492914D02*
X10229285Y-18588152D01*
X10229285Y-18588152D02*
X10181666Y-18635771D01*
X10181666Y-18635771D02*
X10086428Y-18683390D01*
X10086428Y-18683390D02*
X9895952Y-18683390D01*
X9895952Y-18683390D02*
X9800714Y-18731009D01*
X9800714Y-18731009D02*
X9753095Y-18778628D01*
X9753095Y-18778628D02*
X9705476Y-18873866D01*
X9705476Y-18873866D02*
X9705476Y-19064342D01*
X9705476Y-19064342D02*
X9753095Y-19159580D01*
X9753095Y-19159580D02*
X9800714Y-19207200D01*
X9800714Y-19207200D02*
X9895952Y-19254819D01*
X9895952Y-19254819D02*
X10086428Y-19254819D01*
X10086428Y-19254819D02*
X10181666Y-19207200D01*
X10181666Y-19207200D02*
X10229285Y-19159580D01*
X10229285Y-19159580D02*
X10276904Y-19064342D01*
X10276904Y-19064342D02*
X10276904Y-18873866D01*
X10276904Y-18873866D02*
X10229285Y-18778628D01*
X10229285Y-18778628D02*
X10181666Y-18731009D01*
X10181666Y-18731009D02*
X10086428Y-18683390D01*
X4072142Y-19159580D02*
X4024523Y-19207200D01*
X4024523Y-19207200D02*
X3881666Y-19254819D01*
X3881666Y-19254819D02*
X3786428Y-19254819D01*
X3786428Y-19254819D02*
X3643571Y-19207200D01*
X3643571Y-19207200D02*
X3548333Y-19111961D01*
X3548333Y-19111961D02*
X3500714Y-19016723D01*
X3500714Y-19016723D02*
X3453095Y-18826247D01*
X3453095Y-18826247D02*
X3453095Y-18683390D01*
X3453095Y-18683390D02*
X3500714Y-18492914D01*
X3500714Y-18492914D02*
X3548333Y-18397676D01*
X3548333Y-18397676D02*
X3643571Y-18302438D01*
X3643571Y-18302438D02*
X3786428Y-18254819D01*
X3786428Y-18254819D02*
X3881666Y-18254819D01*
X3881666Y-18254819D02*
X4024523Y-18302438D01*
X4024523Y-18302438D02*
X4072142Y-18350057D01*
X4405476Y-18254819D02*
X5024523Y-18254819D01*
X5024523Y-18254819D02*
X4691190Y-18635771D01*
X4691190Y-18635771D02*
X4834047Y-18635771D01*
X4834047Y-18635771D02*
X4929285Y-18683390D01*
X4929285Y-18683390D02*
X4976904Y-18731009D01*
X4976904Y-18731009D02*
X5024523Y-18826247D01*
X5024523Y-18826247D02*
X5024523Y-19064342D01*
X5024523Y-19064342D02*
X4976904Y-19159580D01*
X4976904Y-19159580D02*
X4929285Y-19207200D01*
X4929285Y-19207200D02*
X4834047Y-19254819D01*
X4834047Y-19254819D02*
X4548333Y-19254819D01*
X4548333Y-19254819D02*
X4453095Y-19207200D01*
X4453095Y-19207200D02*
X4405476Y-19159580D01*
X5881666Y-18588152D02*
X5881666Y-19254819D01*
X5643571Y-18207200D02*
X5405476Y-18921485D01*
X5405476Y-18921485D02*
X6024523Y-18921485D01*
X13267142Y-28954819D02*
X12933809Y-28478628D01*
X12695714Y-28954819D02*
X12695714Y-27954819D01*
X12695714Y-27954819D02*
X13076666Y-27954819D01*
X13076666Y-27954819D02*
X13171904Y-28002438D01*
X13171904Y-28002438D02*
X13219523Y-28050057D01*
X13219523Y-28050057D02*
X13267142Y-28145295D01*
X13267142Y-28145295D02*
X13267142Y-28288152D01*
X13267142Y-28288152D02*
X13219523Y-28383390D01*
X13219523Y-28383390D02*
X13171904Y-28431009D01*
X13171904Y-28431009D02*
X13076666Y-28478628D01*
X13076666Y-28478628D02*
X12695714Y-28478628D01*
X13648095Y-28050057D02*
X13695714Y-28002438D01*
X13695714Y-28002438D02*
X13790952Y-27954819D01*
X13790952Y-27954819D02*
X14029047Y-27954819D01*
X14029047Y-27954819D02*
X14124285Y-28002438D01*
X14124285Y-28002438D02*
X14171904Y-28050057D01*
X14171904Y-28050057D02*
X14219523Y-28145295D01*
X14219523Y-28145295D02*
X14219523Y-28240533D01*
X14219523Y-28240533D02*
X14171904Y-28383390D01*
X14171904Y-28383390D02*
X13600476Y-28954819D01*
X13600476Y-28954819D02*
X14219523Y-28954819D01*
X14552857Y-27954819D02*
X15219523Y-27954819D01*
X15219523Y-27954819D02*
X14790952Y-28954819D01*
X30638095Y-57954819D02*
X30638095Y-58764342D01*
X30638095Y-58764342D02*
X30685714Y-58859580D01*
X30685714Y-58859580D02*
X30733333Y-58907200D01*
X30733333Y-58907200D02*
X30828571Y-58954819D01*
X30828571Y-58954819D02*
X31019047Y-58954819D01*
X31019047Y-58954819D02*
X31114285Y-58907200D01*
X31114285Y-58907200D02*
X31161904Y-58859580D01*
X31161904Y-58859580D02*
X31209523Y-58764342D01*
X31209523Y-58764342D02*
X31209523Y-57954819D01*
X32114285Y-58288152D02*
X32114285Y-58954819D01*
X31876190Y-57907200D02*
X31638095Y-58621485D01*
X31638095Y-58621485D02*
X32257142Y-58621485D01*
X26372142Y-56759580D02*
X26324523Y-56807200D01*
X26324523Y-56807200D02*
X26181666Y-56854819D01*
X26181666Y-56854819D02*
X26086428Y-56854819D01*
X26086428Y-56854819D02*
X25943571Y-56807200D01*
X25943571Y-56807200D02*
X25848333Y-56711961D01*
X25848333Y-56711961D02*
X25800714Y-56616723D01*
X25800714Y-56616723D02*
X25753095Y-56426247D01*
X25753095Y-56426247D02*
X25753095Y-56283390D01*
X25753095Y-56283390D02*
X25800714Y-56092914D01*
X25800714Y-56092914D02*
X25848333Y-55997676D01*
X25848333Y-55997676D02*
X25943571Y-55902438D01*
X25943571Y-55902438D02*
X26086428Y-55854819D01*
X26086428Y-55854819D02*
X26181666Y-55854819D01*
X26181666Y-55854819D02*
X26324523Y-55902438D01*
X26324523Y-55902438D02*
X26372142Y-55950057D01*
X27324523Y-56854819D02*
X26753095Y-56854819D01*
X27038809Y-56854819D02*
X27038809Y-55854819D01*
X27038809Y-55854819D02*
X26943571Y-55997676D01*
X26943571Y-55997676D02*
X26848333Y-56092914D01*
X26848333Y-56092914D02*
X26753095Y-56140533D01*
X27657857Y-55854819D02*
X28276904Y-55854819D01*
X28276904Y-55854819D02*
X27943571Y-56235771D01*
X27943571Y-56235771D02*
X28086428Y-56235771D01*
X28086428Y-56235771D02*
X28181666Y-56283390D01*
X28181666Y-56283390D02*
X28229285Y-56331009D01*
X28229285Y-56331009D02*
X28276904Y-56426247D01*
X28276904Y-56426247D02*
X28276904Y-56664342D01*
X28276904Y-56664342D02*
X28229285Y-56759580D01*
X28229285Y-56759580D02*
X28181666Y-56807200D01*
X28181666Y-56807200D02*
X28086428Y-56854819D01*
X28086428Y-56854819D02*
X27800714Y-56854819D01*
X27800714Y-56854819D02*
X27705476Y-56807200D01*
X27705476Y-56807200D02*
X27657857Y-56759580D01*
X31343333Y-46359580D02*
X31295714Y-46407200D01*
X31295714Y-46407200D02*
X31152857Y-46454819D01*
X31152857Y-46454819D02*
X31057619Y-46454819D01*
X31057619Y-46454819D02*
X30914762Y-46407200D01*
X30914762Y-46407200D02*
X30819524Y-46311961D01*
X30819524Y-46311961D02*
X30771905Y-46216723D01*
X30771905Y-46216723D02*
X30724286Y-46026247D01*
X30724286Y-46026247D02*
X30724286Y-45883390D01*
X30724286Y-45883390D02*
X30771905Y-45692914D01*
X30771905Y-45692914D02*
X30819524Y-45597676D01*
X30819524Y-45597676D02*
X30914762Y-45502438D01*
X30914762Y-45502438D02*
X31057619Y-45454819D01*
X31057619Y-45454819D02*
X31152857Y-45454819D01*
X31152857Y-45454819D02*
X31295714Y-45502438D01*
X31295714Y-45502438D02*
X31343333Y-45550057D01*
X32200476Y-45788152D02*
X32200476Y-46454819D01*
X31962381Y-45407200D02*
X31724286Y-46121485D01*
X31724286Y-46121485D02*
X32343333Y-46121485D01*
X13743333Y-26859580D02*
X13695714Y-26907200D01*
X13695714Y-26907200D02*
X13552857Y-26954819D01*
X13552857Y-26954819D02*
X13457619Y-26954819D01*
X13457619Y-26954819D02*
X13314762Y-26907200D01*
X13314762Y-26907200D02*
X13219524Y-26811961D01*
X13219524Y-26811961D02*
X13171905Y-26716723D01*
X13171905Y-26716723D02*
X13124286Y-26526247D01*
X13124286Y-26526247D02*
X13124286Y-26383390D01*
X13124286Y-26383390D02*
X13171905Y-26192914D01*
X13171905Y-26192914D02*
X13219524Y-26097676D01*
X13219524Y-26097676D02*
X13314762Y-26002438D01*
X13314762Y-26002438D02*
X13457619Y-25954819D01*
X13457619Y-25954819D02*
X13552857Y-25954819D01*
X13552857Y-25954819D02*
X13695714Y-26002438D01*
X13695714Y-26002438D02*
X13743333Y-26050057D01*
X14219524Y-26954819D02*
X14410000Y-26954819D01*
X14410000Y-26954819D02*
X14505238Y-26907200D01*
X14505238Y-26907200D02*
X14552857Y-26859580D01*
X14552857Y-26859580D02*
X14648095Y-26716723D01*
X14648095Y-26716723D02*
X14695714Y-26526247D01*
X14695714Y-26526247D02*
X14695714Y-26145295D01*
X14695714Y-26145295D02*
X14648095Y-26050057D01*
X14648095Y-26050057D02*
X14600476Y-26002438D01*
X14600476Y-26002438D02*
X14505238Y-25954819D01*
X14505238Y-25954819D02*
X14314762Y-25954819D01*
X14314762Y-25954819D02*
X14219524Y-26002438D01*
X14219524Y-26002438D02*
X14171905Y-26050057D01*
X14171905Y-26050057D02*
X14124286Y-26145295D01*
X14124286Y-26145295D02*
X14124286Y-26383390D01*
X14124286Y-26383390D02*
X14171905Y-26478628D01*
X14171905Y-26478628D02*
X14219524Y-26526247D01*
X14219524Y-26526247D02*
X14314762Y-26573866D01*
X14314762Y-26573866D02*
X14505238Y-26573866D01*
X14505238Y-26573866D02*
X14600476Y-26526247D01*
X14600476Y-26526247D02*
X14648095Y-26478628D01*
X14648095Y-26478628D02*
X14695714Y-26383390D01*
X30343333Y-30954819D02*
X30010000Y-30478628D01*
X29771905Y-30954819D02*
X29771905Y-29954819D01*
X29771905Y-29954819D02*
X30152857Y-29954819D01*
X30152857Y-29954819D02*
X30248095Y-30002438D01*
X30248095Y-30002438D02*
X30295714Y-30050057D01*
X30295714Y-30050057D02*
X30343333Y-30145295D01*
X30343333Y-30145295D02*
X30343333Y-30288152D01*
X30343333Y-30288152D02*
X30295714Y-30383390D01*
X30295714Y-30383390D02*
X30248095Y-30431009D01*
X30248095Y-30431009D02*
X30152857Y-30478628D01*
X30152857Y-30478628D02*
X29771905Y-30478628D01*
X31200476Y-29954819D02*
X31010000Y-29954819D01*
X31010000Y-29954819D02*
X30914762Y-30002438D01*
X30914762Y-30002438D02*
X30867143Y-30050057D01*
X30867143Y-30050057D02*
X30771905Y-30192914D01*
X30771905Y-30192914D02*
X30724286Y-30383390D01*
X30724286Y-30383390D02*
X30724286Y-30764342D01*
X30724286Y-30764342D02*
X30771905Y-30859580D01*
X30771905Y-30859580D02*
X30819524Y-30907200D01*
X30819524Y-30907200D02*
X30914762Y-30954819D01*
X30914762Y-30954819D02*
X31105238Y-30954819D01*
X31105238Y-30954819D02*
X31200476Y-30907200D01*
X31200476Y-30907200D02*
X31248095Y-30859580D01*
X31248095Y-30859580D02*
X31295714Y-30764342D01*
X31295714Y-30764342D02*
X31295714Y-30526247D01*
X31295714Y-30526247D02*
X31248095Y-30431009D01*
X31248095Y-30431009D02*
X31200476Y-30383390D01*
X31200476Y-30383390D02*
X31105238Y-30335771D01*
X31105238Y-30335771D02*
X30914762Y-30335771D01*
X30914762Y-30335771D02*
X30819524Y-30383390D01*
X30819524Y-30383390D02*
X30771905Y-30431009D01*
X30771905Y-30431009D02*
X30724286Y-30526247D01*
X27566667Y-14707200D02*
X27709524Y-14754819D01*
X27709524Y-14754819D02*
X27947619Y-14754819D01*
X27947619Y-14754819D02*
X28042857Y-14707200D01*
X28042857Y-14707200D02*
X28090476Y-14659580D01*
X28090476Y-14659580D02*
X28138095Y-14564342D01*
X28138095Y-14564342D02*
X28138095Y-14469104D01*
X28138095Y-14469104D02*
X28090476Y-14373866D01*
X28090476Y-14373866D02*
X28042857Y-14326247D01*
X28042857Y-14326247D02*
X27947619Y-14278628D01*
X27947619Y-14278628D02*
X27757143Y-14231009D01*
X27757143Y-14231009D02*
X27661905Y-14183390D01*
X27661905Y-14183390D02*
X27614286Y-14135771D01*
X27614286Y-14135771D02*
X27566667Y-14040533D01*
X27566667Y-14040533D02*
X27566667Y-13945295D01*
X27566667Y-13945295D02*
X27614286Y-13850057D01*
X27614286Y-13850057D02*
X27661905Y-13802438D01*
X27661905Y-13802438D02*
X27757143Y-13754819D01*
X27757143Y-13754819D02*
X27995238Y-13754819D01*
X27995238Y-13754819D02*
X28138095Y-13802438D01*
X28471429Y-13754819D02*
X28709524Y-14754819D01*
X28709524Y-14754819D02*
X28900000Y-14040533D01*
X28900000Y-14040533D02*
X29090476Y-14754819D01*
X29090476Y-14754819D02*
X29328572Y-13754819D01*
X30233333Y-14754819D02*
X29661905Y-14754819D01*
X29947619Y-14754819D02*
X29947619Y-13754819D01*
X29947619Y-13754819D02*
X29852381Y-13897676D01*
X29852381Y-13897676D02*
X29757143Y-13992914D01*
X29757143Y-13992914D02*
X29661905Y-14040533D01*
X13267142Y-30954819D02*
X12933809Y-30478628D01*
X12695714Y-30954819D02*
X12695714Y-29954819D01*
X12695714Y-29954819D02*
X13076666Y-29954819D01*
X13076666Y-29954819D02*
X13171904Y-30002438D01*
X13171904Y-30002438D02*
X13219523Y-30050057D01*
X13219523Y-30050057D02*
X13267142Y-30145295D01*
X13267142Y-30145295D02*
X13267142Y-30288152D01*
X13267142Y-30288152D02*
X13219523Y-30383390D01*
X13219523Y-30383390D02*
X13171904Y-30431009D01*
X13171904Y-30431009D02*
X13076666Y-30478628D01*
X13076666Y-30478628D02*
X12695714Y-30478628D01*
X13648095Y-30050057D02*
X13695714Y-30002438D01*
X13695714Y-30002438D02*
X13790952Y-29954819D01*
X13790952Y-29954819D02*
X14029047Y-29954819D01*
X14029047Y-29954819D02*
X14124285Y-30002438D01*
X14124285Y-30002438D02*
X14171904Y-30050057D01*
X14171904Y-30050057D02*
X14219523Y-30145295D01*
X14219523Y-30145295D02*
X14219523Y-30240533D01*
X14219523Y-30240533D02*
X14171904Y-30383390D01*
X14171904Y-30383390D02*
X13600476Y-30954819D01*
X13600476Y-30954819D02*
X14219523Y-30954819D01*
X14552857Y-29954819D02*
X15171904Y-29954819D01*
X15171904Y-29954819D02*
X14838571Y-30335771D01*
X14838571Y-30335771D02*
X14981428Y-30335771D01*
X14981428Y-30335771D02*
X15076666Y-30383390D01*
X15076666Y-30383390D02*
X15124285Y-30431009D01*
X15124285Y-30431009D02*
X15171904Y-30526247D01*
X15171904Y-30526247D02*
X15171904Y-30764342D01*
X15171904Y-30764342D02*
X15124285Y-30859580D01*
X15124285Y-30859580D02*
X15076666Y-30907200D01*
X15076666Y-30907200D02*
X14981428Y-30954819D01*
X14981428Y-30954819D02*
X14695714Y-30954819D01*
X14695714Y-30954819D02*
X14600476Y-30907200D01*
X14600476Y-30907200D02*
X14552857Y-30859580D01*
X19267142Y-30954819D02*
X18933809Y-30478628D01*
X18695714Y-30954819D02*
X18695714Y-29954819D01*
X18695714Y-29954819D02*
X19076666Y-29954819D01*
X19076666Y-29954819D02*
X19171904Y-30002438D01*
X19171904Y-30002438D02*
X19219523Y-30050057D01*
X19219523Y-30050057D02*
X19267142Y-30145295D01*
X19267142Y-30145295D02*
X19267142Y-30288152D01*
X19267142Y-30288152D02*
X19219523Y-30383390D01*
X19219523Y-30383390D02*
X19171904Y-30431009D01*
X19171904Y-30431009D02*
X19076666Y-30478628D01*
X19076666Y-30478628D02*
X18695714Y-30478628D01*
X19648095Y-30050057D02*
X19695714Y-30002438D01*
X19695714Y-30002438D02*
X19790952Y-29954819D01*
X19790952Y-29954819D02*
X20029047Y-29954819D01*
X20029047Y-29954819D02*
X20124285Y-30002438D01*
X20124285Y-30002438D02*
X20171904Y-30050057D01*
X20171904Y-30050057D02*
X20219523Y-30145295D01*
X20219523Y-30145295D02*
X20219523Y-30240533D01*
X20219523Y-30240533D02*
X20171904Y-30383390D01*
X20171904Y-30383390D02*
X19600476Y-30954819D01*
X19600476Y-30954819D02*
X20219523Y-30954819D01*
X21124285Y-29954819D02*
X20648095Y-29954819D01*
X20648095Y-29954819D02*
X20600476Y-30431009D01*
X20600476Y-30431009D02*
X20648095Y-30383390D01*
X20648095Y-30383390D02*
X20743333Y-30335771D01*
X20743333Y-30335771D02*
X20981428Y-30335771D01*
X20981428Y-30335771D02*
X21076666Y-30383390D01*
X21076666Y-30383390D02*
X21124285Y-30431009D01*
X21124285Y-30431009D02*
X21171904Y-30526247D01*
X21171904Y-30526247D02*
X21171904Y-30764342D01*
X21171904Y-30764342D02*
X21124285Y-30859580D01*
X21124285Y-30859580D02*
X21076666Y-30907200D01*
X21076666Y-30907200D02*
X20981428Y-30954819D01*
X20981428Y-30954819D02*
X20743333Y-30954819D01*
X20743333Y-30954819D02*
X20648095Y-30907200D01*
X20648095Y-30907200D02*
X20600476Y-30859580D01*
X19267142Y-28954819D02*
X18933809Y-28478628D01*
X18695714Y-28954819D02*
X18695714Y-27954819D01*
X18695714Y-27954819D02*
X19076666Y-27954819D01*
X19076666Y-27954819D02*
X19171904Y-28002438D01*
X19171904Y-28002438D02*
X19219523Y-28050057D01*
X19219523Y-28050057D02*
X19267142Y-28145295D01*
X19267142Y-28145295D02*
X19267142Y-28288152D01*
X19267142Y-28288152D02*
X19219523Y-28383390D01*
X19219523Y-28383390D02*
X19171904Y-28431009D01*
X19171904Y-28431009D02*
X19076666Y-28478628D01*
X19076666Y-28478628D02*
X18695714Y-28478628D01*
X19648095Y-28050057D02*
X19695714Y-28002438D01*
X19695714Y-28002438D02*
X19790952Y-27954819D01*
X19790952Y-27954819D02*
X20029047Y-27954819D01*
X20029047Y-27954819D02*
X20124285Y-28002438D01*
X20124285Y-28002438D02*
X20171904Y-28050057D01*
X20171904Y-28050057D02*
X20219523Y-28145295D01*
X20219523Y-28145295D02*
X20219523Y-28240533D01*
X20219523Y-28240533D02*
X20171904Y-28383390D01*
X20171904Y-28383390D02*
X19600476Y-28954819D01*
X19600476Y-28954819D02*
X20219523Y-28954819D01*
X20600476Y-28050057D02*
X20648095Y-28002438D01*
X20648095Y-28002438D02*
X20743333Y-27954819D01*
X20743333Y-27954819D02*
X20981428Y-27954819D01*
X20981428Y-27954819D02*
X21076666Y-28002438D01*
X21076666Y-28002438D02*
X21124285Y-28050057D01*
X21124285Y-28050057D02*
X21171904Y-28145295D01*
X21171904Y-28145295D02*
X21171904Y-28240533D01*
X21171904Y-28240533D02*
X21124285Y-28383390D01*
X21124285Y-28383390D02*
X20552857Y-28954819D01*
X20552857Y-28954819D02*
X21171904Y-28954819D01*
X14843333Y-51454819D02*
X14510000Y-50978628D01*
X14271905Y-51454819D02*
X14271905Y-50454819D01*
X14271905Y-50454819D02*
X14652857Y-50454819D01*
X14652857Y-50454819D02*
X14748095Y-50502438D01*
X14748095Y-50502438D02*
X14795714Y-50550057D01*
X14795714Y-50550057D02*
X14843333Y-50645295D01*
X14843333Y-50645295D02*
X14843333Y-50788152D01*
X14843333Y-50788152D02*
X14795714Y-50883390D01*
X14795714Y-50883390D02*
X14748095Y-50931009D01*
X14748095Y-50931009D02*
X14652857Y-50978628D01*
X14652857Y-50978628D02*
X14271905Y-50978628D01*
X15414762Y-50883390D02*
X15319524Y-50835771D01*
X15319524Y-50835771D02*
X15271905Y-50788152D01*
X15271905Y-50788152D02*
X15224286Y-50692914D01*
X15224286Y-50692914D02*
X15224286Y-50645295D01*
X15224286Y-50645295D02*
X15271905Y-50550057D01*
X15271905Y-50550057D02*
X15319524Y-50502438D01*
X15319524Y-50502438D02*
X15414762Y-50454819D01*
X15414762Y-50454819D02*
X15605238Y-50454819D01*
X15605238Y-50454819D02*
X15700476Y-50502438D01*
X15700476Y-50502438D02*
X15748095Y-50550057D01*
X15748095Y-50550057D02*
X15795714Y-50645295D01*
X15795714Y-50645295D02*
X15795714Y-50692914D01*
X15795714Y-50692914D02*
X15748095Y-50788152D01*
X15748095Y-50788152D02*
X15700476Y-50835771D01*
X15700476Y-50835771D02*
X15605238Y-50883390D01*
X15605238Y-50883390D02*
X15414762Y-50883390D01*
X15414762Y-50883390D02*
X15319524Y-50931009D01*
X15319524Y-50931009D02*
X15271905Y-50978628D01*
X15271905Y-50978628D02*
X15224286Y-51073866D01*
X15224286Y-51073866D02*
X15224286Y-51264342D01*
X15224286Y-51264342D02*
X15271905Y-51359580D01*
X15271905Y-51359580D02*
X15319524Y-51407200D01*
X15319524Y-51407200D02*
X15414762Y-51454819D01*
X15414762Y-51454819D02*
X15605238Y-51454819D01*
X15605238Y-51454819D02*
X15700476Y-51407200D01*
X15700476Y-51407200D02*
X15748095Y-51359580D01*
X15748095Y-51359580D02*
X15795714Y-51264342D01*
X15795714Y-51264342D02*
X15795714Y-51073866D01*
X15795714Y-51073866D02*
X15748095Y-50978628D01*
X15748095Y-50978628D02*
X15700476Y-50931009D01*
X15700476Y-50931009D02*
X15605238Y-50883390D01*
X3533333Y-41954819D02*
X3057143Y-41954819D01*
X3057143Y-41954819D02*
X3057143Y-40954819D01*
X3771429Y-40954819D02*
X4390476Y-40954819D01*
X4390476Y-40954819D02*
X4057143Y-41335771D01*
X4057143Y-41335771D02*
X4200000Y-41335771D01*
X4200000Y-41335771D02*
X4295238Y-41383390D01*
X4295238Y-41383390D02*
X4342857Y-41431009D01*
X4342857Y-41431009D02*
X4390476Y-41526247D01*
X4390476Y-41526247D02*
X4390476Y-41764342D01*
X4390476Y-41764342D02*
X4342857Y-41859580D01*
X4342857Y-41859580D02*
X4295238Y-41907200D01*
X4295238Y-41907200D02*
X4200000Y-41954819D01*
X4200000Y-41954819D02*
X3914286Y-41954819D01*
X3914286Y-41954819D02*
X3819048Y-41907200D01*
X3819048Y-41907200D02*
X3771429Y-41859580D01*
X12143333Y-21654819D02*
X11810000Y-21178628D01*
X11571905Y-21654819D02*
X11571905Y-20654819D01*
X11571905Y-20654819D02*
X11952857Y-20654819D01*
X11952857Y-20654819D02*
X12048095Y-20702438D01*
X12048095Y-20702438D02*
X12095714Y-20750057D01*
X12095714Y-20750057D02*
X12143333Y-20845295D01*
X12143333Y-20845295D02*
X12143333Y-20988152D01*
X12143333Y-20988152D02*
X12095714Y-21083390D01*
X12095714Y-21083390D02*
X12048095Y-21131009D01*
X12048095Y-21131009D02*
X11952857Y-21178628D01*
X11952857Y-21178628D02*
X11571905Y-21178628D01*
X12619524Y-21654819D02*
X12810000Y-21654819D01*
X12810000Y-21654819D02*
X12905238Y-21607200D01*
X12905238Y-21607200D02*
X12952857Y-21559580D01*
X12952857Y-21559580D02*
X13048095Y-21416723D01*
X13048095Y-21416723D02*
X13095714Y-21226247D01*
X13095714Y-21226247D02*
X13095714Y-20845295D01*
X13095714Y-20845295D02*
X13048095Y-20750057D01*
X13048095Y-20750057D02*
X13000476Y-20702438D01*
X13000476Y-20702438D02*
X12905238Y-20654819D01*
X12905238Y-20654819D02*
X12714762Y-20654819D01*
X12714762Y-20654819D02*
X12619524Y-20702438D01*
X12619524Y-20702438D02*
X12571905Y-20750057D01*
X12571905Y-20750057D02*
X12524286Y-20845295D01*
X12524286Y-20845295D02*
X12524286Y-21083390D01*
X12524286Y-21083390D02*
X12571905Y-21178628D01*
X12571905Y-21178628D02*
X12619524Y-21226247D01*
X12619524Y-21226247D02*
X12714762Y-21273866D01*
X12714762Y-21273866D02*
X12905238Y-21273866D01*
X12905238Y-21273866D02*
X13000476Y-21226247D01*
X13000476Y-21226247D02*
X13048095Y-21178628D01*
X13048095Y-21178628D02*
X13095714Y-21083390D01*
X-232857Y-56859580D02*
X-280476Y-56907200D01*
X-280476Y-56907200D02*
X-423333Y-56954819D01*
X-423333Y-56954819D02*
X-518571Y-56954819D01*
X-518571Y-56954819D02*
X-661428Y-56907200D01*
X-661428Y-56907200D02*
X-756666Y-56811961D01*
X-756666Y-56811961D02*
X-804285Y-56716723D01*
X-804285Y-56716723D02*
X-851904Y-56526247D01*
X-851904Y-56526247D02*
X-851904Y-56383390D01*
X-851904Y-56383390D02*
X-804285Y-56192914D01*
X-804285Y-56192914D02*
X-756666Y-56097676D01*
X-756666Y-56097676D02*
X-661428Y-56002438D01*
X-661428Y-56002438D02*
X-518571Y-55954819D01*
X-518571Y-55954819D02*
X-423333Y-55954819D01*
X-423333Y-55954819D02*
X-280476Y-56002438D01*
X-280476Y-56002438D02*
X-232857Y-56050057D01*
X148095Y-56050057D02*
X195714Y-56002438D01*
X195714Y-56002438D02*
X290952Y-55954819D01*
X290952Y-55954819D02*
X529047Y-55954819D01*
X529047Y-55954819D02*
X624285Y-56002438D01*
X624285Y-56002438D02*
X671904Y-56050057D01*
X671904Y-56050057D02*
X719523Y-56145295D01*
X719523Y-56145295D02*
X719523Y-56240533D01*
X719523Y-56240533D02*
X671904Y-56383390D01*
X671904Y-56383390D02*
X100476Y-56954819D01*
X100476Y-56954819D02*
X719523Y-56954819D01*
X1576666Y-56288152D02*
X1576666Y-56954819D01*
X1338571Y-55907200D02*
X1100476Y-56621485D01*
X1100476Y-56621485D02*
X1719523Y-56621485D01*
X19267142Y-26859580D02*
X19219523Y-26907200D01*
X19219523Y-26907200D02*
X19076666Y-26954819D01*
X19076666Y-26954819D02*
X18981428Y-26954819D01*
X18981428Y-26954819D02*
X18838571Y-26907200D01*
X18838571Y-26907200D02*
X18743333Y-26811961D01*
X18743333Y-26811961D02*
X18695714Y-26716723D01*
X18695714Y-26716723D02*
X18648095Y-26526247D01*
X18648095Y-26526247D02*
X18648095Y-26383390D01*
X18648095Y-26383390D02*
X18695714Y-26192914D01*
X18695714Y-26192914D02*
X18743333Y-26097676D01*
X18743333Y-26097676D02*
X18838571Y-26002438D01*
X18838571Y-26002438D02*
X18981428Y-25954819D01*
X18981428Y-25954819D02*
X19076666Y-25954819D01*
X19076666Y-25954819D02*
X19219523Y-26002438D01*
X19219523Y-26002438D02*
X19267142Y-26050057D01*
X19648095Y-26050057D02*
X19695714Y-26002438D01*
X19695714Y-26002438D02*
X19790952Y-25954819D01*
X19790952Y-25954819D02*
X20029047Y-25954819D01*
X20029047Y-25954819D02*
X20124285Y-26002438D01*
X20124285Y-26002438D02*
X20171904Y-26050057D01*
X20171904Y-26050057D02*
X20219523Y-26145295D01*
X20219523Y-26145295D02*
X20219523Y-26240533D01*
X20219523Y-26240533D02*
X20171904Y-26383390D01*
X20171904Y-26383390D02*
X19600476Y-26954819D01*
X19600476Y-26954819D02*
X20219523Y-26954819D01*
X20695714Y-26954819D02*
X20886190Y-26954819D01*
X20886190Y-26954819D02*
X20981428Y-26907200D01*
X20981428Y-26907200D02*
X21029047Y-26859580D01*
X21029047Y-26859580D02*
X21124285Y-26716723D01*
X21124285Y-26716723D02*
X21171904Y-26526247D01*
X21171904Y-26526247D02*
X21171904Y-26145295D01*
X21171904Y-26145295D02*
X21124285Y-26050057D01*
X21124285Y-26050057D02*
X21076666Y-26002438D01*
X21076666Y-26002438D02*
X20981428Y-25954819D01*
X20981428Y-25954819D02*
X20790952Y-25954819D01*
X20790952Y-25954819D02*
X20695714Y-26002438D01*
X20695714Y-26002438D02*
X20648095Y-26050057D01*
X20648095Y-26050057D02*
X20600476Y-26145295D01*
X20600476Y-26145295D02*
X20600476Y-26383390D01*
X20600476Y-26383390D02*
X20648095Y-26478628D01*
X20648095Y-26478628D02*
X20695714Y-26526247D01*
X20695714Y-26526247D02*
X20790952Y-26573866D01*
X20790952Y-26573866D02*
X20981428Y-26573866D01*
X20981428Y-26573866D02*
X21076666Y-26526247D01*
X21076666Y-26526247D02*
X21124285Y-26478628D01*
X21124285Y-26478628D02*
X21171904Y-26383390D01*
X18267142Y-16759580D02*
X18219523Y-16807200D01*
X18219523Y-16807200D02*
X18076666Y-16854819D01*
X18076666Y-16854819D02*
X17981428Y-16854819D01*
X17981428Y-16854819D02*
X17838571Y-16807200D01*
X17838571Y-16807200D02*
X17743333Y-16711961D01*
X17743333Y-16711961D02*
X17695714Y-16616723D01*
X17695714Y-16616723D02*
X17648095Y-16426247D01*
X17648095Y-16426247D02*
X17648095Y-16283390D01*
X17648095Y-16283390D02*
X17695714Y-16092914D01*
X17695714Y-16092914D02*
X17743333Y-15997676D01*
X17743333Y-15997676D02*
X17838571Y-15902438D01*
X17838571Y-15902438D02*
X17981428Y-15854819D01*
X17981428Y-15854819D02*
X18076666Y-15854819D01*
X18076666Y-15854819D02*
X18219523Y-15902438D01*
X18219523Y-15902438D02*
X18267142Y-15950057D01*
X19219523Y-16854819D02*
X18648095Y-16854819D01*
X18933809Y-16854819D02*
X18933809Y-15854819D01*
X18933809Y-15854819D02*
X18838571Y-15997676D01*
X18838571Y-15997676D02*
X18743333Y-16092914D01*
X18743333Y-16092914D02*
X18648095Y-16140533D01*
X20076666Y-15854819D02*
X19886190Y-15854819D01*
X19886190Y-15854819D02*
X19790952Y-15902438D01*
X19790952Y-15902438D02*
X19743333Y-15950057D01*
X19743333Y-15950057D02*
X19648095Y-16092914D01*
X19648095Y-16092914D02*
X19600476Y-16283390D01*
X19600476Y-16283390D02*
X19600476Y-16664342D01*
X19600476Y-16664342D02*
X19648095Y-16759580D01*
X19648095Y-16759580D02*
X19695714Y-16807200D01*
X19695714Y-16807200D02*
X19790952Y-16854819D01*
X19790952Y-16854819D02*
X19981428Y-16854819D01*
X19981428Y-16854819D02*
X20076666Y-16807200D01*
X20076666Y-16807200D02*
X20124285Y-16759580D01*
X20124285Y-16759580D02*
X20171904Y-16664342D01*
X20171904Y-16664342D02*
X20171904Y-16426247D01*
X20171904Y-16426247D02*
X20124285Y-16331009D01*
X20124285Y-16331009D02*
X20076666Y-16283390D01*
X20076666Y-16283390D02*
X19981428Y-16235771D01*
X19981428Y-16235771D02*
X19790952Y-16235771D01*
X19790952Y-16235771D02*
X19695714Y-16283390D01*
X19695714Y-16283390D02*
X19648095Y-16331009D01*
X19648095Y-16331009D02*
X19600476Y-16426247D01*
X29867142Y-32954819D02*
X29533809Y-32478628D01*
X29295714Y-32954819D02*
X29295714Y-31954819D01*
X29295714Y-31954819D02*
X29676666Y-31954819D01*
X29676666Y-31954819D02*
X29771904Y-32002438D01*
X29771904Y-32002438D02*
X29819523Y-32050057D01*
X29819523Y-32050057D02*
X29867142Y-32145295D01*
X29867142Y-32145295D02*
X29867142Y-32288152D01*
X29867142Y-32288152D02*
X29819523Y-32383390D01*
X29819523Y-32383390D02*
X29771904Y-32431009D01*
X29771904Y-32431009D02*
X29676666Y-32478628D01*
X29676666Y-32478628D02*
X29295714Y-32478628D01*
X30819523Y-32954819D02*
X30248095Y-32954819D01*
X30533809Y-32954819D02*
X30533809Y-31954819D01*
X30533809Y-31954819D02*
X30438571Y-32097676D01*
X30438571Y-32097676D02*
X30343333Y-32192914D01*
X30343333Y-32192914D02*
X30248095Y-32240533D01*
X31152857Y-31954819D02*
X31819523Y-31954819D01*
X31819523Y-31954819D02*
X31390952Y-32954819D01*
X2967142Y-54954819D02*
X2633809Y-54478628D01*
X2395714Y-54954819D02*
X2395714Y-53954819D01*
X2395714Y-53954819D02*
X2776666Y-53954819D01*
X2776666Y-53954819D02*
X2871904Y-54002438D01*
X2871904Y-54002438D02*
X2919523Y-54050057D01*
X2919523Y-54050057D02*
X2967142Y-54145295D01*
X2967142Y-54145295D02*
X2967142Y-54288152D01*
X2967142Y-54288152D02*
X2919523Y-54383390D01*
X2919523Y-54383390D02*
X2871904Y-54431009D01*
X2871904Y-54431009D02*
X2776666Y-54478628D01*
X2776666Y-54478628D02*
X2395714Y-54478628D01*
X3919523Y-54954819D02*
X3348095Y-54954819D01*
X3633809Y-54954819D02*
X3633809Y-53954819D01*
X3633809Y-53954819D02*
X3538571Y-54097676D01*
X3538571Y-54097676D02*
X3443333Y-54192914D01*
X3443333Y-54192914D02*
X3348095Y-54240533D01*
X4776666Y-54288152D02*
X4776666Y-54954819D01*
X4538571Y-53907200D02*
X4300476Y-54621485D01*
X4300476Y-54621485D02*
X4919523Y-54621485D01*
X33543333Y-34954819D02*
X33210000Y-34478628D01*
X32971905Y-34954819D02*
X32971905Y-33954819D01*
X32971905Y-33954819D02*
X33352857Y-33954819D01*
X33352857Y-33954819D02*
X33448095Y-34002438D01*
X33448095Y-34002438D02*
X33495714Y-34050057D01*
X33495714Y-34050057D02*
X33543333Y-34145295D01*
X33543333Y-34145295D02*
X33543333Y-34288152D01*
X33543333Y-34288152D02*
X33495714Y-34383390D01*
X33495714Y-34383390D02*
X33448095Y-34431009D01*
X33448095Y-34431009D02*
X33352857Y-34478628D01*
X33352857Y-34478628D02*
X32971905Y-34478628D01*
X33876667Y-33954819D02*
X34543333Y-33954819D01*
X34543333Y-33954819D02*
X34114762Y-34954819D01*
X33067142Y-32954819D02*
X32733809Y-32478628D01*
X32495714Y-32954819D02*
X32495714Y-31954819D01*
X32495714Y-31954819D02*
X32876666Y-31954819D01*
X32876666Y-31954819D02*
X32971904Y-32002438D01*
X32971904Y-32002438D02*
X33019523Y-32050057D01*
X33019523Y-32050057D02*
X33067142Y-32145295D01*
X33067142Y-32145295D02*
X33067142Y-32288152D01*
X33067142Y-32288152D02*
X33019523Y-32383390D01*
X33019523Y-32383390D02*
X32971904Y-32431009D01*
X32971904Y-32431009D02*
X32876666Y-32478628D01*
X32876666Y-32478628D02*
X32495714Y-32478628D01*
X34019523Y-32954819D02*
X33448095Y-32954819D01*
X33733809Y-32954819D02*
X33733809Y-31954819D01*
X33733809Y-31954819D02*
X33638571Y-32097676D01*
X33638571Y-32097676D02*
X33543333Y-32192914D01*
X33543333Y-32192914D02*
X33448095Y-32240533D01*
X34638571Y-31954819D02*
X34733809Y-31954819D01*
X34733809Y-31954819D02*
X34829047Y-32002438D01*
X34829047Y-32002438D02*
X34876666Y-32050057D01*
X34876666Y-32050057D02*
X34924285Y-32145295D01*
X34924285Y-32145295D02*
X34971904Y-32335771D01*
X34971904Y-32335771D02*
X34971904Y-32573866D01*
X34971904Y-32573866D02*
X34924285Y-32764342D01*
X34924285Y-32764342D02*
X34876666Y-32859580D01*
X34876666Y-32859580D02*
X34829047Y-32907200D01*
X34829047Y-32907200D02*
X34733809Y-32954819D01*
X34733809Y-32954819D02*
X34638571Y-32954819D01*
X34638571Y-32954819D02*
X34543333Y-32907200D01*
X34543333Y-32907200D02*
X34495714Y-32859580D01*
X34495714Y-32859580D02*
X34448095Y-32764342D01*
X34448095Y-32764342D02*
X34400476Y-32573866D01*
X34400476Y-32573866D02*
X34400476Y-32335771D01*
X34400476Y-32335771D02*
X34448095Y-32145295D01*
X34448095Y-32145295D02*
X34495714Y-32050057D01*
X34495714Y-32050057D02*
X34543333Y-32002438D01*
X34543333Y-32002438D02*
X34638571Y-31954819D01*
X16267142Y-30954819D02*
X15933809Y-30478628D01*
X15695714Y-30954819D02*
X15695714Y-29954819D01*
X15695714Y-29954819D02*
X16076666Y-29954819D01*
X16076666Y-29954819D02*
X16171904Y-30002438D01*
X16171904Y-30002438D02*
X16219523Y-30050057D01*
X16219523Y-30050057D02*
X16267142Y-30145295D01*
X16267142Y-30145295D02*
X16267142Y-30288152D01*
X16267142Y-30288152D02*
X16219523Y-30383390D01*
X16219523Y-30383390D02*
X16171904Y-30431009D01*
X16171904Y-30431009D02*
X16076666Y-30478628D01*
X16076666Y-30478628D02*
X15695714Y-30478628D01*
X17219523Y-30954819D02*
X16648095Y-30954819D01*
X16933809Y-30954819D02*
X16933809Y-29954819D01*
X16933809Y-29954819D02*
X16838571Y-30097676D01*
X16838571Y-30097676D02*
X16743333Y-30192914D01*
X16743333Y-30192914D02*
X16648095Y-30240533D01*
X17695714Y-30954819D02*
X17886190Y-30954819D01*
X17886190Y-30954819D02*
X17981428Y-30907200D01*
X17981428Y-30907200D02*
X18029047Y-30859580D01*
X18029047Y-30859580D02*
X18124285Y-30716723D01*
X18124285Y-30716723D02*
X18171904Y-30526247D01*
X18171904Y-30526247D02*
X18171904Y-30145295D01*
X18171904Y-30145295D02*
X18124285Y-30050057D01*
X18124285Y-30050057D02*
X18076666Y-30002438D01*
X18076666Y-30002438D02*
X17981428Y-29954819D01*
X17981428Y-29954819D02*
X17790952Y-29954819D01*
X17790952Y-29954819D02*
X17695714Y-30002438D01*
X17695714Y-30002438D02*
X17648095Y-30050057D01*
X17648095Y-30050057D02*
X17600476Y-30145295D01*
X17600476Y-30145295D02*
X17600476Y-30383390D01*
X17600476Y-30383390D02*
X17648095Y-30478628D01*
X17648095Y-30478628D02*
X17695714Y-30526247D01*
X17695714Y-30526247D02*
X17790952Y-30573866D01*
X17790952Y-30573866D02*
X17981428Y-30573866D01*
X17981428Y-30573866D02*
X18076666Y-30526247D01*
X18076666Y-30526247D02*
X18124285Y-30478628D01*
X18124285Y-30478628D02*
X18171904Y-30383390D01*
X18743333Y-12854819D02*
X18410000Y-12378628D01*
X18171905Y-12854819D02*
X18171905Y-11854819D01*
X18171905Y-11854819D02*
X18552857Y-11854819D01*
X18552857Y-11854819D02*
X18648095Y-11902438D01*
X18648095Y-11902438D02*
X18695714Y-11950057D01*
X18695714Y-11950057D02*
X18743333Y-12045295D01*
X18743333Y-12045295D02*
X18743333Y-12188152D01*
X18743333Y-12188152D02*
X18695714Y-12283390D01*
X18695714Y-12283390D02*
X18648095Y-12331009D01*
X18648095Y-12331009D02*
X18552857Y-12378628D01*
X18552857Y-12378628D02*
X18171905Y-12378628D01*
X19076667Y-11854819D02*
X19695714Y-11854819D01*
X19695714Y-11854819D02*
X19362381Y-12235771D01*
X19362381Y-12235771D02*
X19505238Y-12235771D01*
X19505238Y-12235771D02*
X19600476Y-12283390D01*
X19600476Y-12283390D02*
X19648095Y-12331009D01*
X19648095Y-12331009D02*
X19695714Y-12426247D01*
X19695714Y-12426247D02*
X19695714Y-12664342D01*
X19695714Y-12664342D02*
X19648095Y-12759580D01*
X19648095Y-12759580D02*
X19600476Y-12807200D01*
X19600476Y-12807200D02*
X19505238Y-12854819D01*
X19505238Y-12854819D02*
X19219524Y-12854819D01*
X19219524Y-12854819D02*
X19124286Y-12807200D01*
X19124286Y-12807200D02*
X19076667Y-12759580D01*
X21943333Y-12854819D02*
X21610000Y-12378628D01*
X21371905Y-12854819D02*
X21371905Y-11854819D01*
X21371905Y-11854819D02*
X21752857Y-11854819D01*
X21752857Y-11854819D02*
X21848095Y-11902438D01*
X21848095Y-11902438D02*
X21895714Y-11950057D01*
X21895714Y-11950057D02*
X21943333Y-12045295D01*
X21943333Y-12045295D02*
X21943333Y-12188152D01*
X21943333Y-12188152D02*
X21895714Y-12283390D01*
X21895714Y-12283390D02*
X21848095Y-12331009D01*
X21848095Y-12331009D02*
X21752857Y-12378628D01*
X21752857Y-12378628D02*
X21371905Y-12378628D01*
X22895714Y-12854819D02*
X22324286Y-12854819D01*
X22610000Y-12854819D02*
X22610000Y-11854819D01*
X22610000Y-11854819D02*
X22514762Y-11997676D01*
X22514762Y-11997676D02*
X22419524Y-12092914D01*
X22419524Y-12092914D02*
X22324286Y-12140533D01*
X29867142Y-28859580D02*
X29819523Y-28907200D01*
X29819523Y-28907200D02*
X29676666Y-28954819D01*
X29676666Y-28954819D02*
X29581428Y-28954819D01*
X29581428Y-28954819D02*
X29438571Y-28907200D01*
X29438571Y-28907200D02*
X29343333Y-28811961D01*
X29343333Y-28811961D02*
X29295714Y-28716723D01*
X29295714Y-28716723D02*
X29248095Y-28526247D01*
X29248095Y-28526247D02*
X29248095Y-28383390D01*
X29248095Y-28383390D02*
X29295714Y-28192914D01*
X29295714Y-28192914D02*
X29343333Y-28097676D01*
X29343333Y-28097676D02*
X29438571Y-28002438D01*
X29438571Y-28002438D02*
X29581428Y-27954819D01*
X29581428Y-27954819D02*
X29676666Y-27954819D01*
X29676666Y-27954819D02*
X29819523Y-28002438D01*
X29819523Y-28002438D02*
X29867142Y-28050057D01*
X30200476Y-27954819D02*
X30819523Y-27954819D01*
X30819523Y-27954819D02*
X30486190Y-28335771D01*
X30486190Y-28335771D02*
X30629047Y-28335771D01*
X30629047Y-28335771D02*
X30724285Y-28383390D01*
X30724285Y-28383390D02*
X30771904Y-28431009D01*
X30771904Y-28431009D02*
X30819523Y-28526247D01*
X30819523Y-28526247D02*
X30819523Y-28764342D01*
X30819523Y-28764342D02*
X30771904Y-28859580D01*
X30771904Y-28859580D02*
X30724285Y-28907200D01*
X30724285Y-28907200D02*
X30629047Y-28954819D01*
X30629047Y-28954819D02*
X30343333Y-28954819D01*
X30343333Y-28954819D02*
X30248095Y-28907200D01*
X30248095Y-28907200D02*
X30200476Y-28859580D01*
X31438571Y-27954819D02*
X31533809Y-27954819D01*
X31533809Y-27954819D02*
X31629047Y-28002438D01*
X31629047Y-28002438D02*
X31676666Y-28050057D01*
X31676666Y-28050057D02*
X31724285Y-28145295D01*
X31724285Y-28145295D02*
X31771904Y-28335771D01*
X31771904Y-28335771D02*
X31771904Y-28573866D01*
X31771904Y-28573866D02*
X31724285Y-28764342D01*
X31724285Y-28764342D02*
X31676666Y-28859580D01*
X31676666Y-28859580D02*
X31629047Y-28907200D01*
X31629047Y-28907200D02*
X31533809Y-28954819D01*
X31533809Y-28954819D02*
X31438571Y-28954819D01*
X31438571Y-28954819D02*
X31343333Y-28907200D01*
X31343333Y-28907200D02*
X31295714Y-28859580D01*
X31295714Y-28859580D02*
X31248095Y-28764342D01*
X31248095Y-28764342D02*
X31200476Y-28573866D01*
X31200476Y-28573866D02*
X31200476Y-28335771D01*
X31200476Y-28335771D02*
X31248095Y-28145295D01*
X31248095Y-28145295D02*
X31295714Y-28050057D01*
X31295714Y-28050057D02*
X31343333Y-28002438D01*
X31343333Y-28002438D02*
X31438571Y-27954819D01*
X21148333Y-50259580D02*
X21100714Y-50307200D01*
X21100714Y-50307200D02*
X20957857Y-50354819D01*
X20957857Y-50354819D02*
X20862619Y-50354819D01*
X20862619Y-50354819D02*
X20719762Y-50307200D01*
X20719762Y-50307200D02*
X20624524Y-50211961D01*
X20624524Y-50211961D02*
X20576905Y-50116723D01*
X20576905Y-50116723D02*
X20529286Y-49926247D01*
X20529286Y-49926247D02*
X20529286Y-49783390D01*
X20529286Y-49783390D02*
X20576905Y-49592914D01*
X20576905Y-49592914D02*
X20624524Y-49497676D01*
X20624524Y-49497676D02*
X20719762Y-49402438D01*
X20719762Y-49402438D02*
X20862619Y-49354819D01*
X20862619Y-49354819D02*
X20957857Y-49354819D01*
X20957857Y-49354819D02*
X21100714Y-49402438D01*
X21100714Y-49402438D02*
X21148333Y-49450057D01*
X21719762Y-49783390D02*
X21624524Y-49735771D01*
X21624524Y-49735771D02*
X21576905Y-49688152D01*
X21576905Y-49688152D02*
X21529286Y-49592914D01*
X21529286Y-49592914D02*
X21529286Y-49545295D01*
X21529286Y-49545295D02*
X21576905Y-49450057D01*
X21576905Y-49450057D02*
X21624524Y-49402438D01*
X21624524Y-49402438D02*
X21719762Y-49354819D01*
X21719762Y-49354819D02*
X21910238Y-49354819D01*
X21910238Y-49354819D02*
X22005476Y-49402438D01*
X22005476Y-49402438D02*
X22053095Y-49450057D01*
X22053095Y-49450057D02*
X22100714Y-49545295D01*
X22100714Y-49545295D02*
X22100714Y-49592914D01*
X22100714Y-49592914D02*
X22053095Y-49688152D01*
X22053095Y-49688152D02*
X22005476Y-49735771D01*
X22005476Y-49735771D02*
X21910238Y-49783390D01*
X21910238Y-49783390D02*
X21719762Y-49783390D01*
X21719762Y-49783390D02*
X21624524Y-49831009D01*
X21624524Y-49831009D02*
X21576905Y-49878628D01*
X21576905Y-49878628D02*
X21529286Y-49973866D01*
X21529286Y-49973866D02*
X21529286Y-50164342D01*
X21529286Y-50164342D02*
X21576905Y-50259580D01*
X21576905Y-50259580D02*
X21624524Y-50307200D01*
X21624524Y-50307200D02*
X21719762Y-50354819D01*
X21719762Y-50354819D02*
X21910238Y-50354819D01*
X21910238Y-50354819D02*
X22005476Y-50307200D01*
X22005476Y-50307200D02*
X22053095Y-50259580D01*
X22053095Y-50259580D02*
X22100714Y-50164342D01*
X22100714Y-50164342D02*
X22100714Y-49973866D01*
X22100714Y-49973866D02*
X22053095Y-49878628D01*
X22053095Y-49878628D02*
X22005476Y-49831009D01*
X22005476Y-49831009D02*
X21910238Y-49783390D01*
X14367142Y-53454819D02*
X14033809Y-52978628D01*
X13795714Y-53454819D02*
X13795714Y-52454819D01*
X13795714Y-52454819D02*
X14176666Y-52454819D01*
X14176666Y-52454819D02*
X14271904Y-52502438D01*
X14271904Y-52502438D02*
X14319523Y-52550057D01*
X14319523Y-52550057D02*
X14367142Y-52645295D01*
X14367142Y-52645295D02*
X14367142Y-52788152D01*
X14367142Y-52788152D02*
X14319523Y-52883390D01*
X14319523Y-52883390D02*
X14271904Y-52931009D01*
X14271904Y-52931009D02*
X14176666Y-52978628D01*
X14176666Y-52978628D02*
X13795714Y-52978628D01*
X15319523Y-53454819D02*
X14748095Y-53454819D01*
X15033809Y-53454819D02*
X15033809Y-52454819D01*
X15033809Y-52454819D02*
X14938571Y-52597676D01*
X14938571Y-52597676D02*
X14843333Y-52692914D01*
X14843333Y-52692914D02*
X14748095Y-52740533D01*
X15652857Y-52454819D02*
X16271904Y-52454819D01*
X16271904Y-52454819D02*
X15938571Y-52835771D01*
X15938571Y-52835771D02*
X16081428Y-52835771D01*
X16081428Y-52835771D02*
X16176666Y-52883390D01*
X16176666Y-52883390D02*
X16224285Y-52931009D01*
X16224285Y-52931009D02*
X16271904Y-53026247D01*
X16271904Y-53026247D02*
X16271904Y-53264342D01*
X16271904Y-53264342D02*
X16224285Y-53359580D01*
X16224285Y-53359580D02*
X16176666Y-53407200D01*
X16176666Y-53407200D02*
X16081428Y-53454819D01*
X16081428Y-53454819D02*
X15795714Y-53454819D01*
X15795714Y-53454819D02*
X15700476Y-53407200D01*
X15700476Y-53407200D02*
X15652857Y-53359580D01*
X1558095Y-47454819D02*
X1558095Y-48264342D01*
X1558095Y-48264342D02*
X1605714Y-48359580D01*
X1605714Y-48359580D02*
X1653333Y-48407200D01*
X1653333Y-48407200D02*
X1748571Y-48454819D01*
X1748571Y-48454819D02*
X1939047Y-48454819D01*
X1939047Y-48454819D02*
X2034285Y-48407200D01*
X2034285Y-48407200D02*
X2081904Y-48359580D01*
X2081904Y-48359580D02*
X2129523Y-48264342D01*
X2129523Y-48264342D02*
X2129523Y-47454819D01*
X2510476Y-47454819D02*
X3177142Y-47454819D01*
X3177142Y-47454819D02*
X2748571Y-48454819D01*
X30867142Y-48359580D02*
X30819523Y-48407200D01*
X30819523Y-48407200D02*
X30676666Y-48454819D01*
X30676666Y-48454819D02*
X30581428Y-48454819D01*
X30581428Y-48454819D02*
X30438571Y-48407200D01*
X30438571Y-48407200D02*
X30343333Y-48311961D01*
X30343333Y-48311961D02*
X30295714Y-48216723D01*
X30295714Y-48216723D02*
X30248095Y-48026247D01*
X30248095Y-48026247D02*
X30248095Y-47883390D01*
X30248095Y-47883390D02*
X30295714Y-47692914D01*
X30295714Y-47692914D02*
X30343333Y-47597676D01*
X30343333Y-47597676D02*
X30438571Y-47502438D01*
X30438571Y-47502438D02*
X30581428Y-47454819D01*
X30581428Y-47454819D02*
X30676666Y-47454819D01*
X30676666Y-47454819D02*
X30819523Y-47502438D01*
X30819523Y-47502438D02*
X30867142Y-47550057D01*
X31200476Y-47454819D02*
X31819523Y-47454819D01*
X31819523Y-47454819D02*
X31486190Y-47835771D01*
X31486190Y-47835771D02*
X31629047Y-47835771D01*
X31629047Y-47835771D02*
X31724285Y-47883390D01*
X31724285Y-47883390D02*
X31771904Y-47931009D01*
X31771904Y-47931009D02*
X31819523Y-48026247D01*
X31819523Y-48026247D02*
X31819523Y-48264342D01*
X31819523Y-48264342D02*
X31771904Y-48359580D01*
X31771904Y-48359580D02*
X31724285Y-48407200D01*
X31724285Y-48407200D02*
X31629047Y-48454819D01*
X31629047Y-48454819D02*
X31343333Y-48454819D01*
X31343333Y-48454819D02*
X31248095Y-48407200D01*
X31248095Y-48407200D02*
X31200476Y-48359580D01*
X32152857Y-47454819D02*
X32819523Y-47454819D01*
X32819523Y-47454819D02*
X32390952Y-48454819D01*
X9648333Y-32959580D02*
X9600714Y-33007200D01*
X9600714Y-33007200D02*
X9457857Y-33054819D01*
X9457857Y-33054819D02*
X9362619Y-33054819D01*
X9362619Y-33054819D02*
X9219762Y-33007200D01*
X9219762Y-33007200D02*
X9124524Y-32911961D01*
X9124524Y-32911961D02*
X9076905Y-32816723D01*
X9076905Y-32816723D02*
X9029286Y-32626247D01*
X9029286Y-32626247D02*
X9029286Y-32483390D01*
X9029286Y-32483390D02*
X9076905Y-32292914D01*
X9076905Y-32292914D02*
X9124524Y-32197676D01*
X9124524Y-32197676D02*
X9219762Y-32102438D01*
X9219762Y-32102438D02*
X9362619Y-32054819D01*
X9362619Y-32054819D02*
X9457857Y-32054819D01*
X9457857Y-32054819D02*
X9600714Y-32102438D01*
X9600714Y-32102438D02*
X9648333Y-32150057D01*
X10600714Y-33054819D02*
X10029286Y-33054819D01*
X10315000Y-33054819D02*
X10315000Y-32054819D01*
X10315000Y-32054819D02*
X10219762Y-32197676D01*
X10219762Y-32197676D02*
X10124524Y-32292914D01*
X10124524Y-32292914D02*
X10029286Y-32340533D01*
X33067142Y-30954819D02*
X32733809Y-30478628D01*
X32495714Y-30954819D02*
X32495714Y-29954819D01*
X32495714Y-29954819D02*
X32876666Y-29954819D01*
X32876666Y-29954819D02*
X32971904Y-30002438D01*
X32971904Y-30002438D02*
X33019523Y-30050057D01*
X33019523Y-30050057D02*
X33067142Y-30145295D01*
X33067142Y-30145295D02*
X33067142Y-30288152D01*
X33067142Y-30288152D02*
X33019523Y-30383390D01*
X33019523Y-30383390D02*
X32971904Y-30431009D01*
X32971904Y-30431009D02*
X32876666Y-30478628D01*
X32876666Y-30478628D02*
X32495714Y-30478628D01*
X34019523Y-30954819D02*
X33448095Y-30954819D01*
X33733809Y-30954819D02*
X33733809Y-29954819D01*
X33733809Y-29954819D02*
X33638571Y-30097676D01*
X33638571Y-30097676D02*
X33543333Y-30192914D01*
X33543333Y-30192914D02*
X33448095Y-30240533D01*
X34924285Y-29954819D02*
X34448095Y-29954819D01*
X34448095Y-29954819D02*
X34400476Y-30431009D01*
X34400476Y-30431009D02*
X34448095Y-30383390D01*
X34448095Y-30383390D02*
X34543333Y-30335771D01*
X34543333Y-30335771D02*
X34781428Y-30335771D01*
X34781428Y-30335771D02*
X34876666Y-30383390D01*
X34876666Y-30383390D02*
X34924285Y-30431009D01*
X34924285Y-30431009D02*
X34971904Y-30526247D01*
X34971904Y-30526247D02*
X34971904Y-30764342D01*
X34971904Y-30764342D02*
X34924285Y-30859580D01*
X34924285Y-30859580D02*
X34876666Y-30907200D01*
X34876666Y-30907200D02*
X34781428Y-30954819D01*
X34781428Y-30954819D02*
X34543333Y-30954819D01*
X34543333Y-30954819D02*
X34448095Y-30907200D01*
X34448095Y-30907200D02*
X34400476Y-30859580D01*
X13267142Y-32954819D02*
X12933809Y-32478628D01*
X12695714Y-32954819D02*
X12695714Y-31954819D01*
X12695714Y-31954819D02*
X13076666Y-31954819D01*
X13076666Y-31954819D02*
X13171904Y-32002438D01*
X13171904Y-32002438D02*
X13219523Y-32050057D01*
X13219523Y-32050057D02*
X13267142Y-32145295D01*
X13267142Y-32145295D02*
X13267142Y-32288152D01*
X13267142Y-32288152D02*
X13219523Y-32383390D01*
X13219523Y-32383390D02*
X13171904Y-32431009D01*
X13171904Y-32431009D02*
X13076666Y-32478628D01*
X13076666Y-32478628D02*
X12695714Y-32478628D01*
X13648095Y-32050057D02*
X13695714Y-32002438D01*
X13695714Y-32002438D02*
X13790952Y-31954819D01*
X13790952Y-31954819D02*
X14029047Y-31954819D01*
X14029047Y-31954819D02*
X14124285Y-32002438D01*
X14124285Y-32002438D02*
X14171904Y-32050057D01*
X14171904Y-32050057D02*
X14219523Y-32145295D01*
X14219523Y-32145295D02*
X14219523Y-32240533D01*
X14219523Y-32240533D02*
X14171904Y-32383390D01*
X14171904Y-32383390D02*
X13600476Y-32954819D01*
X13600476Y-32954819D02*
X14219523Y-32954819D01*
X15076666Y-32288152D02*
X15076666Y-32954819D01*
X14838571Y-31907200D02*
X14600476Y-32621485D01*
X14600476Y-32621485D02*
X15219523Y-32621485D01*
X-227857Y-19159580D02*
X-275476Y-19207200D01*
X-275476Y-19207200D02*
X-418333Y-19254819D01*
X-418333Y-19254819D02*
X-513571Y-19254819D01*
X-513571Y-19254819D02*
X-656428Y-19207200D01*
X-656428Y-19207200D02*
X-751666Y-19111961D01*
X-751666Y-19111961D02*
X-799285Y-19016723D01*
X-799285Y-19016723D02*
X-846904Y-18826247D01*
X-846904Y-18826247D02*
X-846904Y-18683390D01*
X-846904Y-18683390D02*
X-799285Y-18492914D01*
X-799285Y-18492914D02*
X-751666Y-18397676D01*
X-751666Y-18397676D02*
X-656428Y-18302438D01*
X-656428Y-18302438D02*
X-513571Y-18254819D01*
X-513571Y-18254819D02*
X-418333Y-18254819D01*
X-418333Y-18254819D02*
X-275476Y-18302438D01*
X-275476Y-18302438D02*
X-227857Y-18350057D01*
X105476Y-18254819D02*
X724523Y-18254819D01*
X724523Y-18254819D02*
X391190Y-18635771D01*
X391190Y-18635771D02*
X534047Y-18635771D01*
X534047Y-18635771D02*
X629285Y-18683390D01*
X629285Y-18683390D02*
X676904Y-18731009D01*
X676904Y-18731009D02*
X724523Y-18826247D01*
X724523Y-18826247D02*
X724523Y-19064342D01*
X724523Y-19064342D02*
X676904Y-19159580D01*
X676904Y-19159580D02*
X629285Y-19207200D01*
X629285Y-19207200D02*
X534047Y-19254819D01*
X534047Y-19254819D02*
X248333Y-19254819D01*
X248333Y-19254819D02*
X153095Y-19207200D01*
X153095Y-19207200D02*
X105476Y-19159580D01*
X1057857Y-18254819D02*
X1676904Y-18254819D01*
X1676904Y-18254819D02*
X1343571Y-18635771D01*
X1343571Y-18635771D02*
X1486428Y-18635771D01*
X1486428Y-18635771D02*
X1581666Y-18683390D01*
X1581666Y-18683390D02*
X1629285Y-18731009D01*
X1629285Y-18731009D02*
X1676904Y-18826247D01*
X1676904Y-18826247D02*
X1676904Y-19064342D01*
X1676904Y-19064342D02*
X1629285Y-19159580D01*
X1629285Y-19159580D02*
X1581666Y-19207200D01*
X1581666Y-19207200D02*
X1486428Y-19254819D01*
X1486428Y-19254819D02*
X1200714Y-19254819D01*
X1200714Y-19254819D02*
X1105476Y-19207200D01*
X1105476Y-19207200D02*
X1057857Y-19159580D01*
X2967142Y-56859580D02*
X2919523Y-56907200D01*
X2919523Y-56907200D02*
X2776666Y-56954819D01*
X2776666Y-56954819D02*
X2681428Y-56954819D01*
X2681428Y-56954819D02*
X2538571Y-56907200D01*
X2538571Y-56907200D02*
X2443333Y-56811961D01*
X2443333Y-56811961D02*
X2395714Y-56716723D01*
X2395714Y-56716723D02*
X2348095Y-56526247D01*
X2348095Y-56526247D02*
X2348095Y-56383390D01*
X2348095Y-56383390D02*
X2395714Y-56192914D01*
X2395714Y-56192914D02*
X2443333Y-56097676D01*
X2443333Y-56097676D02*
X2538571Y-56002438D01*
X2538571Y-56002438D02*
X2681428Y-55954819D01*
X2681428Y-55954819D02*
X2776666Y-55954819D01*
X2776666Y-55954819D02*
X2919523Y-56002438D01*
X2919523Y-56002438D02*
X2967142Y-56050057D01*
X3300476Y-55954819D02*
X3919523Y-55954819D01*
X3919523Y-55954819D02*
X3586190Y-56335771D01*
X3586190Y-56335771D02*
X3729047Y-56335771D01*
X3729047Y-56335771D02*
X3824285Y-56383390D01*
X3824285Y-56383390D02*
X3871904Y-56431009D01*
X3871904Y-56431009D02*
X3919523Y-56526247D01*
X3919523Y-56526247D02*
X3919523Y-56764342D01*
X3919523Y-56764342D02*
X3871904Y-56859580D01*
X3871904Y-56859580D02*
X3824285Y-56907200D01*
X3824285Y-56907200D02*
X3729047Y-56954819D01*
X3729047Y-56954819D02*
X3443333Y-56954819D01*
X3443333Y-56954819D02*
X3348095Y-56907200D01*
X3348095Y-56907200D02*
X3300476Y-56859580D01*
X4824285Y-55954819D02*
X4348095Y-55954819D01*
X4348095Y-55954819D02*
X4300476Y-56431009D01*
X4300476Y-56431009D02*
X4348095Y-56383390D01*
X4348095Y-56383390D02*
X4443333Y-56335771D01*
X4443333Y-56335771D02*
X4681428Y-56335771D01*
X4681428Y-56335771D02*
X4776666Y-56383390D01*
X4776666Y-56383390D02*
X4824285Y-56431009D01*
X4824285Y-56431009D02*
X4871904Y-56526247D01*
X4871904Y-56526247D02*
X4871904Y-56764342D01*
X4871904Y-56764342D02*
X4824285Y-56859580D01*
X4824285Y-56859580D02*
X4776666Y-56907200D01*
X4776666Y-56907200D02*
X4681428Y-56954819D01*
X4681428Y-56954819D02*
X4443333Y-56954819D01*
X4443333Y-56954819D02*
X4348095Y-56907200D01*
X4348095Y-56907200D02*
X4300476Y-56859580D01*
X16267142Y-28954819D02*
X15933809Y-28478628D01*
X15695714Y-28954819D02*
X15695714Y-27954819D01*
X15695714Y-27954819D02*
X16076666Y-27954819D01*
X16076666Y-27954819D02*
X16171904Y-28002438D01*
X16171904Y-28002438D02*
X16219523Y-28050057D01*
X16219523Y-28050057D02*
X16267142Y-28145295D01*
X16267142Y-28145295D02*
X16267142Y-28288152D01*
X16267142Y-28288152D02*
X16219523Y-28383390D01*
X16219523Y-28383390D02*
X16171904Y-28431009D01*
X16171904Y-28431009D02*
X16076666Y-28478628D01*
X16076666Y-28478628D02*
X15695714Y-28478628D01*
X16648095Y-28050057D02*
X16695714Y-28002438D01*
X16695714Y-28002438D02*
X16790952Y-27954819D01*
X16790952Y-27954819D02*
X17029047Y-27954819D01*
X17029047Y-27954819D02*
X17124285Y-28002438D01*
X17124285Y-28002438D02*
X17171904Y-28050057D01*
X17171904Y-28050057D02*
X17219523Y-28145295D01*
X17219523Y-28145295D02*
X17219523Y-28240533D01*
X17219523Y-28240533D02*
X17171904Y-28383390D01*
X17171904Y-28383390D02*
X16600476Y-28954819D01*
X16600476Y-28954819D02*
X17219523Y-28954819D01*
X17790952Y-28383390D02*
X17695714Y-28335771D01*
X17695714Y-28335771D02*
X17648095Y-28288152D01*
X17648095Y-28288152D02*
X17600476Y-28192914D01*
X17600476Y-28192914D02*
X17600476Y-28145295D01*
X17600476Y-28145295D02*
X17648095Y-28050057D01*
X17648095Y-28050057D02*
X17695714Y-28002438D01*
X17695714Y-28002438D02*
X17790952Y-27954819D01*
X17790952Y-27954819D02*
X17981428Y-27954819D01*
X17981428Y-27954819D02*
X18076666Y-28002438D01*
X18076666Y-28002438D02*
X18124285Y-28050057D01*
X18124285Y-28050057D02*
X18171904Y-28145295D01*
X18171904Y-28145295D02*
X18171904Y-28192914D01*
X18171904Y-28192914D02*
X18124285Y-28288152D01*
X18124285Y-28288152D02*
X18076666Y-28335771D01*
X18076666Y-28335771D02*
X17981428Y-28383390D01*
X17981428Y-28383390D02*
X17790952Y-28383390D01*
X17790952Y-28383390D02*
X17695714Y-28431009D01*
X17695714Y-28431009D02*
X17648095Y-28478628D01*
X17648095Y-28478628D02*
X17600476Y-28573866D01*
X17600476Y-28573866D02*
X17600476Y-28764342D01*
X17600476Y-28764342D02*
X17648095Y-28859580D01*
X17648095Y-28859580D02*
X17695714Y-28907200D01*
X17695714Y-28907200D02*
X17790952Y-28954819D01*
X17790952Y-28954819D02*
X17981428Y-28954819D01*
X17981428Y-28954819D02*
X18076666Y-28907200D01*
X18076666Y-28907200D02*
X18124285Y-28859580D01*
X18124285Y-28859580D02*
X18171904Y-28764342D01*
X18171904Y-28764342D02*
X18171904Y-28573866D01*
X18171904Y-28573866D02*
X18124285Y-28478628D01*
X18124285Y-28478628D02*
X18076666Y-28431009D01*
X18076666Y-28431009D02*
X17981428Y-28383390D01*
X23666666Y-74454819D02*
X23666666Y-75169104D01*
X23666666Y-75169104D02*
X23619047Y-75311961D01*
X23619047Y-75311961D02*
X23523809Y-75407200D01*
X23523809Y-75407200D02*
X23380952Y-75454819D01*
X23380952Y-75454819D02*
X23285714Y-75454819D01*
X24095238Y-74550057D02*
X24142857Y-74502438D01*
X24142857Y-74502438D02*
X24238095Y-74454819D01*
X24238095Y-74454819D02*
X24476190Y-74454819D01*
X24476190Y-74454819D02*
X24571428Y-74502438D01*
X24571428Y-74502438D02*
X24619047Y-74550057D01*
X24619047Y-74550057D02*
X24666666Y-74645295D01*
X24666666Y-74645295D02*
X24666666Y-74740533D01*
X24666666Y-74740533D02*
X24619047Y-74883390D01*
X24619047Y-74883390D02*
X24047619Y-75454819D01*
X24047619Y-75454819D02*
X24666666Y-75454819D01*
X19138095Y-5454819D02*
X19138095Y-6264342D01*
X19138095Y-6264342D02*
X19185714Y-6359580D01*
X19185714Y-6359580D02*
X19233333Y-6407200D01*
X19233333Y-6407200D02*
X19328571Y-6454819D01*
X19328571Y-6454819D02*
X19519047Y-6454819D01*
X19519047Y-6454819D02*
X19614285Y-6407200D01*
X19614285Y-6407200D02*
X19661904Y-6359580D01*
X19661904Y-6359580D02*
X19709523Y-6264342D01*
X19709523Y-6264342D02*
X19709523Y-5454819D01*
X20328571Y-5883390D02*
X20233333Y-5835771D01*
X20233333Y-5835771D02*
X20185714Y-5788152D01*
X20185714Y-5788152D02*
X20138095Y-5692914D01*
X20138095Y-5692914D02*
X20138095Y-5645295D01*
X20138095Y-5645295D02*
X20185714Y-5550057D01*
X20185714Y-5550057D02*
X20233333Y-5502438D01*
X20233333Y-5502438D02*
X20328571Y-5454819D01*
X20328571Y-5454819D02*
X20519047Y-5454819D01*
X20519047Y-5454819D02*
X20614285Y-5502438D01*
X20614285Y-5502438D02*
X20661904Y-5550057D01*
X20661904Y-5550057D02*
X20709523Y-5645295D01*
X20709523Y-5645295D02*
X20709523Y-5692914D01*
X20709523Y-5692914D02*
X20661904Y-5788152D01*
X20661904Y-5788152D02*
X20614285Y-5835771D01*
X20614285Y-5835771D02*
X20519047Y-5883390D01*
X20519047Y-5883390D02*
X20328571Y-5883390D01*
X20328571Y-5883390D02*
X20233333Y-5931009D01*
X20233333Y-5931009D02*
X20185714Y-5978628D01*
X20185714Y-5978628D02*
X20138095Y-6073866D01*
X20138095Y-6073866D02*
X20138095Y-6264342D01*
X20138095Y-6264342D02*
X20185714Y-6359580D01*
X20185714Y-6359580D02*
X20233333Y-6407200D01*
X20233333Y-6407200D02*
X20328571Y-6454819D01*
X20328571Y-6454819D02*
X20519047Y-6454819D01*
X20519047Y-6454819D02*
X20614285Y-6407200D01*
X20614285Y-6407200D02*
X20661904Y-6359580D01*
X20661904Y-6359580D02*
X20709523Y-6264342D01*
X20709523Y-6264342D02*
X20709523Y-6073866D01*
X20709523Y-6073866D02*
X20661904Y-5978628D01*
X20661904Y-5978628D02*
X20614285Y-5931009D01*
X20614285Y-5931009D02*
X20519047Y-5883390D01*
X16743333Y-32954819D02*
X16410000Y-32478628D01*
X16171905Y-32954819D02*
X16171905Y-31954819D01*
X16171905Y-31954819D02*
X16552857Y-31954819D01*
X16552857Y-31954819D02*
X16648095Y-32002438D01*
X16648095Y-32002438D02*
X16695714Y-32050057D01*
X16695714Y-32050057D02*
X16743333Y-32145295D01*
X16743333Y-32145295D02*
X16743333Y-32288152D01*
X16743333Y-32288152D02*
X16695714Y-32383390D01*
X16695714Y-32383390D02*
X16648095Y-32431009D01*
X16648095Y-32431009D02*
X16552857Y-32478628D01*
X16552857Y-32478628D02*
X16171905Y-32478628D01*
X17648095Y-31954819D02*
X17171905Y-31954819D01*
X17171905Y-31954819D02*
X17124286Y-32431009D01*
X17124286Y-32431009D02*
X17171905Y-32383390D01*
X17171905Y-32383390D02*
X17267143Y-32335771D01*
X17267143Y-32335771D02*
X17505238Y-32335771D01*
X17505238Y-32335771D02*
X17600476Y-32383390D01*
X17600476Y-32383390D02*
X17648095Y-32431009D01*
X17648095Y-32431009D02*
X17695714Y-32526247D01*
X17695714Y-32526247D02*
X17695714Y-32764342D01*
X17695714Y-32764342D02*
X17648095Y-32859580D01*
X17648095Y-32859580D02*
X17600476Y-32907200D01*
X17600476Y-32907200D02*
X17505238Y-32954819D01*
X17505238Y-32954819D02*
X17267143Y-32954819D01*
X17267143Y-32954819D02*
X17171905Y-32907200D01*
X17171905Y-32907200D02*
X17124286Y-32859580D01*
X27566667Y-8007200D02*
X27709524Y-8054819D01*
X27709524Y-8054819D02*
X27947619Y-8054819D01*
X27947619Y-8054819D02*
X28042857Y-8007200D01*
X28042857Y-8007200D02*
X28090476Y-7959580D01*
X28090476Y-7959580D02*
X28138095Y-7864342D01*
X28138095Y-7864342D02*
X28138095Y-7769104D01*
X28138095Y-7769104D02*
X28090476Y-7673866D01*
X28090476Y-7673866D02*
X28042857Y-7626247D01*
X28042857Y-7626247D02*
X27947619Y-7578628D01*
X27947619Y-7578628D02*
X27757143Y-7531009D01*
X27757143Y-7531009D02*
X27661905Y-7483390D01*
X27661905Y-7483390D02*
X27614286Y-7435771D01*
X27614286Y-7435771D02*
X27566667Y-7340533D01*
X27566667Y-7340533D02*
X27566667Y-7245295D01*
X27566667Y-7245295D02*
X27614286Y-7150057D01*
X27614286Y-7150057D02*
X27661905Y-7102438D01*
X27661905Y-7102438D02*
X27757143Y-7054819D01*
X27757143Y-7054819D02*
X27995238Y-7054819D01*
X27995238Y-7054819D02*
X28138095Y-7102438D01*
X28471429Y-7054819D02*
X28709524Y-8054819D01*
X28709524Y-8054819D02*
X28900000Y-7340533D01*
X28900000Y-7340533D02*
X29090476Y-8054819D01*
X29090476Y-8054819D02*
X29328572Y-7054819D01*
X29661905Y-7150057D02*
X29709524Y-7102438D01*
X29709524Y-7102438D02*
X29804762Y-7054819D01*
X29804762Y-7054819D02*
X30042857Y-7054819D01*
X30042857Y-7054819D02*
X30138095Y-7102438D01*
X30138095Y-7102438D02*
X30185714Y-7150057D01*
X30185714Y-7150057D02*
X30233333Y-7245295D01*
X30233333Y-7245295D02*
X30233333Y-7340533D01*
X30233333Y-7340533D02*
X30185714Y-7483390D01*
X30185714Y-7483390D02*
X29614286Y-8054819D01*
X29614286Y-8054819D02*
X30233333Y-8054819D01*
X26372142Y-54359580D02*
X26324523Y-54407200D01*
X26324523Y-54407200D02*
X26181666Y-54454819D01*
X26181666Y-54454819D02*
X26086428Y-54454819D01*
X26086428Y-54454819D02*
X25943571Y-54407200D01*
X25943571Y-54407200D02*
X25848333Y-54311961D01*
X25848333Y-54311961D02*
X25800714Y-54216723D01*
X25800714Y-54216723D02*
X25753095Y-54026247D01*
X25753095Y-54026247D02*
X25753095Y-53883390D01*
X25753095Y-53883390D02*
X25800714Y-53692914D01*
X25800714Y-53692914D02*
X25848333Y-53597676D01*
X25848333Y-53597676D02*
X25943571Y-53502438D01*
X25943571Y-53502438D02*
X26086428Y-53454819D01*
X26086428Y-53454819D02*
X26181666Y-53454819D01*
X26181666Y-53454819D02*
X26324523Y-53502438D01*
X26324523Y-53502438D02*
X26372142Y-53550057D01*
X27324523Y-54454819D02*
X26753095Y-54454819D01*
X27038809Y-54454819D02*
X27038809Y-53454819D01*
X27038809Y-53454819D02*
X26943571Y-53597676D01*
X26943571Y-53597676D02*
X26848333Y-53692914D01*
X26848333Y-53692914D02*
X26753095Y-53740533D01*
X27705476Y-53550057D02*
X27753095Y-53502438D01*
X27753095Y-53502438D02*
X27848333Y-53454819D01*
X27848333Y-53454819D02*
X28086428Y-53454819D01*
X28086428Y-53454819D02*
X28181666Y-53502438D01*
X28181666Y-53502438D02*
X28229285Y-53550057D01*
X28229285Y-53550057D02*
X28276904Y-53645295D01*
X28276904Y-53645295D02*
X28276904Y-53740533D01*
X28276904Y-53740533D02*
X28229285Y-53883390D01*
X28229285Y-53883390D02*
X27657857Y-54454819D01*
X27657857Y-54454819D02*
X28276904Y-54454819D01*
X18267142Y-14759580D02*
X18219523Y-14807200D01*
X18219523Y-14807200D02*
X18076666Y-14854819D01*
X18076666Y-14854819D02*
X17981428Y-14854819D01*
X17981428Y-14854819D02*
X17838571Y-14807200D01*
X17838571Y-14807200D02*
X17743333Y-14711961D01*
X17743333Y-14711961D02*
X17695714Y-14616723D01*
X17695714Y-14616723D02*
X17648095Y-14426247D01*
X17648095Y-14426247D02*
X17648095Y-14283390D01*
X17648095Y-14283390D02*
X17695714Y-14092914D01*
X17695714Y-14092914D02*
X17743333Y-13997676D01*
X17743333Y-13997676D02*
X17838571Y-13902438D01*
X17838571Y-13902438D02*
X17981428Y-13854819D01*
X17981428Y-13854819D02*
X18076666Y-13854819D01*
X18076666Y-13854819D02*
X18219523Y-13902438D01*
X18219523Y-13902438D02*
X18267142Y-13950057D01*
X18648095Y-13950057D02*
X18695714Y-13902438D01*
X18695714Y-13902438D02*
X18790952Y-13854819D01*
X18790952Y-13854819D02*
X19029047Y-13854819D01*
X19029047Y-13854819D02*
X19124285Y-13902438D01*
X19124285Y-13902438D02*
X19171904Y-13950057D01*
X19171904Y-13950057D02*
X19219523Y-14045295D01*
X19219523Y-14045295D02*
X19219523Y-14140533D01*
X19219523Y-14140533D02*
X19171904Y-14283390D01*
X19171904Y-14283390D02*
X18600476Y-14854819D01*
X18600476Y-14854819D02*
X19219523Y-14854819D01*
X19552857Y-13854819D02*
X20219523Y-13854819D01*
X20219523Y-13854819D02*
X19790952Y-14854819D01*
X25248333Y-47859580D02*
X25200714Y-47907200D01*
X25200714Y-47907200D02*
X25057857Y-47954819D01*
X25057857Y-47954819D02*
X24962619Y-47954819D01*
X24962619Y-47954819D02*
X24819762Y-47907200D01*
X24819762Y-47907200D02*
X24724524Y-47811961D01*
X24724524Y-47811961D02*
X24676905Y-47716723D01*
X24676905Y-47716723D02*
X24629286Y-47526247D01*
X24629286Y-47526247D02*
X24629286Y-47383390D01*
X24629286Y-47383390D02*
X24676905Y-47192914D01*
X24676905Y-47192914D02*
X24724524Y-47097676D01*
X24724524Y-47097676D02*
X24819762Y-47002438D01*
X24819762Y-47002438D02*
X24962619Y-46954819D01*
X24962619Y-46954819D02*
X25057857Y-46954819D01*
X25057857Y-46954819D02*
X25200714Y-47002438D01*
X25200714Y-47002438D02*
X25248333Y-47050057D01*
X25581667Y-46954819D02*
X26248333Y-46954819D01*
X26248333Y-46954819D02*
X25819762Y-47954819D01*
X29867142Y-34954819D02*
X29533809Y-34478628D01*
X29295714Y-34954819D02*
X29295714Y-33954819D01*
X29295714Y-33954819D02*
X29676666Y-33954819D01*
X29676666Y-33954819D02*
X29771904Y-34002438D01*
X29771904Y-34002438D02*
X29819523Y-34050057D01*
X29819523Y-34050057D02*
X29867142Y-34145295D01*
X29867142Y-34145295D02*
X29867142Y-34288152D01*
X29867142Y-34288152D02*
X29819523Y-34383390D01*
X29819523Y-34383390D02*
X29771904Y-34431009D01*
X29771904Y-34431009D02*
X29676666Y-34478628D01*
X29676666Y-34478628D02*
X29295714Y-34478628D01*
X30819523Y-34954819D02*
X30248095Y-34954819D01*
X30533809Y-34954819D02*
X30533809Y-33954819D01*
X30533809Y-33954819D02*
X30438571Y-34097676D01*
X30438571Y-34097676D02*
X30343333Y-34192914D01*
X30343333Y-34192914D02*
X30248095Y-34240533D01*
X31771904Y-34954819D02*
X31200476Y-34954819D01*
X31486190Y-34954819D02*
X31486190Y-33954819D01*
X31486190Y-33954819D02*
X31390952Y-34097676D01*
X31390952Y-34097676D02*
X31295714Y-34192914D01*
X31295714Y-34192914D02*
X31200476Y-34240533D01*
X19743333Y-32954819D02*
X19410000Y-32478628D01*
X19171905Y-32954819D02*
X19171905Y-31954819D01*
X19171905Y-31954819D02*
X19552857Y-31954819D01*
X19552857Y-31954819D02*
X19648095Y-32002438D01*
X19648095Y-32002438D02*
X19695714Y-32050057D01*
X19695714Y-32050057D02*
X19743333Y-32145295D01*
X19743333Y-32145295D02*
X19743333Y-32288152D01*
X19743333Y-32288152D02*
X19695714Y-32383390D01*
X19695714Y-32383390D02*
X19648095Y-32431009D01*
X19648095Y-32431009D02*
X19552857Y-32478628D01*
X19552857Y-32478628D02*
X19171905Y-32478628D01*
X20600476Y-32288152D02*
X20600476Y-32954819D01*
X20362381Y-31907200D02*
X20124286Y-32621485D01*
X20124286Y-32621485D02*
X20743333Y-32621485D01*
X15067142Y-21559580D02*
X15019523Y-21607200D01*
X15019523Y-21607200D02*
X14876666Y-21654819D01*
X14876666Y-21654819D02*
X14781428Y-21654819D01*
X14781428Y-21654819D02*
X14638571Y-21607200D01*
X14638571Y-21607200D02*
X14543333Y-21511961D01*
X14543333Y-21511961D02*
X14495714Y-21416723D01*
X14495714Y-21416723D02*
X14448095Y-21226247D01*
X14448095Y-21226247D02*
X14448095Y-21083390D01*
X14448095Y-21083390D02*
X14495714Y-20892914D01*
X14495714Y-20892914D02*
X14543333Y-20797676D01*
X14543333Y-20797676D02*
X14638571Y-20702438D01*
X14638571Y-20702438D02*
X14781428Y-20654819D01*
X14781428Y-20654819D02*
X14876666Y-20654819D01*
X14876666Y-20654819D02*
X15019523Y-20702438D01*
X15019523Y-20702438D02*
X15067142Y-20750057D01*
X16019523Y-21654819D02*
X15448095Y-21654819D01*
X15733809Y-21654819D02*
X15733809Y-20654819D01*
X15733809Y-20654819D02*
X15638571Y-20797676D01*
X15638571Y-20797676D02*
X15543333Y-20892914D01*
X15543333Y-20892914D02*
X15448095Y-20940533D01*
X16590952Y-21083390D02*
X16495714Y-21035771D01*
X16495714Y-21035771D02*
X16448095Y-20988152D01*
X16448095Y-20988152D02*
X16400476Y-20892914D01*
X16400476Y-20892914D02*
X16400476Y-20845295D01*
X16400476Y-20845295D02*
X16448095Y-20750057D01*
X16448095Y-20750057D02*
X16495714Y-20702438D01*
X16495714Y-20702438D02*
X16590952Y-20654819D01*
X16590952Y-20654819D02*
X16781428Y-20654819D01*
X16781428Y-20654819D02*
X16876666Y-20702438D01*
X16876666Y-20702438D02*
X16924285Y-20750057D01*
X16924285Y-20750057D02*
X16971904Y-20845295D01*
X16971904Y-20845295D02*
X16971904Y-20892914D01*
X16971904Y-20892914D02*
X16924285Y-20988152D01*
X16924285Y-20988152D02*
X16876666Y-21035771D01*
X16876666Y-21035771D02*
X16781428Y-21083390D01*
X16781428Y-21083390D02*
X16590952Y-21083390D01*
X16590952Y-21083390D02*
X16495714Y-21131009D01*
X16495714Y-21131009D02*
X16448095Y-21178628D01*
X16448095Y-21178628D02*
X16400476Y-21273866D01*
X16400476Y-21273866D02*
X16400476Y-21464342D01*
X16400476Y-21464342D02*
X16448095Y-21559580D01*
X16448095Y-21559580D02*
X16495714Y-21607200D01*
X16495714Y-21607200D02*
X16590952Y-21654819D01*
X16590952Y-21654819D02*
X16781428Y-21654819D01*
X16781428Y-21654819D02*
X16876666Y-21607200D01*
X16876666Y-21607200D02*
X16924285Y-21559580D01*
X16924285Y-21559580D02*
X16971904Y-21464342D01*
X16971904Y-21464342D02*
X16971904Y-21273866D01*
X16971904Y-21273866D02*
X16924285Y-21178628D01*
X16924285Y-21178628D02*
X16876666Y-21131009D01*
X16876666Y-21131009D02*
X16781428Y-21083390D01*
X22993333Y-62454819D02*
X22517143Y-62454819D01*
X22517143Y-62454819D02*
X22517143Y-61454819D01*
X23279048Y-61550057D02*
X23326667Y-61502438D01*
X23326667Y-61502438D02*
X23421905Y-61454819D01*
X23421905Y-61454819D02*
X23660000Y-61454819D01*
X23660000Y-61454819D02*
X23755238Y-61502438D01*
X23755238Y-61502438D02*
X23802857Y-61550057D01*
X23802857Y-61550057D02*
X23850476Y-61645295D01*
X23850476Y-61645295D02*
X23850476Y-61740533D01*
X23850476Y-61740533D02*
X23802857Y-61883390D01*
X23802857Y-61883390D02*
X23231429Y-62454819D01*
X23231429Y-62454819D02*
X23850476Y-62454819D01*
X4867142Y-21559580D02*
X4819523Y-21607200D01*
X4819523Y-21607200D02*
X4676666Y-21654819D01*
X4676666Y-21654819D02*
X4581428Y-21654819D01*
X4581428Y-21654819D02*
X4438571Y-21607200D01*
X4438571Y-21607200D02*
X4343333Y-21511961D01*
X4343333Y-21511961D02*
X4295714Y-21416723D01*
X4295714Y-21416723D02*
X4248095Y-21226247D01*
X4248095Y-21226247D02*
X4248095Y-21083390D01*
X4248095Y-21083390D02*
X4295714Y-20892914D01*
X4295714Y-20892914D02*
X4343333Y-20797676D01*
X4343333Y-20797676D02*
X4438571Y-20702438D01*
X4438571Y-20702438D02*
X4581428Y-20654819D01*
X4581428Y-20654819D02*
X4676666Y-20654819D01*
X4676666Y-20654819D02*
X4819523Y-20702438D01*
X4819523Y-20702438D02*
X4867142Y-20750057D01*
X5248095Y-20750057D02*
X5295714Y-20702438D01*
X5295714Y-20702438D02*
X5390952Y-20654819D01*
X5390952Y-20654819D02*
X5629047Y-20654819D01*
X5629047Y-20654819D02*
X5724285Y-20702438D01*
X5724285Y-20702438D02*
X5771904Y-20750057D01*
X5771904Y-20750057D02*
X5819523Y-20845295D01*
X5819523Y-20845295D02*
X5819523Y-20940533D01*
X5819523Y-20940533D02*
X5771904Y-21083390D01*
X5771904Y-21083390D02*
X5200476Y-21654819D01*
X5200476Y-21654819D02*
X5819523Y-21654819D01*
X6200476Y-20750057D02*
X6248095Y-20702438D01*
X6248095Y-20702438D02*
X6343333Y-20654819D01*
X6343333Y-20654819D02*
X6581428Y-20654819D01*
X6581428Y-20654819D02*
X6676666Y-20702438D01*
X6676666Y-20702438D02*
X6724285Y-20750057D01*
X6724285Y-20750057D02*
X6771904Y-20845295D01*
X6771904Y-20845295D02*
X6771904Y-20940533D01*
X6771904Y-20940533D02*
X6724285Y-21083390D01*
X6724285Y-21083390D02*
X6152857Y-21654819D01*
X6152857Y-21654819D02*
X6771904Y-21654819D01*
X30343333Y-26859580D02*
X30295714Y-26907200D01*
X30295714Y-26907200D02*
X30152857Y-26954819D01*
X30152857Y-26954819D02*
X30057619Y-26954819D01*
X30057619Y-26954819D02*
X29914762Y-26907200D01*
X29914762Y-26907200D02*
X29819524Y-26811961D01*
X29819524Y-26811961D02*
X29771905Y-26716723D01*
X29771905Y-26716723D02*
X29724286Y-26526247D01*
X29724286Y-26526247D02*
X29724286Y-26383390D01*
X29724286Y-26383390D02*
X29771905Y-26192914D01*
X29771905Y-26192914D02*
X29819524Y-26097676D01*
X29819524Y-26097676D02*
X29914762Y-26002438D01*
X29914762Y-26002438D02*
X30057619Y-25954819D01*
X30057619Y-25954819D02*
X30152857Y-25954819D01*
X30152857Y-25954819D02*
X30295714Y-26002438D01*
X30295714Y-26002438D02*
X30343333Y-26050057D01*
X30676667Y-25954819D02*
X31295714Y-25954819D01*
X31295714Y-25954819D02*
X30962381Y-26335771D01*
X30962381Y-26335771D02*
X31105238Y-26335771D01*
X31105238Y-26335771D02*
X31200476Y-26383390D01*
X31200476Y-26383390D02*
X31248095Y-26431009D01*
X31248095Y-26431009D02*
X31295714Y-26526247D01*
X31295714Y-26526247D02*
X31295714Y-26764342D01*
X31295714Y-26764342D02*
X31248095Y-26859580D01*
X31248095Y-26859580D02*
X31200476Y-26907200D01*
X31200476Y-26907200D02*
X31105238Y-26954819D01*
X31105238Y-26954819D02*
X30819524Y-26954819D01*
X30819524Y-26954819D02*
X30724286Y-26907200D01*
X30724286Y-26907200D02*
X30676667Y-26859580D01*
X30867142Y-50454819D02*
X30533809Y-49978628D01*
X30295714Y-50454819D02*
X30295714Y-49454819D01*
X30295714Y-49454819D02*
X30676666Y-49454819D01*
X30676666Y-49454819D02*
X30771904Y-49502438D01*
X30771904Y-49502438D02*
X30819523Y-49550057D01*
X30819523Y-49550057D02*
X30867142Y-49645295D01*
X30867142Y-49645295D02*
X30867142Y-49788152D01*
X30867142Y-49788152D02*
X30819523Y-49883390D01*
X30819523Y-49883390D02*
X30771904Y-49931009D01*
X30771904Y-49931009D02*
X30676666Y-49978628D01*
X30676666Y-49978628D02*
X30295714Y-49978628D01*
X31819523Y-50454819D02*
X31248095Y-50454819D01*
X31533809Y-50454819D02*
X31533809Y-49454819D01*
X31533809Y-49454819D02*
X31438571Y-49597676D01*
X31438571Y-49597676D02*
X31343333Y-49692914D01*
X31343333Y-49692914D02*
X31248095Y-49740533D01*
X32390952Y-49883390D02*
X32295714Y-49835771D01*
X32295714Y-49835771D02*
X32248095Y-49788152D01*
X32248095Y-49788152D02*
X32200476Y-49692914D01*
X32200476Y-49692914D02*
X32200476Y-49645295D01*
X32200476Y-49645295D02*
X32248095Y-49550057D01*
X32248095Y-49550057D02*
X32295714Y-49502438D01*
X32295714Y-49502438D02*
X32390952Y-49454819D01*
X32390952Y-49454819D02*
X32581428Y-49454819D01*
X32581428Y-49454819D02*
X32676666Y-49502438D01*
X32676666Y-49502438D02*
X32724285Y-49550057D01*
X32724285Y-49550057D02*
X32771904Y-49645295D01*
X32771904Y-49645295D02*
X32771904Y-49692914D01*
X32771904Y-49692914D02*
X32724285Y-49788152D01*
X32724285Y-49788152D02*
X32676666Y-49835771D01*
X32676666Y-49835771D02*
X32581428Y-49883390D01*
X32581428Y-49883390D02*
X32390952Y-49883390D01*
X32390952Y-49883390D02*
X32295714Y-49931009D01*
X32295714Y-49931009D02*
X32248095Y-49978628D01*
X32248095Y-49978628D02*
X32200476Y-50073866D01*
X32200476Y-50073866D02*
X32200476Y-50264342D01*
X32200476Y-50264342D02*
X32248095Y-50359580D01*
X32248095Y-50359580D02*
X32295714Y-50407200D01*
X32295714Y-50407200D02*
X32390952Y-50454819D01*
X32390952Y-50454819D02*
X32581428Y-50454819D01*
X32581428Y-50454819D02*
X32676666Y-50407200D01*
X32676666Y-50407200D02*
X32724285Y-50359580D01*
X32724285Y-50359580D02*
X32771904Y-50264342D01*
X32771904Y-50264342D02*
X32771904Y-50073866D01*
X32771904Y-50073866D02*
X32724285Y-49978628D01*
X32724285Y-49978628D02*
X32676666Y-49931009D01*
X32676666Y-49931009D02*
X32581428Y-49883390D01*
X21148333Y-47859580D02*
X21100714Y-47907200D01*
X21100714Y-47907200D02*
X20957857Y-47954819D01*
X20957857Y-47954819D02*
X20862619Y-47954819D01*
X20862619Y-47954819D02*
X20719762Y-47907200D01*
X20719762Y-47907200D02*
X20624524Y-47811961D01*
X20624524Y-47811961D02*
X20576905Y-47716723D01*
X20576905Y-47716723D02*
X20529286Y-47526247D01*
X20529286Y-47526247D02*
X20529286Y-47383390D01*
X20529286Y-47383390D02*
X20576905Y-47192914D01*
X20576905Y-47192914D02*
X20624524Y-47097676D01*
X20624524Y-47097676D02*
X20719762Y-47002438D01*
X20719762Y-47002438D02*
X20862619Y-46954819D01*
X20862619Y-46954819D02*
X20957857Y-46954819D01*
X20957857Y-46954819D02*
X21100714Y-47002438D01*
X21100714Y-47002438D02*
X21148333Y-47050057D01*
X22005476Y-46954819D02*
X21815000Y-46954819D01*
X21815000Y-46954819D02*
X21719762Y-47002438D01*
X21719762Y-47002438D02*
X21672143Y-47050057D01*
X21672143Y-47050057D02*
X21576905Y-47192914D01*
X21576905Y-47192914D02*
X21529286Y-47383390D01*
X21529286Y-47383390D02*
X21529286Y-47764342D01*
X21529286Y-47764342D02*
X21576905Y-47859580D01*
X21576905Y-47859580D02*
X21624524Y-47907200D01*
X21624524Y-47907200D02*
X21719762Y-47954819D01*
X21719762Y-47954819D02*
X21910238Y-47954819D01*
X21910238Y-47954819D02*
X22005476Y-47907200D01*
X22005476Y-47907200D02*
X22053095Y-47859580D01*
X22053095Y-47859580D02*
X22100714Y-47764342D01*
X22100714Y-47764342D02*
X22100714Y-47526247D01*
X22100714Y-47526247D02*
X22053095Y-47431009D01*
X22053095Y-47431009D02*
X22005476Y-47383390D01*
X22005476Y-47383390D02*
X21910238Y-47335771D01*
X21910238Y-47335771D02*
X21719762Y-47335771D01*
X21719762Y-47335771D02*
X21624524Y-47383390D01*
X21624524Y-47383390D02*
X21576905Y-47431009D01*
X21576905Y-47431009D02*
X21529286Y-47526247D01*
X3638095Y-29429819D02*
X3638095Y-30239342D01*
X3638095Y-30239342D02*
X3685714Y-30334580D01*
X3685714Y-30334580D02*
X3733333Y-30382200D01*
X3733333Y-30382200D02*
X3828571Y-30429819D01*
X3828571Y-30429819D02*
X4019047Y-30429819D01*
X4019047Y-30429819D02*
X4114285Y-30382200D01*
X4114285Y-30382200D02*
X4161904Y-30334580D01*
X4161904Y-30334580D02*
X4209523Y-30239342D01*
X4209523Y-30239342D02*
X4209523Y-29429819D01*
X4590476Y-29429819D02*
X5209523Y-29429819D01*
X5209523Y-29429819D02*
X4876190Y-29810771D01*
X4876190Y-29810771D02*
X5019047Y-29810771D01*
X5019047Y-29810771D02*
X5114285Y-29858390D01*
X5114285Y-29858390D02*
X5161904Y-29906009D01*
X5161904Y-29906009D02*
X5209523Y-30001247D01*
X5209523Y-30001247D02*
X5209523Y-30239342D01*
X5209523Y-30239342D02*
X5161904Y-30334580D01*
X5161904Y-30334580D02*
X5114285Y-30382200D01*
X5114285Y-30382200D02*
X5019047Y-30429819D01*
X5019047Y-30429819D02*
X4733333Y-30429819D01*
X4733333Y-30429819D02*
X4638095Y-30382200D01*
X4638095Y-30382200D02*
X4590476Y-30334580D01*
X16267142Y-26859580D02*
X16219523Y-26907200D01*
X16219523Y-26907200D02*
X16076666Y-26954819D01*
X16076666Y-26954819D02*
X15981428Y-26954819D01*
X15981428Y-26954819D02*
X15838571Y-26907200D01*
X15838571Y-26907200D02*
X15743333Y-26811961D01*
X15743333Y-26811961D02*
X15695714Y-26716723D01*
X15695714Y-26716723D02*
X15648095Y-26526247D01*
X15648095Y-26526247D02*
X15648095Y-26383390D01*
X15648095Y-26383390D02*
X15695714Y-26192914D01*
X15695714Y-26192914D02*
X15743333Y-26097676D01*
X15743333Y-26097676D02*
X15838571Y-26002438D01*
X15838571Y-26002438D02*
X15981428Y-25954819D01*
X15981428Y-25954819D02*
X16076666Y-25954819D01*
X16076666Y-25954819D02*
X16219523Y-26002438D01*
X16219523Y-26002438D02*
X16267142Y-26050057D01*
X17219523Y-26954819D02*
X16648095Y-26954819D01*
X16933809Y-26954819D02*
X16933809Y-25954819D01*
X16933809Y-25954819D02*
X16838571Y-26097676D01*
X16838571Y-26097676D02*
X16743333Y-26192914D01*
X16743333Y-26192914D02*
X16648095Y-26240533D01*
X17838571Y-25954819D02*
X17933809Y-25954819D01*
X17933809Y-25954819D02*
X18029047Y-26002438D01*
X18029047Y-26002438D02*
X18076666Y-26050057D01*
X18076666Y-26050057D02*
X18124285Y-26145295D01*
X18124285Y-26145295D02*
X18171904Y-26335771D01*
X18171904Y-26335771D02*
X18171904Y-26573866D01*
X18171904Y-26573866D02*
X18124285Y-26764342D01*
X18124285Y-26764342D02*
X18076666Y-26859580D01*
X18076666Y-26859580D02*
X18029047Y-26907200D01*
X18029047Y-26907200D02*
X17933809Y-26954819D01*
X17933809Y-26954819D02*
X17838571Y-26954819D01*
X17838571Y-26954819D02*
X17743333Y-26907200D01*
X17743333Y-26907200D02*
X17695714Y-26859580D01*
X17695714Y-26859580D02*
X17648095Y-26764342D01*
X17648095Y-26764342D02*
X17600476Y-26573866D01*
X17600476Y-26573866D02*
X17600476Y-26335771D01*
X17600476Y-26335771D02*
X17648095Y-26145295D01*
X17648095Y-26145295D02*
X17695714Y-26050057D01*
X17695714Y-26050057D02*
X17743333Y-26002438D01*
X17743333Y-26002438D02*
X17838571Y-25954819D01*
X21943333Y-10854819D02*
X21610000Y-10378628D01*
X21371905Y-10854819D02*
X21371905Y-9854819D01*
X21371905Y-9854819D02*
X21752857Y-9854819D01*
X21752857Y-9854819D02*
X21848095Y-9902438D01*
X21848095Y-9902438D02*
X21895714Y-9950057D01*
X21895714Y-9950057D02*
X21943333Y-10045295D01*
X21943333Y-10045295D02*
X21943333Y-10188152D01*
X21943333Y-10188152D02*
X21895714Y-10283390D01*
X21895714Y-10283390D02*
X21848095Y-10331009D01*
X21848095Y-10331009D02*
X21752857Y-10378628D01*
X21752857Y-10378628D02*
X21371905Y-10378628D01*
X22324286Y-9950057D02*
X22371905Y-9902438D01*
X22371905Y-9902438D02*
X22467143Y-9854819D01*
X22467143Y-9854819D02*
X22705238Y-9854819D01*
X22705238Y-9854819D02*
X22800476Y-9902438D01*
X22800476Y-9902438D02*
X22848095Y-9950057D01*
X22848095Y-9950057D02*
X22895714Y-10045295D01*
X22895714Y-10045295D02*
X22895714Y-10140533D01*
X22895714Y-10140533D02*
X22848095Y-10283390D01*
X22848095Y-10283390D02*
X22276667Y-10854819D01*
X22276667Y-10854819D02*
X22895714Y-10854819D01*
X21867142Y-75859580D02*
X21819523Y-75907200D01*
X21819523Y-75907200D02*
X21676666Y-75954819D01*
X21676666Y-75954819D02*
X21581428Y-75954819D01*
X21581428Y-75954819D02*
X21438571Y-75907200D01*
X21438571Y-75907200D02*
X21343333Y-75811961D01*
X21343333Y-75811961D02*
X21295714Y-75716723D01*
X21295714Y-75716723D02*
X21248095Y-75526247D01*
X21248095Y-75526247D02*
X21248095Y-75383390D01*
X21248095Y-75383390D02*
X21295714Y-75192914D01*
X21295714Y-75192914D02*
X21343333Y-75097676D01*
X21343333Y-75097676D02*
X21438571Y-75002438D01*
X21438571Y-75002438D02*
X21581428Y-74954819D01*
X21581428Y-74954819D02*
X21676666Y-74954819D01*
X21676666Y-74954819D02*
X21819523Y-75002438D01*
X21819523Y-75002438D02*
X21867142Y-75050057D01*
X22248095Y-75050057D02*
X22295714Y-75002438D01*
X22295714Y-75002438D02*
X22390952Y-74954819D01*
X22390952Y-74954819D02*
X22629047Y-74954819D01*
X22629047Y-74954819D02*
X22724285Y-75002438D01*
X22724285Y-75002438D02*
X22771904Y-75050057D01*
X22771904Y-75050057D02*
X22819523Y-75145295D01*
X22819523Y-75145295D02*
X22819523Y-75240533D01*
X22819523Y-75240533D02*
X22771904Y-75383390D01*
X22771904Y-75383390D02*
X22200476Y-75954819D01*
X22200476Y-75954819D02*
X22819523Y-75954819D01*
X23438571Y-74954819D02*
X23533809Y-74954819D01*
X23533809Y-74954819D02*
X23629047Y-75002438D01*
X23629047Y-75002438D02*
X23676666Y-75050057D01*
X23676666Y-75050057D02*
X23724285Y-75145295D01*
X23724285Y-75145295D02*
X23771904Y-75335771D01*
X23771904Y-75335771D02*
X23771904Y-75573866D01*
X23771904Y-75573866D02*
X23724285Y-75764342D01*
X23724285Y-75764342D02*
X23676666Y-75859580D01*
X23676666Y-75859580D02*
X23629047Y-75907200D01*
X23629047Y-75907200D02*
X23533809Y-75954819D01*
X23533809Y-75954819D02*
X23438571Y-75954819D01*
X23438571Y-75954819D02*
X23343333Y-75907200D01*
X23343333Y-75907200D02*
X23295714Y-75859580D01*
X23295714Y-75859580D02*
X23248095Y-75764342D01*
X23248095Y-75764342D02*
X23200476Y-75573866D01*
X23200476Y-75573866D02*
X23200476Y-75335771D01*
X23200476Y-75335771D02*
X23248095Y-75145295D01*
X23248095Y-75145295D02*
X23295714Y-75050057D01*
X23295714Y-75050057D02*
X23343333Y-75002438D01*
X23343333Y-75002438D02*
X23438571Y-74954819D01*
X22338095Y-29454819D02*
X22338095Y-30264342D01*
X22338095Y-30264342D02*
X22385714Y-30359580D01*
X22385714Y-30359580D02*
X22433333Y-30407200D01*
X22433333Y-30407200D02*
X22528571Y-30454819D01*
X22528571Y-30454819D02*
X22719047Y-30454819D01*
X22719047Y-30454819D02*
X22814285Y-30407200D01*
X22814285Y-30407200D02*
X22861904Y-30359580D01*
X22861904Y-30359580D02*
X22909523Y-30264342D01*
X22909523Y-30264342D02*
X22909523Y-29454819D01*
X23909523Y-30454819D02*
X23338095Y-30454819D01*
X23623809Y-30454819D02*
X23623809Y-29454819D01*
X23623809Y-29454819D02*
X23528571Y-29597676D01*
X23528571Y-29597676D02*
X23433333Y-29692914D01*
X23433333Y-29692914D02*
X23338095Y-29740533D01*
X3038095Y-8754819D02*
X3038095Y-9564342D01*
X3038095Y-9564342D02*
X3085714Y-9659580D01*
X3085714Y-9659580D02*
X3133333Y-9707200D01*
X3133333Y-9707200D02*
X3228571Y-9754819D01*
X3228571Y-9754819D02*
X3419047Y-9754819D01*
X3419047Y-9754819D02*
X3514285Y-9707200D01*
X3514285Y-9707200D02*
X3561904Y-9659580D01*
X3561904Y-9659580D02*
X3609523Y-9564342D01*
X3609523Y-9564342D02*
X3609523Y-8754819D01*
X4514285Y-8754819D02*
X4323809Y-8754819D01*
X4323809Y-8754819D02*
X4228571Y-8802438D01*
X4228571Y-8802438D02*
X4180952Y-8850057D01*
X4180952Y-8850057D02*
X4085714Y-8992914D01*
X4085714Y-8992914D02*
X4038095Y-9183390D01*
X4038095Y-9183390D02*
X4038095Y-9564342D01*
X4038095Y-9564342D02*
X4085714Y-9659580D01*
X4085714Y-9659580D02*
X4133333Y-9707200D01*
X4133333Y-9707200D02*
X4228571Y-9754819D01*
X4228571Y-9754819D02*
X4419047Y-9754819D01*
X4419047Y-9754819D02*
X4514285Y-9707200D01*
X4514285Y-9707200D02*
X4561904Y-9659580D01*
X4561904Y-9659580D02*
X4609523Y-9564342D01*
X4609523Y-9564342D02*
X4609523Y-9326247D01*
X4609523Y-9326247D02*
X4561904Y-9231009D01*
X4561904Y-9231009D02*
X4514285Y-9183390D01*
X4514285Y-9183390D02*
X4419047Y-9135771D01*
X4419047Y-9135771D02*
X4228571Y-9135771D01*
X4228571Y-9135771D02*
X4133333Y-9183390D01*
X4133333Y-9183390D02*
X4085714Y-9231009D01*
X4085714Y-9231009D02*
X4038095Y-9326247D01*
X30666666Y-4654819D02*
X30666666Y-5369104D01*
X30666666Y-5369104D02*
X30619047Y-5511961D01*
X30619047Y-5511961D02*
X30523809Y-5607200D01*
X30523809Y-5607200D02*
X30380952Y-5654819D01*
X30380952Y-5654819D02*
X30285714Y-5654819D01*
X31666666Y-5654819D02*
X31095238Y-5654819D01*
X31380952Y-5654819D02*
X31380952Y-4654819D01*
X31380952Y-4654819D02*
X31285714Y-4797676D01*
X31285714Y-4797676D02*
X31190476Y-4892914D01*
X31190476Y-4892914D02*
X31095238Y-4940533D01*
X3666666Y-60254819D02*
X3666666Y-60969104D01*
X3666666Y-60969104D02*
X3619047Y-61111961D01*
X3619047Y-61111961D02*
X3523809Y-61207200D01*
X3523809Y-61207200D02*
X3380952Y-61254819D01*
X3380952Y-61254819D02*
X3285714Y-61254819D01*
X4047619Y-60254819D02*
X4666666Y-60254819D01*
X4666666Y-60254819D02*
X4333333Y-60635771D01*
X4333333Y-60635771D02*
X4476190Y-60635771D01*
X4476190Y-60635771D02*
X4571428Y-60683390D01*
X4571428Y-60683390D02*
X4619047Y-60731009D01*
X4619047Y-60731009D02*
X4666666Y-60826247D01*
X4666666Y-60826247D02*
X4666666Y-61064342D01*
X4666666Y-61064342D02*
X4619047Y-61159580D01*
X4619047Y-61159580D02*
X4571428Y-61207200D01*
X4571428Y-61207200D02*
X4476190Y-61254819D01*
X4476190Y-61254819D02*
X4190476Y-61254819D01*
X4190476Y-61254819D02*
X4095238Y-61207200D01*
X4095238Y-61207200D02*
X4047619Y-61159580D01*
X8672142Y-37359580D02*
X8624523Y-37407200D01*
X8624523Y-37407200D02*
X8481666Y-37454819D01*
X8481666Y-37454819D02*
X8386428Y-37454819D01*
X8386428Y-37454819D02*
X8243571Y-37407200D01*
X8243571Y-37407200D02*
X8148333Y-37311961D01*
X8148333Y-37311961D02*
X8100714Y-37216723D01*
X8100714Y-37216723D02*
X8053095Y-37026247D01*
X8053095Y-37026247D02*
X8053095Y-36883390D01*
X8053095Y-36883390D02*
X8100714Y-36692914D01*
X8100714Y-36692914D02*
X8148333Y-36597676D01*
X8148333Y-36597676D02*
X8243571Y-36502438D01*
X8243571Y-36502438D02*
X8386428Y-36454819D01*
X8386428Y-36454819D02*
X8481666Y-36454819D01*
X8481666Y-36454819D02*
X8624523Y-36502438D01*
X8624523Y-36502438D02*
X8672142Y-36550057D01*
X9053095Y-36550057D02*
X9100714Y-36502438D01*
X9100714Y-36502438D02*
X9195952Y-36454819D01*
X9195952Y-36454819D02*
X9434047Y-36454819D01*
X9434047Y-36454819D02*
X9529285Y-36502438D01*
X9529285Y-36502438D02*
X9576904Y-36550057D01*
X9576904Y-36550057D02*
X9624523Y-36645295D01*
X9624523Y-36645295D02*
X9624523Y-36740533D01*
X9624523Y-36740533D02*
X9576904Y-36883390D01*
X9576904Y-36883390D02*
X9005476Y-37454819D01*
X9005476Y-37454819D02*
X9624523Y-37454819D01*
X10481666Y-36454819D02*
X10291190Y-36454819D01*
X10291190Y-36454819D02*
X10195952Y-36502438D01*
X10195952Y-36502438D02*
X10148333Y-36550057D01*
X10148333Y-36550057D02*
X10053095Y-36692914D01*
X10053095Y-36692914D02*
X10005476Y-36883390D01*
X10005476Y-36883390D02*
X10005476Y-37264342D01*
X10005476Y-37264342D02*
X10053095Y-37359580D01*
X10053095Y-37359580D02*
X10100714Y-37407200D01*
X10100714Y-37407200D02*
X10195952Y-37454819D01*
X10195952Y-37454819D02*
X10386428Y-37454819D01*
X10386428Y-37454819D02*
X10481666Y-37407200D01*
X10481666Y-37407200D02*
X10529285Y-37359580D01*
X10529285Y-37359580D02*
X10576904Y-37264342D01*
X10576904Y-37264342D02*
X10576904Y-37026247D01*
X10576904Y-37026247D02*
X10529285Y-36931009D01*
X10529285Y-36931009D02*
X10481666Y-36883390D01*
X10481666Y-36883390D02*
X10386428Y-36835771D01*
X10386428Y-36835771D02*
X10195952Y-36835771D01*
X10195952Y-36835771D02*
X10100714Y-36883390D01*
X10100714Y-36883390D02*
X10053095Y-36931009D01*
X10053095Y-36931009D02*
X10005476Y-37026247D01*
X33666666Y-68254819D02*
X33666666Y-68969104D01*
X33666666Y-68969104D02*
X33619047Y-69111961D01*
X33619047Y-69111961D02*
X33523809Y-69207200D01*
X33523809Y-69207200D02*
X33380952Y-69254819D01*
X33380952Y-69254819D02*
X33285714Y-69254819D01*
X34571428Y-68588152D02*
X34571428Y-69254819D01*
X34333333Y-68207200D02*
X34095238Y-68921485D01*
X34095238Y-68921485D02*
X34714285Y-68921485D01*
X14367142Y-55359580D02*
X14319523Y-55407200D01*
X14319523Y-55407200D02*
X14176666Y-55454819D01*
X14176666Y-55454819D02*
X14081428Y-55454819D01*
X14081428Y-55454819D02*
X13938571Y-55407200D01*
X13938571Y-55407200D02*
X13843333Y-55311961D01*
X13843333Y-55311961D02*
X13795714Y-55216723D01*
X13795714Y-55216723D02*
X13748095Y-55026247D01*
X13748095Y-55026247D02*
X13748095Y-54883390D01*
X13748095Y-54883390D02*
X13795714Y-54692914D01*
X13795714Y-54692914D02*
X13843333Y-54597676D01*
X13843333Y-54597676D02*
X13938571Y-54502438D01*
X13938571Y-54502438D02*
X14081428Y-54454819D01*
X14081428Y-54454819D02*
X14176666Y-54454819D01*
X14176666Y-54454819D02*
X14319523Y-54502438D01*
X14319523Y-54502438D02*
X14367142Y-54550057D01*
X15319523Y-55454819D02*
X14748095Y-55454819D01*
X15033809Y-55454819D02*
X15033809Y-54454819D01*
X15033809Y-54454819D02*
X14938571Y-54597676D01*
X14938571Y-54597676D02*
X14843333Y-54692914D01*
X14843333Y-54692914D02*
X14748095Y-54740533D01*
X16271904Y-55454819D02*
X15700476Y-55454819D01*
X15986190Y-55454819D02*
X15986190Y-54454819D01*
X15986190Y-54454819D02*
X15890952Y-54597676D01*
X15890952Y-54597676D02*
X15795714Y-54692914D01*
X15795714Y-54692914D02*
X15700476Y-54740533D01*
X21467142Y-14759580D02*
X21419523Y-14807200D01*
X21419523Y-14807200D02*
X21276666Y-14854819D01*
X21276666Y-14854819D02*
X21181428Y-14854819D01*
X21181428Y-14854819D02*
X21038571Y-14807200D01*
X21038571Y-14807200D02*
X20943333Y-14711961D01*
X20943333Y-14711961D02*
X20895714Y-14616723D01*
X20895714Y-14616723D02*
X20848095Y-14426247D01*
X20848095Y-14426247D02*
X20848095Y-14283390D01*
X20848095Y-14283390D02*
X20895714Y-14092914D01*
X20895714Y-14092914D02*
X20943333Y-13997676D01*
X20943333Y-13997676D02*
X21038571Y-13902438D01*
X21038571Y-13902438D02*
X21181428Y-13854819D01*
X21181428Y-13854819D02*
X21276666Y-13854819D01*
X21276666Y-13854819D02*
X21419523Y-13902438D01*
X21419523Y-13902438D02*
X21467142Y-13950057D01*
X22419523Y-14854819D02*
X21848095Y-14854819D01*
X22133809Y-14854819D02*
X22133809Y-13854819D01*
X22133809Y-13854819D02*
X22038571Y-13997676D01*
X22038571Y-13997676D02*
X21943333Y-14092914D01*
X21943333Y-14092914D02*
X21848095Y-14140533D01*
X23324285Y-13854819D02*
X22848095Y-13854819D01*
X22848095Y-13854819D02*
X22800476Y-14331009D01*
X22800476Y-14331009D02*
X22848095Y-14283390D01*
X22848095Y-14283390D02*
X22943333Y-14235771D01*
X22943333Y-14235771D02*
X23181428Y-14235771D01*
X23181428Y-14235771D02*
X23276666Y-14283390D01*
X23276666Y-14283390D02*
X23324285Y-14331009D01*
X23324285Y-14331009D02*
X23371904Y-14426247D01*
X23371904Y-14426247D02*
X23371904Y-14664342D01*
X23371904Y-14664342D02*
X23324285Y-14759580D01*
X23324285Y-14759580D02*
X23276666Y-14807200D01*
X23276666Y-14807200D02*
X23181428Y-14854819D01*
X23181428Y-14854819D02*
X22943333Y-14854819D01*
X22943333Y-14854819D02*
X22848095Y-14807200D01*
X22848095Y-14807200D02*
X22800476Y-14759580D01*
X33067142Y-28859580D02*
X33019523Y-28907200D01*
X33019523Y-28907200D02*
X32876666Y-28954819D01*
X32876666Y-28954819D02*
X32781428Y-28954819D01*
X32781428Y-28954819D02*
X32638571Y-28907200D01*
X32638571Y-28907200D02*
X32543333Y-28811961D01*
X32543333Y-28811961D02*
X32495714Y-28716723D01*
X32495714Y-28716723D02*
X32448095Y-28526247D01*
X32448095Y-28526247D02*
X32448095Y-28383390D01*
X32448095Y-28383390D02*
X32495714Y-28192914D01*
X32495714Y-28192914D02*
X32543333Y-28097676D01*
X32543333Y-28097676D02*
X32638571Y-28002438D01*
X32638571Y-28002438D02*
X32781428Y-27954819D01*
X32781428Y-27954819D02*
X32876666Y-27954819D01*
X32876666Y-27954819D02*
X33019523Y-28002438D01*
X33019523Y-28002438D02*
X33067142Y-28050057D01*
X34019523Y-28954819D02*
X33448095Y-28954819D01*
X33733809Y-28954819D02*
X33733809Y-27954819D01*
X33733809Y-27954819D02*
X33638571Y-28097676D01*
X33638571Y-28097676D02*
X33543333Y-28192914D01*
X33543333Y-28192914D02*
X33448095Y-28240533D01*
X34352857Y-27954819D02*
X35019523Y-27954819D01*
X35019523Y-27954819D02*
X34590952Y-28954819D01*
X24772142Y-50259580D02*
X24724523Y-50307200D01*
X24724523Y-50307200D02*
X24581666Y-50354819D01*
X24581666Y-50354819D02*
X24486428Y-50354819D01*
X24486428Y-50354819D02*
X24343571Y-50307200D01*
X24343571Y-50307200D02*
X24248333Y-50211961D01*
X24248333Y-50211961D02*
X24200714Y-50116723D01*
X24200714Y-50116723D02*
X24153095Y-49926247D01*
X24153095Y-49926247D02*
X24153095Y-49783390D01*
X24153095Y-49783390D02*
X24200714Y-49592914D01*
X24200714Y-49592914D02*
X24248333Y-49497676D01*
X24248333Y-49497676D02*
X24343571Y-49402438D01*
X24343571Y-49402438D02*
X24486428Y-49354819D01*
X24486428Y-49354819D02*
X24581666Y-49354819D01*
X24581666Y-49354819D02*
X24724523Y-49402438D01*
X24724523Y-49402438D02*
X24772142Y-49450057D01*
X25105476Y-49354819D02*
X25724523Y-49354819D01*
X25724523Y-49354819D02*
X25391190Y-49735771D01*
X25391190Y-49735771D02*
X25534047Y-49735771D01*
X25534047Y-49735771D02*
X25629285Y-49783390D01*
X25629285Y-49783390D02*
X25676904Y-49831009D01*
X25676904Y-49831009D02*
X25724523Y-49926247D01*
X25724523Y-49926247D02*
X25724523Y-50164342D01*
X25724523Y-50164342D02*
X25676904Y-50259580D01*
X25676904Y-50259580D02*
X25629285Y-50307200D01*
X25629285Y-50307200D02*
X25534047Y-50354819D01*
X25534047Y-50354819D02*
X25248333Y-50354819D01*
X25248333Y-50354819D02*
X25153095Y-50307200D01*
X25153095Y-50307200D02*
X25105476Y-50259580D01*
X26295952Y-49783390D02*
X26200714Y-49735771D01*
X26200714Y-49735771D02*
X26153095Y-49688152D01*
X26153095Y-49688152D02*
X26105476Y-49592914D01*
X26105476Y-49592914D02*
X26105476Y-49545295D01*
X26105476Y-49545295D02*
X26153095Y-49450057D01*
X26153095Y-49450057D02*
X26200714Y-49402438D01*
X26200714Y-49402438D02*
X26295952Y-49354819D01*
X26295952Y-49354819D02*
X26486428Y-49354819D01*
X26486428Y-49354819D02*
X26581666Y-49402438D01*
X26581666Y-49402438D02*
X26629285Y-49450057D01*
X26629285Y-49450057D02*
X26676904Y-49545295D01*
X26676904Y-49545295D02*
X26676904Y-49592914D01*
X26676904Y-49592914D02*
X26629285Y-49688152D01*
X26629285Y-49688152D02*
X26581666Y-49735771D01*
X26581666Y-49735771D02*
X26486428Y-49783390D01*
X26486428Y-49783390D02*
X26295952Y-49783390D01*
X26295952Y-49783390D02*
X26200714Y-49831009D01*
X26200714Y-49831009D02*
X26153095Y-49878628D01*
X26153095Y-49878628D02*
X26105476Y-49973866D01*
X26105476Y-49973866D02*
X26105476Y-50164342D01*
X26105476Y-50164342D02*
X26153095Y-50259580D01*
X26153095Y-50259580D02*
X26200714Y-50307200D01*
X26200714Y-50307200D02*
X26295952Y-50354819D01*
X26295952Y-50354819D02*
X26486428Y-50354819D01*
X26486428Y-50354819D02*
X26581666Y-50307200D01*
X26581666Y-50307200D02*
X26629285Y-50259580D01*
X26629285Y-50259580D02*
X26676904Y-50164342D01*
X26676904Y-50164342D02*
X26676904Y-49973866D01*
X26676904Y-49973866D02*
X26629285Y-49878628D01*
X26629285Y-49878628D02*
X26581666Y-49831009D01*
X26581666Y-49831009D02*
X26486428Y-49783390D01*
X17567142Y-51454819D02*
X17233809Y-50978628D01*
X16995714Y-51454819D02*
X16995714Y-50454819D01*
X16995714Y-50454819D02*
X17376666Y-50454819D01*
X17376666Y-50454819D02*
X17471904Y-50502438D01*
X17471904Y-50502438D02*
X17519523Y-50550057D01*
X17519523Y-50550057D02*
X17567142Y-50645295D01*
X17567142Y-50645295D02*
X17567142Y-50788152D01*
X17567142Y-50788152D02*
X17519523Y-50883390D01*
X17519523Y-50883390D02*
X17471904Y-50931009D01*
X17471904Y-50931009D02*
X17376666Y-50978628D01*
X17376666Y-50978628D02*
X16995714Y-50978628D01*
X18519523Y-51454819D02*
X17948095Y-51454819D01*
X18233809Y-51454819D02*
X18233809Y-50454819D01*
X18233809Y-50454819D02*
X18138571Y-50597676D01*
X18138571Y-50597676D02*
X18043333Y-50692914D01*
X18043333Y-50692914D02*
X17948095Y-50740533D01*
X18900476Y-50550057D02*
X18948095Y-50502438D01*
X18948095Y-50502438D02*
X19043333Y-50454819D01*
X19043333Y-50454819D02*
X19281428Y-50454819D01*
X19281428Y-50454819D02*
X19376666Y-50502438D01*
X19376666Y-50502438D02*
X19424285Y-50550057D01*
X19424285Y-50550057D02*
X19471904Y-50645295D01*
X19471904Y-50645295D02*
X19471904Y-50740533D01*
X19471904Y-50740533D02*
X19424285Y-50883390D01*
X19424285Y-50883390D02*
X18852857Y-51454819D01*
X18852857Y-51454819D02*
X19471904Y-51454819D01*
X2967142Y-52954819D02*
X2633809Y-52478628D01*
X2395714Y-52954819D02*
X2395714Y-51954819D01*
X2395714Y-51954819D02*
X2776666Y-51954819D01*
X2776666Y-51954819D02*
X2871904Y-52002438D01*
X2871904Y-52002438D02*
X2919523Y-52050057D01*
X2919523Y-52050057D02*
X2967142Y-52145295D01*
X2967142Y-52145295D02*
X2967142Y-52288152D01*
X2967142Y-52288152D02*
X2919523Y-52383390D01*
X2919523Y-52383390D02*
X2871904Y-52431009D01*
X2871904Y-52431009D02*
X2776666Y-52478628D01*
X2776666Y-52478628D02*
X2395714Y-52478628D01*
X3348095Y-52050057D02*
X3395714Y-52002438D01*
X3395714Y-52002438D02*
X3490952Y-51954819D01*
X3490952Y-51954819D02*
X3729047Y-51954819D01*
X3729047Y-51954819D02*
X3824285Y-52002438D01*
X3824285Y-52002438D02*
X3871904Y-52050057D01*
X3871904Y-52050057D02*
X3919523Y-52145295D01*
X3919523Y-52145295D02*
X3919523Y-52240533D01*
X3919523Y-52240533D02*
X3871904Y-52383390D01*
X3871904Y-52383390D02*
X3300476Y-52954819D01*
X3300476Y-52954819D02*
X3919523Y-52954819D01*
X4871904Y-52954819D02*
X4300476Y-52954819D01*
X4586190Y-52954819D02*
X4586190Y-51954819D01*
X4586190Y-51954819D02*
X4490952Y-52097676D01*
X4490952Y-52097676D02*
X4395714Y-52192914D01*
X4395714Y-52192914D02*
X4300476Y-52240533D01*
X-232857Y-54954819D02*
X-566190Y-54478628D01*
X-804285Y-54954819D02*
X-804285Y-53954819D01*
X-804285Y-53954819D02*
X-423333Y-53954819D01*
X-423333Y-53954819D02*
X-328095Y-54002438D01*
X-328095Y-54002438D02*
X-280476Y-54050057D01*
X-280476Y-54050057D02*
X-232857Y-54145295D01*
X-232857Y-54145295D02*
X-232857Y-54288152D01*
X-232857Y-54288152D02*
X-280476Y-54383390D01*
X-280476Y-54383390D02*
X-328095Y-54431009D01*
X-328095Y-54431009D02*
X-423333Y-54478628D01*
X-423333Y-54478628D02*
X-804285Y-54478628D01*
X719523Y-54954819D02*
X148095Y-54954819D01*
X433809Y-54954819D02*
X433809Y-53954819D01*
X433809Y-53954819D02*
X338571Y-54097676D01*
X338571Y-54097676D02*
X243333Y-54192914D01*
X243333Y-54192914D02*
X148095Y-54240533D01*
X1576666Y-53954819D02*
X1386190Y-53954819D01*
X1386190Y-53954819D02*
X1290952Y-54002438D01*
X1290952Y-54002438D02*
X1243333Y-54050057D01*
X1243333Y-54050057D02*
X1148095Y-54192914D01*
X1148095Y-54192914D02*
X1100476Y-54383390D01*
X1100476Y-54383390D02*
X1100476Y-54764342D01*
X1100476Y-54764342D02*
X1148095Y-54859580D01*
X1148095Y-54859580D02*
X1195714Y-54907200D01*
X1195714Y-54907200D02*
X1290952Y-54954819D01*
X1290952Y-54954819D02*
X1481428Y-54954819D01*
X1481428Y-54954819D02*
X1576666Y-54907200D01*
X1576666Y-54907200D02*
X1624285Y-54859580D01*
X1624285Y-54859580D02*
X1671904Y-54764342D01*
X1671904Y-54764342D02*
X1671904Y-54526247D01*
X1671904Y-54526247D02*
X1624285Y-54431009D01*
X1624285Y-54431009D02*
X1576666Y-54383390D01*
X1576666Y-54383390D02*
X1481428Y-54335771D01*
X1481428Y-54335771D02*
X1290952Y-54335771D01*
X1290952Y-54335771D02*
X1195714Y-54383390D01*
X1195714Y-54383390D02*
X1148095Y-54431009D01*
X1148095Y-54431009D02*
X1100476Y-54526247D01*
X8267142Y-21559580D02*
X8219523Y-21607200D01*
X8219523Y-21607200D02*
X8076666Y-21654819D01*
X8076666Y-21654819D02*
X7981428Y-21654819D01*
X7981428Y-21654819D02*
X7838571Y-21607200D01*
X7838571Y-21607200D02*
X7743333Y-21511961D01*
X7743333Y-21511961D02*
X7695714Y-21416723D01*
X7695714Y-21416723D02*
X7648095Y-21226247D01*
X7648095Y-21226247D02*
X7648095Y-21083390D01*
X7648095Y-21083390D02*
X7695714Y-20892914D01*
X7695714Y-20892914D02*
X7743333Y-20797676D01*
X7743333Y-20797676D02*
X7838571Y-20702438D01*
X7838571Y-20702438D02*
X7981428Y-20654819D01*
X7981428Y-20654819D02*
X8076666Y-20654819D01*
X8076666Y-20654819D02*
X8219523Y-20702438D01*
X8219523Y-20702438D02*
X8267142Y-20750057D01*
X8648095Y-20750057D02*
X8695714Y-20702438D01*
X8695714Y-20702438D02*
X8790952Y-20654819D01*
X8790952Y-20654819D02*
X9029047Y-20654819D01*
X9029047Y-20654819D02*
X9124285Y-20702438D01*
X9124285Y-20702438D02*
X9171904Y-20750057D01*
X9171904Y-20750057D02*
X9219523Y-20845295D01*
X9219523Y-20845295D02*
X9219523Y-20940533D01*
X9219523Y-20940533D02*
X9171904Y-21083390D01*
X9171904Y-21083390D02*
X8600476Y-21654819D01*
X8600476Y-21654819D02*
X9219523Y-21654819D01*
X9552857Y-20654819D02*
X10171904Y-20654819D01*
X10171904Y-20654819D02*
X9838571Y-21035771D01*
X9838571Y-21035771D02*
X9981428Y-21035771D01*
X9981428Y-21035771D02*
X10076666Y-21083390D01*
X10076666Y-21083390D02*
X10124285Y-21131009D01*
X10124285Y-21131009D02*
X10171904Y-21226247D01*
X10171904Y-21226247D02*
X10171904Y-21464342D01*
X10171904Y-21464342D02*
X10124285Y-21559580D01*
X10124285Y-21559580D02*
X10076666Y-21607200D01*
X10076666Y-21607200D02*
X9981428Y-21654819D01*
X9981428Y-21654819D02*
X9695714Y-21654819D01*
X9695714Y-21654819D02*
X9600476Y-21607200D01*
X9600476Y-21607200D02*
X9552857Y-21559580D01*
X16972142Y-19159580D02*
X16924523Y-19207200D01*
X16924523Y-19207200D02*
X16781666Y-19254819D01*
X16781666Y-19254819D02*
X16686428Y-19254819D01*
X16686428Y-19254819D02*
X16543571Y-19207200D01*
X16543571Y-19207200D02*
X16448333Y-19111961D01*
X16448333Y-19111961D02*
X16400714Y-19016723D01*
X16400714Y-19016723D02*
X16353095Y-18826247D01*
X16353095Y-18826247D02*
X16353095Y-18683390D01*
X16353095Y-18683390D02*
X16400714Y-18492914D01*
X16400714Y-18492914D02*
X16448333Y-18397676D01*
X16448333Y-18397676D02*
X16543571Y-18302438D01*
X16543571Y-18302438D02*
X16686428Y-18254819D01*
X16686428Y-18254819D02*
X16781666Y-18254819D01*
X16781666Y-18254819D02*
X16924523Y-18302438D01*
X16924523Y-18302438D02*
X16972142Y-18350057D01*
X17305476Y-18254819D02*
X17924523Y-18254819D01*
X17924523Y-18254819D02*
X17591190Y-18635771D01*
X17591190Y-18635771D02*
X17734047Y-18635771D01*
X17734047Y-18635771D02*
X17829285Y-18683390D01*
X17829285Y-18683390D02*
X17876904Y-18731009D01*
X17876904Y-18731009D02*
X17924523Y-18826247D01*
X17924523Y-18826247D02*
X17924523Y-19064342D01*
X17924523Y-19064342D02*
X17876904Y-19159580D01*
X17876904Y-19159580D02*
X17829285Y-19207200D01*
X17829285Y-19207200D02*
X17734047Y-19254819D01*
X17734047Y-19254819D02*
X17448333Y-19254819D01*
X17448333Y-19254819D02*
X17353095Y-19207200D01*
X17353095Y-19207200D02*
X17305476Y-19159580D01*
X18305476Y-18350057D02*
X18353095Y-18302438D01*
X18353095Y-18302438D02*
X18448333Y-18254819D01*
X18448333Y-18254819D02*
X18686428Y-18254819D01*
X18686428Y-18254819D02*
X18781666Y-18302438D01*
X18781666Y-18302438D02*
X18829285Y-18350057D01*
X18829285Y-18350057D02*
X18876904Y-18445295D01*
X18876904Y-18445295D02*
X18876904Y-18540533D01*
X18876904Y-18540533D02*
X18829285Y-18683390D01*
X18829285Y-18683390D02*
X18257857Y-19254819D01*
X18257857Y-19254819D02*
X18876904Y-19254819D01*
X16238095Y-46454819D02*
X16238095Y-47264342D01*
X16238095Y-47264342D02*
X16285714Y-47359580D01*
X16285714Y-47359580D02*
X16333333Y-47407200D01*
X16333333Y-47407200D02*
X16428571Y-47454819D01*
X16428571Y-47454819D02*
X16619047Y-47454819D01*
X16619047Y-47454819D02*
X16714285Y-47407200D01*
X16714285Y-47407200D02*
X16761904Y-47359580D01*
X16761904Y-47359580D02*
X16809523Y-47264342D01*
X16809523Y-47264342D02*
X16809523Y-46454819D01*
X17238095Y-46550057D02*
X17285714Y-46502438D01*
X17285714Y-46502438D02*
X17380952Y-46454819D01*
X17380952Y-46454819D02*
X17619047Y-46454819D01*
X17619047Y-46454819D02*
X17714285Y-46502438D01*
X17714285Y-46502438D02*
X17761904Y-46550057D01*
X17761904Y-46550057D02*
X17809523Y-46645295D01*
X17809523Y-46645295D02*
X17809523Y-46740533D01*
X17809523Y-46740533D02*
X17761904Y-46883390D01*
X17761904Y-46883390D02*
X17190476Y-47454819D01*
X17190476Y-47454819D02*
X17809523Y-47454819D01*
X21467142Y-16759580D02*
X21419523Y-16807200D01*
X21419523Y-16807200D02*
X21276666Y-16854819D01*
X21276666Y-16854819D02*
X21181428Y-16854819D01*
X21181428Y-16854819D02*
X21038571Y-16807200D01*
X21038571Y-16807200D02*
X20943333Y-16711961D01*
X20943333Y-16711961D02*
X20895714Y-16616723D01*
X20895714Y-16616723D02*
X20848095Y-16426247D01*
X20848095Y-16426247D02*
X20848095Y-16283390D01*
X20848095Y-16283390D02*
X20895714Y-16092914D01*
X20895714Y-16092914D02*
X20943333Y-15997676D01*
X20943333Y-15997676D02*
X21038571Y-15902438D01*
X21038571Y-15902438D02*
X21181428Y-15854819D01*
X21181428Y-15854819D02*
X21276666Y-15854819D01*
X21276666Y-15854819D02*
X21419523Y-15902438D01*
X21419523Y-15902438D02*
X21467142Y-15950057D01*
X22419523Y-16854819D02*
X21848095Y-16854819D01*
X22133809Y-16854819D02*
X22133809Y-15854819D01*
X22133809Y-15854819D02*
X22038571Y-15997676D01*
X22038571Y-15997676D02*
X21943333Y-16092914D01*
X21943333Y-16092914D02*
X21848095Y-16140533D01*
X23276666Y-16188152D02*
X23276666Y-16854819D01*
X23038571Y-15807200D02*
X22800476Y-16521485D01*
X22800476Y-16521485D02*
X23419523Y-16521485D01*
X13666666Y-54484819D02*
X13666666Y-55199104D01*
X13666666Y-55199104D02*
X13619047Y-55341961D01*
X13619047Y-55341961D02*
X13523809Y-55437200D01*
X13523809Y-55437200D02*
X13380952Y-55484819D01*
X13380952Y-55484819D02*
X13285714Y-55484819D01*
X14619047Y-54484819D02*
X14142857Y-54484819D01*
X14142857Y-54484819D02*
X14095238Y-54961009D01*
X14095238Y-54961009D02*
X14142857Y-54913390D01*
X14142857Y-54913390D02*
X14238095Y-54865771D01*
X14238095Y-54865771D02*
X14476190Y-54865771D01*
X14476190Y-54865771D02*
X14571428Y-54913390D01*
X14571428Y-54913390D02*
X14619047Y-54961009D01*
X14619047Y-54961009D02*
X14666666Y-55056247D01*
X14666666Y-55056247D02*
X14666666Y-55294342D01*
X14666666Y-55294342D02*
X14619047Y-55389580D01*
X14619047Y-55389580D02*
X14571428Y-55437200D01*
X14571428Y-55437200D02*
X14476190Y-55484819D01*
X14476190Y-55484819D02*
X14238095Y-55484819D01*
X14238095Y-55484819D02*
X14142857Y-55437200D01*
X14142857Y-55437200D02*
X14095238Y-55389580D01*
X22171905Y-21654819D02*
X22171905Y-20654819D01*
X22171905Y-20654819D02*
X22410000Y-20654819D01*
X22410000Y-20654819D02*
X22552857Y-20702438D01*
X22552857Y-20702438D02*
X22648095Y-20797676D01*
X22648095Y-20797676D02*
X22695714Y-20892914D01*
X22695714Y-20892914D02*
X22743333Y-21083390D01*
X22743333Y-21083390D02*
X22743333Y-21226247D01*
X22743333Y-21226247D02*
X22695714Y-21416723D01*
X22695714Y-21416723D02*
X22648095Y-21511961D01*
X22648095Y-21511961D02*
X22552857Y-21607200D01*
X22552857Y-21607200D02*
X22410000Y-21654819D01*
X22410000Y-21654819D02*
X22171905Y-21654819D01*
X23695714Y-21654819D02*
X23124286Y-21654819D01*
X23410000Y-21654819D02*
X23410000Y-20654819D01*
X23410000Y-20654819D02*
X23314762Y-20797676D01*
X23314762Y-20797676D02*
X23219524Y-20892914D01*
X23219524Y-20892914D02*
X23124286Y-20940533D01*
X18467142Y-21654819D02*
X18133809Y-21178628D01*
X17895714Y-21654819D02*
X17895714Y-20654819D01*
X17895714Y-20654819D02*
X18276666Y-20654819D01*
X18276666Y-20654819D02*
X18371904Y-20702438D01*
X18371904Y-20702438D02*
X18419523Y-20750057D01*
X18419523Y-20750057D02*
X18467142Y-20845295D01*
X18467142Y-20845295D02*
X18467142Y-20988152D01*
X18467142Y-20988152D02*
X18419523Y-21083390D01*
X18419523Y-21083390D02*
X18371904Y-21131009D01*
X18371904Y-21131009D02*
X18276666Y-21178628D01*
X18276666Y-21178628D02*
X17895714Y-21178628D01*
X18848095Y-20750057D02*
X18895714Y-20702438D01*
X18895714Y-20702438D02*
X18990952Y-20654819D01*
X18990952Y-20654819D02*
X19229047Y-20654819D01*
X19229047Y-20654819D02*
X19324285Y-20702438D01*
X19324285Y-20702438D02*
X19371904Y-20750057D01*
X19371904Y-20750057D02*
X19419523Y-20845295D01*
X19419523Y-20845295D02*
X19419523Y-20940533D01*
X19419523Y-20940533D02*
X19371904Y-21083390D01*
X19371904Y-21083390D02*
X18800476Y-21654819D01*
X18800476Y-21654819D02*
X19419523Y-21654819D01*
X20038571Y-20654819D02*
X20133809Y-20654819D01*
X20133809Y-20654819D02*
X20229047Y-20702438D01*
X20229047Y-20702438D02*
X20276666Y-20750057D01*
X20276666Y-20750057D02*
X20324285Y-20845295D01*
X20324285Y-20845295D02*
X20371904Y-21035771D01*
X20371904Y-21035771D02*
X20371904Y-21273866D01*
X20371904Y-21273866D02*
X20324285Y-21464342D01*
X20324285Y-21464342D02*
X20276666Y-21559580D01*
X20276666Y-21559580D02*
X20229047Y-21607200D01*
X20229047Y-21607200D02*
X20133809Y-21654819D01*
X20133809Y-21654819D02*
X20038571Y-21654819D01*
X20038571Y-21654819D02*
X19943333Y-21607200D01*
X19943333Y-21607200D02*
X19895714Y-21559580D01*
X19895714Y-21559580D02*
X19848095Y-21464342D01*
X19848095Y-21464342D02*
X19800476Y-21273866D01*
X19800476Y-21273866D02*
X19800476Y-21035771D01*
X19800476Y-21035771D02*
X19848095Y-20845295D01*
X19848095Y-20845295D02*
X19895714Y-20750057D01*
X19895714Y-20750057D02*
X19943333Y-20702438D01*
X19943333Y-20702438D02*
X20038571Y-20654819D01*
X12672142Y-19159580D02*
X12624523Y-19207200D01*
X12624523Y-19207200D02*
X12481666Y-19254819D01*
X12481666Y-19254819D02*
X12386428Y-19254819D01*
X12386428Y-19254819D02*
X12243571Y-19207200D01*
X12243571Y-19207200D02*
X12148333Y-19111961D01*
X12148333Y-19111961D02*
X12100714Y-19016723D01*
X12100714Y-19016723D02*
X12053095Y-18826247D01*
X12053095Y-18826247D02*
X12053095Y-18683390D01*
X12053095Y-18683390D02*
X12100714Y-18492914D01*
X12100714Y-18492914D02*
X12148333Y-18397676D01*
X12148333Y-18397676D02*
X12243571Y-18302438D01*
X12243571Y-18302438D02*
X12386428Y-18254819D01*
X12386428Y-18254819D02*
X12481666Y-18254819D01*
X12481666Y-18254819D02*
X12624523Y-18302438D01*
X12624523Y-18302438D02*
X12672142Y-18350057D01*
X13005476Y-18254819D02*
X13624523Y-18254819D01*
X13624523Y-18254819D02*
X13291190Y-18635771D01*
X13291190Y-18635771D02*
X13434047Y-18635771D01*
X13434047Y-18635771D02*
X13529285Y-18683390D01*
X13529285Y-18683390D02*
X13576904Y-18731009D01*
X13576904Y-18731009D02*
X13624523Y-18826247D01*
X13624523Y-18826247D02*
X13624523Y-19064342D01*
X13624523Y-19064342D02*
X13576904Y-19159580D01*
X13576904Y-19159580D02*
X13529285Y-19207200D01*
X13529285Y-19207200D02*
X13434047Y-19254819D01*
X13434047Y-19254819D02*
X13148333Y-19254819D01*
X13148333Y-19254819D02*
X13053095Y-19207200D01*
X13053095Y-19207200D02*
X13005476Y-19159580D01*
X14576904Y-19254819D02*
X14005476Y-19254819D01*
X14291190Y-19254819D02*
X14291190Y-18254819D01*
X14291190Y-18254819D02*
X14195952Y-18397676D01*
X14195952Y-18397676D02*
X14100714Y-18492914D01*
X14100714Y-18492914D02*
X14005476Y-18540533D01*
X18267142Y-10854819D02*
X17933809Y-10378628D01*
X17695714Y-10854819D02*
X17695714Y-9854819D01*
X17695714Y-9854819D02*
X18076666Y-9854819D01*
X18076666Y-9854819D02*
X18171904Y-9902438D01*
X18171904Y-9902438D02*
X18219523Y-9950057D01*
X18219523Y-9950057D02*
X18267142Y-10045295D01*
X18267142Y-10045295D02*
X18267142Y-10188152D01*
X18267142Y-10188152D02*
X18219523Y-10283390D01*
X18219523Y-10283390D02*
X18171904Y-10331009D01*
X18171904Y-10331009D02*
X18076666Y-10378628D01*
X18076666Y-10378628D02*
X17695714Y-10378628D01*
X18648095Y-9950057D02*
X18695714Y-9902438D01*
X18695714Y-9902438D02*
X18790952Y-9854819D01*
X18790952Y-9854819D02*
X19029047Y-9854819D01*
X19029047Y-9854819D02*
X19124285Y-9902438D01*
X19124285Y-9902438D02*
X19171904Y-9950057D01*
X19171904Y-9950057D02*
X19219523Y-10045295D01*
X19219523Y-10045295D02*
X19219523Y-10140533D01*
X19219523Y-10140533D02*
X19171904Y-10283390D01*
X19171904Y-10283390D02*
X18600476Y-10854819D01*
X18600476Y-10854819D02*
X19219523Y-10854819D01*
X19695714Y-10854819D02*
X19886190Y-10854819D01*
X19886190Y-10854819D02*
X19981428Y-10807200D01*
X19981428Y-10807200D02*
X20029047Y-10759580D01*
X20029047Y-10759580D02*
X20124285Y-10616723D01*
X20124285Y-10616723D02*
X20171904Y-10426247D01*
X20171904Y-10426247D02*
X20171904Y-10045295D01*
X20171904Y-10045295D02*
X20124285Y-9950057D01*
X20124285Y-9950057D02*
X20076666Y-9902438D01*
X20076666Y-9902438D02*
X19981428Y-9854819D01*
X19981428Y-9854819D02*
X19790952Y-9854819D01*
X19790952Y-9854819D02*
X19695714Y-9902438D01*
X19695714Y-9902438D02*
X19648095Y-9950057D01*
X19648095Y-9950057D02*
X19600476Y-10045295D01*
X19600476Y-10045295D02*
X19600476Y-10283390D01*
X19600476Y-10283390D02*
X19648095Y-10378628D01*
X19648095Y-10378628D02*
X19695714Y-10426247D01*
X19695714Y-10426247D02*
X19790952Y-10473866D01*
X19790952Y-10473866D02*
X19981428Y-10473866D01*
X19981428Y-10473866D02*
X20076666Y-10426247D01*
X20076666Y-10426247D02*
X20124285Y-10378628D01*
X20124285Y-10378628D02*
X20171904Y-10283390D01*
X23533333Y-40954819D02*
X23057143Y-40954819D01*
X23057143Y-40954819D02*
X23057143Y-39954819D01*
X24390476Y-40954819D02*
X23819048Y-40954819D01*
X24104762Y-40954819D02*
X24104762Y-39954819D01*
X24104762Y-39954819D02*
X24009524Y-40097676D01*
X24009524Y-40097676D02*
X23914286Y-40192914D01*
X23914286Y-40192914D02*
X23819048Y-40240533D01*
%TO.C,C19*%
D11*
X18310000Y-53400000D02*
X18310000Y-52600000D01*
X19420000Y-52290000D02*
X18620000Y-52290000D01*
X19420000Y-53710000D02*
X18620000Y-53710000D01*
X19980000Y-52290000D02*
X20780000Y-52290000D01*
X19980000Y-53710000D02*
X20780000Y-53710000D01*
X21090000Y-52600000D02*
X21090000Y-53400000D01*
X18310000Y-52600000D02*
G75*
G02*
X18620000Y-52290000I310000J0D01*
G01*
X18620000Y-53710000D02*
G75*
G02*
X18310000Y-53400000I0J310000D01*
G01*
X20780000Y-52290000D02*
G75*
G02*
X21090000Y-52600000I0J-310000D01*
G01*
X21090000Y-53400000D02*
G75*
G02*
X20780000Y-53710000I-310000J0D01*
G01*
%TO.C,R30*%
D10*
X510000Y-51840000D02*
X1470000Y-51840000D01*
X510000Y-53160000D02*
X510000Y-51840000D01*
X1470000Y-53160000D02*
X510000Y-53160000D01*
X2330000Y-53160000D02*
X3290000Y-53160000D01*
X3290000Y-51840000D02*
X2330000Y-51840000D01*
X3290000Y-53160000D02*
X3290000Y-51840000D01*
%TO.C,R26*%
X26510000Y-20540000D02*
X27470000Y-20540000D01*
X26510000Y-21860000D02*
X26510000Y-20540000D01*
X27470000Y-21860000D02*
X26510000Y-21860000D01*
X28330000Y-21860000D02*
X29290000Y-21860000D01*
X29290000Y-20540000D02*
X28330000Y-20540000D01*
X29290000Y-21860000D02*
X29290000Y-20540000D01*
%TO.C,C36*%
D11*
X33810000Y-26900000D02*
X33810000Y-26100000D01*
X34920000Y-25790000D02*
X34120000Y-25790000D01*
X34920000Y-27210000D02*
X34120000Y-27210000D01*
X35480000Y-25790000D02*
X36280000Y-25790000D01*
X35480000Y-27210000D02*
X36280000Y-27210000D01*
X36590000Y-26100000D02*
X36590000Y-26900000D01*
X33810000Y-26100000D02*
G75*
G02*
X34120000Y-25790000I310000J0D01*
G01*
X34120000Y-27210000D02*
G75*
G02*
X33810000Y-26900000I0J310000D01*
G01*
X36280000Y-25790000D02*
G75*
G02*
X36590000Y-26100000I0J-310000D01*
G01*
X36590000Y-26900000D02*
G75*
G02*
X36280000Y-27210000I-310000J0D01*
G01*
%TO.C,C21*%
D10*
X515000Y-20375000D02*
X2000000Y-20300000D01*
X515000Y-22025000D02*
X515000Y-20375000D01*
X2000000Y-22100000D02*
X515000Y-22025000D01*
X2800000Y-22100000D02*
X4285000Y-22025000D01*
X4285000Y-20375000D02*
X2800000Y-20300000D01*
X4285000Y-22025000D02*
X4285000Y-20375000D01*
X440000Y-20450000D02*
G75*
G02*
X590000Y-20300000I150000J0D01*
G01*
X590000Y-22100000D02*
G75*
G02*
X440000Y-21950000I0J150000D01*
G01*
X4210000Y-20300000D02*
G75*
G02*
X4360000Y-20450000I0J-150000D01*
G01*
X4360000Y-21950000D02*
G75*
G02*
X4210000Y-22100000I-150000J0D01*
G01*
%TO.C,U5*%
D11*
X23300000Y-71000000D02*
X24300000Y-71000000D01*
X23300000Y-71780000D02*
X23300000Y-71000000D01*
X23300000Y-74000000D02*
X23300000Y-73210930D01*
X23300000Y-74000000D02*
X24300000Y-74000000D01*
X24700000Y-72810000D02*
X24700000Y-72180000D01*
%TO.C,C25*%
X9610000Y-35000000D02*
X9610000Y-34200000D01*
X10720000Y-33890000D02*
X9920000Y-33890000D01*
X10720000Y-35310000D02*
X9920000Y-35310000D01*
X11280000Y-33890000D02*
X12080000Y-33890000D01*
X11280000Y-35310000D02*
X12080000Y-35310000D01*
X12390000Y-34200000D02*
X12390000Y-35000000D01*
X9610000Y-34200000D02*
G75*
G02*
X9920000Y-33890000I310000J0D01*
G01*
X9920000Y-35310000D02*
G75*
G02*
X9610000Y-35000000I0J310000D01*
G01*
X12080000Y-33890000D02*
G75*
G02*
X12390000Y-34200000I0J-310000D01*
G01*
X12390000Y-35000000D02*
G75*
G02*
X12080000Y-35310000I-310000J0D01*
G01*
%TO.C,C2*%
D10*
X22015000Y-17975000D02*
X23500000Y-17900000D01*
X22015000Y-19625000D02*
X22015000Y-17975000D01*
X23500000Y-19700000D02*
X22015000Y-19625000D01*
X24300000Y-19700000D02*
X25785000Y-19625000D01*
X25785000Y-17975000D02*
X24300000Y-17900000D01*
X25785000Y-19625000D02*
X25785000Y-17975000D01*
X21940000Y-18050000D02*
G75*
G02*
X22090000Y-17900000I150000J0D01*
G01*
X22090000Y-19700000D02*
G75*
G02*
X21940000Y-19550000I0J150000D01*
G01*
X25710000Y-17900000D02*
G75*
G02*
X25860000Y-18050000I0J-150000D01*
G01*
X25860000Y-19550000D02*
G75*
G02*
X25710000Y-19700000I-150000J0D01*
G01*
%TO.C,C5*%
X19115000Y-40675000D02*
X20600000Y-40600000D01*
X19115000Y-42325000D02*
X19115000Y-40675000D01*
X20600000Y-42400000D02*
X19115000Y-42325000D01*
X21400000Y-42400000D02*
X22885000Y-42325000D01*
X22885000Y-40675000D02*
X21400000Y-40600000D01*
X22885000Y-42325000D02*
X22885000Y-40675000D01*
X19040000Y-40750000D02*
G75*
G02*
X19190000Y-40600000I150000J0D01*
G01*
X19190000Y-42400000D02*
G75*
G02*
X19040000Y-42250000I0J150000D01*
G01*
X22810000Y-40600000D02*
G75*
G02*
X22960000Y-40750000I0J-150000D01*
G01*
X22960000Y-42250000D02*
G75*
G02*
X22810000Y-42400000I-150000J0D01*
G01*
%TO.C,C28*%
X9115000Y-17975000D02*
X10600000Y-17900000D01*
X9115000Y-19625000D02*
X9115000Y-17975000D01*
X10600000Y-19700000D02*
X9115000Y-19625000D01*
X11400000Y-19700000D02*
X12885000Y-19625000D01*
X12885000Y-17975000D02*
X11400000Y-17900000D01*
X12885000Y-19625000D02*
X12885000Y-17975000D01*
X9040000Y-18050000D02*
G75*
G02*
X9190000Y-17900000I150000J0D01*
G01*
X9190000Y-19700000D02*
G75*
G02*
X9040000Y-19550000I0J150000D01*
G01*
X12810000Y-17900000D02*
G75*
G02*
X12960000Y-18050000I0J-150000D01*
G01*
X12960000Y-19550000D02*
G75*
G02*
X12810000Y-19700000I-150000J0D01*
G01*
%TO.C,C34*%
X4815000Y-17975000D02*
X6300000Y-17900000D01*
X4815000Y-19625000D02*
X4815000Y-17975000D01*
X6300000Y-19700000D02*
X4815000Y-19625000D01*
X7100000Y-19700000D02*
X8585000Y-19625000D01*
X8585000Y-17975000D02*
X7100000Y-17900000D01*
X8585000Y-19625000D02*
X8585000Y-17975000D01*
X4740000Y-18050000D02*
G75*
G02*
X4890000Y-17900000I150000J0D01*
G01*
X4890000Y-19700000D02*
G75*
G02*
X4740000Y-19550000I0J150000D01*
G01*
X8510000Y-17900000D02*
G75*
G02*
X8660000Y-18050000I0J-150000D01*
G01*
X8660000Y-19550000D02*
G75*
G02*
X8510000Y-19700000I-150000J0D01*
G01*
%TO.C,R27*%
X14010000Y-27840000D02*
X14970000Y-27840000D01*
X14010000Y-29160000D02*
X14010000Y-27840000D01*
X14970000Y-29160000D02*
X14010000Y-29160000D01*
X15830000Y-29160000D02*
X16790000Y-29160000D01*
X16790000Y-27840000D02*
X15830000Y-27840000D01*
X16790000Y-29160000D02*
X16790000Y-27840000D01*
%TO.C,U4*%
X31500000Y-56500000D02*
X31500000Y-58050000D01*
X31500000Y-56500000D02*
X36500000Y-56550000D01*
X31500000Y-60500000D02*
X31500000Y-58870000D01*
X31500000Y-60500000D02*
X36500000Y-60450000D01*
X36500000Y-56550000D02*
X36500000Y-60450000D01*
X31492844Y-58879938D02*
G75*
G02*
X31500000Y-58880000I7130J409938D01*
G01*
D11*
X32060000Y-59980000D02*
G75*
G02*
X31700000Y-59980000I-180000J0D01*
G01*
X31700000Y-59980000D02*
G75*
G02*
X32060000Y-59980000I180000J0D01*
G01*
%TO.C,C13*%
D10*
X27115000Y-55575000D02*
X28600000Y-55500000D01*
X27115000Y-57225000D02*
X27115000Y-55575000D01*
X28600000Y-57300000D02*
X27115000Y-57225000D01*
X29400000Y-57300000D02*
X30885000Y-57225000D01*
X30885000Y-55575000D02*
X29400000Y-55500000D01*
X30885000Y-57225000D02*
X30885000Y-55575000D01*
X27040000Y-55650000D02*
G75*
G02*
X27190000Y-55500000I150000J0D01*
G01*
X27190000Y-57300000D02*
G75*
G02*
X27040000Y-57150000I0J150000D01*
G01*
X30810000Y-55500000D02*
G75*
G02*
X30960000Y-55650000I0J-150000D01*
G01*
X30960000Y-57150000D02*
G75*
G02*
X30810000Y-57300000I-150000J0D01*
G01*
%TO.C,C4*%
D11*
X31610000Y-46400000D02*
X31610000Y-45600000D01*
X32720000Y-45290000D02*
X31920000Y-45290000D01*
X32720000Y-46710000D02*
X31920000Y-46710000D01*
X33280000Y-45290000D02*
X34080000Y-45290000D01*
X33280000Y-46710000D02*
X34080000Y-46710000D01*
X34390000Y-45600000D02*
X34390000Y-46400000D01*
X31610000Y-45600000D02*
G75*
G02*
X31920000Y-45290000I310000J0D01*
G01*
X31920000Y-46710000D02*
G75*
G02*
X31610000Y-46400000I0J310000D01*
G01*
X34080000Y-45290000D02*
G75*
G02*
X34390000Y-45600000I0J-310000D01*
G01*
X34390000Y-46400000D02*
G75*
G02*
X34080000Y-46710000I-310000J0D01*
G01*
%TO.C,C9*%
X14010000Y-26900000D02*
X14010000Y-26100000D01*
X15120000Y-25790000D02*
X14320000Y-25790000D01*
X15120000Y-27210000D02*
X14320000Y-27210000D01*
X15680000Y-25790000D02*
X16480000Y-25790000D01*
X15680000Y-27210000D02*
X16480000Y-27210000D01*
X16790000Y-26100000D02*
X16790000Y-26900000D01*
X14010000Y-26100000D02*
G75*
G02*
X14320000Y-25790000I310000J0D01*
G01*
X14320000Y-27210000D02*
G75*
G02*
X14010000Y-26900000I0J310000D01*
G01*
X16480000Y-25790000D02*
G75*
G02*
X16790000Y-26100000I0J-310000D01*
G01*
X16790000Y-26900000D02*
G75*
G02*
X16480000Y-27210000I-310000J0D01*
G01*
%TO.C,R6*%
D10*
X30610000Y-29840000D02*
X31570000Y-29840000D01*
X30610000Y-31160000D02*
X30610000Y-29840000D01*
X31570000Y-31160000D02*
X30610000Y-31160000D01*
X32430000Y-31160000D02*
X33390000Y-31160000D01*
X33390000Y-29840000D02*
X32430000Y-29840000D01*
X33390000Y-31160000D02*
X33390000Y-29840000D01*
%TO.C,SW1*%
D11*
X29000000Y-15349123D02*
X29000000Y-13250877D01*
X29960000Y-11300000D02*
X34040000Y-11300000D01*
X34040000Y-17300000D02*
X29960000Y-17300000D01*
X35000000Y-13250877D02*
X35000000Y-15349123D01*
X30600000Y-12600000D02*
G75*
G02*
X30000000Y-12600000I-300000J0D01*
G01*
X30000000Y-12600000D02*
G75*
G02*
X30600000Y-12600000I300000J0D01*
G01*
X30600000Y-16000000D02*
G75*
G02*
X30000000Y-16000000I-300000J0D01*
G01*
X30000000Y-16000000D02*
G75*
G02*
X30600000Y-16000000I300000J0D01*
G01*
X33600000Y-14300000D02*
G75*
G02*
X30400000Y-14300000I-1600000J0D01*
G01*
X30400000Y-14300000D02*
G75*
G02*
X33600000Y-14300000I1600000J0D01*
G01*
X34000000Y-12600000D02*
G75*
G02*
X33400000Y-12600000I-300000J0D01*
G01*
X33400000Y-12600000D02*
G75*
G02*
X34000000Y-12600000I300000J0D01*
G01*
X34000000Y-16000000D02*
G75*
G02*
X33400000Y-16000000I-300000J0D01*
G01*
X33400000Y-16000000D02*
G75*
G02*
X34000000Y-16000000I300000J0D01*
G01*
%TO.C,R23*%
D10*
X14010000Y-29840000D02*
X14970000Y-29840000D01*
X14010000Y-31160000D02*
X14010000Y-29840000D01*
X14970000Y-31160000D02*
X14010000Y-31160000D01*
X15830000Y-31160000D02*
X16790000Y-31160000D01*
X16790000Y-29840000D02*
X15830000Y-29840000D01*
X16790000Y-31160000D02*
X16790000Y-29840000D01*
%TO.C,R25*%
X20010000Y-29840000D02*
X20970000Y-29840000D01*
X20010000Y-31160000D02*
X20010000Y-29840000D01*
X20970000Y-31160000D02*
X20010000Y-31160000D01*
X21830000Y-31160000D02*
X22790000Y-31160000D01*
X22790000Y-29840000D02*
X21830000Y-29840000D01*
X22790000Y-31160000D02*
X22790000Y-29840000D01*
%TO.C,R22*%
X20010000Y-27840000D02*
X20970000Y-27840000D01*
X20010000Y-29160000D02*
X20010000Y-27840000D01*
X20970000Y-29160000D02*
X20010000Y-29160000D01*
X21830000Y-29160000D02*
X22790000Y-29160000D01*
X22790000Y-27840000D02*
X21830000Y-27840000D01*
X22790000Y-29160000D02*
X22790000Y-27840000D01*
%TO.C,R8*%
X15110000Y-50340000D02*
X16070000Y-50340000D01*
X15110000Y-51660000D02*
X15110000Y-50340000D01*
X16070000Y-51660000D02*
X15110000Y-51660000D01*
X16930000Y-51660000D02*
X17890000Y-51660000D01*
X17890000Y-50340000D02*
X16930000Y-50340000D01*
X17890000Y-51660000D02*
X17890000Y-50340000D01*
%TO.C,L3*%
D11*
X3800000Y-38900000D02*
X3800000Y-39940000D01*
X3800000Y-38900000D02*
X9200000Y-38900000D01*
X3800000Y-43060000D02*
X3800000Y-44100000D01*
X9200000Y-39940000D02*
X9200000Y-38900000D01*
X9200000Y-44100000D02*
X3800000Y-44100000D01*
X9200000Y-44100000D02*
X9200000Y-43060000D01*
%TO.C,R9*%
D10*
X12410000Y-20540000D02*
X13370000Y-20540000D01*
X12410000Y-21860000D02*
X12410000Y-20540000D01*
X13370000Y-21860000D02*
X12410000Y-21860000D01*
X14230000Y-21860000D02*
X15190000Y-21860000D01*
X15190000Y-20540000D02*
X14230000Y-20540000D01*
X15190000Y-21860000D02*
X15190000Y-20540000D01*
%TO.C,C24*%
D11*
X510000Y-56900000D02*
X510000Y-56100000D01*
X1620000Y-55790000D02*
X820000Y-55790000D01*
X1620000Y-57210000D02*
X820000Y-57210000D01*
X2180000Y-55790000D02*
X2980000Y-55790000D01*
X2180000Y-57210000D02*
X2980000Y-57210000D01*
X3290000Y-56100000D02*
X3290000Y-56900000D01*
X510000Y-56100000D02*
G75*
G02*
X820000Y-55790000I310000J0D01*
G01*
X820000Y-57210000D02*
G75*
G02*
X510000Y-56900000I0J310000D01*
G01*
X2980000Y-55790000D02*
G75*
G02*
X3290000Y-56100000I0J-310000D01*
G01*
X3290000Y-56900000D02*
G75*
G02*
X2980000Y-57210000I-310000J0D01*
G01*
%TO.C,C29*%
X20010000Y-26900000D02*
X20010000Y-26100000D01*
X21120000Y-25790000D02*
X20320000Y-25790000D01*
X21120000Y-27210000D02*
X20320000Y-27210000D01*
X21680000Y-25790000D02*
X22480000Y-25790000D01*
X21680000Y-27210000D02*
X22480000Y-27210000D01*
X22790000Y-26100000D02*
X22790000Y-26900000D01*
X20010000Y-26100000D02*
G75*
G02*
X20320000Y-25790000I310000J0D01*
G01*
X20320000Y-27210000D02*
G75*
G02*
X20010000Y-26900000I0J310000D01*
G01*
X22480000Y-25790000D02*
G75*
G02*
X22790000Y-26100000I0J-310000D01*
G01*
X22790000Y-26900000D02*
G75*
G02*
X22480000Y-27210000I-310000J0D01*
G01*
%TO.C,C16*%
X19010000Y-16800000D02*
X19010000Y-16000000D01*
X20120000Y-15690000D02*
X19320000Y-15690000D01*
X20120000Y-17110000D02*
X19320000Y-17110000D01*
X20680000Y-15690000D02*
X21480000Y-15690000D01*
X20680000Y-17110000D02*
X21480000Y-17110000D01*
X21790000Y-16000000D02*
X21790000Y-16800000D01*
X19010000Y-16000000D02*
G75*
G02*
X19320000Y-15690000I310000J0D01*
G01*
X19320000Y-17110000D02*
G75*
G02*
X19010000Y-16800000I0J310000D01*
G01*
X21480000Y-15690000D02*
G75*
G02*
X21790000Y-16000000I0J-310000D01*
G01*
X21790000Y-16800000D02*
G75*
G02*
X21480000Y-17110000I-310000J0D01*
G01*
%TO.C,R17*%
D10*
X30610000Y-31840000D02*
X31570000Y-31840000D01*
X30610000Y-33160000D02*
X30610000Y-31840000D01*
X31570000Y-33160000D02*
X30610000Y-33160000D01*
X32430000Y-33160000D02*
X33390000Y-33160000D01*
X33390000Y-31840000D02*
X32430000Y-31840000D01*
X33390000Y-33160000D02*
X33390000Y-31840000D01*
%TO.C,R14*%
X3710000Y-53840000D02*
X4670000Y-53840000D01*
X3710000Y-55160000D02*
X3710000Y-53840000D01*
X4670000Y-55160000D02*
X3710000Y-55160000D01*
X5530000Y-55160000D02*
X6490000Y-55160000D01*
X6490000Y-53840000D02*
X5530000Y-53840000D01*
X6490000Y-55160000D02*
X6490000Y-53840000D01*
%TO.C,R7*%
X33810000Y-33840000D02*
X34770000Y-33840000D01*
X33810000Y-35160000D02*
X33810000Y-33840000D01*
X34770000Y-35160000D02*
X33810000Y-35160000D01*
X35630000Y-35160000D02*
X36590000Y-35160000D01*
X36590000Y-33840000D02*
X35630000Y-33840000D01*
X36590000Y-35160000D02*
X36590000Y-33840000D01*
%TO.C,R10*%
X33810000Y-31840000D02*
X34770000Y-31840000D01*
X33810000Y-33160000D02*
X33810000Y-31840000D01*
X34770000Y-33160000D02*
X33810000Y-33160000D01*
X35630000Y-33160000D02*
X36590000Y-33160000D01*
X36590000Y-31840000D02*
X35630000Y-31840000D01*
X36590000Y-33160000D02*
X36590000Y-31840000D01*
%TO.C,R19*%
X17010000Y-29840000D02*
X17970000Y-29840000D01*
X17010000Y-31160000D02*
X17010000Y-29840000D01*
X17970000Y-31160000D02*
X17010000Y-31160000D01*
X18830000Y-31160000D02*
X19790000Y-31160000D01*
X19790000Y-29840000D02*
X18830000Y-29840000D01*
X19790000Y-31160000D02*
X19790000Y-29840000D01*
%TO.C,R3*%
X19010000Y-11740000D02*
X19970000Y-11740000D01*
X19010000Y-13060000D02*
X19010000Y-11740000D01*
X19970000Y-13060000D02*
X19010000Y-13060000D01*
X20830000Y-13060000D02*
X21790000Y-13060000D01*
X21790000Y-11740000D02*
X20830000Y-11740000D01*
X21790000Y-13060000D02*
X21790000Y-11740000D01*
%TO.C,R1*%
X22210000Y-11740000D02*
X23170000Y-11740000D01*
X22210000Y-13060000D02*
X22210000Y-11740000D01*
X23170000Y-13060000D02*
X22210000Y-13060000D01*
X24030000Y-13060000D02*
X24990000Y-13060000D01*
X24990000Y-11740000D02*
X24030000Y-11740000D01*
X24990000Y-13060000D02*
X24990000Y-11740000D01*
%TO.C,C30*%
D11*
X30610000Y-28900000D02*
X30610000Y-28100000D01*
X31720000Y-27790000D02*
X30920000Y-27790000D01*
X31720000Y-29210000D02*
X30920000Y-29210000D01*
X32280000Y-27790000D02*
X33080000Y-27790000D01*
X32280000Y-29210000D02*
X33080000Y-29210000D01*
X33390000Y-28100000D02*
X33390000Y-28900000D01*
X30610000Y-28100000D02*
G75*
G02*
X30920000Y-27790000I310000J0D01*
G01*
X30920000Y-29210000D02*
G75*
G02*
X30610000Y-28900000I0J310000D01*
G01*
X33080000Y-27790000D02*
G75*
G02*
X33390000Y-28100000I0J-310000D01*
G01*
X33390000Y-28900000D02*
G75*
G02*
X33080000Y-29210000I-310000J0D01*
G01*
%TO.C,C8*%
D10*
X21415000Y-49075000D02*
X22900000Y-49000000D01*
X21415000Y-50725000D02*
X21415000Y-49075000D01*
X22900000Y-50800000D02*
X21415000Y-50725000D01*
X23700000Y-50800000D02*
X25185000Y-50725000D01*
X25185000Y-49075000D02*
X23700000Y-49000000D01*
X25185000Y-50725000D02*
X25185000Y-49075000D01*
X21340000Y-49150000D02*
G75*
G02*
X21490000Y-49000000I150000J0D01*
G01*
X21490000Y-50800000D02*
G75*
G02*
X21340000Y-50650000I0J150000D01*
G01*
X25110000Y-49000000D02*
G75*
G02*
X25260000Y-49150000I0J-150000D01*
G01*
X25260000Y-50650000D02*
G75*
G02*
X25110000Y-50800000I-150000J0D01*
G01*
%TO.C,R13*%
X15110000Y-52340000D02*
X16070000Y-52340000D01*
X15110000Y-53660000D02*
X15110000Y-52340000D01*
X16070000Y-53660000D02*
X15110000Y-53660000D01*
X16930000Y-53660000D02*
X17890000Y-53660000D01*
X17890000Y-52340000D02*
X16930000Y-52340000D01*
X17890000Y-53660000D02*
X17890000Y-52340000D01*
%TO.C,U7*%
X2420000Y-46420000D02*
X2920000Y-46420000D01*
X2420000Y-46920000D02*
X2420000Y-46420000D01*
X2420000Y-49080000D02*
X2420000Y-49580000D01*
X2420000Y-49580000D02*
X2920000Y-49580000D01*
X2920000Y-49580000D02*
X2420000Y-49080000D01*
X5580000Y-46420000D02*
X5080000Y-46420000D01*
X5580000Y-46920000D02*
X5580000Y-46420000D01*
X5580000Y-49080000D02*
X5580000Y-49580000D01*
X5580000Y-49580000D02*
X5080000Y-49580000D01*
X2930000Y-49900000D02*
G75*
G02*
X2790000Y-49900000I-70000J0D01*
G01*
X2790000Y-49900000D02*
G75*
G02*
X2930000Y-49900000I70000J0D01*
G01*
%TO.C,C37*%
D11*
X31610000Y-48400000D02*
X31610000Y-47600000D01*
X32720000Y-47290000D02*
X31920000Y-47290000D01*
X32720000Y-48710000D02*
X31920000Y-48710000D01*
X33280000Y-47290000D02*
X34080000Y-47290000D01*
X33280000Y-48710000D02*
X34080000Y-48710000D01*
X34390000Y-47600000D02*
X34390000Y-48400000D01*
X31610000Y-47600000D02*
G75*
G02*
X31920000Y-47290000I310000J0D01*
G01*
X31920000Y-48710000D02*
G75*
G02*
X31610000Y-48400000I0J310000D01*
G01*
X34080000Y-47290000D02*
G75*
G02*
X34390000Y-47600000I0J-310000D01*
G01*
X34390000Y-48400000D02*
G75*
G02*
X34080000Y-48710000I-310000J0D01*
G01*
%TO.C,C1*%
D10*
X9915000Y-31775000D02*
X11400000Y-31700000D01*
X9915000Y-33425000D02*
X9915000Y-31775000D01*
X11400000Y-33500000D02*
X9915000Y-33425000D01*
X12200000Y-33500000D02*
X13685000Y-33425000D01*
X13685000Y-31775000D02*
X12200000Y-31700000D01*
X13685000Y-33425000D02*
X13685000Y-31775000D01*
X9840000Y-31850000D02*
G75*
G02*
X9990000Y-31700000I150000J0D01*
G01*
X9990000Y-33500000D02*
G75*
G02*
X9840000Y-33350000I0J150000D01*
G01*
X13610000Y-31700000D02*
G75*
G02*
X13760000Y-31850000I0J-150000D01*
G01*
X13760000Y-33350000D02*
G75*
G02*
X13610000Y-33500000I-150000J0D01*
G01*
%TO.C,R15*%
X33810000Y-29840000D02*
X34770000Y-29840000D01*
X33810000Y-31160000D02*
X33810000Y-29840000D01*
X34770000Y-31160000D02*
X33810000Y-31160000D01*
X35630000Y-31160000D02*
X36590000Y-31160000D01*
X36590000Y-29840000D02*
X35630000Y-29840000D01*
X36590000Y-31160000D02*
X36590000Y-29840000D01*
%TO.C,R24*%
X14010000Y-31840000D02*
X14970000Y-31840000D01*
X14010000Y-33160000D02*
X14010000Y-31840000D01*
X14970000Y-33160000D02*
X14010000Y-33160000D01*
X15830000Y-33160000D02*
X16790000Y-33160000D01*
X16790000Y-31840000D02*
X15830000Y-31840000D01*
X16790000Y-33160000D02*
X16790000Y-31840000D01*
%TO.C,C33*%
X515000Y-17975000D02*
X2000000Y-17900000D01*
X515000Y-19625000D02*
X515000Y-17975000D01*
X2000000Y-19700000D02*
X515000Y-19625000D01*
X2800000Y-19700000D02*
X4285000Y-19625000D01*
X4285000Y-17975000D02*
X2800000Y-17900000D01*
X4285000Y-19625000D02*
X4285000Y-17975000D01*
X440000Y-18050000D02*
G75*
G02*
X590000Y-17900000I150000J0D01*
G01*
X590000Y-19700000D02*
G75*
G02*
X440000Y-19550000I0J150000D01*
G01*
X4210000Y-17900000D02*
G75*
G02*
X4360000Y-18050000I0J-150000D01*
G01*
X4360000Y-19550000D02*
G75*
G02*
X4210000Y-19700000I-150000J0D01*
G01*
%TO.C,C35*%
D11*
X3710000Y-56900000D02*
X3710000Y-56100000D01*
X4820000Y-55790000D02*
X4020000Y-55790000D01*
X4820000Y-57210000D02*
X4020000Y-57210000D01*
X5380000Y-55790000D02*
X6180000Y-55790000D01*
X5380000Y-57210000D02*
X6180000Y-57210000D01*
X6490000Y-56100000D02*
X6490000Y-56900000D01*
X3710000Y-56100000D02*
G75*
G02*
X4020000Y-55790000I310000J0D01*
G01*
X4020000Y-57210000D02*
G75*
G02*
X3710000Y-56900000I0J310000D01*
G01*
X6180000Y-55790000D02*
G75*
G02*
X6490000Y-56100000I0J-310000D01*
G01*
X6490000Y-56900000D02*
G75*
G02*
X6180000Y-57210000I-310000J0D01*
G01*
%TO.C,R28*%
D10*
X17010000Y-27840000D02*
X17970000Y-27840000D01*
X17010000Y-29160000D02*
X17010000Y-27840000D01*
X17970000Y-29160000D02*
X17010000Y-29160000D01*
X18830000Y-29160000D02*
X19790000Y-29160000D01*
X19790000Y-27840000D02*
X18830000Y-27840000D01*
X19790000Y-29160000D02*
X19790000Y-27840000D01*
%TO.C,U8*%
D11*
X20000000Y-4350000D02*
X20050000Y-4350000D01*
X20000000Y-4890000D02*
X20050000Y-4350000D01*
X20000000Y-7650000D02*
X20100000Y-7650000D01*
X22890000Y-7650000D02*
X23000000Y-7650000D01*
X22945000Y-4350000D02*
X22972500Y-4350000D01*
X23000000Y-4890000D02*
X22972500Y-4350000D01*
X20680000Y-8100000D02*
G75*
G02*
X20340000Y-8100000I-170000J0D01*
G01*
X20340000Y-8100000D02*
G75*
G02*
X20680000Y-8100000I170000J0D01*
G01*
%TO.C,R5*%
D10*
X17010000Y-31840000D02*
X17970000Y-31840000D01*
X17010000Y-33160000D02*
X17010000Y-31840000D01*
X17970000Y-33160000D02*
X17010000Y-33160000D01*
X18830000Y-33160000D02*
X19790000Y-33160000D01*
X19790000Y-31840000D02*
X18830000Y-31840000D01*
X19790000Y-33160000D02*
X19790000Y-31840000D01*
%TO.C,SW2*%
D11*
X29000000Y-8649123D02*
X29000000Y-6550877D01*
X29960000Y-4600000D02*
X34040000Y-4600000D01*
X34040000Y-10600000D02*
X29960000Y-10600000D01*
X35000000Y-6550877D02*
X35000000Y-8649123D01*
X30600000Y-5900000D02*
G75*
G02*
X30000000Y-5900000I-300000J0D01*
G01*
X30000000Y-5900000D02*
G75*
G02*
X30600000Y-5900000I300000J0D01*
G01*
X30600000Y-9300000D02*
G75*
G02*
X30000000Y-9300000I-300000J0D01*
G01*
X30000000Y-9300000D02*
G75*
G02*
X30600000Y-9300000I300000J0D01*
G01*
X33600000Y-7600000D02*
G75*
G02*
X30400000Y-7600000I-1600000J0D01*
G01*
X30400000Y-7600000D02*
G75*
G02*
X33600000Y-7600000I1600000J0D01*
G01*
X34000000Y-5900000D02*
G75*
G02*
X33400000Y-5900000I-300000J0D01*
G01*
X33400000Y-5900000D02*
G75*
G02*
X34000000Y-5900000I300000J0D01*
G01*
X34000000Y-9300000D02*
G75*
G02*
X33400000Y-9300000I-300000J0D01*
G01*
X33400000Y-9300000D02*
G75*
G02*
X34000000Y-9300000I300000J0D01*
G01*
%TO.C,C12*%
D10*
X27115000Y-53175000D02*
X28600000Y-53100000D01*
X27115000Y-54825000D02*
X27115000Y-53175000D01*
X28600000Y-54900000D02*
X27115000Y-54825000D01*
X29400000Y-54900000D02*
X30885000Y-54825000D01*
X30885000Y-53175000D02*
X29400000Y-53100000D01*
X30885000Y-54825000D02*
X30885000Y-53175000D01*
X27040000Y-53250000D02*
G75*
G02*
X27190000Y-53100000I150000J0D01*
G01*
X27190000Y-54900000D02*
G75*
G02*
X27040000Y-54750000I0J150000D01*
G01*
X30810000Y-53100000D02*
G75*
G02*
X30960000Y-53250000I0J-150000D01*
G01*
X30960000Y-54750000D02*
G75*
G02*
X30810000Y-54900000I-150000J0D01*
G01*
%TO.C,C27*%
D11*
X19010000Y-14800000D02*
X19010000Y-14000000D01*
X20120000Y-13690000D02*
X19320000Y-13690000D01*
X20120000Y-15110000D02*
X19320000Y-15110000D01*
X20680000Y-13690000D02*
X21480000Y-13690000D01*
X20680000Y-15110000D02*
X21480000Y-15110000D01*
X21790000Y-14000000D02*
X21790000Y-14800000D01*
X19010000Y-14000000D02*
G75*
G02*
X19320000Y-13690000I310000J0D01*
G01*
X19320000Y-15110000D02*
G75*
G02*
X19010000Y-14800000I0J310000D01*
G01*
X21480000Y-13690000D02*
G75*
G02*
X21790000Y-14000000I0J-310000D01*
G01*
X21790000Y-14800000D02*
G75*
G02*
X21480000Y-15110000I-310000J0D01*
G01*
%TO.C,C7*%
D10*
X25515000Y-46675000D02*
X27000000Y-46600000D01*
X25515000Y-48325000D02*
X25515000Y-46675000D01*
X27000000Y-48400000D02*
X25515000Y-48325000D01*
X27800000Y-48400000D02*
X29285000Y-48325000D01*
X29285000Y-46675000D02*
X27800000Y-46600000D01*
X29285000Y-48325000D02*
X29285000Y-46675000D01*
X25440000Y-46750000D02*
G75*
G02*
X25590000Y-46600000I150000J0D01*
G01*
X25590000Y-48400000D02*
G75*
G02*
X25440000Y-48250000I0J150000D01*
G01*
X29210000Y-46600000D02*
G75*
G02*
X29360000Y-46750000I0J-150000D01*
G01*
X29360000Y-48250000D02*
G75*
G02*
X29210000Y-48400000I-150000J0D01*
G01*
%TO.C,R11*%
X30610000Y-33840000D02*
X31570000Y-33840000D01*
X30610000Y-35160000D02*
X30610000Y-33840000D01*
X31570000Y-35160000D02*
X30610000Y-35160000D01*
X32430000Y-35160000D02*
X33390000Y-35160000D01*
X33390000Y-33840000D02*
X32430000Y-33840000D01*
X33390000Y-35160000D02*
X33390000Y-33840000D01*
%TO.C,R4*%
X20010000Y-31840000D02*
X20970000Y-31840000D01*
X20010000Y-33160000D02*
X20010000Y-31840000D01*
X20970000Y-33160000D02*
X20010000Y-33160000D01*
X21830000Y-33160000D02*
X22790000Y-33160000D01*
X22790000Y-31840000D02*
X21830000Y-31840000D01*
X22790000Y-33160000D02*
X22790000Y-31840000D01*
%TO.C,C18*%
D11*
X15810000Y-21600000D02*
X15810000Y-20800000D01*
X16920000Y-20490000D02*
X16120000Y-20490000D01*
X16920000Y-21910000D02*
X16120000Y-21910000D01*
X17480000Y-20490000D02*
X18280000Y-20490000D01*
X17480000Y-21910000D02*
X18280000Y-21910000D01*
X18590000Y-20800000D02*
X18590000Y-21600000D01*
X15810000Y-20800000D02*
G75*
G02*
X16120000Y-20490000I310000J0D01*
G01*
X16120000Y-21910000D02*
G75*
G02*
X15810000Y-21600000I0J310000D01*
G01*
X18280000Y-20490000D02*
G75*
G02*
X18590000Y-20800000I0J-310000D01*
G01*
X18590000Y-21600000D02*
G75*
G02*
X18280000Y-21910000I-310000J0D01*
G01*
%TO.C,L2*%
X23260000Y-59750000D02*
X24740000Y-59750000D01*
X23260000Y-64250000D02*
X24740000Y-64250000D01*
%TO.C,C22*%
X5610000Y-21600000D02*
X5610000Y-20800000D01*
X6720000Y-20490000D02*
X5920000Y-20490000D01*
X6720000Y-21910000D02*
X5920000Y-21910000D01*
X7280000Y-20490000D02*
X8080000Y-20490000D01*
X7280000Y-21910000D02*
X8080000Y-21910000D01*
X8390000Y-20800000D02*
X8390000Y-21600000D01*
X5610000Y-20800000D02*
G75*
G02*
X5920000Y-20490000I310000J0D01*
G01*
X5920000Y-21910000D02*
G75*
G02*
X5610000Y-21600000I0J310000D01*
G01*
X8080000Y-20490000D02*
G75*
G02*
X8390000Y-20800000I0J-310000D01*
G01*
X8390000Y-21600000D02*
G75*
G02*
X8080000Y-21910000I-310000J0D01*
G01*
%TO.C,C3*%
X30610000Y-26900000D02*
X30610000Y-26100000D01*
X31720000Y-25790000D02*
X30920000Y-25790000D01*
X31720000Y-27210000D02*
X30920000Y-27210000D01*
X32280000Y-25790000D02*
X33080000Y-25790000D01*
X32280000Y-27210000D02*
X33080000Y-27210000D01*
X33390000Y-26100000D02*
X33390000Y-26900000D01*
X30610000Y-26100000D02*
G75*
G02*
X30920000Y-25790000I310000J0D01*
G01*
X30920000Y-27210000D02*
G75*
G02*
X30610000Y-26900000I0J310000D01*
G01*
X33080000Y-25790000D02*
G75*
G02*
X33390000Y-26100000I0J-310000D01*
G01*
X33390000Y-26900000D02*
G75*
G02*
X33080000Y-27210000I-310000J0D01*
G01*
%TO.C,R18*%
D10*
X31610000Y-49340000D02*
X32570000Y-49340000D01*
X31610000Y-50660000D02*
X31610000Y-49340000D01*
X32570000Y-50660000D02*
X31610000Y-50660000D01*
X33430000Y-50660000D02*
X34390000Y-50660000D01*
X34390000Y-49340000D02*
X33430000Y-49340000D01*
X34390000Y-50660000D02*
X34390000Y-49340000D01*
%TO.C,C6*%
X21415000Y-46675000D02*
X22900000Y-46600000D01*
X21415000Y-48325000D02*
X21415000Y-46675000D01*
X22900000Y-48400000D02*
X21415000Y-48325000D01*
X23700000Y-48400000D02*
X25185000Y-48325000D01*
X25185000Y-46675000D02*
X23700000Y-46600000D01*
X25185000Y-48325000D02*
X25185000Y-46675000D01*
X21340000Y-46750000D02*
G75*
G02*
X21490000Y-46600000I150000J0D01*
G01*
X21490000Y-48400000D02*
G75*
G02*
X21340000Y-48250000I0J150000D01*
G01*
X25110000Y-46600000D02*
G75*
G02*
X25260000Y-46750000I0J-150000D01*
G01*
X25260000Y-48250000D02*
G75*
G02*
X25110000Y-48400000I-150000J0D01*
G01*
%TO.C,U3*%
X4500000Y-28017500D02*
X4580000Y-28012500D01*
X4567500Y-31915000D02*
X4567500Y-31942500D01*
X4567500Y-31970000D02*
X4567500Y-31942500D01*
X4660000Y-28007500D02*
X4580000Y-28012500D01*
X8365000Y-31942500D02*
X8432500Y-31942500D01*
X8420000Y-27980000D02*
X8420000Y-28007500D01*
X8420000Y-28035000D02*
X8420000Y-28007500D01*
X8500000Y-31942500D02*
X8432500Y-31942500D01*
D12*
X4020000Y-28010000D02*
G75*
G02*
X3760000Y-28010000I-130000J0D01*
G01*
X3760000Y-28010000D02*
G75*
G02*
X4020000Y-28010000I130000J0D01*
G01*
%TO.C,C10*%
D11*
X17010000Y-26900000D02*
X17010000Y-26100000D01*
X18120000Y-25790000D02*
X17320000Y-25790000D01*
X18120000Y-27210000D02*
X17320000Y-27210000D01*
X18680000Y-25790000D02*
X19480000Y-25790000D01*
X18680000Y-27210000D02*
X19480000Y-27210000D01*
X19790000Y-26100000D02*
X19790000Y-26900000D01*
X17010000Y-26100000D02*
G75*
G02*
X17320000Y-25790000I310000J0D01*
G01*
X17320000Y-27210000D02*
G75*
G02*
X17010000Y-26900000I0J310000D01*
G01*
X19480000Y-25790000D02*
G75*
G02*
X19790000Y-26100000I0J-310000D01*
G01*
X19790000Y-26900000D02*
G75*
G02*
X19480000Y-27210000I-310000J0D01*
G01*
%TO.C,R2*%
D10*
X22210000Y-9740000D02*
X23170000Y-9740000D01*
X22210000Y-11060000D02*
X22210000Y-9740000D01*
X23170000Y-11060000D02*
X22210000Y-11060000D01*
X24030000Y-11060000D02*
X24990000Y-11060000D01*
X24990000Y-9740000D02*
X24030000Y-9740000D01*
X24990000Y-11060000D02*
X24990000Y-9740000D01*
%TO.C,C20*%
D11*
X22610000Y-75900000D02*
X22610000Y-75100000D01*
X23720000Y-74790000D02*
X22920000Y-74790000D01*
X23720000Y-76210000D02*
X22920000Y-76210000D01*
X24280000Y-74790000D02*
X25080000Y-74790000D01*
X24280000Y-76210000D02*
X25080000Y-76210000D01*
X25390000Y-75100000D02*
X25390000Y-75900000D01*
X22610000Y-75100000D02*
G75*
G02*
X22920000Y-74790000I310000J0D01*
G01*
X22920000Y-76210000D02*
G75*
G02*
X22610000Y-75900000I0J310000D01*
G01*
X25080000Y-74790000D02*
G75*
G02*
X25390000Y-75100000I0J-310000D01*
G01*
X25390000Y-75900000D02*
G75*
G02*
X25080000Y-76210000I-310000J0D01*
G01*
%TO.C,U1*%
X23200000Y-28200000D02*
X23285000Y-28200000D01*
X23200000Y-31181818D02*
X23285000Y-31800000D01*
X23200000Y-31800000D02*
X23285000Y-31800000D01*
X23285000Y-28200000D02*
X23200000Y-28818182D01*
X27715000Y-28200000D02*
X27757500Y-28200000D01*
X27715000Y-31800000D02*
X27757500Y-31800000D01*
X27757500Y-28200000D02*
X27800000Y-28818182D01*
X27800000Y-31181818D02*
X27757500Y-31800000D01*
D10*
X22900000Y-31200000D02*
G75*
G02*
X22700000Y-31200000I-100000J0D01*
G01*
X22700000Y-31200000D02*
G75*
G02*
X22900000Y-31200000I100000J0D01*
G01*
%TO.C,U6*%
D11*
X3900000Y-1000000D02*
X17100000Y-1000000D01*
X3900000Y-6390000D02*
X3900000Y-1000000D01*
X3900000Y-17600000D02*
X17100000Y-17600000D01*
X17100000Y-6390000D02*
X3900000Y-6390000D01*
X17100000Y-6390000D02*
X17100000Y-1000000D01*
X3600000Y-8000000D02*
G75*
G02*
X3400000Y-8000000I-100000J0D01*
G01*
X3400000Y-8000000D02*
G75*
G02*
X3600000Y-8000000I100000J0D01*
G01*
%TO.C,C26*%
D10*
X9415000Y-36175000D02*
X10900000Y-36100000D01*
X9415000Y-37825000D02*
X9415000Y-36175000D01*
X10900000Y-37900000D02*
X9415000Y-37825000D01*
X11700000Y-37900000D02*
X13185000Y-37825000D01*
X13185000Y-36175000D02*
X11700000Y-36100000D01*
X13185000Y-37825000D02*
X13185000Y-36175000D01*
X9340000Y-36250000D02*
G75*
G02*
X9490000Y-36100000I150000J0D01*
G01*
X9490000Y-37900000D02*
G75*
G02*
X9340000Y-37750000I0J150000D01*
G01*
X13110000Y-36100000D02*
G75*
G02*
X13260000Y-36250000I0J-150000D01*
G01*
X13260000Y-37750000D02*
G75*
G02*
X13110000Y-37900000I-150000J0D01*
G01*
%TO.C,C11*%
D11*
X15110000Y-55400000D02*
X15110000Y-54600000D01*
X16220000Y-54290000D02*
X15420000Y-54290000D01*
X16220000Y-55710000D02*
X15420000Y-55710000D01*
X16780000Y-54290000D02*
X17580000Y-54290000D01*
X16780000Y-55710000D02*
X17580000Y-55710000D01*
X17890000Y-54600000D02*
X17890000Y-55400000D01*
X15110000Y-54600000D02*
G75*
G02*
X15420000Y-54290000I310000J0D01*
G01*
X15420000Y-55710000D02*
G75*
G02*
X15110000Y-55400000I0J310000D01*
G01*
X17580000Y-54290000D02*
G75*
G02*
X17890000Y-54600000I0J-310000D01*
G01*
X17890000Y-55400000D02*
G75*
G02*
X17580000Y-55710000I-310000J0D01*
G01*
%TO.C,C15*%
X22210000Y-14800000D02*
X22210000Y-14000000D01*
X23320000Y-13690000D02*
X22520000Y-13690000D01*
X23320000Y-15110000D02*
X22520000Y-15110000D01*
X23880000Y-13690000D02*
X24680000Y-13690000D01*
X23880000Y-15110000D02*
X24680000Y-15110000D01*
X24990000Y-14000000D02*
X24990000Y-14800000D01*
X22210000Y-14000000D02*
G75*
G02*
X22520000Y-13690000I310000J0D01*
G01*
X22520000Y-15110000D02*
G75*
G02*
X22210000Y-14800000I0J310000D01*
G01*
X24680000Y-13690000D02*
G75*
G02*
X24990000Y-14000000I0J-310000D01*
G01*
X24990000Y-14800000D02*
G75*
G02*
X24680000Y-15110000I-310000J0D01*
G01*
%TO.C,C17*%
X33810000Y-28900000D02*
X33810000Y-28100000D01*
X34920000Y-27790000D02*
X34120000Y-27790000D01*
X34920000Y-29210000D02*
X34120000Y-29210000D01*
X35480000Y-27790000D02*
X36280000Y-27790000D01*
X35480000Y-29210000D02*
X36280000Y-29210000D01*
X36590000Y-28100000D02*
X36590000Y-28900000D01*
X33810000Y-28100000D02*
G75*
G02*
X34120000Y-27790000I310000J0D01*
G01*
X34120000Y-29210000D02*
G75*
G02*
X33810000Y-28900000I0J310000D01*
G01*
X36280000Y-27790000D02*
G75*
G02*
X36590000Y-28100000I0J-310000D01*
G01*
X36590000Y-28900000D02*
G75*
G02*
X36280000Y-29210000I-310000J0D01*
G01*
%TO.C,C38*%
D10*
X25515000Y-49075000D02*
X27000000Y-49000000D01*
X25515000Y-50725000D02*
X25515000Y-49075000D01*
X27000000Y-50800000D02*
X25515000Y-50725000D01*
X27800000Y-50800000D02*
X29285000Y-50725000D01*
X29285000Y-49075000D02*
X27800000Y-49000000D01*
X29285000Y-50725000D02*
X29285000Y-49075000D01*
X25440000Y-49150000D02*
G75*
G02*
X25590000Y-49000000I150000J0D01*
G01*
X25590000Y-50800000D02*
G75*
G02*
X25440000Y-50650000I0J150000D01*
G01*
X29210000Y-49000000D02*
G75*
G02*
X29360000Y-49150000I0J-150000D01*
G01*
X29360000Y-50650000D02*
G75*
G02*
X29210000Y-50800000I-150000J0D01*
G01*
%TO.C,R12*%
X18310000Y-50340000D02*
X19270000Y-50340000D01*
X18310000Y-51660000D02*
X18310000Y-50340000D01*
X19270000Y-51660000D02*
X18310000Y-51660000D01*
X20130000Y-51660000D02*
X21090000Y-51660000D01*
X21090000Y-50340000D02*
X20130000Y-50340000D01*
X21090000Y-51660000D02*
X21090000Y-50340000D01*
%TO.C,R21*%
X3710000Y-51840000D02*
X4670000Y-51840000D01*
X3710000Y-53160000D02*
X3710000Y-51840000D01*
X4670000Y-53160000D02*
X3710000Y-53160000D01*
X5530000Y-53160000D02*
X6490000Y-53160000D01*
X6490000Y-51840000D02*
X5530000Y-51840000D01*
X6490000Y-53160000D02*
X6490000Y-51840000D01*
%TO.C,R16*%
X510000Y-53840000D02*
X1470000Y-53840000D01*
X510000Y-55160000D02*
X510000Y-53840000D01*
X1470000Y-55160000D02*
X510000Y-55160000D01*
X2330000Y-55160000D02*
X3290000Y-55160000D01*
X3290000Y-53840000D02*
X2330000Y-53840000D01*
X3290000Y-55160000D02*
X3290000Y-53840000D01*
%TO.C,C23*%
D11*
X9010000Y-21600000D02*
X9010000Y-20800000D01*
X10120000Y-20490000D02*
X9320000Y-20490000D01*
X10120000Y-21910000D02*
X9320000Y-21910000D01*
X10680000Y-20490000D02*
X11480000Y-20490000D01*
X10680000Y-21910000D02*
X11480000Y-21910000D01*
X11790000Y-20800000D02*
X11790000Y-21600000D01*
X9010000Y-20800000D02*
G75*
G02*
X9320000Y-20490000I310000J0D01*
G01*
X9320000Y-21910000D02*
G75*
G02*
X9010000Y-21600000I0J310000D01*
G01*
X11480000Y-20490000D02*
G75*
G02*
X11790000Y-20800000I0J-310000D01*
G01*
X11790000Y-21600000D02*
G75*
G02*
X11480000Y-21910000I-310000J0D01*
G01*
%TO.C,C32*%
D10*
X17715000Y-17975000D02*
X19200000Y-17900000D01*
X17715000Y-19625000D02*
X17715000Y-17975000D01*
X19200000Y-19700000D02*
X17715000Y-19625000D01*
X20000000Y-19700000D02*
X21485000Y-19625000D01*
X21485000Y-17975000D02*
X20000000Y-17900000D01*
X21485000Y-19625000D02*
X21485000Y-17975000D01*
X17640000Y-18050000D02*
G75*
G02*
X17790000Y-17900000I150000J0D01*
G01*
X17790000Y-19700000D02*
G75*
G02*
X17640000Y-19550000I0J150000D01*
G01*
X21410000Y-17900000D02*
G75*
G02*
X21560000Y-18050000I0J-150000D01*
G01*
X21560000Y-19550000D02*
G75*
G02*
X21410000Y-19700000I-150000J0D01*
G01*
%TO.C,U2*%
X17100000Y-45450000D02*
X17100000Y-45600000D01*
X17100000Y-46651429D02*
X17100000Y-47338367D01*
X17100000Y-48410000D02*
X17100000Y-48550000D01*
X17560000Y-45450000D02*
X18440000Y-45450000D01*
X17560000Y-48550000D02*
X18440000Y-48550000D01*
X18900000Y-45450000D02*
X18900000Y-45600000D01*
X18900000Y-46510000D02*
X18900000Y-46550000D01*
X18900000Y-47460000D02*
X18900000Y-47500000D01*
X18900000Y-48410000D02*
X18900000Y-48550000D01*
%TO.C,C14*%
D11*
X22210000Y-16800000D02*
X22210000Y-16000000D01*
X23320000Y-15690000D02*
X22520000Y-15690000D01*
X23320000Y-17110000D02*
X22520000Y-17110000D01*
X23880000Y-15690000D02*
X24680000Y-15690000D01*
X23880000Y-17110000D02*
X24680000Y-17110000D01*
X24990000Y-16000000D02*
X24990000Y-16800000D01*
X22210000Y-16000000D02*
G75*
G02*
X22520000Y-15690000I310000J0D01*
G01*
X22520000Y-17110000D02*
G75*
G02*
X22210000Y-16800000I0J310000D01*
G01*
X24680000Y-15690000D02*
G75*
G02*
X24990000Y-16000000I0J-310000D01*
G01*
X24990000Y-16800000D02*
G75*
G02*
X24680000Y-17110000I-310000J0D01*
G01*
%TO.C,D1*%
D10*
X23010000Y-20775000D02*
X23010000Y-21612500D01*
X23010000Y-20806250D02*
X23310000Y-20450000D01*
X23010000Y-20812500D02*
X23010000Y-20806250D01*
X23010000Y-21575000D02*
X23010000Y-21600000D01*
X23010000Y-21612500D02*
X23310000Y-21950000D01*
X24549375Y-21282500D02*
X24633125Y-21365000D01*
X24550000Y-20450000D02*
X23310000Y-20450000D01*
X24550000Y-20450000D02*
X25890000Y-20450000D01*
X24550000Y-21950000D02*
X23310000Y-21950000D01*
X24550000Y-21950000D02*
X25890000Y-21940000D01*
X24674219Y-21426875D02*
X24527109Y-21313438D01*
X24714531Y-21509375D02*
X24584043Y-21383047D01*
X24720000Y-20852500D02*
X24720000Y-20855000D01*
X24720000Y-20856250D02*
X24453555Y-21256719D01*
X24720000Y-20856250D02*
X24584043Y-21383047D01*
X25890000Y-20450000D02*
X25890000Y-21940000D01*
%TO.C,R20*%
X19210000Y-20540000D02*
X20170000Y-20540000D01*
X19210000Y-21860000D02*
X19210000Y-20540000D01*
X20170000Y-21860000D02*
X19210000Y-21860000D01*
X21030000Y-21860000D02*
X21990000Y-21860000D01*
X21990000Y-20540000D02*
X21030000Y-20540000D01*
X21990000Y-21860000D02*
X21990000Y-20540000D01*
%TO.C,C31*%
X13415000Y-17975000D02*
X14900000Y-17900000D01*
X13415000Y-19625000D02*
X13415000Y-17975000D01*
X14900000Y-19700000D02*
X13415000Y-19625000D01*
X15700000Y-19700000D02*
X17185000Y-19625000D01*
X17185000Y-17975000D02*
X15700000Y-17900000D01*
X17185000Y-19625000D02*
X17185000Y-17975000D01*
X13340000Y-18050000D02*
G75*
G02*
X13490000Y-17900000I150000J0D01*
G01*
X13490000Y-19700000D02*
G75*
G02*
X13340000Y-19550000I0J150000D01*
G01*
X17110000Y-17900000D02*
G75*
G02*
X17260000Y-18050000I0J-150000D01*
G01*
X17260000Y-19550000D02*
G75*
G02*
X17110000Y-19700000I-150000J0D01*
G01*
%TO.C,R29*%
X19010000Y-9740000D02*
X19970000Y-9740000D01*
X19010000Y-11060000D02*
X19010000Y-9740000D01*
X19970000Y-11060000D02*
X19010000Y-11060000D01*
X20830000Y-11060000D02*
X21790000Y-11060000D01*
X21790000Y-9740000D02*
X20830000Y-9740000D01*
X21790000Y-11060000D02*
X21790000Y-9740000D01*
%TO.C,L1*%
D11*
X23800000Y-37900000D02*
X23800000Y-38940000D01*
X23800000Y-37900000D02*
X29200000Y-37900000D01*
X23800000Y-42060000D02*
X23800000Y-43100000D01*
X29200000Y-38940000D02*
X29200000Y-37900000D01*
X29200000Y-43100000D02*
X23800000Y-43100000D01*
X29200000Y-43100000D02*
X29200000Y-42060000D01*
%TD*%
M02*
