M48
; DRILL file KiCad 10.0.4 date 2026-07-26T18:03:13
; FORMAT={-:-/ absolute / metric / decimal}
; #@! TF.CreationDate,2026-07-26T18:03:13-07:00
; #@! TF.GenerationSoftware,Kicad,Pcbnew,10.0.4
; #@! TF.FileFunction,Plated,1,6,PTH
FMAT,2
METRIC
; #@! TA.AperFunction,Plated,PTH,ViaDrill
T1C0.300
; #@! TA.AperFunction,Plated,PTH,ComponentDrill
T2C0.300
; #@! TA.AperFunction,Plated,PTH,ComponentDrill
T3C0.800
; #@! TA.AperFunction,Plated,PTH,ComponentDrill
T4C1.199
; #@! TA.AperFunction,Plated,PTH,ComponentDrill
T5C1.200
%
G90
G05
T1
X1.1Y-51.6
X1.5Y-13.6
X1.6Y-54.5
X1.6Y-56.0
X1.65Y-31.18
X1.7Y-48.2
X1.7Y-53.6
X2.0Y-21.4
X2.2Y-9.6
X2.3Y-63.1
X2.6Y-57.3
X2.9Y-12.0
X2.9Y-40.2
X3.0Y-50.3
X3.05Y-28.78
X3.7Y-30.6
X4.0Y-55.4
X4.0Y-64.8
X4.25Y-44.72
X4.3Y-52.3
X4.5Y-29.1
X4.7Y-34.07
X4.725Y-24.47
X4.9Y-46.6
X5.5Y-27.3
X5.6Y-32.7
X5.9Y-11.7
X5.9Y-25.9
X6.58Y-48.75
X6.6Y-36.2
X6.7Y-21.4
X6.8Y-23.4
X7.1Y-31.1
X7.2Y-10.025
X7.3Y-18.6
X7.3Y-63.9
X7.5Y-11.0
X7.5Y-14.7
X7.5Y-29.6
X7.5Y-35.48
X7.98Y-47.75
X8.275Y-25.18
X8.3Y-33.37
X8.52Y-13.325
X8.6Y-21.4
X9.1Y-32.2
X9.2Y-20.0
X9.67Y-59.79
X9.67Y-64.77
X9.8Y-34.1
X10.0Y-24.8
X10.0Y-59.03
X10.3Y-17.6
X10.5Y-12.055
X10.5Y-13.325
X10.65Y-28.78
X10.7Y-19.5
X11.198Y-13.353
X11.198Y-13.355
X11.198Y-13.355
X11.198Y-13.565
X11.198Y-13.565
X11.198Y-13.565
X11.198Y-13.565
X11.198Y-13.565
X11.198Y-13.565
X11.3Y-32.0
X11.4Y-17.6
X11.7Y-28.6
X11.7Y-59.0
X12.05Y-29.58
X12.2Y-16.7
X12.3Y-37.8
X12.47Y-15.425
X12.5Y-23.4
X12.5Y-25.0
X12.8Y-32.6
X12.9Y-21.9
X13.0Y-17.7
X13.3Y-26.9
X13.4Y-21.9
X13.4Y-24.2
X13.4Y-25.7
X14.1Y-56.4
X14.6Y-27.9
X14.8Y-18.3
X14.8Y-57.3
X14.85Y-46.05
X15.1Y-39.5
X15.195Y-10.03
X15.3Y-21.3
X15.3Y-24.1
X15.55Y-47.95
X15.7Y-15.4
X15.7Y-26.3
X15.7Y-30.5
X15.7Y-32.1
X15.8Y-52.1
X15.8Y-54.5
X16.3Y-59.0
X16.4Y-20.0
X16.4Y-33.4
X16.45Y-18.6
X17.0Y-28.9
X17.2Y-36.2
X17.2Y-55.8
X17.3Y-16.1
X17.7Y-20.0
X17.7Y-31.4
X17.9Y-17.8
X18.0Y-15.2
X18.0Y-59.03
X18.3Y-50.6
X18.33Y-59.79
X18.33Y-64.77
X18.4Y-27.5
X18.6Y-8.8
X18.7Y-26.3
X18.7Y-29.9
X18.8Y-22.0
X19.0Y-51.6
X19.0Y-52.7
X19.0Y-55.7
X19.3Y-14.0
X19.4Y-19.5
X19.4Y-23.8
X19.5Y-27.6
X19.5Y-40.2
X20.0Y-12.0
X20.1Y-10.8
X20.1Y-15.9
X20.2Y-32.4
X20.3Y-8.9
X20.45Y-47.95
X20.5Y-8.0
X20.51Y-1.5
X20.9Y-21.3
X21.1Y-9.5
X21.1Y-12.0
X21.1Y-15.9
X21.2Y-4.7
X21.6Y-17.6
X21.6Y-23.8
X21.85Y-46.05
X21.9Y-30.4
X21.97Y-29.25
X22.0Y-41.5
X22.1Y-26.5
X22.1Y-60.0
X22.2Y-15.9
X22.2Y-72.5
X22.49Y-3.6
X22.6Y-9.5
X22.7Y-36.1
X22.9Y-10.8
X22.9Y-17.4
X23.0Y-47.6
X23.5Y-33.5
X23.5Y-63.1
X23.6Y-28.6
X23.6Y-30.7
X23.8Y-10.8
X24.0Y-7.1
X24.0Y-8.0
X24.0Y-79.0
X24.2Y-27.4
X24.2Y-32.6
X24.3Y-16.4
X24.3Y-49.9
X24.7Y-76.3
X24.75Y-34.48
X24.8Y-13.3
X24.9Y-18.0
X25.25Y-35.18
X25.5Y-47.6
X25.75Y-25.52
X26.0Y-74.4
X26.25Y-26.22
X26.25Y-71.55
X26.6Y-35.0
X26.9Y-21.3
X27.1Y-47.5
X27.6Y-39.5
X27.65Y-73.45
X27.7Y-26.3
X27.8Y-6.2
X28.4Y-31.4
X28.4Y-49.9
X28.75Y-9.85
X28.75Y-16.55
X29.7Y-28.3
X29.73Y-30.75
X29.9Y-1.8
X30.0Y-54.0
X30.0Y-56.4
X30.3Y-33.8
X30.4Y-27.0
X30.4Y-31.8
X31.0Y-35.4
X31.3Y-62.2
X31.6Y-30.1
X31.6Y-47.5
X31.7Y-34.1
X32.1Y-54.0
X32.3Y-24.5
X32.4Y-64.1
X32.8Y-45.5
X32.8Y-48.4
X32.9Y-27.0
X33.37Y-52.6
X34.0Y-30.9
X34.0Y-34.1
X34.1Y-26.3
X34.3Y-60.3
X34.6Y-31.9
X34.6Y-33.2
X35.0Y-56.3
X35.0Y-64.1
X35.25Y-9.85
X35.25Y-16.55
X35.5Y-30.1
X35.5Y-32.5
X35.91Y-54.0
X35.95Y-34.5
T2
X24.23Y-30.0
X24.98Y-29.23
X24.98Y-30.0
X24.98Y-30.77
X26.03Y-29.23
X26.03Y-30.0
X26.03Y-30.77
X26.78Y-30.0
T4
X32.75Y-64.8
X35.25Y-64.8
T5
X1.5Y-64.8
X4.0Y-64.8
X6.5Y-64.8
X21.5Y-79.0
X24.0Y-79.0
X26.5Y-79.0
X28.5Y-1.2
X28.75Y-5.35
X28.75Y-9.85
X28.75Y-12.05
X28.75Y-16.55
X31.0Y-1.2
X33.5Y-1.2
X35.25Y-5.35
X35.25Y-9.85
X35.25Y-12.05
X35.25Y-16.55
T3
X9.67Y-59.39G85X9.67Y-60.19
G05
X9.67Y-63.67G85X9.67Y-64.27
G05
X18.33Y-59.39G85X18.33Y-60.19
G05
X18.33Y-63.67G85X18.33Y-64.27
G05
M30
