M48
; DRILL file KiCad 10.0.4 date 2026-07-26T18:38:28
; FORMAT={-:-/ absolute / metric / decimal}
; #@! TF.CreationDate,2026-07-26T18:38:28-07:00
; #@! TF.GenerationSoftware,Kicad,Pcbnew,10.0.4
; #@! TF.FileFunction,Plated,1,6,PTH
FMAT,2
METRIC
; #@! TA.AperFunction,Plated,PTH,ViaDrill
T1C0.300
; #@! TA.AperFunction,Plated,PTH,ComponentDrill
T2C0.300
; #@! TA.AperFunction,Plated,PTH,ComponentDrill
T3C0.800
; #@! TA.AperFunction,Plated,PTH,ComponentDrill
T4C1.199
; #@! TA.AperFunction,Plated,PTH,ComponentDrill
T5C1.200
%
G90
G05
T1
X0.8Y-48.8
X1.5Y-13.6
X1.6Y-51.4
X1.6Y-54.1
X1.6Y-56.0
X1.65Y-29.18
X1.7Y-48.2
X1.8Y-50.5
X2.0Y-31.1
X2.1Y-21.2
X2.2Y-12.0
X2.55Y-45.1
X2.9Y-40.2
X3.3Y-55.4
X3.7Y-9.6
X3.7Y-30.6
X3.9Y-54.1
X3.9Y-56.8
X4.0Y-64.8
X4.2Y-45.7
X4.2Y-52.1
X4.25Y-44.02
X4.5Y-57.0
X4.6Y-16.65
X4.7Y-34.77
X4.725Y-24.47
X4.9Y-46.6
X5.3Y-51.2
X5.5Y-27.3
X5.85Y-52.5
X5.85Y-54.5
X5.9Y-26.1
X6.0Y-13.8
X6.2Y-33.9
X6.3Y-48.2
X6.5Y-25.18
X6.6Y-15.2
X6.6Y-17.6
X6.6Y-36.2
X6.7Y-21.2
X7.1Y-31.1
X7.3Y-18.75
X7.3Y-19.3
X7.5Y-15.9
X7.5Y-22.2
X7.5Y-35.48
X7.6Y-29.6
X7.7Y-18.8
X7.7Y-33.3
X8.4Y-34.8
X9.2Y-31.7
X9.2Y-32.6
X9.5Y-19.4
X9.67Y-59.79
X9.67Y-63.97
X9.9Y-21.2
X9.9Y-34.1
X10.0Y-21.6
X10.0Y-23.6
X10.0Y-26.2
X10.1Y-59.03
X10.5Y-12.755
X10.5Y-17.0
X10.6Y-27.5
X10.848Y-13.353
X10.848Y-13.355
X10.848Y-13.355
X10.848Y-13.678
X10.848Y-13.678
X10.848Y-13.678
X10.848Y-13.678
X10.848Y-13.678
X10.848Y-13.678
X11.0Y-32.0
X11.35Y-28.78
X11.4Y-16.9
X11.6Y-58.3
X11.7Y-59.2
X12.3Y-37.0
X12.4Y-29.4
X12.47Y-15.425
X12.7Y-18.8
X12.8Y-17.6
X13.3Y-26.9
X13.3Y-28.9
X13.4Y-21.6
X13.8Y-17.6
X14.0Y-33.4
X14.15Y-46.05
X14.2Y-57.9
X14.6Y-19.4
X14.6Y-22.9
X14.6Y-60.1
X15.1Y-18.5
X15.7Y-25.5
X15.7Y-29.5
X15.7Y-32.1
X15.8Y-52.1
X15.8Y-54.5
X16.3Y-30.7
X16.3Y-59.2
X16.45Y-19.3
X16.8Y-22.3
X17.1Y-49.9
X17.2Y-36.2
X17.4Y-16.6
X17.9Y-18.5
X18.0Y-23.6
X18.1Y-31.0
X18.3Y-55.0
X18.3Y-59.03
X18.33Y-59.79
X18.33Y-63.97
X18.6Y-15.8
X18.7Y-30.1
X18.9Y-31.6
X18.9Y-50.6
X19.15Y-27.8
X19.4Y-19.3
X19.5Y-53.4
X19.5Y-55.7
X19.6Y-8.4
X19.6Y-15.9
X20.0Y-49.9
X20.1Y-31.0
X20.1Y-32.3
X20.2Y-28.9
X20.3Y-21.6
X20.3Y-24.2
X20.3Y-26.2
X20.4Y-9.3
X20.5Y-7.6
X20.51Y-1.5
X20.6Y-3.8
X20.7Y-15.9
X21.0Y-29.8
X21.2Y-4.7
X21.2Y-10.2
X21.2Y-13.4
X21.4Y-46.1
X21.4Y-60.0
X21.83Y-2.2
X21.85Y-72.5
X21.9Y-9.3
X21.9Y-30.4
X22.0Y-41.5
X22.2Y-6.0
X22.2Y-15.9
X22.2Y-20.1
X22.6Y-8.4
X22.9Y-10.8
X22.9Y-17.4
X23.0Y-47.6
X23.1Y-20.2
X23.1Y-30.9
X23.1Y-33.0
X23.2Y-25.6
X23.2Y-35.2
X23.5Y-62.7
X23.6Y-13.3
X23.9Y-12.0
X24.0Y-7.6
X24.0Y-20.0
X24.0Y-79.0
X24.2Y-26.3
X24.25Y-34.48
X24.3Y-48.6
X24.3Y-49.9
X24.5Y-23.0
X24.7Y-75.5
X25.5Y-47.6
X25.6Y-72.0
X26.25Y-25.52
X26.5Y-39.2
X26.555Y-30.35
X26.555Y-30.35
X26.555Y-30.35
X26.555Y-30.35
X26.555Y-30.35
X26.555Y-30.35
X26.555Y-30.35
X26.555Y-30.35
X26.555Y-30.35
X26.7Y-21.6
X27.3Y-31.7
X27.6Y-32.6
X28.4Y-47.5
X28.4Y-49.9
X28.5Y-1.2
X28.75Y-9.85
X28.75Y-16.55
X28.9Y-20.0
X28.9Y-26.9
X29.77Y-31.73
X30.0Y-54.0
X30.0Y-56.4
X30.1Y-15.1
X31.3Y-30.1
X31.3Y-31.9
X31.4Y-62.55
X32.3Y-27.0
X32.3Y-56.7
X33.1Y-60.3
X34.0Y-31.2
X34.0Y-35.2
X34.1Y-24.8
X34.2Y-60.7
X34.4Y-46.7
X34.4Y-48.0
X34.45Y-49.3
X34.64Y-51.9
X34.9Y-32.1
X34.9Y-45.1
X34.9Y-56.7
X35.25Y-9.85
X35.25Y-16.55
X35.5Y-30.5
X35.6Y-50.7
X35.6Y-60.3
X36.3Y-23.7
T2
X24.23Y-30.0
X24.98Y-29.23
X24.98Y-30.0
X24.98Y-30.77
X26.03Y-29.23
X26.03Y-30.0
X26.03Y-30.77
X26.78Y-30.0
T4
X32.75Y-64.8
X35.25Y-64.8
T5
X1.5Y-64.8
X4.0Y-64.8
X6.5Y-64.8
X21.5Y-79.0
X24.0Y-79.0
X26.5Y-79.0
X28.5Y-1.2
X28.75Y-5.35
X28.75Y-9.85
X28.75Y-12.05
X28.75Y-16.55
X31.0Y-1.2
X33.5Y-1.2
X35.25Y-5.35
X35.25Y-9.85
X35.25Y-12.05
X35.25Y-16.55
T3
X9.67Y-59.39G85X9.67Y-60.19
G05
X9.67Y-63.67G85X9.67Y-64.27
G05
X18.33Y-59.39G85X18.33Y-60.19
G05
X18.33Y-63.67G85X18.33Y-64.27
G05
M30
