%TF.GenerationSoftware,KiCad,Pcbnew,10.0.4*%
%TF.CreationDate,2026-07-26T18:38:28-07:00*%
%TF.ProjectId,filled,66696c6c-6564-42e6-9b69-6361645f7063,rev?*%
%TF.SameCoordinates,Original*%
%TF.FileFunction,Copper,L3,Inr*%
%TF.FilePolarity,Positive*%
%FSLAX46Y46*%
G04 Gerber Fmt 4.6, Leading zero omitted, Abs format (unit mm)*
G04 Created by KiCad (PCBNEW 10.0.4) date 2026-07-26 18:38:28*
%MOMM*%
%LPD*%
G01*
G04 APERTURE LIST*
%TA.AperFunction,ComponentPad*%
%ADD10R,1.600000X1.800000*%
%TD*%
%TA.AperFunction,ComponentPad*%
%ADD11C,1.800000*%
%TD*%
%TA.AperFunction,ComponentPad*%
%ADD12C,0.550000*%
%TD*%
%TA.AperFunction,ComponentPad*%
%ADD13O,1.200000X2.000000*%
%TD*%
%TA.AperFunction,ComponentPad*%
%ADD14O,1.200000X1.800000*%
%TD*%
%TA.AperFunction,ViaPad*%
%ADD15C,0.600000*%
%TD*%
%TA.AperFunction,Conductor*%
%ADD16C,0.400000*%
%TD*%
%TA.AperFunction,Conductor*%
%ADD17C,0.150000*%
%TD*%
%TA.AperFunction,Conductor*%
%ADD18C,0.300000*%
%TD*%
G04 APERTURE END LIST*
D10*
%TO.N,1-5*%
%TO.C,J2*%
X21500000Y-79000000D03*
D11*
%TO.N,gnd_tab*%
X24000000Y-79000000D03*
%TO.N,hall_do_tab*%
X26500000Y-79000000D03*
%TD*%
%TO.N,btn_up*%
%TO.C,SW2*%
X28750000Y-5350000D03*
X35250000Y-5350000D03*
%TO.N,2*%
X28750000Y-9850000D03*
X35250000Y-9850000D03*
%TD*%
D12*
%TO.N,2*%
%TO.C,U1*%
X24230000Y-30000000D03*
X24980000Y-29230000D03*
X24980000Y-30000000D03*
X24980000Y-30770000D03*
X26030000Y-29230000D03*
X26030000Y-30000000D03*
X26030000Y-30770000D03*
X26780000Y-30000000D03*
%TD*%
D10*
%TO.N,1*%
%TO.C,J1*%
X33500000Y-1200000D03*
D11*
%TO.N,batmid*%
X31000000Y-1200000D03*
%TO.N,2*%
X28500000Y-1200000D03*
%TD*%
D10*
%TO.N,1-3*%
%TO.C,J3*%
X1500000Y-64800000D03*
D11*
%TO.N,2*%
X4000000Y-64800000D03*
%TO.N,hall_do*%
X6500000Y-64800000D03*
%TD*%
D13*
%TO.N,2*%
%TO.C,J5*%
X18330000Y-59790000D03*
D14*
X18330000Y-63970000D03*
X9670000Y-63970000D03*
D13*
X9670000Y-59790000D03*
%TD*%
D11*
%TO.N,mot_a*%
%TO.C,J4*%
X35250000Y-64800000D03*
%TO.N,mot_b*%
X32750000Y-64800000D03*
%TD*%
%TO.N,btn_dn*%
%TO.C,SW1*%
X28750000Y-12050000D03*
X35250000Y-12050000D03*
%TO.N,2*%
X28750000Y-16550000D03*
X35250000Y-16550000D03*
%TD*%
D15*
%TO.N,1*%
X22900000Y-10800000D03*
X11350000Y-28780000D03*
X22900000Y-17400000D03*
X22200000Y-20100000D03*
X11000000Y-32000000D03*
%TO.N,2-1*%
X35500000Y-30500000D03*
X32300000Y-27000000D03*
X27600000Y-32600000D03*
%TO.N,1-1*%
X34900000Y-32100000D03*
X25500000Y-47600000D03*
X34900000Y-45100000D03*
X23000000Y-47600000D03*
X26250000Y-25520000D03*
%TO.N,btst1*%
X13300000Y-26900000D03*
X7600000Y-29600000D03*
%TO.N,1-2*%
X15800000Y-52100000D03*
X26500000Y-39200000D03*
X19400000Y-19300000D03*
X15800000Y-54500000D03*
X7500000Y-22200000D03*
X29770000Y-31730000D03*
X15100000Y-18500000D03*
X17900000Y-18500000D03*
X27300000Y-31700000D03*
X14600000Y-19400000D03*
X14150000Y-46050000D03*
%TO.N,prot_cd*%
X22200000Y-15900000D03*
X22600000Y-8400000D03*
%TO.N,mcu_en*%
X6000000Y-13800000D03*
X1500000Y-13600000D03*
X14600000Y-22900000D03*
%TO.N,gnd_tab*%
X24000000Y-79000000D03*
X24700000Y-75500000D03*
X21850000Y-72500000D03*
%TO.N,VDD*%
X5300000Y-51200000D03*
X1600000Y-56000000D03*
%TO.N,pmid*%
X9900000Y-34100000D03*
X5500000Y-27300000D03*
%TO.N,prot_vdd*%
X21200000Y-4700000D03*
X21200000Y-10200000D03*
X21200000Y-13400000D03*
%TO.N,vcc_bst*%
X34100000Y-24800000D03*
X23100000Y-30900000D03*
%TO.N,prog*%
X20200000Y-28900000D03*
X13300000Y-28900000D03*
%TO.N,chg_int*%
X18700000Y-30100000D03*
X12400000Y-29400000D03*
%TO.N,sdrv*%
X20300000Y-26200000D03*
X10000000Y-26200000D03*
%TO.N,VBUS*%
X3900000Y-56800000D03*
X2000000Y-31100000D03*
X4500000Y-57000000D03*
X4700000Y-34770000D03*
X1650000Y-29180000D03*
X800000Y-48800000D03*
X11700000Y-59200000D03*
X11600000Y-58300000D03*
X16300000Y-59200000D03*
%TO.N,chg_stat*%
X20300000Y-24200000D03*
X4725000Y-24470000D03*
%TO.N,mot_a*%
X34900000Y-56700000D03*
X34640000Y-51900000D03*
%TO.N,mot_b*%
X32300000Y-56700000D03*
%TO.N,hall_do_tab*%
X25600000Y-72000000D03*
%TO.N,2*%
X10848000Y-13678000D03*
X26555000Y-30350000D03*
X10848000Y-13355000D03*
X28400000Y-49900000D03*
X26555000Y-30350000D03*
X4000000Y-64800000D03*
X24300000Y-48600000D03*
X10848000Y-13353000D03*
X22200000Y-6000000D03*
X35250000Y-9850000D03*
X26555000Y-30350000D03*
X34400000Y-46700000D03*
X30000000Y-56400000D03*
X12300000Y-37000000D03*
X6500000Y-25180000D03*
X28750000Y-16550000D03*
X10848000Y-13678000D03*
X19150000Y-27800000D03*
X16450000Y-19300000D03*
X7700000Y-18800000D03*
X10848000Y-13678000D03*
X18330000Y-59790000D03*
X4600000Y-16650000D03*
X26555000Y-30350000D03*
X18330000Y-63970000D03*
X26555000Y-30350000D03*
X30000000Y-54000000D03*
X7300000Y-18750000D03*
X10848000Y-13678000D03*
X22000000Y-41500000D03*
X10848000Y-13678000D03*
X9670000Y-59790000D03*
X31400000Y-62550000D03*
X2550000Y-45100000D03*
X5850000Y-52500000D03*
X10100000Y-59030000D03*
X12470000Y-15425000D03*
X24300000Y-49900000D03*
X35250000Y-16550000D03*
X10848000Y-13355000D03*
X7300000Y-19300000D03*
X28500000Y-1200000D03*
X18300000Y-59030000D03*
X28750000Y-9850000D03*
X21830000Y-2200000D03*
X10848000Y-13678000D03*
X26555000Y-30350000D03*
X9670000Y-63970000D03*
X18300000Y-55000000D03*
X5850000Y-54500000D03*
X26555000Y-30350000D03*
X34450000Y-49300000D03*
X10500000Y-12755000D03*
X26555000Y-30350000D03*
X12700000Y-18800000D03*
X28400000Y-47500000D03*
X26555000Y-30350000D03*
X34400000Y-48000000D03*
%TO.N,CC1*%
X3300000Y-55400000D03*
X1800000Y-50500000D03*
%TO.N,usb_dp*%
X14600000Y-60100000D03*
X18600000Y-15800000D03*
X28900000Y-20000000D03*
X28900000Y-26900000D03*
%TO.N,usb_dn*%
X14200000Y-57900000D03*
X24000000Y-20000000D03*
X17400000Y-16600000D03*
X24500000Y-23000000D03*
%TO.N,sw_buck*%
X21400000Y-60000000D03*
X21400000Y-46100000D03*
%TO.N,sw_chg1*%
X2900000Y-40200000D03*
X15700000Y-25500000D03*
X5900000Y-26100000D03*
%TO.N,btn_dn*%
X6600000Y-17600000D03*
%TO.N,18*%
X34200000Y-60700000D03*
X10500000Y-17000000D03*
X18000000Y-23600000D03*
X36300000Y-23700000D03*
X10000000Y-23600000D03*
%TO.N,19*%
X11400000Y-16900000D03*
X33100000Y-60300000D03*
%TO.N,en_bst*%
X23200000Y-35200000D03*
X34000000Y-35200000D03*
X16800000Y-22300000D03*
X23100000Y-33000000D03*
%TO.N,scl*%
X7100000Y-31100000D03*
X15700000Y-32100000D03*
X12800000Y-17600000D03*
X10600000Y-27500000D03*
%TO.N,io2*%
X7500000Y-15900000D03*
X23100000Y-20200000D03*
%TO.N,hall_do*%
X2200000Y-12000000D03*
%TO.N,SNK_ISET*%
X4250000Y-44020000D03*
X4200000Y-45700000D03*
X4200000Y-52100000D03*
%TO.N,FLGIN*%
X1700000Y-48200000D03*
X3900000Y-54100000D03*
%TO.N,SNK_VSET*%
X1600000Y-51400000D03*
X4900000Y-46600000D03*
%TO.N,1-4*%
X19600000Y-8400000D03*
X24000000Y-7600000D03*
X19600000Y-15900000D03*
X20500000Y-7600000D03*
%TO.N,prot_cb*%
X21900000Y-9300000D03*
X23900000Y-12000000D03*
%TO.N,batmid*%
X30100000Y-15100000D03*
%TO.N,2-3*%
X23600000Y-13300000D03*
X20400000Y-9300000D03*
X20700000Y-15900000D03*
%TO.N,ov_out*%
X20600000Y-3800000D03*
X20100000Y-32300000D03*
X20510000Y-1500000D03*
%TO.N,chg_ce*%
X6600000Y-36200000D03*
X17200000Y-36200000D03*
%TO.N,comp_bst*%
X24200000Y-26300000D03*
X31300000Y-30100000D03*
%TO.N,fb_buck*%
X20000000Y-49900000D03*
X17100000Y-49900000D03*
%TO.N,fsw_bst*%
X34000000Y-31200000D03*
X24250000Y-34480000D03*
%TO.N,1-7*%
X1600000Y-54100000D03*
X6300000Y-48200000D03*
%TO.N,ilim_bst*%
X31300000Y-31900000D03*
X23200000Y-25600000D03*
%TO.N,ilim_mot*%
X35600000Y-50700000D03*
X35600000Y-60300000D03*
%TO.N,1-6*%
X3700000Y-30600000D03*
X9200000Y-32600000D03*
X9500000Y-19400000D03*
X9200000Y-31700000D03*
%TO.N,chg_qon*%
X16300000Y-30700000D03*
X6200000Y-33900000D03*
%TO.N,1-3*%
X19500000Y-53400000D03*
X10000000Y-21600000D03*
X6700000Y-21200000D03*
X19500000Y-55700000D03*
X13400000Y-21600000D03*
X18100000Y-31000000D03*
X26700000Y-21600000D03*
X23500000Y-62700000D03*
X18900000Y-50600000D03*
X21000000Y-29800000D03*
X3700000Y-9600000D03*
X9900000Y-21200000D03*
X2100000Y-21200000D03*
X20300000Y-21600000D03*
X20100000Y-31000000D03*
X18900000Y-31600000D03*
%TO.N,sda*%
X7700000Y-33300000D03*
X21900000Y-30400000D03*
X7500000Y-35480000D03*
X13800000Y-17600000D03*
X14000000Y-33400000D03*
%TO.N,ts*%
X15700000Y-29500000D03*
X8400000Y-34800000D03*
%TO.N,btn_up*%
X6600000Y-15200000D03*
%TD*%
%TO.N,1*%
D16*
X11000000Y-30200000D02*
X11000000Y-30300000D01*
X11000000Y-29100000D02*
X11000000Y-29200000D01*
X11000000Y-29800000D02*
X11000000Y-29900000D01*
X11000000Y-31500000D02*
X11000000Y-31700000D01*
X11000000Y-31900000D02*
X11000000Y-32000000D01*
X11000000Y-31400000D02*
X11000000Y-31500000D01*
X11000000Y-29400000D02*
X11000000Y-29500000D01*
X11000000Y-30300000D02*
X11000000Y-30400000D01*
X11000000Y-30500000D02*
X11000000Y-30700000D01*
X11000000Y-29500000D02*
X11000000Y-29700000D01*
X11000000Y-30400000D02*
X11000000Y-30500000D01*
X11000000Y-31000000D02*
X11000000Y-31200000D01*
X11000000Y-29700000D02*
X11000000Y-29800000D01*
X11000000Y-31800000D02*
X11000000Y-31900000D01*
X11000000Y-30000000D02*
X11000000Y-30200000D01*
X11000000Y-30700000D02*
X11000000Y-30800000D01*
X11000000Y-31700000D02*
X11000000Y-31800000D01*
X11000000Y-29300000D02*
X11000000Y-29400000D01*
X11000000Y-30900000D02*
X11000000Y-31000000D01*
X11000000Y-29200000D02*
X11000000Y-29300000D01*
X11000000Y-31200000D02*
X11000000Y-31300000D01*
X11000000Y-30800000D02*
X11000000Y-30900000D01*
X11000000Y-31300000D02*
X11000000Y-31400000D01*
X11000000Y-29900000D02*
X11000000Y-30000000D01*
%TO.N,prot_cd*%
D17*
X22200000Y-14500000D02*
X22200000Y-14600000D01*
X22200000Y-12600000D02*
X22200000Y-13000000D01*
X22200000Y-11100000D02*
X22200000Y-11500000D01*
X22200000Y-11000000D02*
X22200000Y-11100000D01*
X22200000Y-11600000D02*
X22200000Y-12000000D01*
X22200000Y-11500000D02*
X22200000Y-11600000D01*
X22200000Y-12100000D02*
X22200000Y-12500000D01*
X22200000Y-14000000D02*
X22200000Y-14100000D01*
X22200000Y-10100000D02*
X22200000Y-10500000D01*
X22200000Y-13600000D02*
X22200000Y-14000000D01*
X22200000Y-13000000D02*
X22200000Y-13100000D01*
X22200000Y-10600000D02*
X22200000Y-11000000D01*
X22200000Y-15600000D02*
X22200000Y-15900000D01*
X22200000Y-12000000D02*
X22200000Y-12100000D01*
X22200000Y-15500000D02*
X22200000Y-15600000D01*
X22600000Y-10100000D02*
X22500000Y-10100000D01*
X22400000Y-10100000D02*
X22300000Y-10100000D01*
X22200000Y-14600000D02*
X22200000Y-15000000D01*
X22600000Y-8700000D02*
X22600000Y-9100000D01*
X22600000Y-10000000D02*
X22600000Y-10100000D01*
X22600000Y-8600000D02*
X22600000Y-8700000D01*
X22200000Y-15000000D02*
X22200000Y-15100000D01*
X22200000Y-14100000D02*
X22200000Y-14500000D01*
X22300000Y-10100000D02*
X22200000Y-10100000D01*
X22200000Y-13500000D02*
X22200000Y-13600000D01*
X22200000Y-10500000D02*
X22200000Y-10600000D01*
X22200000Y-13100000D02*
X22200000Y-13500000D01*
X22600000Y-8400000D02*
X22600000Y-8600000D01*
X22600000Y-9100000D02*
X22600000Y-9200000D01*
X22600000Y-9200000D02*
X22600000Y-9500000D01*
X22200000Y-12500000D02*
X22200000Y-12600000D01*
X22600000Y-9600000D02*
X22600000Y-10000000D01*
X22500000Y-10100000D02*
X22400000Y-10100000D01*
X22200000Y-15100000D02*
X22200000Y-15500000D01*
X22600000Y-9500000D02*
X22600000Y-9600000D01*
%TO.N,pmid*%
D16*
X9100000Y-27300000D02*
X9200000Y-27300000D01*
X9200000Y-27300000D02*
X9500000Y-27300000D01*
X5700000Y-27300000D02*
X5800000Y-27300000D01*
X9600000Y-27300000D02*
X9900000Y-27300000D01*
X9900000Y-31800000D02*
X9900000Y-31900000D01*
X8200000Y-27300000D02*
X8600000Y-27300000D01*
X9900000Y-30400000D02*
X9900000Y-30500000D01*
X7300000Y-27300000D02*
X7500000Y-27300000D01*
X9900000Y-28800000D02*
X9900000Y-28900000D01*
X9900000Y-31500000D02*
X9900000Y-31700000D01*
X9900000Y-28900000D02*
X9900000Y-29000000D01*
X9900000Y-30900000D02*
X9900000Y-31000000D01*
X7500000Y-27300000D02*
X7600000Y-27300000D01*
X9900000Y-32300000D02*
X9900000Y-32400000D01*
X9900000Y-27900000D02*
X9900000Y-28000000D01*
X9900000Y-31300000D02*
X9900000Y-31400000D01*
X9900000Y-31900000D02*
X9900000Y-32000000D01*
X9900000Y-32900000D02*
X9900000Y-33300000D01*
X7800000Y-27300000D02*
X8100000Y-27300000D01*
X9900000Y-28500000D02*
X9900000Y-28700000D01*
X9900000Y-29300000D02*
X9900000Y-29400000D01*
X9900000Y-32400000D02*
X9900000Y-32800000D01*
X7100000Y-27300000D02*
X7200000Y-27300000D01*
X9900000Y-30800000D02*
X9900000Y-30900000D01*
X6200000Y-27300000D02*
X6300000Y-27300000D01*
X9900000Y-30300000D02*
X9900000Y-30400000D01*
X9900000Y-27300000D02*
X9900000Y-27400000D01*
X6700000Y-27300000D02*
X6800000Y-27300000D01*
X9900000Y-30200000D02*
X9900000Y-30300000D01*
X9900000Y-27700000D02*
X9900000Y-27800000D01*
X6500000Y-27300000D02*
X6600000Y-27300000D01*
X9900000Y-33300000D02*
X9900000Y-33400000D01*
X7700000Y-27300000D02*
X7800000Y-27300000D01*
X9900000Y-30000000D02*
X9900000Y-30200000D01*
X7200000Y-27300000D02*
X7300000Y-27300000D01*
X6000000Y-27300000D02*
X6100000Y-27300000D01*
X9900000Y-27500000D02*
X9900000Y-27700000D01*
X7000000Y-27300000D02*
X7100000Y-27300000D01*
X9900000Y-31400000D02*
X9900000Y-31500000D01*
X9900000Y-31200000D02*
X9900000Y-31300000D01*
X9900000Y-27400000D02*
X9900000Y-27500000D01*
X9900000Y-28300000D02*
X9900000Y-28400000D01*
X9900000Y-30700000D02*
X9900000Y-30800000D01*
X9900000Y-28200000D02*
X9900000Y-28300000D01*
X6800000Y-27300000D02*
X7000000Y-27300000D01*
X9900000Y-32800000D02*
X9900000Y-32900000D01*
X9900000Y-33900000D02*
X9900000Y-34100000D01*
X9900000Y-33400000D02*
X9900000Y-33800000D01*
X8600000Y-27300000D02*
X8700000Y-27300000D01*
X9900000Y-29500000D02*
X9900000Y-29700000D01*
X6100000Y-27300000D02*
X6200000Y-27300000D01*
X9900000Y-28700000D02*
X9900000Y-28800000D01*
X9900000Y-28000000D02*
X9900000Y-28200000D01*
X9900000Y-32000000D02*
X9900000Y-32300000D01*
X9900000Y-31000000D02*
X9900000Y-31200000D01*
X9900000Y-29700000D02*
X9900000Y-29800000D01*
X5500000Y-27300000D02*
X5600000Y-27300000D01*
X6300000Y-27300000D02*
X6500000Y-27300000D01*
X5600000Y-27300000D02*
X5700000Y-27300000D01*
X9900000Y-29900000D02*
X9900000Y-30000000D01*
X9900000Y-30500000D02*
X9900000Y-30700000D01*
X9900000Y-27800000D02*
X9900000Y-27900000D01*
X9900000Y-29400000D02*
X9900000Y-29500000D01*
X9500000Y-27300000D02*
X9600000Y-27300000D01*
X7600000Y-27300000D02*
X7700000Y-27300000D01*
X9900000Y-31700000D02*
X9900000Y-31800000D01*
X9900000Y-29800000D02*
X9900000Y-29900000D01*
X6600000Y-27300000D02*
X6700000Y-27300000D01*
X9900000Y-28400000D02*
X9900000Y-28500000D01*
X9900000Y-29200000D02*
X9900000Y-29300000D01*
X8100000Y-27300000D02*
X8200000Y-27300000D01*
X9900000Y-29000000D02*
X9900000Y-29200000D01*
X9900000Y-33800000D02*
X9900000Y-33900000D01*
X8700000Y-27300000D02*
X9100000Y-27300000D01*
X5800000Y-27300000D02*
X6000000Y-27300000D01*
%TO.N,usb_dp*%
D17*
X30500000Y-32000000D02*
X30500000Y-31900000D01*
X28500000Y-51300000D02*
X28700000Y-51300000D01*
X30500000Y-46900000D02*
X30500000Y-46500000D01*
X16100000Y-58600000D02*
X16200000Y-58600000D01*
X17400000Y-51400000D02*
X17400000Y-51300000D01*
X30500000Y-43000000D02*
X30500000Y-42900000D01*
X27900000Y-18100000D02*
X27800000Y-18100000D01*
X30500000Y-36300000D02*
X30500000Y-35900000D01*
X17400000Y-58000000D02*
X17400000Y-57900000D01*
X16000000Y-58600000D02*
X16100000Y-58600000D01*
X20800000Y-51300000D02*
X20900000Y-51300000D01*
X19200000Y-51300000D02*
X19300000Y-51300000D01*
X19900000Y-51300000D02*
X20000000Y-51300000D01*
X27900000Y-51300000D02*
X28000000Y-51300000D01*
X30200000Y-26900000D02*
X30000000Y-26900000D01*
X30500000Y-48400000D02*
X30500000Y-48000000D01*
X18000000Y-51300000D02*
X18100000Y-51300000D01*
X30000000Y-51300000D02*
X30200000Y-51300000D01*
X22400000Y-18100000D02*
X22300000Y-18100000D01*
X20200000Y-18100000D02*
X20000000Y-18100000D01*
X18600000Y-16200000D02*
X18600000Y-16100000D01*
X22900000Y-18100000D02*
X22800000Y-18100000D01*
X17400000Y-51900000D02*
X17400000Y-51500000D01*
X18200000Y-51300000D02*
X18400000Y-51300000D01*
X19300000Y-18100000D02*
X19200000Y-18100000D01*
X26300000Y-51300000D02*
X26400000Y-51300000D01*
X17400000Y-53900000D02*
X17400000Y-53500000D01*
X18600000Y-17500000D02*
X18600000Y-17400000D01*
X27800000Y-18100000D02*
X27700000Y-18100000D01*
X23400000Y-51300000D02*
X23500000Y-51300000D01*
X27200000Y-51300000D02*
X27300000Y-51300000D01*
X18600000Y-51300000D02*
X18700000Y-51300000D01*
X30500000Y-35400000D02*
X30500000Y-35300000D01*
X21000000Y-51300000D02*
X21200000Y-51300000D01*
X30500000Y-48000000D02*
X30500000Y-47900000D01*
X30500000Y-45900000D02*
X30500000Y-45500000D01*
X28900000Y-20000000D02*
X28900000Y-19900000D01*
X29200000Y-26900000D02*
X29000000Y-26900000D01*
X17400000Y-54900000D02*
X17400000Y-54500000D01*
X30500000Y-30700000D02*
X30500000Y-30500000D01*
X23300000Y-51300000D02*
X23400000Y-51300000D01*
X26000000Y-18100000D02*
X25900000Y-18100000D01*
X30500000Y-30200000D02*
X30500000Y-30000000D01*
X28900000Y-18700000D02*
X28900000Y-18600000D01*
X17400000Y-55900000D02*
X17400000Y-55500000D01*
X30500000Y-31900000D02*
X30500000Y-31800000D01*
X29800000Y-51300000D02*
X29900000Y-51300000D01*
X30500000Y-36900000D02*
X30500000Y-36800000D01*
X18600000Y-16600000D02*
X18600000Y-16500000D01*
X19900000Y-18100000D02*
X19800000Y-18100000D01*
X23000000Y-51300000D02*
X23200000Y-51300000D01*
X17500000Y-51300000D02*
X17600000Y-51300000D01*
X17600000Y-51300000D02*
X17700000Y-51300000D01*
X20900000Y-51300000D02*
X21000000Y-51300000D01*
X17400000Y-57900000D02*
X17400000Y-57500000D01*
X28900000Y-18900000D02*
X28900000Y-18700000D01*
X30200000Y-51300000D02*
X30300000Y-51300000D01*
X24900000Y-51300000D02*
X25000000Y-51300000D01*
X24800000Y-51300000D02*
X24900000Y-51300000D01*
X22000000Y-51300000D02*
X22200000Y-51300000D01*
X27400000Y-51300000D02*
X27500000Y-51300000D01*
X30500000Y-39400000D02*
X30500000Y-39000000D01*
X23700000Y-18100000D02*
X23500000Y-18100000D01*
X30500000Y-50400000D02*
X30500000Y-50000000D01*
X30500000Y-31200000D02*
X30500000Y-31000000D01*
X30500000Y-42000000D02*
X30500000Y-41900000D01*
X30500000Y-50900000D02*
X30500000Y-50500000D01*
X18600000Y-17000000D02*
X18600000Y-16900000D01*
X22800000Y-18100000D02*
X22700000Y-18100000D01*
X23200000Y-18100000D02*
X23000000Y-18100000D01*
X24000000Y-51300000D02*
X24200000Y-51300000D01*
X30500000Y-31800000D02*
X30500000Y-31700000D01*
X30500000Y-31700000D02*
X30500000Y-31500000D01*
X30500000Y-36800000D02*
X30500000Y-36400000D01*
X28900000Y-19300000D02*
X28900000Y-19200000D01*
X25500000Y-51300000D02*
X25700000Y-51300000D01*
X23300000Y-18100000D02*
X23200000Y-18100000D01*
X28900000Y-19900000D02*
X28900000Y-19800000D01*
X30500000Y-37900000D02*
X30500000Y-37800000D01*
X28500000Y-18100000D02*
X28400000Y-18100000D01*
X17400000Y-53500000D02*
X17400000Y-53400000D01*
X17400000Y-56900000D02*
X17400000Y-56500000D01*
X28400000Y-51300000D02*
X28500000Y-51300000D01*
X30300000Y-51300000D02*
X30400000Y-51300000D01*
X30500000Y-49000000D02*
X30500000Y-48900000D01*
X25800000Y-51300000D02*
X25900000Y-51300000D01*
X30500000Y-43900000D02*
X30500000Y-43500000D01*
X17400000Y-52500000D02*
X17400000Y-52400000D01*
X22400000Y-51300000D02*
X22500000Y-51300000D01*
X25200000Y-51300000D02*
X25300000Y-51300000D01*
X17200000Y-58600000D02*
X17400000Y-58600000D01*
X20000000Y-18100000D02*
X19900000Y-18100000D01*
X30500000Y-44400000D02*
X30500000Y-44000000D01*
X25300000Y-18100000D02*
X25200000Y-18100000D01*
X17400000Y-58400000D02*
X17400000Y-58000000D01*
X28900000Y-51300000D02*
X29000000Y-51300000D01*
X29200000Y-51300000D02*
X29300000Y-51300000D01*
X30500000Y-29900000D02*
X30500000Y-29800000D01*
X19000000Y-51300000D02*
X19200000Y-51300000D01*
X30500000Y-33900000D02*
X30500000Y-33800000D01*
X26400000Y-18100000D02*
X26300000Y-18100000D01*
X17700000Y-51300000D02*
X17900000Y-51300000D01*
X30500000Y-27200000D02*
X30500000Y-27000000D01*
X28900000Y-19500000D02*
X28900000Y-19400000D01*
X30500000Y-44500000D02*
X30500000Y-44400000D01*
X23900000Y-51300000D02*
X24000000Y-51300000D01*
X26200000Y-51300000D02*
X26300000Y-51300000D01*
X19400000Y-51300000D02*
X19500000Y-51300000D01*
X24200000Y-51300000D02*
X24300000Y-51300000D01*
X16500000Y-58600000D02*
X16600000Y-58600000D01*
X18600000Y-16900000D02*
X18600000Y-16700000D01*
X19300000Y-51300000D02*
X19400000Y-51300000D01*
X23800000Y-51300000D02*
X23900000Y-51300000D01*
X30500000Y-38400000D02*
X30500000Y-37900000D01*
X19500000Y-51300000D02*
X19700000Y-51300000D01*
X20200000Y-51300000D02*
X20300000Y-51300000D01*
X17100000Y-58600000D02*
X17200000Y-58600000D01*
X30500000Y-34300000D02*
X30500000Y-33900000D01*
X30500000Y-40500000D02*
X30500000Y-40400000D01*
X30500000Y-35300000D02*
X30500000Y-34900000D01*
X30500000Y-32300000D02*
X30500000Y-32000000D01*
X22300000Y-18100000D02*
X22200000Y-18100000D01*
X30500000Y-32400000D02*
X30500000Y-32300000D01*
X25700000Y-51300000D02*
X25800000Y-51300000D01*
X30500000Y-47000000D02*
X30500000Y-46900000D01*
X18600000Y-16700000D02*
X18600000Y-16600000D01*
X30500000Y-30000000D02*
X30500000Y-29900000D01*
X17400000Y-54500000D02*
X17400000Y-54400000D01*
X29800000Y-26900000D02*
X29700000Y-26900000D01*
X28200000Y-51300000D02*
X28300000Y-51300000D01*
X30500000Y-38500000D02*
X30500000Y-38400000D01*
X22300000Y-51300000D02*
X22400000Y-51300000D01*
X18900000Y-18100000D02*
X18700000Y-18100000D01*
X30500000Y-51300000D02*
X30500000Y-51000000D01*
X28900000Y-19800000D02*
X28900000Y-19700000D01*
X30500000Y-29700000D02*
X30500000Y-29500000D01*
X21800000Y-18100000D02*
X21700000Y-18100000D01*
X15100000Y-58600000D02*
X15500000Y-58600000D01*
X24200000Y-18100000D02*
X24000000Y-18100000D01*
X24400000Y-18100000D02*
X24300000Y-18100000D01*
X23200000Y-51300000D02*
X23300000Y-51300000D01*
X30500000Y-47400000D02*
X30500000Y-47000000D01*
X24700000Y-51300000D02*
X24800000Y-51300000D01*
X30500000Y-42900000D02*
X30500000Y-42500000D01*
X30500000Y-36400000D02*
X30500000Y-36300000D01*
X20700000Y-18100000D02*
X20500000Y-18100000D01*
X17400000Y-58600000D02*
X17400000Y-58500000D01*
X28700000Y-51300000D02*
X28800000Y-51300000D01*
X17400000Y-53000000D02*
X17400000Y-52900000D01*
X28900000Y-19700000D02*
X28900000Y-19500000D01*
X30500000Y-31400000D02*
X30500000Y-31300000D01*
X30500000Y-37400000D02*
X30500000Y-37300000D01*
X30500000Y-27900000D02*
X30500000Y-27800000D01*
X18600000Y-17200000D02*
X18600000Y-17100000D01*
X29700000Y-26900000D02*
X29500000Y-26900000D01*
X22200000Y-18100000D02*
X22000000Y-18100000D01*
X28900000Y-19200000D02*
X28900000Y-19000000D01*
X23800000Y-18100000D02*
X23700000Y-18100000D01*
X27200000Y-18100000D02*
X27000000Y-18100000D01*
X30500000Y-30800000D02*
X30500000Y-30700000D01*
X18400000Y-51300000D02*
X18500000Y-51300000D01*
X30500000Y-41000000D02*
X30500000Y-40900000D01*
X30500000Y-29400000D02*
X30500000Y-29300000D01*
X30500000Y-28900000D02*
X30500000Y-28800000D01*
X19400000Y-18100000D02*
X19300000Y-18100000D01*
X30500000Y-39000000D02*
X30500000Y-38900000D01*
X15000000Y-58600000D02*
X15100000Y-58600000D01*
X22000000Y-18100000D02*
X21900000Y-18100000D01*
X17400000Y-57000000D02*
X17400000Y-56900000D01*
X30500000Y-48500000D02*
X30500000Y-48400000D01*
X16400000Y-58600000D02*
X16500000Y-58600000D01*
X30500000Y-29000000D02*
X30500000Y-28900000D01*
X16900000Y-58600000D02*
X17000000Y-58600000D01*
X30500000Y-49900000D02*
X30500000Y-49500000D01*
X19800000Y-18100000D02*
X19700000Y-18100000D01*
X27400000Y-18100000D02*
X27300000Y-18100000D01*
X27700000Y-51300000D02*
X27800000Y-51300000D01*
X17400000Y-58500000D02*
X17400000Y-58400000D01*
X21700000Y-18100000D02*
X21500000Y-18100000D01*
X30500000Y-29800000D02*
X30500000Y-29700000D01*
X30500000Y-40000000D02*
X30500000Y-39900000D01*
X28300000Y-18100000D02*
X28200000Y-18100000D01*
X18600000Y-16400000D02*
X18600000Y-16200000D01*
X30500000Y-28200000D02*
X30500000Y-28000000D01*
X24500000Y-51300000D02*
X24700000Y-51300000D01*
X30500000Y-39900000D02*
X30500000Y-39500000D01*
X30500000Y-45400000D02*
X30500000Y-45000000D01*
X30500000Y-28800000D02*
X30500000Y-28700000D01*
X26400000Y-51300000D02*
X26500000Y-51300000D01*
X30500000Y-30500000D02*
X30500000Y-30400000D01*
X17400000Y-52900000D02*
X17400000Y-52500000D01*
X14600000Y-59000000D02*
X14600000Y-58900000D01*
X17000000Y-58600000D02*
X17100000Y-58600000D01*
X30500000Y-38900000D02*
X30500000Y-38500000D01*
X20900000Y-18100000D02*
X20800000Y-18100000D01*
X26500000Y-51300000D02*
X26700000Y-51300000D01*
X17400000Y-57400000D02*
X17400000Y-57000000D01*
X18600000Y-18100000D02*
X18600000Y-18000000D01*
X30500000Y-48900000D02*
X30500000Y-48500000D01*
X28300000Y-51300000D02*
X28400000Y-51300000D01*
X30500000Y-50500000D02*
X30500000Y-50400000D01*
X18600000Y-17100000D02*
X18600000Y-17000000D01*
X27000000Y-18100000D02*
X26900000Y-18100000D01*
X30500000Y-43500000D02*
X30500000Y-43400000D01*
X22900000Y-51300000D02*
X23000000Y-51300000D01*
X30500000Y-37800000D02*
X30500000Y-37400000D01*
X30500000Y-42500000D02*
X30500000Y-42400000D01*
X20300000Y-51300000D02*
X20400000Y-51300000D01*
X18600000Y-17400000D02*
X18600000Y-17200000D01*
X16700000Y-58600000D02*
X16900000Y-58600000D01*
X17900000Y-51300000D02*
X18000000Y-51300000D01*
X25900000Y-18100000D02*
X25800000Y-18100000D01*
X22700000Y-51300000D02*
X22800000Y-51300000D01*
X22800000Y-51300000D02*
X22900000Y-51300000D01*
X19500000Y-18100000D02*
X19400000Y-18100000D01*
X30500000Y-27300000D02*
X30500000Y-27200000D01*
X15500000Y-58600000D02*
X15600000Y-58600000D01*
X27500000Y-51300000D02*
X27700000Y-51300000D01*
X18500000Y-51300000D02*
X18600000Y-51300000D01*
X21200000Y-18100000D02*
X21000000Y-18100000D01*
X14600000Y-60000000D02*
X14600000Y-59900000D01*
X30500000Y-32800000D02*
X30500000Y-32400000D01*
X14600000Y-58900000D02*
X14600000Y-58600000D01*
X30500000Y-28400000D02*
X30500000Y-28300000D01*
X30500000Y-43400000D02*
X30500000Y-43000000D01*
X30300000Y-26900000D02*
X30200000Y-26900000D01*
X21400000Y-51300000D02*
X21500000Y-51300000D01*
X15600000Y-58600000D02*
X16000000Y-58600000D01*
X30500000Y-34900000D02*
X30500000Y-34800000D01*
X18700000Y-18100000D02*
X18600000Y-18100000D01*
X28900000Y-18200000D02*
X28900000Y-18100000D01*
X30500000Y-47500000D02*
X30500000Y-47400000D01*
X28900000Y-19000000D02*
X28900000Y-18900000D01*
X30500000Y-46500000D02*
X30500000Y-46400000D01*
X18600000Y-17900000D02*
X18600000Y-17700000D01*
X22700000Y-18100000D02*
X22500000Y-18100000D01*
X25200000Y-18100000D02*
X25000000Y-18100000D01*
X28800000Y-51300000D02*
X28900000Y-51300000D01*
X23900000Y-18100000D02*
X23800000Y-18100000D01*
X30500000Y-33400000D02*
X30500000Y-33300000D01*
X30500000Y-30900000D02*
X30500000Y-30800000D01*
X20500000Y-51300000D02*
X20700000Y-51300000D01*
X27000000Y-51300000D02*
X27200000Y-51300000D01*
X30500000Y-49400000D02*
X30500000Y-49000000D01*
X27300000Y-18100000D02*
X27200000Y-18100000D01*
X18700000Y-51300000D02*
X18900000Y-51300000D01*
X30500000Y-27500000D02*
X30500000Y-27400000D01*
X20400000Y-18100000D02*
X20300000Y-18100000D01*
X30500000Y-49500000D02*
X30500000Y-49400000D01*
X23500000Y-18100000D02*
X23400000Y-18100000D01*
X30500000Y-27800000D02*
X30500000Y-27700000D01*
X29000000Y-51300000D02*
X29200000Y-51300000D01*
X30500000Y-51000000D02*
X30500000Y-50900000D01*
X21300000Y-51300000D02*
X21400000Y-51300000D01*
X23700000Y-51300000D02*
X23800000Y-51300000D01*
X20400000Y-51300000D02*
X20500000Y-51300000D01*
X30500000Y-34800000D02*
X30500000Y-34400000D01*
X28000000Y-51300000D02*
X28200000Y-51300000D01*
X27300000Y-51300000D02*
X27400000Y-51300000D01*
X29900000Y-51300000D02*
X30000000Y-51300000D01*
X30400000Y-51300000D02*
X30500000Y-51300000D01*
X21700000Y-51300000D02*
X21800000Y-51300000D01*
X25700000Y-18100000D02*
X25500000Y-18100000D01*
X19700000Y-18100000D02*
X19500000Y-18100000D01*
X30500000Y-35800000D02*
X30500000Y-35400000D01*
X29400000Y-26900000D02*
X29300000Y-26900000D01*
X18600000Y-17700000D02*
X18600000Y-17600000D01*
X26900000Y-18100000D02*
X26800000Y-18100000D01*
X17400000Y-56500000D02*
X17400000Y-56400000D01*
X17400000Y-53400000D02*
X17400000Y-53000000D01*
X30000000Y-26900000D02*
X29900000Y-26900000D01*
X30500000Y-31000000D02*
X30500000Y-30900000D01*
X17400000Y-54400000D02*
X17400000Y-54000000D01*
X20800000Y-18100000D02*
X20700000Y-18100000D01*
X24500000Y-18100000D02*
X24400000Y-18100000D01*
X30500000Y-45000000D02*
X30500000Y-44900000D01*
X14600000Y-58600000D02*
X15000000Y-58600000D01*
X28700000Y-18100000D02*
X28500000Y-18100000D01*
X28800000Y-18100000D02*
X28700000Y-18100000D01*
X17400000Y-56000000D02*
X17400000Y-55900000D01*
X30500000Y-32900000D02*
X30500000Y-32800000D01*
X26700000Y-51300000D02*
X26800000Y-51300000D01*
X26000000Y-51300000D02*
X26200000Y-51300000D01*
X24900000Y-18100000D02*
X24800000Y-18100000D01*
X17400000Y-56400000D02*
X17400000Y-56000000D01*
X28000000Y-18100000D02*
X27900000Y-18100000D01*
X21500000Y-18100000D02*
X21400000Y-18100000D01*
X17400000Y-52400000D02*
X17400000Y-52000000D01*
X30500000Y-28000000D02*
X30500000Y-27900000D01*
X20300000Y-18100000D02*
X20200000Y-18100000D01*
X21400000Y-18100000D02*
X21300000Y-18100000D01*
X30500000Y-45500000D02*
X30500000Y-45400000D01*
X24300000Y-51300000D02*
X24400000Y-51300000D01*
X16600000Y-58600000D02*
X16700000Y-58600000D01*
X25800000Y-18100000D02*
X25700000Y-18100000D01*
X30500000Y-27000000D02*
X30500000Y-26900000D01*
X30500000Y-28700000D02*
X30500000Y-28500000D01*
X25500000Y-18100000D02*
X25400000Y-18100000D01*
X30500000Y-31500000D02*
X30500000Y-31400000D01*
X25000000Y-51300000D02*
X25200000Y-51300000D01*
X28900000Y-18500000D02*
X28900000Y-18400000D01*
X26500000Y-18100000D02*
X26400000Y-18100000D01*
X18600000Y-18000000D02*
X18600000Y-17900000D01*
X23500000Y-51300000D02*
X23700000Y-51300000D01*
X30500000Y-33300000D02*
X30500000Y-32900000D01*
X26200000Y-18100000D02*
X26000000Y-18100000D01*
X28900000Y-19400000D02*
X28900000Y-19300000D01*
X24400000Y-51300000D02*
X24500000Y-51300000D01*
X16200000Y-58600000D02*
X16400000Y-58600000D01*
X30500000Y-30400000D02*
X30500000Y-30300000D01*
X24700000Y-18100000D02*
X24500000Y-18100000D01*
X29900000Y-26900000D02*
X29800000Y-26900000D01*
X29300000Y-51300000D02*
X29400000Y-51300000D01*
X30500000Y-29300000D02*
X30500000Y-29200000D01*
X21500000Y-51300000D02*
X21700000Y-51300000D01*
X28900000Y-18600000D02*
X28900000Y-18500000D01*
X28900000Y-18100000D02*
X28800000Y-18100000D01*
X24800000Y-18100000D02*
X24700000Y-18100000D01*
X26700000Y-18100000D02*
X26500000Y-18100000D01*
X18100000Y-51300000D02*
X18200000Y-51300000D01*
X26900000Y-51300000D02*
X27000000Y-51300000D01*
X23400000Y-18100000D02*
X23300000Y-18100000D01*
X21000000Y-18100000D02*
X20900000Y-18100000D01*
X30500000Y-44000000D02*
X30500000Y-43900000D01*
X17400000Y-54000000D02*
X17400000Y-53900000D01*
X14600000Y-60100000D02*
X14600000Y-60000000D01*
X25300000Y-51300000D02*
X25400000Y-51300000D01*
X14600000Y-59400000D02*
X14600000Y-59000000D01*
X30500000Y-40900000D02*
X30500000Y-40500000D01*
X14600000Y-59500000D02*
X14600000Y-59400000D01*
X30500000Y-41400000D02*
X30500000Y-41000000D01*
X21900000Y-18100000D02*
X21800000Y-18100000D01*
X23000000Y-18100000D02*
X22900000Y-18100000D01*
X30500000Y-26900000D02*
X30400000Y-26900000D01*
X28200000Y-18100000D02*
X28000000Y-18100000D01*
X30500000Y-35900000D02*
X30500000Y-35800000D01*
X18600000Y-17600000D02*
X18600000Y-17500000D01*
X14600000Y-59900000D02*
X14600000Y-59500000D01*
X18900000Y-51300000D02*
X19000000Y-51300000D01*
X30500000Y-28500000D02*
X30500000Y-28400000D01*
X20500000Y-18100000D02*
X20400000Y-18100000D01*
X21800000Y-51300000D02*
X21900000Y-51300000D01*
X20000000Y-51300000D02*
X20200000Y-51300000D01*
X30400000Y-26900000D02*
X30300000Y-26900000D01*
X30500000Y-46000000D02*
X30500000Y-45900000D01*
X25400000Y-18100000D02*
X25300000Y-18100000D01*
X27500000Y-18100000D02*
X27400000Y-18100000D01*
X26300000Y-18100000D02*
X26200000Y-18100000D01*
X25900000Y-51300000D02*
X26000000Y-51300000D01*
X17400000Y-51300000D02*
X17500000Y-51300000D01*
X28900000Y-18400000D02*
X28900000Y-18200000D01*
X19200000Y-18100000D02*
X19000000Y-18100000D01*
X30500000Y-37300000D02*
X30500000Y-36900000D01*
X17400000Y-57500000D02*
X17400000Y-57400000D01*
X30500000Y-34400000D02*
X30500000Y-34300000D01*
X19000000Y-18100000D02*
X18900000Y-18100000D01*
X25000000Y-18100000D02*
X24900000Y-18100000D01*
X17400000Y-51500000D02*
X17400000Y-51400000D01*
X30500000Y-46400000D02*
X30500000Y-46000000D01*
X21200000Y-51300000D02*
X21300000Y-51300000D01*
X26800000Y-18100000D02*
X26700000Y-18100000D01*
X29300000Y-26900000D02*
X29200000Y-26900000D01*
X30500000Y-27700000D02*
X30500000Y-27500000D01*
X29500000Y-51300000D02*
X29700000Y-51300000D01*
X18600000Y-16500000D02*
X18600000Y-16400000D01*
X22500000Y-18100000D02*
X22400000Y-18100000D01*
X24300000Y-18100000D02*
X24200000Y-18100000D01*
X30500000Y-41500000D02*
X30500000Y-41400000D01*
X29700000Y-51300000D02*
X29800000Y-51300000D01*
X22200000Y-51300000D02*
X22300000Y-51300000D01*
X29400000Y-51300000D02*
X29500000Y-51300000D01*
X17400000Y-55500000D02*
X17400000Y-55400000D01*
X17400000Y-52000000D02*
X17400000Y-51900000D01*
X30500000Y-44900000D02*
X30500000Y-44500000D01*
X17400000Y-55400000D02*
X17400000Y-55000000D01*
X30500000Y-41900000D02*
X30500000Y-41500000D01*
X17400000Y-55000000D02*
X17400000Y-54900000D01*
X30500000Y-47900000D02*
X30500000Y-47500000D01*
X29000000Y-26900000D02*
X28900000Y-26900000D01*
X26800000Y-51300000D02*
X26900000Y-51300000D01*
X30500000Y-42400000D02*
X30500000Y-42000000D01*
X30500000Y-28300000D02*
X30500000Y-28200000D01*
X25400000Y-51300000D02*
X25500000Y-51300000D01*
X22500000Y-51300000D02*
X22700000Y-51300000D01*
X19800000Y-51300000D02*
X19900000Y-51300000D01*
X30500000Y-31300000D02*
X30500000Y-31200000D01*
X27800000Y-51300000D02*
X27900000Y-51300000D01*
X21900000Y-51300000D02*
X22000000Y-51300000D01*
X30500000Y-29200000D02*
X30500000Y-29000000D01*
X21300000Y-18100000D02*
X21200000Y-18100000D01*
X18600000Y-16000000D02*
X18600000Y-15800000D01*
X30500000Y-33800000D02*
X30500000Y-33400000D01*
X27700000Y-18100000D02*
X27500000Y-18100000D01*
X30500000Y-50000000D02*
X30500000Y-49900000D01*
X29500000Y-26900000D02*
X29400000Y-26900000D01*
X30500000Y-40400000D02*
X30500000Y-40000000D01*
X19700000Y-51300000D02*
X19800000Y-51300000D01*
X30500000Y-29500000D02*
X30500000Y-29400000D01*
X30500000Y-30300000D02*
X30500000Y-30200000D01*
X18600000Y-16100000D02*
X18600000Y-16000000D01*
X20700000Y-51300000D02*
X20800000Y-51300000D01*
X24000000Y-18100000D02*
X23900000Y-18100000D01*
X30500000Y-27400000D02*
X30500000Y-27300000D01*
X30500000Y-39500000D02*
X30500000Y-39400000D01*
X28400000Y-18100000D02*
X28300000Y-18100000D01*
%TO.N,usb_dn*%
X15800000Y-37900000D02*
X15800000Y-37800000D01*
X15800000Y-38900000D02*
X15800000Y-38500000D01*
X21900000Y-23000000D02*
X22000000Y-23000000D01*
X15800000Y-35300000D02*
X15800000Y-34900000D01*
X23300000Y-23000000D02*
X23400000Y-23000000D01*
X14200000Y-48400000D02*
X14200000Y-48000000D01*
X20200000Y-23000000D02*
X20300000Y-23000000D01*
X15800000Y-36800000D02*
X15800000Y-36400000D01*
X17400000Y-29200000D02*
X17400000Y-29000000D01*
X15800000Y-40900000D02*
X15800000Y-40500000D01*
X23900000Y-23000000D02*
X24000000Y-23000000D01*
X14200000Y-47900000D02*
X14200000Y-47500000D01*
X14200000Y-54400000D02*
X14200000Y-54000000D01*
X17400000Y-27700000D02*
X17400000Y-27500000D01*
X17400000Y-28300000D02*
X17400000Y-28200000D01*
X15800000Y-33800000D02*
X15800000Y-33400000D01*
X22400000Y-23000000D02*
X22500000Y-23000000D01*
X21400000Y-23000000D02*
X21500000Y-23000000D01*
X23700000Y-23000000D02*
X23800000Y-23000000D01*
X20800000Y-23000000D02*
X20900000Y-23000000D01*
X15800000Y-44900000D02*
X15800000Y-44500000D01*
X17400000Y-24800000D02*
X17400000Y-24700000D01*
X17400000Y-32300000D02*
X17400000Y-32000000D01*
X14200000Y-47400000D02*
X14200000Y-47000000D01*
X14200000Y-55500000D02*
X14200000Y-55400000D01*
X17400000Y-26800000D02*
X17400000Y-26700000D01*
X17400000Y-28800000D02*
X17400000Y-28700000D01*
X17400000Y-28200000D02*
X17400000Y-28000000D01*
X14200000Y-47000000D02*
X14200000Y-46900000D01*
X17400000Y-29000000D02*
X17400000Y-28900000D01*
X17400000Y-29700000D02*
X17400000Y-29500000D01*
X17900000Y-23000000D02*
X18000000Y-23000000D01*
X22700000Y-23000000D02*
X22800000Y-23000000D01*
X17400000Y-26700000D02*
X17400000Y-26500000D01*
X17400000Y-25800000D02*
X17400000Y-25700000D01*
X17400000Y-26400000D02*
X17400000Y-26300000D01*
X17400000Y-24200000D02*
X17400000Y-24000000D01*
X21800000Y-23000000D02*
X21900000Y-23000000D01*
X17400000Y-30000000D02*
X17400000Y-29900000D01*
X14200000Y-53900000D02*
X14200000Y-53500000D01*
X15800000Y-46400000D02*
X15800000Y-46000000D01*
X17400000Y-29300000D02*
X17400000Y-29200000D01*
X17400000Y-28400000D02*
X17400000Y-28300000D01*
X15800000Y-33900000D02*
X15800000Y-33800000D01*
X14200000Y-50500000D02*
X14200000Y-50400000D01*
X17400000Y-23200000D02*
X17400000Y-23000000D01*
X16200000Y-32800000D02*
X16400000Y-32800000D01*
X21200000Y-23000000D02*
X21300000Y-23000000D01*
X15800000Y-41900000D02*
X15800000Y-41500000D01*
X14200000Y-48900000D02*
X14200000Y-48500000D01*
X19400000Y-23000000D02*
X19500000Y-23000000D01*
X15800000Y-37300000D02*
X15800000Y-36900000D01*
X20000000Y-23000000D02*
X20200000Y-23000000D01*
X15800000Y-45400000D02*
X15800000Y-45000000D01*
X17400000Y-27900000D02*
X17400000Y-27800000D01*
X17000000Y-32800000D02*
X17100000Y-32800000D01*
X17100000Y-32800000D02*
X17200000Y-32800000D01*
X19800000Y-23000000D02*
X19900000Y-23000000D01*
X18000000Y-23000000D02*
X18100000Y-23000000D01*
X23000000Y-23000000D02*
X23200000Y-23000000D01*
X15800000Y-40400000D02*
X15800000Y-40000000D01*
X17400000Y-31400000D02*
X17400000Y-31300000D01*
X14200000Y-55900000D02*
X14200000Y-55500000D01*
X17400000Y-30200000D02*
X17400000Y-30000000D01*
X15800000Y-41400000D02*
X15800000Y-41000000D01*
X14200000Y-54500000D02*
X14200000Y-54400000D01*
X14200000Y-54000000D02*
X14200000Y-53900000D01*
X20400000Y-23000000D02*
X20500000Y-23000000D01*
X17400000Y-26500000D02*
X17400000Y-26400000D01*
X18900000Y-23000000D02*
X19000000Y-23000000D01*
X14200000Y-50900000D02*
X14200000Y-50500000D01*
X15800000Y-38400000D02*
X15800000Y-37900000D01*
X15800000Y-37400000D02*
X15800000Y-37300000D01*
X15800000Y-44000000D02*
X15800000Y-43900000D01*
X16600000Y-32800000D02*
X16700000Y-32800000D01*
X14200000Y-56500000D02*
X14200000Y-56400000D01*
X14200000Y-50400000D02*
X14200000Y-50000000D01*
X15800000Y-32800000D02*
X16000000Y-32800000D01*
X15800000Y-34800000D02*
X15800000Y-34400000D01*
X14200000Y-56400000D02*
X14200000Y-56000000D01*
X16900000Y-32800000D02*
X17000000Y-32800000D01*
X23400000Y-23000000D02*
X23500000Y-23000000D01*
X17400000Y-32000000D02*
X17400000Y-31900000D01*
X17400000Y-32800000D02*
X17400000Y-32400000D01*
X15800000Y-45900000D02*
X15800000Y-45500000D01*
X17400000Y-26900000D02*
X17400000Y-26800000D01*
X17400000Y-25400000D02*
X17400000Y-25300000D01*
X14200000Y-54900000D02*
X14200000Y-54500000D01*
X14200000Y-48000000D02*
X14200000Y-47900000D01*
X15000000Y-46800000D02*
X15100000Y-46800000D01*
X15800000Y-32900000D02*
X15800000Y-32800000D01*
X15800000Y-34300000D02*
X15800000Y-33900000D01*
X17400000Y-31800000D02*
X17400000Y-31700000D01*
X18100000Y-23000000D02*
X18200000Y-23000000D01*
X17400000Y-30500000D02*
X17400000Y-30400000D01*
X16400000Y-32800000D02*
X16500000Y-32800000D01*
X17400000Y-24900000D02*
X17400000Y-24800000D01*
X17400000Y-24400000D02*
X17400000Y-24300000D01*
X15800000Y-38500000D02*
X15800000Y-38400000D01*
X22300000Y-23000000D02*
X22400000Y-23000000D01*
X15800000Y-35900000D02*
X15800000Y-35800000D01*
X17400000Y-32400000D02*
X17400000Y-32300000D01*
X14200000Y-49000000D02*
X14200000Y-48900000D01*
X14200000Y-51400000D02*
X14200000Y-51000000D01*
X15800000Y-42400000D02*
X15800000Y-42000000D01*
X23200000Y-23000000D02*
X23300000Y-23000000D01*
X14200000Y-51000000D02*
X14200000Y-50900000D01*
X14200000Y-57500000D02*
X14200000Y-57400000D01*
X17400000Y-26000000D02*
X17400000Y-25900000D01*
X14200000Y-52900000D02*
X14200000Y-52500000D01*
X15800000Y-39400000D02*
X15800000Y-39000000D01*
X15800000Y-33400000D02*
X15800000Y-33300000D01*
X17400000Y-30700000D02*
X17400000Y-30500000D01*
X14500000Y-46800000D02*
X14600000Y-46800000D01*
X15800000Y-43400000D02*
X15800000Y-43000000D01*
X14200000Y-57900000D02*
X14200000Y-57500000D01*
X15800000Y-39900000D02*
X15800000Y-39500000D01*
X24300000Y-23000000D02*
X24400000Y-23000000D01*
X15800000Y-46000000D02*
X15800000Y-45900000D01*
X15800000Y-39000000D02*
X15800000Y-38900000D01*
X14200000Y-51900000D02*
X14200000Y-51500000D01*
X15100000Y-46800000D02*
X15500000Y-46800000D01*
X17400000Y-24300000D02*
X17400000Y-24200000D01*
X17400000Y-26200000D02*
X17400000Y-26000000D01*
X19300000Y-23000000D02*
X19400000Y-23000000D01*
X15800000Y-46500000D02*
X15800000Y-46400000D01*
X23800000Y-23000000D02*
X23900000Y-23000000D01*
X17400000Y-24700000D02*
X17400000Y-24500000D01*
X21500000Y-23000000D02*
X21700000Y-23000000D01*
X15800000Y-42500000D02*
X15800000Y-42400000D01*
X17400000Y-28900000D02*
X17400000Y-28800000D01*
X22800000Y-23000000D02*
X22900000Y-23000000D01*
X17200000Y-32800000D02*
X17400000Y-32800000D01*
X17400000Y-23500000D02*
X17400000Y-23400000D01*
X14200000Y-49400000D02*
X14200000Y-49000000D01*
X17400000Y-24000000D02*
X17400000Y-23900000D01*
X15800000Y-40500000D02*
X15800000Y-40400000D01*
X17400000Y-29800000D02*
X17400000Y-29700000D01*
X17400000Y-27400000D02*
X17400000Y-27300000D01*
X17400000Y-25000000D02*
X17400000Y-24900000D01*
X17400000Y-29400000D02*
X17400000Y-29300000D01*
X24200000Y-23000000D02*
X24300000Y-23000000D01*
X15800000Y-36900000D02*
X15800000Y-36800000D01*
X14200000Y-49500000D02*
X14200000Y-49400000D01*
X23500000Y-23000000D02*
X23700000Y-23000000D01*
X17600000Y-23000000D02*
X17700000Y-23000000D01*
X15800000Y-33300000D02*
X15800000Y-32900000D01*
X17400000Y-31500000D02*
X17400000Y-31400000D01*
X15800000Y-42900000D02*
X15800000Y-42500000D01*
X15800000Y-40000000D02*
X15800000Y-39900000D01*
X17400000Y-31200000D02*
X17400000Y-31000000D01*
X15800000Y-41000000D02*
X15800000Y-40900000D01*
X16100000Y-32800000D02*
X16200000Y-32800000D01*
X20500000Y-23000000D02*
X20700000Y-23000000D01*
X15800000Y-41500000D02*
X15800000Y-41400000D01*
X19700000Y-23000000D02*
X19800000Y-23000000D01*
X14200000Y-56000000D02*
X14200000Y-55900000D01*
X17400000Y-28700000D02*
X17400000Y-28500000D01*
X17400000Y-31700000D02*
X17400000Y-31500000D01*
X15800000Y-44400000D02*
X15800000Y-44000000D01*
X17400000Y-26300000D02*
X17400000Y-26200000D01*
X14200000Y-48500000D02*
X14200000Y-48400000D01*
X14200000Y-53400000D02*
X14200000Y-53000000D01*
X17400000Y-28500000D02*
X17400000Y-28400000D01*
X15800000Y-37800000D02*
X15800000Y-37400000D01*
X21000000Y-23000000D02*
X21200000Y-23000000D01*
X17400000Y-30300000D02*
X17400000Y-30200000D01*
X15800000Y-42000000D02*
X15800000Y-41900000D01*
X17400000Y-25500000D02*
X17400000Y-25400000D01*
X15800000Y-44500000D02*
X15800000Y-44400000D01*
X14200000Y-49900000D02*
X14200000Y-49500000D01*
X15800000Y-35400000D02*
X15800000Y-35300000D01*
X20700000Y-23000000D02*
X20800000Y-23000000D01*
X15800000Y-35800000D02*
X15800000Y-35400000D01*
X17400000Y-24500000D02*
X17400000Y-24400000D01*
X17400000Y-27300000D02*
X17400000Y-27200000D01*
X15800000Y-43500000D02*
X15800000Y-43400000D01*
X17400000Y-25900000D02*
X17400000Y-25800000D01*
X21300000Y-23000000D02*
X21400000Y-23000000D01*
X17400000Y-27200000D02*
X17400000Y-27000000D01*
X24400000Y-23000000D02*
X24500000Y-23000000D01*
X15800000Y-39500000D02*
X15800000Y-39400000D01*
X17400000Y-29500000D02*
X17400000Y-29400000D01*
X17400000Y-23700000D02*
X17400000Y-23500000D01*
X14200000Y-51500000D02*
X14200000Y-51400000D01*
X19900000Y-23000000D02*
X20000000Y-23000000D01*
X17400000Y-23400000D02*
X17400000Y-23300000D01*
X15500000Y-46800000D02*
X15600000Y-46800000D01*
X17400000Y-25700000D02*
X17400000Y-25500000D01*
X17400000Y-30800000D02*
X17400000Y-30700000D01*
X17400000Y-27000000D02*
X17400000Y-26900000D01*
X14200000Y-50000000D02*
X14200000Y-49900000D01*
X14600000Y-46800000D02*
X15000000Y-46800000D01*
X15800000Y-34400000D02*
X15800000Y-34300000D01*
X20300000Y-23000000D02*
X20400000Y-23000000D01*
X18500000Y-23000000D02*
X18600000Y-23000000D01*
X17400000Y-23000000D02*
X17500000Y-23000000D01*
X17400000Y-27800000D02*
X17400000Y-27700000D01*
X17700000Y-23000000D02*
X17900000Y-23000000D01*
X15800000Y-45500000D02*
X15800000Y-45400000D01*
X14200000Y-46900000D02*
X14200000Y-46800000D01*
X14200000Y-55000000D02*
X14200000Y-54900000D01*
X17500000Y-23000000D02*
X17600000Y-23000000D01*
X19000000Y-23000000D02*
X19200000Y-23000000D01*
X15600000Y-46800000D02*
X15800000Y-46800000D01*
X22000000Y-23000000D02*
X22200000Y-23000000D01*
X17400000Y-29900000D02*
X17400000Y-29800000D01*
X17400000Y-31300000D02*
X17400000Y-31200000D01*
X21700000Y-23000000D02*
X21800000Y-23000000D01*
X14200000Y-47500000D02*
X14200000Y-47400000D01*
X17400000Y-23900000D02*
X17400000Y-23800000D01*
X17400000Y-23800000D02*
X17400000Y-23700000D01*
X24000000Y-23000000D02*
X24200000Y-23000000D01*
X15800000Y-34900000D02*
X15800000Y-34800000D01*
X18400000Y-23000000D02*
X18500000Y-23000000D01*
X14200000Y-46800000D02*
X14500000Y-46800000D01*
X15800000Y-46800000D02*
X15800000Y-46500000D01*
X15800000Y-45000000D02*
X15800000Y-44900000D01*
X16500000Y-32800000D02*
X16600000Y-32800000D01*
X15800000Y-43000000D02*
X15800000Y-42900000D01*
X14200000Y-52500000D02*
X14200000Y-52400000D01*
X15800000Y-36400000D02*
X15800000Y-36300000D01*
X14200000Y-52000000D02*
X14200000Y-51900000D01*
X19500000Y-23000000D02*
X19700000Y-23000000D01*
X14200000Y-53000000D02*
X14200000Y-52900000D01*
X17400000Y-31900000D02*
X17400000Y-31800000D01*
X15800000Y-36300000D02*
X15800000Y-35900000D01*
X14200000Y-53500000D02*
X14200000Y-53400000D01*
X14200000Y-52400000D02*
X14200000Y-52000000D01*
X17400000Y-25200000D02*
X17400000Y-25000000D01*
X16000000Y-32800000D02*
X16100000Y-32800000D01*
X19200000Y-23000000D02*
X19300000Y-23000000D01*
X17400000Y-27500000D02*
X17400000Y-27400000D01*
X16700000Y-32800000D02*
X16900000Y-32800000D01*
X20900000Y-23000000D02*
X21000000Y-23000000D01*
X18600000Y-23000000D02*
X18700000Y-23000000D01*
X22200000Y-23000000D02*
X22300000Y-23000000D01*
X17400000Y-30400000D02*
X17400000Y-30300000D01*
X14200000Y-57000000D02*
X14200000Y-56900000D01*
X14200000Y-55400000D02*
X14200000Y-55000000D01*
X17400000Y-31000000D02*
X17400000Y-30900000D01*
X18200000Y-23000000D02*
X18400000Y-23000000D01*
X17400000Y-30900000D02*
X17400000Y-30800000D01*
X17400000Y-28000000D02*
X17400000Y-27900000D01*
X15800000Y-43900000D02*
X15800000Y-43500000D01*
X14200000Y-57400000D02*
X14200000Y-57000000D01*
X18700000Y-23000000D02*
X18900000Y-23000000D01*
X17400000Y-23300000D02*
X17400000Y-23200000D01*
X22900000Y-23000000D02*
X23000000Y-23000000D01*
X17400000Y-25300000D02*
X17400000Y-25200000D01*
X14200000Y-56900000D02*
X14200000Y-56500000D01*
X22500000Y-23000000D02*
X22700000Y-23000000D01*
%TO.N,18*%
X36300000Y-25200000D02*
X36300000Y-25000000D01*
X36300000Y-48900000D02*
X36300000Y-48500000D01*
X36300000Y-38900000D02*
X36300000Y-38500000D01*
X36300000Y-29500000D02*
X36300000Y-29400000D01*
X36300000Y-27300000D02*
X36300000Y-27200000D01*
X34300000Y-57400000D02*
X34400000Y-57400000D01*
X36300000Y-39500000D02*
X36300000Y-39400000D01*
X34900000Y-57400000D02*
X35300000Y-57400000D01*
X36300000Y-50000000D02*
X36300000Y-49900000D01*
X36300000Y-36300000D02*
X36300000Y-35900000D01*
X36300000Y-31400000D02*
X36300000Y-31300000D01*
X36300000Y-44000000D02*
X36300000Y-43900000D01*
X34200000Y-58400000D02*
X34200000Y-58000000D01*
X36300000Y-30400000D02*
X36300000Y-30300000D01*
X36300000Y-33800000D02*
X36300000Y-33400000D01*
X36300000Y-56400000D02*
X36300000Y-56000000D01*
X36300000Y-37800000D02*
X36300000Y-37400000D01*
X35800000Y-57400000D02*
X35900000Y-57400000D01*
X36300000Y-54400000D02*
X36300000Y-54000000D01*
X36300000Y-43400000D02*
X36300000Y-43000000D01*
X36300000Y-45500000D02*
X36300000Y-45400000D01*
X36300000Y-31500000D02*
X36300000Y-31400000D01*
X36300000Y-45900000D02*
X36300000Y-45500000D01*
X36300000Y-29400000D02*
X36300000Y-29300000D01*
X36300000Y-56500000D02*
X36300000Y-56400000D01*
X36300000Y-50500000D02*
X36300000Y-50400000D01*
X36300000Y-37300000D02*
X36300000Y-36900000D01*
X36300000Y-49900000D02*
X36300000Y-49500000D01*
X36300000Y-38400000D02*
X36300000Y-37900000D01*
X36300000Y-27400000D02*
X36300000Y-27300000D01*
X36300000Y-47400000D02*
X36300000Y-47000000D01*
X36300000Y-39900000D02*
X36300000Y-39500000D01*
X34200000Y-60400000D02*
X34200000Y-60000000D01*
X36300000Y-52900000D02*
X36300000Y-52500000D01*
X36300000Y-32900000D02*
X36300000Y-32800000D01*
X36300000Y-34800000D02*
X36300000Y-34400000D01*
X36300000Y-54000000D02*
X36300000Y-53900000D01*
X36300000Y-27500000D02*
X36300000Y-27400000D01*
X36300000Y-25000000D02*
X36300000Y-24900000D01*
X36300000Y-31200000D02*
X36300000Y-31000000D01*
X36300000Y-35300000D02*
X36300000Y-34900000D01*
X36300000Y-30000000D02*
X36300000Y-29900000D01*
X36300000Y-39400000D02*
X36300000Y-39000000D01*
X34200000Y-57500000D02*
X34200000Y-57400000D01*
X36300000Y-33900000D02*
X36300000Y-33800000D01*
X36300000Y-32400000D02*
X36300000Y-32300000D01*
X36300000Y-34900000D02*
X36300000Y-34800000D01*
X36300000Y-27900000D02*
X36300000Y-27800000D01*
X36300000Y-35800000D02*
X36300000Y-35400000D01*
X36300000Y-56900000D02*
X36300000Y-56500000D01*
X36300000Y-40400000D02*
X36300000Y-40000000D01*
X36300000Y-47900000D02*
X36300000Y-47500000D01*
X36300000Y-43900000D02*
X36300000Y-43500000D01*
X36300000Y-29200000D02*
X36300000Y-29000000D01*
X36300000Y-27200000D02*
X36300000Y-27000000D01*
X36300000Y-51500000D02*
X36300000Y-51400000D01*
X36300000Y-52500000D02*
X36300000Y-52400000D01*
X36300000Y-44400000D02*
X36300000Y-44000000D01*
X36300000Y-41900000D02*
X36300000Y-41500000D01*
X36300000Y-27800000D02*
X36300000Y-27700000D01*
X36300000Y-29000000D02*
X36300000Y-28900000D01*
X36300000Y-57000000D02*
X36300000Y-56900000D01*
X36300000Y-31900000D02*
X36300000Y-31800000D01*
X36300000Y-49500000D02*
X36300000Y-49400000D01*
X36300000Y-57400000D02*
X36300000Y-57000000D01*
X36300000Y-48400000D02*
X36300000Y-48000000D01*
X34200000Y-58000000D02*
X34200000Y-57900000D01*
X36300000Y-53500000D02*
X36300000Y-53400000D01*
X36300000Y-24500000D02*
X36300000Y-24400000D01*
X36300000Y-55500000D02*
X36300000Y-55400000D01*
X34200000Y-59400000D02*
X34200000Y-59000000D01*
X36300000Y-35900000D02*
X36300000Y-35800000D01*
X36300000Y-25400000D02*
X36300000Y-25300000D01*
X36300000Y-41400000D02*
X36300000Y-41000000D01*
X36300000Y-26300000D02*
X36300000Y-26200000D01*
X36300000Y-54900000D02*
X36300000Y-54500000D01*
X36300000Y-29700000D02*
X36300000Y-29500000D01*
X36300000Y-46000000D02*
X36300000Y-45900000D01*
X36300000Y-28500000D02*
X36300000Y-28400000D01*
X36300000Y-33400000D02*
X36300000Y-33300000D01*
X36300000Y-30900000D02*
X36300000Y-30800000D01*
X36300000Y-28400000D02*
X36300000Y-28300000D01*
X36300000Y-52000000D02*
X36300000Y-51900000D01*
X36300000Y-26200000D02*
X36300000Y-26000000D01*
X36300000Y-23900000D02*
X36300000Y-23800000D01*
X36300000Y-49400000D02*
X36300000Y-49000000D01*
X36300000Y-42000000D02*
X36300000Y-41900000D01*
X36300000Y-28300000D02*
X36300000Y-28200000D01*
X36300000Y-45000000D02*
X36300000Y-44900000D01*
X36300000Y-25500000D02*
X36300000Y-25400000D01*
X34200000Y-60500000D02*
X34200000Y-60400000D01*
X36300000Y-32000000D02*
X36300000Y-31900000D01*
X36300000Y-55900000D02*
X36300000Y-55500000D01*
X36300000Y-36400000D02*
X36300000Y-36300000D01*
X36300000Y-46400000D02*
X36300000Y-46000000D01*
X36300000Y-26800000D02*
X36300000Y-26700000D01*
X34200000Y-59000000D02*
X34200000Y-58900000D01*
X36300000Y-40500000D02*
X36300000Y-40400000D01*
X36300000Y-39000000D02*
X36300000Y-38900000D01*
X36300000Y-25800000D02*
X36300000Y-25700000D01*
X35300000Y-57400000D02*
X35400000Y-57400000D01*
X36300000Y-43000000D02*
X36300000Y-42900000D01*
X36300000Y-56000000D02*
X36300000Y-55900000D01*
X36300000Y-40900000D02*
X36300000Y-40500000D01*
X36300000Y-34400000D02*
X36300000Y-34300000D01*
X36300000Y-31800000D02*
X36300000Y-31700000D01*
X34200000Y-58900000D02*
X34200000Y-58500000D01*
X36300000Y-31300000D02*
X36300000Y-31200000D01*
X36300000Y-27700000D02*
X36300000Y-27500000D01*
X36300000Y-32800000D02*
X36300000Y-32400000D01*
X36300000Y-29300000D02*
X36300000Y-29200000D01*
X36300000Y-37400000D02*
X36300000Y-37300000D01*
X35400000Y-57400000D02*
X35800000Y-57400000D01*
X36300000Y-30800000D02*
X36300000Y-30700000D01*
X36300000Y-25300000D02*
X36300000Y-25200000D01*
X36300000Y-37900000D02*
X36300000Y-37800000D01*
X36300000Y-46900000D02*
X36300000Y-46500000D01*
X36300000Y-24700000D02*
X36300000Y-24500000D01*
X36300000Y-30500000D02*
X36300000Y-30400000D01*
X36300000Y-26700000D02*
X36300000Y-26500000D01*
X36300000Y-24200000D02*
X36300000Y-24000000D01*
X36300000Y-50900000D02*
X36300000Y-50500000D01*
X34200000Y-57400000D02*
X34300000Y-57400000D01*
X36300000Y-26500000D02*
X36300000Y-26400000D01*
X36300000Y-30700000D02*
X36300000Y-30500000D01*
X36300000Y-42500000D02*
X36300000Y-42400000D01*
X36300000Y-41000000D02*
X36300000Y-40900000D01*
X36300000Y-40000000D02*
X36300000Y-39900000D01*
X36300000Y-54500000D02*
X36300000Y-54400000D01*
X34200000Y-57900000D02*
X34200000Y-57500000D01*
X34400000Y-57400000D02*
X34800000Y-57400000D01*
X36300000Y-44900000D02*
X36300000Y-44500000D01*
X36300000Y-53000000D02*
X36300000Y-52900000D01*
X36300000Y-26900000D02*
X36300000Y-26800000D01*
X36300000Y-24400000D02*
X36300000Y-24300000D01*
X36300000Y-24800000D02*
X36300000Y-24700000D01*
X36300000Y-44500000D02*
X36300000Y-44400000D01*
X34200000Y-58500000D02*
X34200000Y-58400000D01*
X36300000Y-42400000D02*
X36300000Y-42000000D01*
X34200000Y-60000000D02*
X34200000Y-59900000D01*
X36300000Y-34300000D02*
X36300000Y-33900000D01*
X34200000Y-59500000D02*
X34200000Y-59400000D01*
X36300000Y-55000000D02*
X36300000Y-54900000D01*
X36300000Y-28000000D02*
X36300000Y-27900000D01*
X36300000Y-49000000D02*
X36300000Y-48900000D01*
X36300000Y-53400000D02*
X36300000Y-53000000D01*
X36300000Y-29900000D02*
X36300000Y-29800000D01*
X36300000Y-48500000D02*
X36300000Y-48400000D01*
X36300000Y-51900000D02*
X36300000Y-51500000D01*
X36300000Y-50400000D02*
X36300000Y-50000000D01*
X36300000Y-52400000D02*
X36300000Y-52000000D01*
X35900000Y-57400000D02*
X36300000Y-57400000D01*
X36300000Y-43500000D02*
X36300000Y-43400000D01*
X36300000Y-45400000D02*
X36300000Y-45000000D01*
X36300000Y-41500000D02*
X36300000Y-41400000D01*
X34800000Y-57400000D02*
X34900000Y-57400000D01*
X36300000Y-25900000D02*
X36300000Y-25800000D01*
X36300000Y-35400000D02*
X36300000Y-35300000D01*
X36300000Y-26400000D02*
X36300000Y-26300000D01*
X36300000Y-33300000D02*
X36300000Y-32900000D01*
X36300000Y-36800000D02*
X36300000Y-36400000D01*
X36300000Y-38500000D02*
X36300000Y-38400000D01*
X36300000Y-25700000D02*
X36300000Y-25500000D01*
X36300000Y-31700000D02*
X36300000Y-31500000D01*
X34200000Y-60700000D02*
X34200000Y-60500000D01*
X36300000Y-30200000D02*
X36300000Y-30000000D01*
X36300000Y-24300000D02*
X36300000Y-24200000D01*
X36300000Y-53900000D02*
X36300000Y-53500000D01*
X36300000Y-28700000D02*
X36300000Y-28500000D01*
X36300000Y-51400000D02*
X36300000Y-51000000D01*
X36300000Y-23800000D02*
X36300000Y-23700000D01*
X36300000Y-31000000D02*
X36300000Y-30900000D01*
X36300000Y-47000000D02*
X36300000Y-46900000D01*
X36300000Y-24900000D02*
X36300000Y-24800000D01*
X36300000Y-48000000D02*
X36300000Y-47900000D01*
X36300000Y-47500000D02*
X36300000Y-47400000D01*
X36300000Y-28200000D02*
X36300000Y-28000000D01*
X36300000Y-46500000D02*
X36300000Y-46400000D01*
X36300000Y-29800000D02*
X36300000Y-29700000D01*
X36300000Y-26000000D02*
X36300000Y-25900000D01*
X36300000Y-27000000D02*
X36300000Y-26900000D01*
X34200000Y-59900000D02*
X34200000Y-59500000D01*
X36300000Y-28800000D02*
X36300000Y-28700000D01*
X36300000Y-32300000D02*
X36300000Y-32000000D01*
X36300000Y-51000000D02*
X36300000Y-50900000D01*
X36300000Y-36900000D02*
X36300000Y-36800000D01*
X36300000Y-55400000D02*
X36300000Y-55000000D01*
X36300000Y-42900000D02*
X36300000Y-42500000D01*
X36300000Y-30300000D02*
X36300000Y-30200000D01*
X36300000Y-28900000D02*
X36300000Y-28800000D01*
X36300000Y-24000000D02*
X36300000Y-23900000D01*
%TO.N,19*%
X17200000Y-18600000D02*
X17200000Y-18500000D01*
X21400000Y-20800000D02*
X21300000Y-20800000D01*
X14500000Y-17100000D02*
X14500000Y-17000000D01*
X13500000Y-16900000D02*
X13100000Y-16900000D01*
X33100000Y-49400000D02*
X33100000Y-49000000D01*
X33100000Y-41000000D02*
X33100000Y-40900000D01*
X33100000Y-57500000D02*
X33100000Y-57400000D01*
X28400000Y-20800000D02*
X28300000Y-20800000D01*
X33100000Y-31500000D02*
X33100000Y-31400000D01*
X17200000Y-18500000D02*
X17200000Y-18400000D01*
X27200000Y-20800000D02*
X27000000Y-20800000D01*
X33100000Y-52000000D02*
X33100000Y-51900000D01*
X33100000Y-42000000D02*
X33100000Y-41900000D01*
X23700000Y-20800000D02*
X23500000Y-20800000D01*
X28500000Y-20800000D02*
X28400000Y-20800000D01*
X33100000Y-56000000D02*
X33100000Y-55900000D01*
X33100000Y-24800000D02*
X33100000Y-24700000D01*
X33100000Y-47400000D02*
X33100000Y-47000000D01*
X33100000Y-26900000D02*
X33100000Y-26800000D01*
X33100000Y-24000000D02*
X33100000Y-23900000D01*
X25700000Y-20800000D02*
X25500000Y-20800000D01*
X33100000Y-21400000D02*
X33100000Y-21300000D01*
X17400000Y-20800000D02*
X17200000Y-20800000D01*
X33100000Y-57900000D02*
X33100000Y-57500000D01*
X18100000Y-20800000D02*
X18000000Y-20800000D01*
X33100000Y-23700000D02*
X33100000Y-23500000D01*
X30400000Y-20800000D02*
X30300000Y-20800000D01*
X16200000Y-17700000D02*
X16100000Y-17700000D01*
X33100000Y-33800000D02*
X33100000Y-33400000D01*
X20000000Y-20800000D02*
X19900000Y-20800000D01*
X26400000Y-20800000D02*
X26300000Y-20800000D01*
X33100000Y-30300000D02*
X33100000Y-30200000D01*
X31200000Y-20800000D02*
X31000000Y-20800000D01*
X33100000Y-28300000D02*
X33100000Y-28200000D01*
X17200000Y-20300000D02*
X17200000Y-20200000D01*
X29700000Y-20800000D02*
X29500000Y-20800000D01*
X22400000Y-20800000D02*
X22300000Y-20800000D01*
X33100000Y-50500000D02*
X33100000Y-50400000D01*
X33100000Y-25500000D02*
X33100000Y-25400000D01*
X32400000Y-20800000D02*
X32300000Y-20800000D01*
X33100000Y-54500000D02*
X33100000Y-54400000D01*
X31000000Y-20800000D02*
X30900000Y-20800000D01*
X20500000Y-20800000D02*
X20400000Y-20800000D01*
X33100000Y-49900000D02*
X33100000Y-49500000D01*
X17200000Y-19200000D02*
X17200000Y-19000000D01*
X33100000Y-43900000D02*
X33100000Y-43500000D01*
X31900000Y-20800000D02*
X31800000Y-20800000D01*
X33100000Y-27700000D02*
X33100000Y-27500000D01*
X33100000Y-46900000D02*
X33100000Y-46500000D01*
X33100000Y-40500000D02*
X33100000Y-40400000D01*
X17700000Y-20800000D02*
X17600000Y-20800000D01*
X19000000Y-20800000D02*
X18900000Y-20800000D01*
X33100000Y-44400000D02*
X33100000Y-44000000D01*
X30200000Y-20800000D02*
X30000000Y-20800000D01*
X33100000Y-46400000D02*
X33100000Y-46000000D01*
X23300000Y-20800000D02*
X23200000Y-20800000D01*
X20200000Y-20800000D02*
X20000000Y-20800000D01*
X24700000Y-20800000D02*
X24500000Y-20800000D01*
X14000000Y-16900000D02*
X13600000Y-16900000D01*
X33100000Y-22000000D02*
X33100000Y-21900000D01*
X33100000Y-51400000D02*
X33100000Y-51000000D01*
X33100000Y-25200000D02*
X33100000Y-25000000D01*
X33100000Y-49500000D02*
X33100000Y-49400000D01*
X24500000Y-20800000D02*
X24400000Y-20800000D01*
X33100000Y-32900000D02*
X33100000Y-32800000D01*
X33100000Y-45000000D02*
X33100000Y-44900000D01*
X33100000Y-50400000D02*
X33100000Y-50000000D01*
X15600000Y-17700000D02*
X15500000Y-17700000D01*
X17000000Y-17700000D02*
X16900000Y-17700000D01*
X12600000Y-16900000D02*
X12500000Y-16900000D01*
X20700000Y-20800000D02*
X20500000Y-20800000D01*
X15100000Y-17700000D02*
X15000000Y-17700000D01*
X21300000Y-20800000D02*
X21200000Y-20800000D01*
X11500000Y-16900000D02*
X11400000Y-16900000D01*
X19300000Y-20800000D02*
X19200000Y-20800000D01*
X33100000Y-57000000D02*
X33100000Y-56900000D01*
X18600000Y-20800000D02*
X18500000Y-20800000D01*
X33100000Y-48500000D02*
X33100000Y-48400000D01*
X33100000Y-24400000D02*
X33100000Y-24300000D01*
X29500000Y-20800000D02*
X29400000Y-20800000D01*
X23900000Y-20800000D02*
X23800000Y-20800000D01*
X33100000Y-28400000D02*
X33100000Y-28300000D01*
X15000000Y-17700000D02*
X14600000Y-17700000D01*
X29900000Y-20800000D02*
X29800000Y-20800000D01*
X33100000Y-60300000D02*
X33100000Y-60000000D01*
X33100000Y-47500000D02*
X33100000Y-47400000D01*
X33100000Y-49000000D02*
X33100000Y-48900000D01*
X19900000Y-20800000D02*
X19800000Y-20800000D01*
X26000000Y-20800000D02*
X25900000Y-20800000D01*
X33100000Y-42900000D02*
X33100000Y-42500000D01*
X24900000Y-20800000D02*
X24800000Y-20800000D01*
X33100000Y-59000000D02*
X33100000Y-58900000D01*
X17100000Y-17700000D02*
X17000000Y-17700000D01*
X33100000Y-32400000D02*
X33100000Y-32300000D01*
X27800000Y-20800000D02*
X27700000Y-20800000D01*
X13100000Y-16900000D02*
X13000000Y-16900000D01*
X33100000Y-22400000D02*
X33100000Y-22300000D01*
X33100000Y-40000000D02*
X33100000Y-39900000D01*
X29200000Y-20800000D02*
X29000000Y-20800000D01*
X17200000Y-17700000D02*
X17100000Y-17700000D01*
X20300000Y-20800000D02*
X20200000Y-20800000D01*
X33100000Y-37900000D02*
X33100000Y-37800000D01*
X33100000Y-30000000D02*
X33100000Y-29900000D01*
X27500000Y-20800000D02*
X27400000Y-20800000D01*
X33100000Y-38400000D02*
X33100000Y-37900000D01*
X33100000Y-55400000D02*
X33100000Y-55000000D01*
X23200000Y-20800000D02*
X23000000Y-20800000D01*
X33100000Y-26000000D02*
X33100000Y-25900000D01*
X33100000Y-25900000D02*
X33100000Y-25800000D01*
X33100000Y-31800000D02*
X33100000Y-31700000D01*
X17200000Y-19500000D02*
X17200000Y-19400000D01*
X33100000Y-52400000D02*
X33100000Y-52000000D01*
X17200000Y-19700000D02*
X17200000Y-19500000D01*
X33100000Y-32300000D02*
X33100000Y-32000000D01*
X28800000Y-20800000D02*
X28700000Y-20800000D01*
X17200000Y-18200000D02*
X17200000Y-18100000D01*
X28000000Y-20800000D02*
X27900000Y-20800000D01*
X30800000Y-20800000D02*
X30700000Y-20800000D01*
X21200000Y-20800000D02*
X21000000Y-20800000D01*
X16600000Y-17700000D02*
X16500000Y-17700000D01*
X17200000Y-18000000D02*
X17200000Y-17900000D01*
X33100000Y-27800000D02*
X33100000Y-27700000D01*
X33100000Y-60000000D02*
X33100000Y-59900000D01*
X14600000Y-17700000D02*
X14500000Y-17700000D01*
X33100000Y-48400000D02*
X33100000Y-48000000D01*
X31400000Y-20800000D02*
X31300000Y-20800000D01*
X33100000Y-23200000D02*
X33100000Y-23000000D01*
X25400000Y-20800000D02*
X25300000Y-20800000D01*
X33100000Y-21500000D02*
X33100000Y-21400000D01*
X22300000Y-20800000D02*
X22200000Y-20800000D01*
X33100000Y-53500000D02*
X33100000Y-53400000D01*
X26700000Y-20800000D02*
X26500000Y-20800000D01*
X16100000Y-17700000D02*
X16000000Y-17700000D01*
X33100000Y-58400000D02*
X33100000Y-58000000D01*
X32300000Y-20800000D02*
X32000000Y-20800000D01*
X21800000Y-20800000D02*
X21700000Y-20800000D01*
X20900000Y-20800000D02*
X20800000Y-20800000D01*
X17200000Y-20000000D02*
X17200000Y-19900000D01*
X33100000Y-48000000D02*
X33100000Y-47900000D01*
X33100000Y-23800000D02*
X33100000Y-23700000D01*
X33100000Y-50000000D02*
X33100000Y-49900000D01*
X17200000Y-20700000D02*
X17200000Y-20500000D01*
X27700000Y-20800000D02*
X27500000Y-20800000D01*
X33100000Y-31200000D02*
X33100000Y-31000000D01*
X12100000Y-16900000D02*
X12000000Y-16900000D01*
X33100000Y-54400000D02*
X33100000Y-54000000D01*
X33100000Y-43500000D02*
X33100000Y-43400000D01*
X33100000Y-36400000D02*
X33100000Y-36300000D01*
X33100000Y-39400000D02*
X33100000Y-39000000D01*
X33100000Y-29800000D02*
X33100000Y-29700000D01*
X31800000Y-20800000D02*
X31700000Y-20800000D01*
X33100000Y-33300000D02*
X33100000Y-32900000D01*
X17200000Y-20500000D02*
X17200000Y-20400000D01*
X14500000Y-17000000D02*
X14500000Y-16900000D01*
X33100000Y-54000000D02*
X33100000Y-53900000D01*
X30900000Y-20800000D02*
X30800000Y-20800000D01*
X33100000Y-28500000D02*
X33100000Y-28400000D01*
X33100000Y-50900000D02*
X33100000Y-50500000D01*
X33100000Y-35800000D02*
X33100000Y-35400000D01*
X33100000Y-57400000D02*
X33100000Y-57000000D01*
X29800000Y-20800000D02*
X29700000Y-20800000D01*
X33100000Y-23300000D02*
X33100000Y-23200000D01*
X33100000Y-34400000D02*
X33100000Y-34300000D01*
X31700000Y-20800000D02*
X31500000Y-20800000D01*
X20800000Y-20800000D02*
X20700000Y-20800000D01*
X33100000Y-31900000D02*
X33100000Y-31800000D01*
X33100000Y-23000000D02*
X33100000Y-22900000D01*
X17200000Y-19000000D02*
X17200000Y-18900000D01*
X33100000Y-25800000D02*
X33100000Y-25700000D01*
X33100000Y-45900000D02*
X33100000Y-45500000D01*
X33100000Y-27400000D02*
X33100000Y-27300000D01*
X33100000Y-24300000D02*
X33100000Y-24200000D01*
X19800000Y-20800000D02*
X19700000Y-20800000D01*
X17200000Y-18400000D02*
X17200000Y-18200000D01*
X18400000Y-20800000D02*
X18200000Y-20800000D01*
X33100000Y-31300000D02*
X33100000Y-31200000D01*
X33100000Y-25000000D02*
X33100000Y-24900000D01*
X23500000Y-20800000D02*
X23400000Y-20800000D01*
X33100000Y-27900000D02*
X33100000Y-27800000D01*
X33100000Y-48900000D02*
X33100000Y-48500000D01*
X19700000Y-20800000D02*
X19500000Y-20800000D01*
X33100000Y-23400000D02*
X33100000Y-23300000D01*
X33100000Y-34900000D02*
X33100000Y-34800000D01*
X33100000Y-38500000D02*
X33100000Y-38400000D01*
X33100000Y-24700000D02*
X33100000Y-24500000D01*
X33100000Y-23900000D02*
X33100000Y-23800000D01*
X33100000Y-21000000D02*
X33100000Y-20900000D01*
X33100000Y-30800000D02*
X33100000Y-30700000D01*
X33100000Y-22200000D02*
X33100000Y-22000000D01*
X33100000Y-35300000D02*
X33100000Y-34900000D01*
X33100000Y-27500000D02*
X33100000Y-27400000D01*
X33100000Y-51500000D02*
X33100000Y-51400000D01*
X20400000Y-20800000D02*
X20300000Y-20800000D01*
X33100000Y-26700000D02*
X33100000Y-26500000D01*
X33100000Y-30500000D02*
X33100000Y-30400000D01*
X33100000Y-28200000D02*
X33100000Y-28000000D01*
X33100000Y-24900000D02*
X33100000Y-24800000D01*
X33100000Y-33400000D02*
X33100000Y-33300000D01*
X25800000Y-20800000D02*
X25700000Y-20800000D01*
X26900000Y-20800000D02*
X26800000Y-20800000D01*
X33100000Y-43000000D02*
X33100000Y-42900000D01*
X24300000Y-20800000D02*
X24200000Y-20800000D01*
X14500000Y-17200000D02*
X14500000Y-17100000D01*
X33100000Y-30900000D02*
X33100000Y-30800000D01*
X33100000Y-56400000D02*
X33100000Y-56000000D01*
X22200000Y-20800000D02*
X22000000Y-20800000D01*
X31500000Y-20800000D02*
X31400000Y-20800000D01*
X16900000Y-17700000D02*
X16700000Y-17700000D01*
X33100000Y-26800000D02*
X33100000Y-26700000D01*
X33100000Y-29500000D02*
X33100000Y-29400000D01*
X33100000Y-37400000D02*
X33100000Y-37300000D01*
X16400000Y-17700000D02*
X16200000Y-17700000D01*
X17200000Y-19900000D02*
X17200000Y-19800000D01*
X28700000Y-20800000D02*
X28500000Y-20800000D01*
X33100000Y-29400000D02*
X33100000Y-29300000D01*
X17900000Y-20800000D02*
X17700000Y-20800000D01*
X33100000Y-55500000D02*
X33100000Y-55400000D01*
X33100000Y-59900000D02*
X33100000Y-59500000D01*
X33100000Y-32000000D02*
X33100000Y-31900000D01*
X16700000Y-17700000D02*
X16600000Y-17700000D01*
X33100000Y-41400000D02*
X33100000Y-41000000D01*
X17200000Y-20200000D02*
X17200000Y-20000000D01*
X32000000Y-20800000D02*
X31900000Y-20800000D01*
X33100000Y-20900000D02*
X33100000Y-20800000D01*
X33100000Y-30200000D02*
X33100000Y-30000000D01*
X33100000Y-30400000D02*
X33100000Y-30300000D01*
X14500000Y-16900000D02*
X14100000Y-16900000D01*
X22800000Y-20800000D02*
X22700000Y-20800000D01*
X14500000Y-17400000D02*
X14500000Y-17200000D01*
X33100000Y-28000000D02*
X33100000Y-27900000D01*
X33100000Y-52500000D02*
X33100000Y-52400000D01*
X19400000Y-20800000D02*
X19300000Y-20800000D01*
X33100000Y-22300000D02*
X33100000Y-22200000D01*
X33100000Y-55000000D02*
X33100000Y-54900000D01*
X33100000Y-29300000D02*
X33100000Y-29200000D01*
X33100000Y-40900000D02*
X33100000Y-40500000D01*
X21500000Y-20800000D02*
X21400000Y-20800000D01*
X33100000Y-22800000D02*
X33100000Y-22700000D01*
X25500000Y-20800000D02*
X25400000Y-20800000D01*
X33100000Y-46000000D02*
X33100000Y-45900000D01*
X25000000Y-20800000D02*
X24900000Y-20800000D01*
X33100000Y-36800000D02*
X33100000Y-36400000D01*
X33100000Y-43400000D02*
X33100000Y-43000000D01*
X33100000Y-35400000D02*
X33100000Y-35300000D01*
X33100000Y-25300000D02*
X33100000Y-25200000D01*
X25200000Y-20800000D02*
X25000000Y-20800000D01*
X33100000Y-27000000D02*
X33100000Y-26900000D01*
X33100000Y-54900000D02*
X33100000Y-54500000D01*
X24400000Y-20800000D02*
X24300000Y-20800000D01*
X33100000Y-23500000D02*
X33100000Y-23400000D01*
X17200000Y-19400000D02*
X17200000Y-19300000D01*
X14500000Y-17500000D02*
X14500000Y-17400000D01*
X27000000Y-20800000D02*
X26900000Y-20800000D01*
X33100000Y-24500000D02*
X33100000Y-24400000D01*
X11600000Y-16900000D02*
X11500000Y-16900000D01*
X16500000Y-17700000D02*
X16400000Y-17700000D01*
X33100000Y-55900000D02*
X33100000Y-55500000D01*
X33100000Y-22900000D02*
X33100000Y-22800000D01*
X17200000Y-20400000D02*
X17200000Y-20300000D01*
X29000000Y-20800000D02*
X28900000Y-20800000D01*
X17200000Y-18900000D02*
X17200000Y-18700000D01*
X21900000Y-20800000D02*
X21800000Y-20800000D01*
X17600000Y-20800000D02*
X17500000Y-20800000D01*
X33100000Y-44500000D02*
X33100000Y-44400000D01*
X24000000Y-20800000D02*
X23900000Y-20800000D01*
X22900000Y-20800000D02*
X22800000Y-20800000D01*
X33100000Y-31000000D02*
X33100000Y-30900000D01*
X33100000Y-26500000D02*
X33100000Y-26400000D01*
X33100000Y-26400000D02*
X33100000Y-26300000D01*
X33100000Y-20800000D02*
X32900000Y-20800000D01*
X33100000Y-59400000D02*
X33100000Y-59000000D01*
X18900000Y-20800000D02*
X18700000Y-20800000D01*
X33100000Y-26200000D02*
X33100000Y-26000000D01*
X33100000Y-21200000D02*
X33100000Y-21000000D01*
X29400000Y-20800000D02*
X29300000Y-20800000D01*
X33100000Y-40400000D02*
X33100000Y-40000000D01*
X29300000Y-20800000D02*
X29200000Y-20800000D01*
X33100000Y-39000000D02*
X33100000Y-38900000D01*
X33100000Y-29900000D02*
X33100000Y-29800000D01*
X33100000Y-56500000D02*
X33100000Y-56400000D01*
X14500000Y-17700000D02*
X14500000Y-17600000D01*
X33100000Y-58900000D02*
X33100000Y-58500000D01*
X14100000Y-16900000D02*
X14000000Y-16900000D01*
X23000000Y-20800000D02*
X22900000Y-20800000D01*
X33100000Y-38900000D02*
X33100000Y-38500000D01*
X33100000Y-29000000D02*
X33100000Y-28900000D01*
X33100000Y-36300000D02*
X33100000Y-35900000D01*
X33100000Y-56900000D02*
X33100000Y-56500000D01*
X33100000Y-41900000D02*
X33100000Y-41500000D01*
X30500000Y-20800000D02*
X30400000Y-20800000D01*
X33100000Y-31700000D02*
X33100000Y-31500000D01*
X24800000Y-20800000D02*
X24700000Y-20800000D01*
X33100000Y-25700000D02*
X33100000Y-25500000D01*
X24200000Y-20800000D02*
X24000000Y-20800000D01*
X17200000Y-18100000D02*
X17200000Y-18000000D01*
X33100000Y-47000000D02*
X33100000Y-46900000D01*
X12000000Y-16900000D02*
X11600000Y-16900000D01*
X33100000Y-39500000D02*
X33100000Y-39400000D01*
X33100000Y-42400000D02*
X33100000Y-42000000D01*
X16000000Y-17700000D02*
X15600000Y-17700000D01*
X33100000Y-32800000D02*
X33100000Y-32400000D01*
X32900000Y-20800000D02*
X32800000Y-20800000D01*
X18000000Y-20800000D02*
X17900000Y-20800000D01*
X33100000Y-22500000D02*
X33100000Y-22400000D01*
X33100000Y-31400000D02*
X33100000Y-31300000D01*
X18200000Y-20800000D02*
X18100000Y-20800000D01*
X26800000Y-20800000D02*
X26700000Y-20800000D01*
X33100000Y-24200000D02*
X33100000Y-24000000D01*
X17200000Y-19800000D02*
X17200000Y-19700000D01*
X33100000Y-26300000D02*
X33100000Y-26200000D01*
X33100000Y-42500000D02*
X33100000Y-42400000D01*
X33100000Y-37300000D02*
X33100000Y-36900000D01*
X14500000Y-17600000D02*
X14500000Y-17500000D01*
X33100000Y-34800000D02*
X33100000Y-34400000D01*
X18700000Y-20800000D02*
X18600000Y-20800000D01*
X33100000Y-22700000D02*
X33100000Y-22500000D01*
X33100000Y-29200000D02*
X33100000Y-29000000D01*
X33100000Y-46500000D02*
X33100000Y-46400000D01*
X26500000Y-20800000D02*
X26400000Y-20800000D01*
X33100000Y-21900000D02*
X33100000Y-21800000D01*
X17200000Y-18700000D02*
X17200000Y-18600000D01*
X33100000Y-37800000D02*
X33100000Y-37400000D01*
X27900000Y-20800000D02*
X27800000Y-20800000D01*
X30700000Y-20800000D02*
X30500000Y-20800000D01*
X12500000Y-16900000D02*
X12100000Y-16900000D01*
X27300000Y-20800000D02*
X27200000Y-20800000D01*
X33100000Y-29700000D02*
X33100000Y-29500000D01*
X33100000Y-41500000D02*
X33100000Y-41400000D01*
X22700000Y-20800000D02*
X22500000Y-20800000D01*
X33100000Y-30700000D02*
X33100000Y-30500000D01*
X15500000Y-17700000D02*
X15100000Y-17700000D01*
X22500000Y-20800000D02*
X22400000Y-20800000D01*
X13600000Y-16900000D02*
X13500000Y-16900000D01*
X33100000Y-53900000D02*
X33100000Y-53500000D01*
X30000000Y-20800000D02*
X29900000Y-20800000D01*
X33100000Y-45400000D02*
X33100000Y-45000000D01*
X18500000Y-20800000D02*
X18400000Y-20800000D01*
X33100000Y-27200000D02*
X33100000Y-27000000D01*
X22000000Y-20800000D02*
X21900000Y-20800000D01*
X23400000Y-20800000D02*
X23300000Y-20800000D01*
X21000000Y-20800000D02*
X20900000Y-20800000D01*
X25900000Y-20800000D02*
X25800000Y-20800000D01*
X33100000Y-51000000D02*
X33100000Y-50900000D01*
X17200000Y-19300000D02*
X17200000Y-19200000D01*
X33100000Y-47900000D02*
X33100000Y-47500000D01*
X33100000Y-53000000D02*
X33100000Y-52900000D01*
X33100000Y-59500000D02*
X33100000Y-59400000D01*
X28900000Y-20800000D02*
X28800000Y-20800000D01*
X17500000Y-20800000D02*
X17400000Y-20800000D01*
X31300000Y-20800000D02*
X31200000Y-20800000D01*
X17200000Y-20800000D02*
X17200000Y-20700000D01*
X33100000Y-39900000D02*
X33100000Y-39500000D01*
X26300000Y-20800000D02*
X26200000Y-20800000D01*
X27400000Y-20800000D02*
X27300000Y-20800000D01*
X33100000Y-28800000D02*
X33100000Y-28700000D01*
X17200000Y-17900000D02*
X17200000Y-17700000D01*
X32800000Y-20800000D02*
X32400000Y-20800000D01*
X13000000Y-16900000D02*
X12600000Y-16900000D01*
X19500000Y-20800000D02*
X19400000Y-20800000D01*
X33100000Y-21800000D02*
X33100000Y-21700000D01*
X33100000Y-44900000D02*
X33100000Y-44500000D01*
X33100000Y-28900000D02*
X33100000Y-28800000D01*
X33100000Y-21300000D02*
X33100000Y-21200000D01*
X33100000Y-58000000D02*
X33100000Y-57900000D01*
X30300000Y-20800000D02*
X30200000Y-20800000D01*
X33100000Y-52900000D02*
X33100000Y-52500000D01*
X33100000Y-33900000D02*
X33100000Y-33800000D01*
X33100000Y-34300000D02*
X33100000Y-33900000D01*
X33100000Y-35900000D02*
X33100000Y-35800000D01*
X21700000Y-20800000D02*
X21500000Y-20800000D01*
X33100000Y-45500000D02*
X33100000Y-45400000D01*
X26200000Y-20800000D02*
X26000000Y-20800000D01*
X33100000Y-36900000D02*
X33100000Y-36800000D01*
X28300000Y-20800000D02*
X28200000Y-20800000D01*
X23800000Y-20800000D02*
X23700000Y-20800000D01*
X19200000Y-20800000D02*
X19000000Y-20800000D01*
X33100000Y-27300000D02*
X33100000Y-27200000D01*
X33100000Y-44000000D02*
X33100000Y-43900000D01*
X33100000Y-28700000D02*
X33100000Y-28500000D01*
X33100000Y-21700000D02*
X33100000Y-21500000D01*
X33100000Y-53400000D02*
X33100000Y-53000000D01*
X33100000Y-25400000D02*
X33100000Y-25300000D01*
X33100000Y-58500000D02*
X33100000Y-58400000D01*
X25300000Y-20800000D02*
X25200000Y-20800000D01*
X28200000Y-20800000D02*
X28000000Y-20800000D01*
X33100000Y-51900000D02*
X33100000Y-51500000D01*
%TO.N,scl*%
X10600000Y-24800000D02*
X10600000Y-24700000D01*
X10600000Y-27300000D02*
X10600000Y-27200000D01*
X10600000Y-20500000D02*
X10600000Y-20400000D01*
X10600000Y-23200000D02*
X10600000Y-23000000D01*
X10600000Y-17600000D02*
X11000000Y-17600000D01*
X10600000Y-22800000D02*
X10600000Y-22700000D01*
X10600000Y-18900000D02*
X10600000Y-18700000D01*
X10600000Y-18200000D02*
X10600000Y-18100000D01*
X10600000Y-27000000D02*
X10600000Y-26900000D01*
X10600000Y-22900000D02*
X10600000Y-22800000D01*
X10600000Y-19900000D02*
X10600000Y-19800000D01*
X12000000Y-17600000D02*
X12100000Y-17600000D01*
X10600000Y-19700000D02*
X10600000Y-19500000D01*
X10600000Y-26200000D02*
X10600000Y-26000000D01*
X10600000Y-23000000D02*
X10600000Y-22900000D01*
X10600000Y-25800000D02*
X10600000Y-25700000D01*
X10600000Y-23800000D02*
X10600000Y-23700000D01*
X10600000Y-25700000D02*
X10600000Y-25500000D01*
X10600000Y-17700000D02*
X10600000Y-17600000D01*
X10600000Y-26800000D02*
X10600000Y-26700000D01*
X10600000Y-21800000D02*
X10600000Y-21700000D01*
X10600000Y-19200000D02*
X10600000Y-19000000D01*
X10600000Y-26300000D02*
X10600000Y-26200000D01*
X10600000Y-24400000D02*
X10600000Y-24300000D01*
X10600000Y-24500000D02*
X10600000Y-24400000D01*
X10600000Y-25000000D02*
X10600000Y-24900000D01*
X10600000Y-21300000D02*
X10600000Y-21200000D01*
X10600000Y-18100000D02*
X10600000Y-18000000D01*
X10600000Y-21200000D02*
X10600000Y-21000000D01*
X10600000Y-21500000D02*
X10600000Y-21400000D01*
X10600000Y-25300000D02*
X10600000Y-25200000D01*
X12100000Y-17600000D02*
X12500000Y-17600000D01*
X10600000Y-17900000D02*
X10600000Y-17700000D01*
X10600000Y-22200000D02*
X10600000Y-22000000D01*
X10600000Y-24200000D02*
X10600000Y-24000000D01*
X10600000Y-22400000D02*
X10600000Y-22300000D01*
X10600000Y-21900000D02*
X10600000Y-21800000D01*
X10600000Y-19800000D02*
X10600000Y-19700000D01*
X10600000Y-20800000D02*
X10600000Y-20700000D01*
X11600000Y-17600000D02*
X12000000Y-17600000D01*
X10600000Y-23500000D02*
X10600000Y-23400000D01*
X10600000Y-27500000D02*
X10600000Y-27400000D01*
X10600000Y-19400000D02*
X10600000Y-19300000D01*
X10600000Y-24300000D02*
X10600000Y-24200000D01*
X10600000Y-26500000D02*
X10600000Y-26400000D01*
X10600000Y-22500000D02*
X10600000Y-22400000D01*
X12600000Y-17600000D02*
X12800000Y-17600000D01*
X10600000Y-20300000D02*
X10600000Y-20200000D01*
X11000000Y-17600000D02*
X11100000Y-17600000D01*
X10600000Y-25200000D02*
X10600000Y-25000000D01*
X10600000Y-25900000D02*
X10600000Y-25800000D01*
X10600000Y-26700000D02*
X10600000Y-26500000D01*
X10600000Y-21700000D02*
X10600000Y-21500000D01*
X10600000Y-19000000D02*
X10600000Y-18900000D01*
X10600000Y-22000000D02*
X10600000Y-21900000D01*
X10600000Y-25500000D02*
X10600000Y-25400000D01*
X10600000Y-27400000D02*
X10600000Y-27300000D01*
X10600000Y-18000000D02*
X10600000Y-17900000D01*
X11100000Y-17600000D02*
X11500000Y-17600000D01*
X10600000Y-20900000D02*
X10600000Y-20800000D01*
X10600000Y-18500000D02*
X10600000Y-18400000D01*
X10600000Y-18700000D02*
X10600000Y-18600000D01*
X10600000Y-26400000D02*
X10600000Y-26300000D01*
X10600000Y-20400000D02*
X10600000Y-20300000D01*
X10600000Y-19500000D02*
X10600000Y-19400000D01*
X10600000Y-18600000D02*
X10600000Y-18500000D01*
X10600000Y-26000000D02*
X10600000Y-25900000D01*
X10600000Y-21400000D02*
X10600000Y-21300000D01*
X10600000Y-22700000D02*
X10600000Y-22500000D01*
X10600000Y-25400000D02*
X10600000Y-25300000D01*
X10600000Y-19300000D02*
X10600000Y-19200000D01*
X10600000Y-21000000D02*
X10600000Y-20900000D01*
X10600000Y-26900000D02*
X10600000Y-26800000D01*
X10600000Y-24700000D02*
X10600000Y-24500000D01*
X10600000Y-23700000D02*
X10600000Y-23500000D01*
X10600000Y-20000000D02*
X10600000Y-19900000D01*
X11500000Y-17600000D02*
X11600000Y-17600000D01*
X10600000Y-20200000D02*
X10600000Y-20000000D01*
X10600000Y-27200000D02*
X10600000Y-27000000D01*
X10600000Y-24000000D02*
X10600000Y-23900000D01*
X10600000Y-20700000D02*
X10600000Y-20500000D01*
X10600000Y-24900000D02*
X10600000Y-24800000D01*
X10600000Y-23900000D02*
X10600000Y-23800000D01*
X10600000Y-23300000D02*
X10600000Y-23200000D01*
X10600000Y-22300000D02*
X10600000Y-22200000D01*
X10600000Y-23400000D02*
X10600000Y-23300000D01*
X10600000Y-18400000D02*
X10600000Y-18200000D01*
X12500000Y-17600000D02*
X12600000Y-17600000D01*
%TO.N,SNK_VSET*%
X4400000Y-51400000D02*
X4300000Y-51400000D01*
X4700000Y-47000000D02*
X4700000Y-47400000D01*
X3900000Y-51400000D02*
X3500000Y-51400000D01*
X2500000Y-51400000D02*
X2400000Y-51400000D01*
X4300000Y-51400000D02*
X4100000Y-51400000D01*
X3000000Y-51400000D02*
X2900000Y-51400000D01*
X4700000Y-50400000D02*
X4700000Y-50500000D01*
X4700000Y-51000000D02*
X4700000Y-51400000D01*
X4700000Y-50500000D02*
X4700000Y-50900000D01*
X4700000Y-49500000D02*
X4700000Y-49900000D01*
X4700000Y-49400000D02*
X4700000Y-49500000D01*
X4700000Y-48000000D02*
X4700000Y-48400000D01*
X4500000Y-51400000D02*
X4400000Y-51400000D01*
X4700000Y-47500000D02*
X4700000Y-47900000D01*
X3500000Y-51400000D02*
X3400000Y-51400000D01*
X4600000Y-51400000D02*
X4500000Y-51400000D01*
X4900000Y-46600000D02*
X4800000Y-46600000D01*
X4700000Y-50000000D02*
X4700000Y-50400000D01*
X1900000Y-51400000D02*
X1800000Y-51400000D01*
X4800000Y-46600000D02*
X4700000Y-46600000D01*
X4700000Y-48400000D02*
X4700000Y-48500000D01*
X4700000Y-51400000D02*
X4600000Y-51400000D01*
X4700000Y-47400000D02*
X4700000Y-47500000D01*
X4700000Y-48500000D02*
X4700000Y-48900000D01*
X1700000Y-51400000D02*
X1600000Y-51400000D01*
X3400000Y-51400000D02*
X3000000Y-51400000D01*
X4700000Y-49900000D02*
X4700000Y-50000000D01*
X2400000Y-51400000D02*
X2000000Y-51400000D01*
X4700000Y-46900000D02*
X4700000Y-47000000D01*
X4000000Y-51400000D02*
X3900000Y-51400000D01*
X4700000Y-46600000D02*
X4700000Y-46900000D01*
X2000000Y-51400000D02*
X1900000Y-51400000D01*
X4100000Y-51400000D02*
X4000000Y-51400000D01*
X1800000Y-51400000D02*
X1700000Y-51400000D01*
X4700000Y-49000000D02*
X4700000Y-49400000D01*
X4700000Y-50900000D02*
X4700000Y-51000000D01*
X4700000Y-48900000D02*
X4700000Y-49000000D01*
X4700000Y-47900000D02*
X4700000Y-48000000D01*
X2900000Y-51400000D02*
X2500000Y-51400000D01*
%TO.N,1-4*%
D18*
X21900000Y-7600000D02*
X22000000Y-7600000D01*
X20700000Y-7600000D02*
X20800000Y-7600000D01*
X22300000Y-7600000D02*
X22400000Y-7600000D01*
X23400000Y-7600000D02*
X23500000Y-7600000D01*
X22900000Y-7600000D02*
X23000000Y-7600000D01*
X22200000Y-7600000D02*
X22300000Y-7600000D01*
X23500000Y-7600000D02*
X23700000Y-7600000D01*
X21200000Y-7600000D02*
X21300000Y-7600000D01*
X22400000Y-7600000D02*
X22500000Y-7600000D01*
X23700000Y-7600000D02*
X23800000Y-7600000D01*
X23800000Y-7600000D02*
X23900000Y-7600000D01*
X21000000Y-7600000D02*
X21200000Y-7600000D01*
X22800000Y-7600000D02*
X22900000Y-7600000D01*
X21400000Y-7600000D02*
X21500000Y-7600000D01*
X21300000Y-7600000D02*
X21400000Y-7600000D01*
X23200000Y-7600000D02*
X23300000Y-7600000D01*
X21700000Y-7600000D02*
X21800000Y-7600000D01*
X21800000Y-7600000D02*
X21900000Y-7600000D01*
X20500000Y-7600000D02*
X20700000Y-7600000D01*
X22500000Y-7600000D02*
X22700000Y-7600000D01*
X23000000Y-7600000D02*
X23200000Y-7600000D01*
X23300000Y-7600000D02*
X23400000Y-7600000D01*
X22000000Y-7600000D02*
X22200000Y-7600000D01*
X23900000Y-7600000D02*
X24000000Y-7600000D01*
X20800000Y-7600000D02*
X20900000Y-7600000D01*
X20900000Y-7600000D02*
X21000000Y-7600000D01*
X21500000Y-7600000D02*
X21700000Y-7600000D01*
X22700000Y-7600000D02*
X22800000Y-7600000D01*
%TO.N,comp_bst*%
D17*
X30400000Y-26300000D02*
X30500000Y-26300000D01*
X29400000Y-26300000D02*
X29500000Y-26300000D01*
X31300000Y-29900000D02*
X31300000Y-30000000D01*
X27700000Y-26300000D02*
X27800000Y-26300000D01*
X31300000Y-29400000D02*
X31300000Y-29500000D01*
X31300000Y-27200000D02*
X31300000Y-27300000D01*
X28300000Y-26300000D02*
X28400000Y-26300000D01*
X29900000Y-26300000D02*
X30000000Y-26300000D01*
X31300000Y-28400000D02*
X31300000Y-28500000D01*
X26200000Y-26300000D02*
X26300000Y-26300000D01*
X31000000Y-26300000D02*
X31200000Y-26300000D01*
X31300000Y-26900000D02*
X31300000Y-27000000D01*
X27400000Y-26300000D02*
X27500000Y-26300000D01*
X26700000Y-26300000D02*
X26800000Y-26300000D01*
X31300000Y-27900000D02*
X31300000Y-28000000D01*
X25900000Y-26300000D02*
X26000000Y-26300000D01*
X30300000Y-26300000D02*
X30400000Y-26300000D01*
X30200000Y-26300000D02*
X30300000Y-26300000D01*
X25300000Y-26300000D02*
X25400000Y-26300000D01*
X25000000Y-26300000D02*
X25200000Y-26300000D01*
X28800000Y-26300000D02*
X28900000Y-26300000D01*
X31300000Y-26700000D02*
X31300000Y-26800000D01*
X28200000Y-26300000D02*
X28300000Y-26300000D01*
X24300000Y-26300000D02*
X24400000Y-26300000D01*
X31300000Y-28500000D02*
X31300000Y-28700000D01*
X26300000Y-26300000D02*
X26400000Y-26300000D01*
X27300000Y-26300000D02*
X27400000Y-26300000D01*
X27500000Y-26300000D02*
X27700000Y-26300000D01*
X26400000Y-26300000D02*
X26500000Y-26300000D01*
X30000000Y-26300000D02*
X30200000Y-26300000D01*
X31300000Y-27400000D02*
X31300000Y-27500000D01*
X27800000Y-26300000D02*
X27900000Y-26300000D01*
X25500000Y-26300000D02*
X25700000Y-26300000D01*
X31300000Y-27300000D02*
X31300000Y-27400000D01*
X30800000Y-26300000D02*
X30900000Y-26300000D01*
X31300000Y-29800000D02*
X31300000Y-29900000D01*
X24500000Y-26300000D02*
X24700000Y-26300000D01*
X31300000Y-29000000D02*
X31300000Y-29200000D01*
X28700000Y-26300000D02*
X28800000Y-26300000D01*
X27200000Y-26300000D02*
X27300000Y-26300000D01*
X30500000Y-26300000D02*
X30700000Y-26300000D01*
X30900000Y-26300000D02*
X31000000Y-26300000D01*
X25200000Y-26300000D02*
X25300000Y-26300000D01*
X29000000Y-26300000D02*
X29200000Y-26300000D01*
X25700000Y-26300000D02*
X25800000Y-26300000D01*
X29200000Y-26300000D02*
X29300000Y-26300000D01*
X29800000Y-26300000D02*
X29900000Y-26300000D01*
X31300000Y-29500000D02*
X31300000Y-29700000D01*
X29500000Y-26300000D02*
X29700000Y-26300000D01*
X24900000Y-26300000D02*
X25000000Y-26300000D01*
X25400000Y-26300000D02*
X25500000Y-26300000D01*
X31200000Y-26300000D02*
X31300000Y-26300000D01*
X31300000Y-28000000D02*
X31300000Y-28200000D01*
X30700000Y-26300000D02*
X30800000Y-26300000D01*
X31300000Y-26500000D02*
X31300000Y-26700000D01*
X31300000Y-29200000D02*
X31300000Y-29300000D01*
X31300000Y-29700000D02*
X31300000Y-29800000D01*
X31300000Y-27700000D02*
X31300000Y-27800000D01*
X31300000Y-30000000D02*
X31300000Y-30100000D01*
X31300000Y-28900000D02*
X31300000Y-29000000D01*
X28000000Y-26300000D02*
X28200000Y-26300000D01*
X31300000Y-27800000D02*
X31300000Y-27900000D01*
X31300000Y-27000000D02*
X31300000Y-27200000D01*
X31300000Y-28200000D02*
X31300000Y-28300000D01*
X28900000Y-26300000D02*
X29000000Y-26300000D01*
X27900000Y-26300000D02*
X28000000Y-26300000D01*
X24200000Y-26300000D02*
X24300000Y-26300000D01*
X31300000Y-28800000D02*
X31300000Y-28900000D01*
X26900000Y-26300000D02*
X27000000Y-26300000D01*
X28400000Y-26300000D02*
X28500000Y-26300000D01*
X26500000Y-26300000D02*
X26700000Y-26300000D01*
X27000000Y-26300000D02*
X27200000Y-26300000D01*
X31300000Y-28300000D02*
X31300000Y-28400000D01*
X31300000Y-28700000D02*
X31300000Y-28800000D01*
X31300000Y-26800000D02*
X31300000Y-26900000D01*
X31300000Y-29300000D02*
X31300000Y-29400000D01*
X25800000Y-26300000D02*
X25900000Y-26300000D01*
X29300000Y-26300000D02*
X29400000Y-26300000D01*
X28500000Y-26300000D02*
X28700000Y-26300000D01*
X31300000Y-26300000D02*
X31300000Y-26400000D01*
X26800000Y-26300000D02*
X26900000Y-26300000D01*
X31300000Y-26400000D02*
X31300000Y-26500000D01*
X29700000Y-26300000D02*
X29800000Y-26300000D01*
X26000000Y-26300000D02*
X26200000Y-26300000D01*
X31300000Y-27500000D02*
X31300000Y-27700000D01*
X24400000Y-26300000D02*
X24500000Y-26300000D01*
X24700000Y-26300000D02*
X24800000Y-26300000D01*
X24800000Y-26300000D02*
X24900000Y-26300000D01*
%TO.N,1-3*%
D16*
X18900000Y-36800000D02*
X18900000Y-36900000D01*
X18900000Y-39000000D02*
X18900000Y-39400000D01*
X4700000Y-21200000D02*
X4600000Y-21200000D01*
X18900000Y-38900000D02*
X18900000Y-39000000D01*
X6000000Y-21200000D02*
X5800000Y-21200000D01*
X3700000Y-13100000D02*
X3700000Y-13000000D01*
X3700000Y-21000000D02*
X3700000Y-20900000D01*
X9900000Y-21200000D02*
X9600000Y-21200000D01*
X18900000Y-34300000D02*
X18900000Y-34400000D01*
X3700000Y-20200000D02*
X3700000Y-20000000D01*
X3700000Y-10500000D02*
X3700000Y-10100000D01*
X3700000Y-13000000D02*
X3700000Y-12600000D01*
X3700000Y-16400000D02*
X3700000Y-16200000D01*
X18900000Y-46400000D02*
X18900000Y-46500000D01*
X18900000Y-41500000D02*
X18900000Y-41900000D01*
X3500000Y-21200000D02*
X3400000Y-21200000D01*
X5200000Y-21200000D02*
X5100000Y-21200000D01*
X3700000Y-16100000D02*
X3700000Y-16000000D01*
X18900000Y-46900000D02*
X18900000Y-47000000D01*
X4500000Y-21200000D02*
X4400000Y-21200000D01*
X18900000Y-44500000D02*
X18900000Y-44900000D01*
X18900000Y-48000000D02*
X18900000Y-48400000D01*
X7200000Y-21200000D02*
X7100000Y-21200000D01*
X3700000Y-20300000D02*
X3700000Y-20200000D01*
X9500000Y-21200000D02*
X9200000Y-21200000D01*
X3700000Y-17900000D02*
X3700000Y-17700000D01*
X18900000Y-31800000D02*
X18900000Y-31900000D01*
X18900000Y-44900000D02*
X18900000Y-45000000D01*
X18900000Y-39900000D02*
X18900000Y-40000000D01*
X3700000Y-16600000D02*
X3700000Y-16500000D01*
X3700000Y-17600000D02*
X3700000Y-17500000D01*
X6500000Y-21200000D02*
X6300000Y-21200000D01*
X6200000Y-21200000D02*
X6100000Y-21200000D01*
X7300000Y-21200000D02*
X7200000Y-21200000D01*
X2900000Y-21200000D02*
X2500000Y-21200000D01*
X3700000Y-15600000D02*
X3700000Y-15500000D01*
X18900000Y-44400000D02*
X18900000Y-44500000D01*
X3700000Y-19500000D02*
X3700000Y-19400000D01*
X3700000Y-19800000D02*
X3700000Y-19700000D01*
X3700000Y-19700000D02*
X3700000Y-19500000D01*
X18900000Y-37400000D02*
X18900000Y-37800000D01*
X3700000Y-20400000D02*
X3700000Y-20300000D01*
X18900000Y-35800000D02*
X18900000Y-35900000D01*
X18900000Y-42400000D02*
X18900000Y-42500000D01*
X18900000Y-44000000D02*
X18900000Y-44400000D01*
X3700000Y-15100000D02*
X3700000Y-15000000D01*
X18900000Y-32400000D02*
X18900000Y-32800000D01*
X3700000Y-18700000D02*
X3700000Y-18600000D01*
X18900000Y-34400000D02*
X18900000Y-34800000D01*
X18900000Y-40000000D02*
X18900000Y-40400000D01*
X18900000Y-48400000D02*
X18900000Y-48500000D01*
X6300000Y-21200000D02*
X6200000Y-21200000D01*
X3700000Y-13500000D02*
X3700000Y-13100000D01*
X4300000Y-21200000D02*
X4100000Y-21200000D01*
X3700000Y-15500000D02*
X3700000Y-15100000D01*
X18900000Y-49900000D02*
X18900000Y-50000000D01*
X18900000Y-43400000D02*
X18900000Y-43500000D01*
X3700000Y-16000000D02*
X3700000Y-15600000D01*
X18900000Y-41400000D02*
X18900000Y-41500000D01*
X3700000Y-11500000D02*
X3700000Y-11100000D01*
X18900000Y-47500000D02*
X18900000Y-47900000D01*
X18900000Y-41900000D02*
X18900000Y-42000000D01*
X8700000Y-21200000D02*
X8600000Y-21200000D01*
X3700000Y-17400000D02*
X3700000Y-17200000D01*
X9600000Y-21200000D02*
X9500000Y-21200000D01*
X18900000Y-39400000D02*
X18900000Y-39500000D01*
X3900000Y-21200000D02*
X3500000Y-21200000D01*
X8600000Y-21200000D02*
X8200000Y-21200000D01*
X18900000Y-45500000D02*
X18900000Y-45900000D01*
X5500000Y-21200000D02*
X5300000Y-21200000D01*
X3700000Y-20000000D02*
X3700000Y-19900000D01*
X3700000Y-13600000D02*
X3700000Y-13500000D01*
X3700000Y-11000000D02*
X3700000Y-10600000D01*
X3700000Y-20700000D02*
X3700000Y-20500000D01*
X18900000Y-31700000D02*
X18900000Y-31800000D01*
X4100000Y-21200000D02*
X4000000Y-21200000D01*
X3700000Y-19000000D02*
X3700000Y-18900000D01*
X18900000Y-36900000D02*
X18900000Y-37300000D01*
X3700000Y-10100000D02*
X3700000Y-10000000D01*
X18900000Y-34800000D02*
X18900000Y-34900000D01*
X7800000Y-21200000D02*
X7700000Y-21200000D01*
X7000000Y-21200000D02*
X6800000Y-21200000D01*
X3700000Y-11100000D02*
X3700000Y-11000000D01*
X2400000Y-21200000D02*
X2100000Y-21200000D01*
X3000000Y-21200000D02*
X2900000Y-21200000D01*
X18900000Y-45900000D02*
X18900000Y-46000000D01*
X5800000Y-21200000D02*
X5700000Y-21200000D01*
X6800000Y-21200000D02*
X6700000Y-21200000D01*
X18900000Y-38400000D02*
X18900000Y-38500000D01*
X3700000Y-12600000D02*
X3700000Y-12500000D01*
X18900000Y-33900000D02*
X18900000Y-34300000D01*
X18900000Y-37900000D02*
X18900000Y-38400000D01*
X18900000Y-42900000D02*
X18900000Y-43000000D01*
X7100000Y-21200000D02*
X7000000Y-21200000D01*
X18900000Y-38500000D02*
X18900000Y-38900000D01*
X18900000Y-48500000D02*
X18900000Y-48900000D01*
X18900000Y-47000000D02*
X18900000Y-47400000D01*
X3700000Y-16700000D02*
X3700000Y-16600000D01*
X3700000Y-17100000D02*
X3700000Y-17000000D01*
X9100000Y-21200000D02*
X8700000Y-21200000D01*
X3700000Y-14500000D02*
X3700000Y-14100000D01*
X18900000Y-40500000D02*
X18900000Y-40900000D01*
X18900000Y-47900000D02*
X18900000Y-48000000D01*
X18900000Y-41000000D02*
X18900000Y-41400000D01*
X5100000Y-21200000D02*
X5000000Y-21200000D01*
X3700000Y-17500000D02*
X3700000Y-17400000D01*
X18900000Y-45000000D02*
X18900000Y-45400000D01*
X3700000Y-14100000D02*
X3700000Y-14000000D01*
X18900000Y-40900000D02*
X18900000Y-41000000D01*
X2500000Y-21200000D02*
X2400000Y-21200000D01*
X3700000Y-12000000D02*
X3700000Y-11600000D01*
X3700000Y-19900000D02*
X3700000Y-19800000D01*
X18900000Y-37800000D02*
X18900000Y-37900000D01*
X18900000Y-43000000D02*
X18900000Y-43400000D01*
X3700000Y-18100000D02*
X3700000Y-18000000D01*
X3700000Y-14000000D02*
X3700000Y-13600000D01*
X3700000Y-19200000D02*
X3700000Y-19000000D01*
X3400000Y-21200000D02*
X3000000Y-21200000D01*
X6100000Y-21200000D02*
X6000000Y-21200000D01*
X18900000Y-35400000D02*
X18900000Y-35800000D01*
X3700000Y-18200000D02*
X3700000Y-18100000D01*
X18900000Y-32900000D02*
X18900000Y-33300000D01*
X3700000Y-11600000D02*
X3700000Y-11500000D01*
X5700000Y-21200000D02*
X5600000Y-21200000D01*
X18900000Y-31600000D02*
X18900000Y-31700000D01*
X18900000Y-34900000D02*
X18900000Y-35300000D01*
X18900000Y-46000000D02*
X18900000Y-46400000D01*
X3700000Y-14600000D02*
X3700000Y-14500000D01*
X3700000Y-16500000D02*
X3700000Y-16400000D01*
X18900000Y-35300000D02*
X18900000Y-35400000D01*
X3700000Y-16200000D02*
X3700000Y-16100000D01*
X7600000Y-21200000D02*
X7500000Y-21200000D01*
X18900000Y-40400000D02*
X18900000Y-40500000D01*
X3700000Y-10000000D02*
X3700000Y-9600000D01*
X3700000Y-12500000D02*
X3700000Y-12100000D01*
X8200000Y-21200000D02*
X8100000Y-21200000D01*
X18900000Y-48900000D02*
X18900000Y-49000000D01*
X18900000Y-33300000D02*
X18900000Y-33400000D01*
X3700000Y-18000000D02*
X3700000Y-17900000D01*
X18900000Y-42500000D02*
X18900000Y-42900000D01*
X18900000Y-36300000D02*
X18900000Y-36400000D01*
X3700000Y-21200000D02*
X3700000Y-21000000D01*
X6600000Y-21200000D02*
X6500000Y-21200000D01*
X18900000Y-50500000D02*
X18900000Y-50600000D01*
X18900000Y-49500000D02*
X18900000Y-49900000D01*
X18900000Y-33400000D02*
X18900000Y-33800000D01*
X18900000Y-42000000D02*
X18900000Y-42400000D01*
X5600000Y-21200000D02*
X5500000Y-21200000D01*
X18900000Y-36400000D02*
X18900000Y-36800000D01*
X4800000Y-21200000D02*
X4700000Y-21200000D01*
X3700000Y-18900000D02*
X3700000Y-18700000D01*
X4400000Y-21200000D02*
X4300000Y-21200000D01*
X9200000Y-21200000D02*
X9100000Y-21200000D01*
X18900000Y-32300000D02*
X18900000Y-32400000D01*
X3700000Y-10600000D02*
X3700000Y-10500000D01*
X5300000Y-21200000D02*
X5200000Y-21200000D01*
X18900000Y-43500000D02*
X18900000Y-43900000D01*
X18900000Y-32800000D02*
X18900000Y-32900000D01*
X18900000Y-35900000D02*
X18900000Y-36300000D01*
X3700000Y-12100000D02*
X3700000Y-12000000D01*
X18900000Y-49400000D02*
X18900000Y-49500000D01*
X3700000Y-19300000D02*
X3700000Y-19200000D01*
X3700000Y-16900000D02*
X3700000Y-16700000D01*
X4600000Y-21200000D02*
X4500000Y-21200000D01*
X18900000Y-46500000D02*
X18900000Y-46900000D01*
X4000000Y-21200000D02*
X3900000Y-21200000D01*
X3700000Y-20500000D02*
X3700000Y-20400000D01*
X18900000Y-49000000D02*
X18900000Y-49400000D01*
X7500000Y-21200000D02*
X7300000Y-21200000D01*
X8100000Y-21200000D02*
X7800000Y-21200000D01*
X7700000Y-21200000D02*
X7600000Y-21200000D01*
X18900000Y-31900000D02*
X18900000Y-32000000D01*
X3700000Y-17700000D02*
X3700000Y-17600000D01*
X5000000Y-21200000D02*
X4800000Y-21200000D01*
X18900000Y-45400000D02*
X18900000Y-45500000D01*
X3700000Y-15000000D02*
X3700000Y-14600000D01*
X18900000Y-33800000D02*
X18900000Y-33900000D01*
X3700000Y-18500000D02*
X3700000Y-18400000D01*
X3700000Y-18600000D02*
X3700000Y-18500000D01*
X6700000Y-21200000D02*
X6600000Y-21200000D01*
X18900000Y-32000000D02*
X18900000Y-32300000D01*
X3700000Y-17200000D02*
X3700000Y-17100000D01*
X18900000Y-37300000D02*
X18900000Y-37400000D01*
X3700000Y-18400000D02*
X3700000Y-18200000D01*
X18900000Y-50000000D02*
X18900000Y-50400000D01*
X3700000Y-20900000D02*
X3700000Y-20800000D01*
X18900000Y-43900000D02*
X18900000Y-44000000D01*
X3700000Y-20800000D02*
X3700000Y-20700000D01*
X3700000Y-19400000D02*
X3700000Y-19300000D01*
X18900000Y-50400000D02*
X18900000Y-50500000D01*
X18900000Y-39500000D02*
X18900000Y-39900000D01*
X3700000Y-17000000D02*
X3700000Y-16900000D01*
X18900000Y-47400000D02*
X18900000Y-47500000D01*
%TO.N,sda*%
D17*
X14000000Y-32800000D02*
X14000000Y-32400000D01*
X14000000Y-23900000D02*
X14000000Y-23800000D01*
X14000000Y-30500000D02*
X14000000Y-30400000D01*
X14000000Y-22000000D02*
X14000000Y-21900000D01*
X14000000Y-18600000D02*
X14000000Y-18500000D01*
X14000000Y-30900000D02*
X14000000Y-30800000D01*
X14000000Y-27300000D02*
X14000000Y-27200000D01*
X14000000Y-25700000D02*
X14000000Y-25500000D01*
X14000000Y-25000000D02*
X14000000Y-24900000D01*
X14000000Y-21500000D02*
X14000000Y-21400000D01*
X14000000Y-28500000D02*
X14000000Y-28400000D01*
X14000000Y-27200000D02*
X14000000Y-27000000D01*
X14000000Y-18400000D02*
X14000000Y-18200000D01*
X14000000Y-26400000D02*
X14000000Y-26300000D01*
X14000000Y-25900000D02*
X14000000Y-25800000D01*
X14000000Y-17600000D02*
X13800000Y-17600000D01*
X14000000Y-27500000D02*
X14000000Y-27400000D01*
X14000000Y-18100000D02*
X14000000Y-18000000D01*
X14000000Y-29300000D02*
X14000000Y-29200000D01*
X14000000Y-29800000D02*
X14000000Y-29700000D01*
X14000000Y-28900000D02*
X14000000Y-28800000D01*
X14000000Y-23500000D02*
X14000000Y-23400000D01*
X14000000Y-18900000D02*
X14000000Y-18700000D01*
X14000000Y-27900000D02*
X14000000Y-27800000D01*
X14000000Y-28400000D02*
X14000000Y-28300000D01*
X14000000Y-17900000D02*
X14000000Y-17700000D01*
X14000000Y-22400000D02*
X14000000Y-22300000D01*
X14000000Y-26000000D02*
X14000000Y-25900000D01*
X14000000Y-19500000D02*
X14000000Y-19400000D01*
X14000000Y-29200000D02*
X14000000Y-29000000D01*
X14000000Y-21000000D02*
X14000000Y-20900000D01*
X14000000Y-23400000D02*
X14000000Y-23300000D01*
X14000000Y-31200000D02*
X14000000Y-31000000D01*
X14000000Y-28800000D02*
X14000000Y-28700000D01*
X14000000Y-19300000D02*
X14000000Y-19200000D01*
X14000000Y-23800000D02*
X14000000Y-23700000D01*
X14000000Y-24400000D02*
X14000000Y-24300000D01*
X14000000Y-24500000D02*
X14000000Y-24400000D01*
X14000000Y-27400000D02*
X14000000Y-27300000D01*
X14000000Y-19000000D02*
X14000000Y-18900000D01*
X14000000Y-24900000D02*
X14000000Y-24800000D01*
X14000000Y-19700000D02*
X14000000Y-19500000D01*
X14000000Y-31500000D02*
X14000000Y-31400000D01*
X14000000Y-26200000D02*
X14000000Y-26000000D01*
X14000000Y-20700000D02*
X14000000Y-20500000D01*
X14000000Y-20300000D02*
X14000000Y-20200000D01*
X14000000Y-30000000D02*
X14000000Y-29900000D01*
X14000000Y-28300000D02*
X14000000Y-28200000D01*
X14000000Y-26300000D02*
X14000000Y-26200000D01*
X14000000Y-20000000D02*
X14000000Y-19900000D01*
X14000000Y-33300000D02*
X14000000Y-32900000D01*
X14000000Y-23200000D02*
X14000000Y-23000000D01*
X14000000Y-29700000D02*
X14000000Y-29500000D01*
X14000000Y-31700000D02*
X14000000Y-31500000D01*
X14000000Y-25500000D02*
X14000000Y-25400000D01*
X14000000Y-28000000D02*
X14000000Y-27900000D01*
X14000000Y-27000000D02*
X14000000Y-26900000D01*
X14000000Y-31400000D02*
X14000000Y-31300000D01*
X14000000Y-19800000D02*
X14000000Y-19700000D01*
X14000000Y-20800000D02*
X14000000Y-20700000D01*
X14000000Y-17700000D02*
X14000000Y-17600000D01*
X14000000Y-29500000D02*
X14000000Y-29400000D01*
X14000000Y-24300000D02*
X14000000Y-24200000D01*
X14000000Y-29000000D02*
X14000000Y-28900000D01*
X14000000Y-21400000D02*
X14000000Y-21300000D01*
X14000000Y-18500000D02*
X14000000Y-18400000D01*
X14000000Y-30700000D02*
X14000000Y-30500000D01*
X14000000Y-32000000D02*
X14000000Y-31900000D01*
X14000000Y-26500000D02*
X14000000Y-26400000D01*
X14000000Y-24800000D02*
X14000000Y-24700000D01*
X14000000Y-22900000D02*
X14000000Y-22800000D01*
X14000000Y-24700000D02*
X14000000Y-24500000D01*
X14000000Y-30200000D02*
X14000000Y-30000000D01*
X14000000Y-32400000D02*
X14000000Y-32300000D01*
X14000000Y-28700000D02*
X14000000Y-28500000D01*
X14000000Y-22800000D02*
X14000000Y-22700000D01*
X14000000Y-19400000D02*
X14000000Y-19300000D01*
X14000000Y-21200000D02*
X14000000Y-21000000D01*
X14000000Y-25400000D02*
X14000000Y-25300000D01*
X14000000Y-18000000D02*
X14000000Y-17900000D01*
X14000000Y-33400000D02*
X14000000Y-33300000D01*
X14000000Y-24200000D02*
X14000000Y-24000000D01*
X14000000Y-24000000D02*
X14000000Y-23900000D01*
X14000000Y-18200000D02*
X14000000Y-18100000D01*
X14000000Y-22200000D02*
X14000000Y-22000000D01*
X14000000Y-25800000D02*
X14000000Y-25700000D01*
X14000000Y-25200000D02*
X14000000Y-25000000D01*
X14000000Y-28200000D02*
X14000000Y-28000000D01*
X14000000Y-20900000D02*
X14000000Y-20800000D01*
X14000000Y-26800000D02*
X14000000Y-26700000D01*
X14000000Y-21800000D02*
X14000000Y-21700000D01*
X14000000Y-32300000D02*
X14000000Y-32000000D01*
X14000000Y-20400000D02*
X14000000Y-20300000D01*
X14000000Y-31000000D02*
X14000000Y-30900000D01*
X14000000Y-21700000D02*
X14000000Y-21500000D01*
X14000000Y-29900000D02*
X14000000Y-29800000D01*
X14000000Y-23700000D02*
X14000000Y-23500000D01*
X14000000Y-23000000D02*
X14000000Y-22900000D01*
X14000000Y-19200000D02*
X14000000Y-19000000D01*
X14000000Y-22500000D02*
X14000000Y-22400000D01*
X14000000Y-20200000D02*
X14000000Y-20000000D01*
X14000000Y-25300000D02*
X14000000Y-25200000D01*
X14000000Y-19900000D02*
X14000000Y-19800000D01*
X14000000Y-22300000D02*
X14000000Y-22200000D01*
X14000000Y-26900000D02*
X14000000Y-26800000D01*
X14000000Y-31300000D02*
X14000000Y-31200000D01*
X14000000Y-30800000D02*
X14000000Y-30700000D01*
X14000000Y-27700000D02*
X14000000Y-27500000D01*
X14000000Y-21300000D02*
X14000000Y-21200000D01*
X14000000Y-21900000D02*
X14000000Y-21800000D01*
X14000000Y-18700000D02*
X14000000Y-18600000D01*
X14000000Y-27800000D02*
X14000000Y-27700000D01*
X14000000Y-22700000D02*
X14000000Y-22500000D01*
X14000000Y-20500000D02*
X14000000Y-20400000D01*
X14000000Y-32900000D02*
X14000000Y-32800000D01*
X14000000Y-23300000D02*
X14000000Y-23200000D01*
X14000000Y-26700000D02*
X14000000Y-26500000D01*
X14000000Y-30300000D02*
X14000000Y-30200000D01*
X14000000Y-29400000D02*
X14000000Y-29300000D01*
X14000000Y-31800000D02*
X14000000Y-31700000D01*
X14000000Y-31900000D02*
X14000000Y-31800000D01*
X14000000Y-30400000D02*
X14000000Y-30300000D01*
%TO.N,ts*%
X15000000Y-34800000D02*
X15000000Y-34400000D01*
X15000000Y-33300000D02*
X15000000Y-32900000D01*
X15000000Y-34400000D02*
X15000000Y-34300000D01*
X15000000Y-33800000D02*
X15000000Y-33400000D01*
X15000000Y-32900000D02*
X15000000Y-32800000D01*
X10100000Y-34800000D02*
X10500000Y-34800000D01*
X10600000Y-34800000D02*
X11000000Y-34800000D01*
X15000000Y-31800000D02*
X15000000Y-31700000D01*
X12000000Y-34800000D02*
X12100000Y-34800000D01*
X15500000Y-29500000D02*
X15600000Y-29500000D01*
X9100000Y-34800000D02*
X9200000Y-34800000D01*
X15000000Y-29700000D02*
X15000000Y-29500000D01*
X15000000Y-29500000D02*
X15100000Y-29500000D01*
X11600000Y-34800000D02*
X12000000Y-34800000D01*
X15000000Y-31700000D02*
X15000000Y-31500000D01*
X15000000Y-32800000D02*
X15000000Y-32400000D01*
X15000000Y-29800000D02*
X15000000Y-29700000D01*
X15000000Y-32300000D02*
X15000000Y-32000000D01*
X10500000Y-34800000D02*
X10600000Y-34800000D01*
X15000000Y-32400000D02*
X15000000Y-32300000D01*
X9200000Y-34800000D02*
X9500000Y-34800000D01*
X15000000Y-31900000D02*
X15000000Y-31800000D01*
X15000000Y-31500000D02*
X15000000Y-31400000D01*
X9500000Y-34800000D02*
X9600000Y-34800000D01*
X15000000Y-29900000D02*
X15000000Y-29800000D01*
X12100000Y-34800000D02*
X12500000Y-34800000D01*
X8600000Y-34800000D02*
X8700000Y-34800000D01*
X15600000Y-29500000D02*
X15700000Y-29500000D01*
X9600000Y-34800000D02*
X10000000Y-34800000D01*
X13600000Y-34800000D02*
X14000000Y-34800000D01*
X14600000Y-34800000D02*
X15000000Y-34800000D01*
X8700000Y-34800000D02*
X9100000Y-34800000D01*
X8400000Y-34800000D02*
X8600000Y-34800000D01*
X15000000Y-30500000D02*
X15000000Y-30400000D01*
X13100000Y-34800000D02*
X13500000Y-34800000D01*
X15000000Y-30300000D02*
X15000000Y-30200000D01*
X10000000Y-34800000D02*
X10100000Y-34800000D01*
X15000000Y-30000000D02*
X15000000Y-29900000D01*
X14100000Y-34800000D02*
X14500000Y-34800000D01*
X15000000Y-34300000D02*
X15000000Y-33900000D01*
X15000000Y-32000000D02*
X15000000Y-31900000D01*
X15000000Y-30700000D02*
X15000000Y-30500000D01*
X13500000Y-34800000D02*
X13600000Y-34800000D01*
X15000000Y-31000000D02*
X15000000Y-30900000D01*
X15000000Y-30900000D02*
X15000000Y-30800000D01*
X15000000Y-33400000D02*
X15000000Y-33300000D01*
X14000000Y-34800000D02*
X14100000Y-34800000D01*
X15100000Y-29500000D02*
X15500000Y-29500000D01*
X14500000Y-34800000D02*
X14600000Y-34800000D01*
X15000000Y-31300000D02*
X15000000Y-31200000D01*
X11000000Y-34800000D02*
X11100000Y-34800000D01*
X15000000Y-31400000D02*
X15000000Y-31300000D01*
X11500000Y-34800000D02*
X11600000Y-34800000D01*
X12600000Y-34800000D02*
X13000000Y-34800000D01*
X15000000Y-30200000D02*
X15000000Y-30000000D01*
X15000000Y-30400000D02*
X15000000Y-30300000D01*
X15000000Y-31200000D02*
X15000000Y-31000000D01*
X13000000Y-34800000D02*
X13100000Y-34800000D01*
X12500000Y-34800000D02*
X12600000Y-34800000D01*
X15000000Y-33900000D02*
X15000000Y-33800000D01*
X15000000Y-30800000D02*
X15000000Y-30700000D01*
X11100000Y-34800000D02*
X11500000Y-34800000D01*
%TO.N,btn_up*%
X23000000Y-16600000D02*
X23200000Y-16600000D01*
X25700000Y-16600000D02*
X25800000Y-16600000D01*
X24700000Y-16600000D02*
X24800000Y-16600000D01*
X12600000Y-16200000D02*
X13000000Y-16200000D01*
X21500000Y-15200000D02*
X21500000Y-15500000D01*
X17900000Y-15200000D02*
X18000000Y-15200000D01*
X26700000Y-16600000D02*
X26800000Y-16600000D01*
X26000000Y-16600000D02*
X26200000Y-16600000D01*
X25500000Y-16600000D02*
X25700000Y-16600000D01*
X16400000Y-15200000D02*
X16500000Y-15200000D01*
X27500000Y-6200000D02*
X27700000Y-6200000D01*
X23400000Y-16600000D02*
X23500000Y-16600000D01*
X6700000Y-15200000D02*
X6800000Y-15200000D01*
X27300000Y-16600000D02*
X27400000Y-16600000D01*
X19000000Y-15200000D02*
X19200000Y-15200000D01*
X8600000Y-15200000D02*
X8700000Y-15200000D01*
X10500000Y-15200000D02*
X10600000Y-15200000D01*
X21000000Y-15200000D02*
X21200000Y-15200000D01*
X20700000Y-15200000D02*
X20800000Y-15200000D01*
X20200000Y-15200000D02*
X20300000Y-15200000D01*
X11700000Y-16200000D02*
X12000000Y-16200000D01*
X18400000Y-15200000D02*
X18500000Y-15200000D01*
X25800000Y-16600000D02*
X25900000Y-16600000D01*
X9200000Y-15200000D02*
X9500000Y-15200000D01*
X22800000Y-16600000D02*
X22900000Y-16600000D01*
X21700000Y-16600000D02*
X21800000Y-16600000D01*
X6800000Y-15200000D02*
X7000000Y-15200000D01*
X27500000Y-8600000D02*
X27500000Y-8200000D01*
X9600000Y-15200000D02*
X10000000Y-15200000D01*
X26500000Y-16600000D02*
X26700000Y-16600000D01*
X7300000Y-15200000D02*
X7500000Y-15200000D01*
X16000000Y-15200000D02*
X16100000Y-15200000D01*
X7100000Y-15200000D02*
X7200000Y-15200000D01*
X23700000Y-16600000D02*
X23800000Y-16600000D01*
X27500000Y-12100000D02*
X27500000Y-12000000D01*
X24500000Y-16600000D02*
X24700000Y-16600000D01*
X21300000Y-15200000D02*
X21400000Y-15200000D01*
X18700000Y-15200000D02*
X18900000Y-15200000D01*
X27500000Y-6600000D02*
X27500000Y-6500000D01*
X27700000Y-6200000D02*
X27800000Y-6200000D01*
X7200000Y-15200000D02*
X7300000Y-15200000D01*
X27500000Y-12500000D02*
X27500000Y-12100000D01*
X6600000Y-15200000D02*
X6700000Y-15200000D01*
X27500000Y-10000000D02*
X27500000Y-9600000D01*
X14700000Y-15600000D02*
X14700000Y-15500000D01*
X25900000Y-16600000D02*
X26000000Y-16600000D01*
X27500000Y-7700000D02*
X27500000Y-7600000D01*
X21200000Y-15200000D02*
X21300000Y-15200000D01*
X27500000Y-11500000D02*
X27500000Y-11100000D01*
X19200000Y-15200000D02*
X19300000Y-15200000D01*
X16200000Y-15200000D02*
X16400000Y-15200000D01*
X10600000Y-15200000D02*
X11000000Y-15200000D01*
X16600000Y-15200000D02*
X16700000Y-15200000D01*
X9500000Y-15200000D02*
X9600000Y-15200000D01*
X12100000Y-16200000D02*
X12500000Y-16200000D01*
X27500000Y-16400000D02*
X27500000Y-16200000D01*
X21900000Y-16600000D02*
X22000000Y-16600000D01*
X9100000Y-15200000D02*
X9200000Y-15200000D01*
X27500000Y-6300000D02*
X27500000Y-6200000D01*
X27500000Y-9500000D02*
X27500000Y-9200000D01*
X22900000Y-16600000D02*
X23000000Y-16600000D01*
X18000000Y-15200000D02*
X18100000Y-15200000D01*
X17200000Y-15200000D02*
X17400000Y-15200000D01*
X25000000Y-16600000D02*
X25200000Y-16600000D01*
X27500000Y-13000000D02*
X27500000Y-12600000D01*
X27500000Y-9600000D02*
X27500000Y-9500000D01*
X19900000Y-15200000D02*
X20000000Y-15200000D01*
X27200000Y-16600000D02*
X27300000Y-16600000D01*
X27500000Y-14100000D02*
X27500000Y-14000000D01*
X23200000Y-16600000D02*
X23300000Y-16600000D01*
X26400000Y-16600000D02*
X26500000Y-16600000D01*
X15600000Y-15200000D02*
X16000000Y-15200000D01*
X21500000Y-16600000D02*
X21700000Y-16600000D01*
X12000000Y-16200000D02*
X12100000Y-16200000D01*
X27500000Y-14000000D02*
X27500000Y-13600000D01*
X27500000Y-16200000D02*
X27500000Y-16100000D01*
X20400000Y-15200000D02*
X20500000Y-15200000D01*
X27500000Y-11100000D02*
X27500000Y-11000000D01*
X27500000Y-16000000D02*
X27500000Y-15600000D01*
X26800000Y-16600000D02*
X26900000Y-16600000D01*
X25300000Y-16600000D02*
X25400000Y-16600000D01*
X21500000Y-15500000D02*
X21500000Y-15600000D01*
X14000000Y-16200000D02*
X14100000Y-16200000D01*
X7000000Y-15200000D02*
X7100000Y-15200000D01*
X27500000Y-7800000D02*
X27500000Y-7700000D01*
X20500000Y-15200000D02*
X20700000Y-15200000D01*
X20900000Y-15200000D02*
X21000000Y-15200000D01*
X27500000Y-13500000D02*
X27500000Y-13100000D01*
X11600000Y-15200000D02*
X11700000Y-15200000D01*
X18500000Y-15200000D02*
X18600000Y-15200000D01*
X24300000Y-16600000D02*
X24400000Y-16600000D01*
X27500000Y-12600000D02*
X27500000Y-12500000D01*
X20800000Y-15200000D02*
X20900000Y-15200000D01*
X14700000Y-15200000D02*
X15000000Y-15200000D01*
X11100000Y-15200000D02*
X11500000Y-15200000D01*
X7600000Y-15200000D02*
X7700000Y-15200000D01*
X19300000Y-15200000D02*
X19400000Y-15200000D01*
X27500000Y-15600000D02*
X27500000Y-15500000D01*
X21500000Y-16500000D02*
X21500000Y-16600000D01*
X27500000Y-8100000D02*
X27500000Y-7800000D01*
X13600000Y-16200000D02*
X14000000Y-16200000D01*
X27500000Y-7100000D02*
X27500000Y-7000000D01*
X16100000Y-15200000D02*
X16200000Y-15200000D01*
X19800000Y-15200000D02*
X19900000Y-15200000D01*
X16700000Y-15200000D02*
X16900000Y-15200000D01*
X11700000Y-16000000D02*
X11700000Y-16100000D01*
X27500000Y-6800000D02*
X27500000Y-6700000D01*
X21500000Y-16200000D02*
X21500000Y-16400000D01*
X27500000Y-15100000D02*
X27500000Y-15000000D01*
X11000000Y-15200000D02*
X11100000Y-15200000D01*
X15000000Y-15200000D02*
X15100000Y-15200000D01*
X27500000Y-8700000D02*
X27500000Y-8600000D01*
X12500000Y-16200000D02*
X12600000Y-16200000D01*
X27500000Y-10500000D02*
X27500000Y-10100000D01*
X27500000Y-13100000D02*
X27500000Y-13000000D01*
X10000000Y-15200000D02*
X10100000Y-15200000D01*
X11700000Y-15500000D02*
X11700000Y-15600000D01*
X14700000Y-16100000D02*
X14700000Y-16000000D01*
X21500000Y-16100000D02*
X21500000Y-16200000D01*
X27500000Y-11000000D02*
X27500000Y-10600000D01*
X25200000Y-16600000D02*
X25300000Y-16600000D01*
X27500000Y-16600000D02*
X27500000Y-16500000D01*
X14700000Y-16200000D02*
X14700000Y-16100000D01*
X17700000Y-15200000D02*
X17900000Y-15200000D01*
X27500000Y-6500000D02*
X27500000Y-6300000D01*
X7500000Y-15200000D02*
X7600000Y-15200000D01*
X27400000Y-16600000D02*
X27500000Y-16600000D01*
X14700000Y-16000000D02*
X14700000Y-15600000D01*
X22500000Y-16600000D02*
X22700000Y-16600000D01*
X27000000Y-16600000D02*
X27200000Y-16600000D01*
X22700000Y-16600000D02*
X22800000Y-16600000D01*
X8200000Y-15200000D02*
X8600000Y-15200000D01*
X7700000Y-15200000D02*
X7800000Y-15200000D01*
X10100000Y-15200000D02*
X10500000Y-15200000D01*
X21500000Y-15600000D02*
X21500000Y-16000000D01*
X27500000Y-16500000D02*
X27500000Y-16400000D01*
X27500000Y-7300000D02*
X27500000Y-7200000D01*
X27500000Y-14600000D02*
X27500000Y-14500000D01*
X13100000Y-16200000D02*
X13500000Y-16200000D01*
X26900000Y-16600000D02*
X27000000Y-16600000D01*
X23800000Y-16600000D02*
X23900000Y-16600000D01*
X27500000Y-7200000D02*
X27500000Y-7100000D01*
X22200000Y-16600000D02*
X22300000Y-16600000D01*
X23300000Y-16600000D02*
X23400000Y-16600000D01*
X17600000Y-15200000D02*
X17700000Y-15200000D01*
X21500000Y-16000000D02*
X21500000Y-16100000D01*
X27500000Y-15000000D02*
X27500000Y-14600000D01*
X11500000Y-15200000D02*
X11600000Y-15200000D01*
X17500000Y-15200000D02*
X17600000Y-15200000D01*
X20300000Y-15200000D02*
X20400000Y-15200000D01*
X24800000Y-16600000D02*
X24900000Y-16600000D01*
X15500000Y-15200000D02*
X15600000Y-15200000D01*
X16900000Y-15200000D02*
X17000000Y-15200000D01*
X27500000Y-8200000D02*
X27500000Y-8100000D01*
X23500000Y-16600000D02*
X23700000Y-16600000D01*
X24900000Y-16600000D02*
X25000000Y-16600000D01*
X18100000Y-15200000D02*
X18200000Y-15200000D01*
X27500000Y-7000000D02*
X27500000Y-6800000D01*
X21400000Y-15200000D02*
X21500000Y-15200000D01*
X13000000Y-16200000D02*
X13100000Y-16200000D01*
X26300000Y-16600000D02*
X26400000Y-16600000D01*
X19400000Y-15200000D02*
X19500000Y-15200000D01*
X18900000Y-15200000D02*
X19000000Y-15200000D01*
X27500000Y-9100000D02*
X27500000Y-8700000D01*
X18200000Y-15200000D02*
X18400000Y-15200000D01*
X14600000Y-16200000D02*
X14700000Y-16200000D01*
X17400000Y-15200000D02*
X17500000Y-15200000D01*
X27500000Y-7500000D02*
X27500000Y-7300000D01*
X18600000Y-15200000D02*
X18700000Y-15200000D01*
X15100000Y-15200000D02*
X15500000Y-15200000D01*
X11700000Y-15600000D02*
X11700000Y-16000000D01*
X27500000Y-6700000D02*
X27500000Y-6600000D01*
X22000000Y-16600000D02*
X22200000Y-16600000D01*
X27500000Y-9200000D02*
X27500000Y-9100000D01*
X24400000Y-16600000D02*
X24500000Y-16600000D01*
X27500000Y-15500000D02*
X27500000Y-15100000D01*
X22400000Y-16600000D02*
X22500000Y-16600000D01*
X27500000Y-14500000D02*
X27500000Y-14100000D01*
X17000000Y-15200000D02*
X17100000Y-15200000D01*
X27500000Y-10600000D02*
X27500000Y-10500000D01*
X17100000Y-15200000D02*
X17200000Y-15200000D01*
X8100000Y-15200000D02*
X8200000Y-15200000D01*
X24200000Y-16600000D02*
X24300000Y-16600000D01*
X27500000Y-16100000D02*
X27500000Y-16000000D01*
X23900000Y-16600000D02*
X24000000Y-16600000D01*
X27500000Y-10100000D02*
X27500000Y-10000000D01*
X13500000Y-16200000D02*
X13600000Y-16200000D01*
X16500000Y-15200000D02*
X16600000Y-15200000D01*
X21800000Y-16600000D02*
X21900000Y-16600000D01*
X19700000Y-15200000D02*
X19800000Y-15200000D01*
X27500000Y-13600000D02*
X27500000Y-13500000D01*
X19500000Y-15200000D02*
X19700000Y-15200000D01*
X20000000Y-15200000D02*
X20200000Y-15200000D01*
X14100000Y-16200000D02*
X14500000Y-16200000D01*
X26200000Y-16600000D02*
X26300000Y-16600000D01*
X21500000Y-16400000D02*
X21500000Y-16500000D01*
X27500000Y-11600000D02*
X27500000Y-11500000D01*
X25400000Y-16600000D02*
X25500000Y-16600000D01*
X24000000Y-16600000D02*
X24200000Y-16600000D01*
X14500000Y-16200000D02*
X14600000Y-16200000D01*
X11700000Y-16100000D02*
X11700000Y-16200000D01*
X8700000Y-15200000D02*
X9100000Y-15200000D01*
X27500000Y-12000000D02*
X27500000Y-11600000D01*
X11700000Y-15200000D02*
X11700000Y-15500000D01*
X27500000Y-7600000D02*
X27500000Y-7500000D01*
X14700000Y-15500000D02*
X14700000Y-15200000D01*
X7800000Y-15200000D02*
X8100000Y-15200000D01*
X22300000Y-16600000D02*
X22400000Y-16600000D01*
%TD*%
M02*
